%TF.GenerationSoftware,KiCad,Pcbnew,7.0.7*%
%TF.CreationDate,2025-11-01T14:08:22+08:00*%
%TF.ProjectId,2144_LPF,32313434-5f4c-4504-962e-6b696361645f,rev?*%
%TF.SameCoordinates,Original*%
%TF.FileFunction,Drillmap*%
%TF.FilePolarity,Positive*%
%FSLAX45Y45*%
G04 Gerber Fmt 4.5, Leading zero omitted, Abs format (unit mm)*
G04 Created by KiCad (PCBNEW 7.0.7) date 2025-11-01 14:08:22*
%MOMM*%
%LPD*%
G01*
G04 APERTURE LIST*
%ADD10C,0.100000*%
%ADD11C,0.200000*%
%ADD12C,0.040000*%
%ADD13C,0.060000*%
%ADD14C,0.120000*%
%ADD15C,0.170000*%
G04 APERTURE END LIST*
D10*
X6644000Y-4600000D02*
X13356000Y-4600000D01*
X13356000Y-15400000D01*
X6644000Y-15400000D01*
X6644000Y-4600000D01*
D11*
D12*
X6874000Y-4830000D02*
X6914000Y-4870000D01*
X6914000Y-4830000D02*
X6874000Y-4870000D01*
X6874000Y-5974444D02*
X6914000Y-6014444D01*
X6914000Y-5974444D02*
X6874000Y-6014444D01*
X6874000Y-7118889D02*
X6914000Y-7158889D01*
X6914000Y-7118889D02*
X6874000Y-7158889D01*
X6874000Y-8263333D02*
X6914000Y-8303333D01*
X6914000Y-8263333D02*
X6874000Y-8303333D01*
X6874000Y-9407778D02*
X6914000Y-9447778D01*
X6914000Y-9407778D02*
X6874000Y-9447778D01*
X6874000Y-10552222D02*
X6914000Y-10592222D01*
X6914000Y-10552222D02*
X6874000Y-10592222D01*
X6874000Y-11696666D02*
X6914000Y-11736666D01*
X6914000Y-11696666D02*
X6874000Y-11736666D01*
X6874000Y-12841111D02*
X6914000Y-12881111D01*
X6914000Y-12841111D02*
X6874000Y-12881111D01*
X6874000Y-13985555D02*
X6914000Y-14025555D01*
X6914000Y-13985555D02*
X6874000Y-14025555D01*
X6874000Y-15130000D02*
X6914000Y-15170000D01*
X6914000Y-15130000D02*
X6874000Y-15170000D01*
X7600000Y-5415600D02*
X7640000Y-5455600D01*
X7640000Y-5415600D02*
X7600000Y-5455600D01*
X7828600Y-10419400D02*
X7868600Y-10459400D01*
X7868600Y-10419400D02*
X7828600Y-10459400D01*
X7879400Y-7041200D02*
X7919400Y-7081200D01*
X7919400Y-7041200D02*
X7879400Y-7081200D01*
X8116400Y-15130000D02*
X8156400Y-15170000D01*
X8156400Y-15130000D02*
X8116400Y-15170000D01*
X8158800Y-14077000D02*
X8198800Y-14117000D01*
X8198800Y-14077000D02*
X8158800Y-14117000D01*
X8285800Y-9454200D02*
X8325800Y-9494200D01*
X8325800Y-9454200D02*
X8285800Y-9494200D01*
X8311200Y-12680000D02*
X8351200Y-12720000D01*
X8351200Y-12680000D02*
X8311200Y-12720000D01*
X8793800Y-10800400D02*
X8833800Y-10840400D01*
X8833800Y-10800400D02*
X8793800Y-10840400D01*
X8946200Y-7346000D02*
X8986200Y-7386000D01*
X8986200Y-7346000D02*
X8946200Y-7386000D01*
X9200200Y-8895400D02*
X9240200Y-8935400D01*
X9240200Y-8895400D02*
X9200200Y-8935400D01*
X9352600Y-14331000D02*
X9392600Y-14371000D01*
X9392600Y-14331000D02*
X9352600Y-14371000D01*
X9358800Y-4830000D02*
X9398800Y-4870000D01*
X9398800Y-4830000D02*
X9358800Y-4870000D01*
X9358800Y-15130000D02*
X9398800Y-15170000D01*
X9398800Y-15130000D02*
X9358800Y-15170000D01*
X9606600Y-9962200D02*
X9646600Y-10002200D01*
X9646600Y-9962200D02*
X9606600Y-10002200D01*
X9632000Y-7574600D02*
X9672000Y-7614600D01*
X9672000Y-7574600D02*
X9632000Y-7614600D01*
X9632000Y-7930200D02*
X9672000Y-7970200D01*
X9672000Y-7930200D02*
X9632000Y-7970200D01*
X9886000Y-5339400D02*
X9926000Y-5379400D01*
X9926000Y-5339400D02*
X9886000Y-5379400D01*
X9987600Y-6533200D02*
X10027600Y-6573200D01*
X10027600Y-6533200D02*
X9987600Y-6573200D01*
X9987600Y-11765600D02*
X10027600Y-11805600D01*
X10027600Y-11765600D02*
X9987600Y-11805600D01*
X9987600Y-13162600D02*
X10027600Y-13202600D01*
X10027600Y-13162600D02*
X9987600Y-13202600D01*
X10495600Y-7879400D02*
X10535600Y-7919400D01*
X10535600Y-7879400D02*
X10495600Y-7919400D01*
X10571800Y-7092000D02*
X10611800Y-7132000D01*
X10611800Y-7092000D02*
X10571800Y-7132000D01*
X10601200Y-4830000D02*
X10641200Y-4870000D01*
X10641200Y-4830000D02*
X10601200Y-4870000D01*
X10601200Y-15130000D02*
X10641200Y-15170000D01*
X10641200Y-15130000D02*
X10601200Y-15170000D01*
X10927400Y-14051600D02*
X10967400Y-14091600D01*
X10967400Y-14051600D02*
X10927400Y-14091600D01*
X11079800Y-7092000D02*
X11119800Y-7132000D01*
X11119800Y-7092000D02*
X11079800Y-7132000D01*
X11460800Y-12197400D02*
X11500800Y-12237400D01*
X11500800Y-12197400D02*
X11460800Y-12237400D01*
X11587800Y-10292400D02*
X11627800Y-10332400D01*
X11627800Y-10292400D02*
X11587800Y-10332400D01*
X11843600Y-15130000D02*
X11883600Y-15170000D01*
X11883600Y-15130000D02*
X11843600Y-15170000D01*
X11943400Y-8108000D02*
X11983400Y-8148000D01*
X11983400Y-8108000D02*
X11943400Y-8148000D01*
X11943400Y-8412800D02*
X11983400Y-8452800D01*
X11983400Y-8412800D02*
X11943400Y-8452800D01*
X11994200Y-7117400D02*
X12034200Y-7157400D01*
X12034200Y-7117400D02*
X11994200Y-7157400D01*
X12146600Y-5491800D02*
X12186600Y-5531800D01*
X12186600Y-5491800D02*
X12146600Y-5531800D01*
X13086000Y-4830000D02*
X13126000Y-4870000D01*
X13126000Y-4830000D02*
X13086000Y-4870000D01*
X13086000Y-5974444D02*
X13126000Y-6014444D01*
X13126000Y-5974444D02*
X13086000Y-6014444D01*
X13086000Y-7118889D02*
X13126000Y-7158889D01*
X13126000Y-7118889D02*
X13086000Y-7158889D01*
X13086000Y-8263333D02*
X13126000Y-8303333D01*
X13126000Y-8263333D02*
X13086000Y-8303333D01*
X13086000Y-9407778D02*
X13126000Y-9447778D01*
X13126000Y-9407778D02*
X13086000Y-9447778D01*
X13086000Y-10552222D02*
X13126000Y-10592222D01*
X13126000Y-10552222D02*
X13086000Y-10592222D01*
X13086000Y-11696666D02*
X13126000Y-11736666D01*
X13126000Y-11696666D02*
X13086000Y-11736666D01*
X13086000Y-12841111D02*
X13126000Y-12881111D01*
X13126000Y-12841111D02*
X13086000Y-12881111D01*
X13086000Y-13985555D02*
X13126000Y-14025555D01*
X13126000Y-13985555D02*
X13086000Y-14025555D01*
X13086000Y-15130000D02*
X13126000Y-15170000D01*
X13126000Y-15130000D02*
X13086000Y-15170000D01*
D13*
X7513000Y-12308000D02*
G75*
G03*
X7513000Y-12308000I-30000J0D01*
G01*
D11*
X7433000Y-12338000D02*
X7533000Y-12338000D01*
X7533000Y-12338000D02*
G75*
G03*
X7533000Y-12278000I0J30000D01*
G01*
X7533000Y-12278000D02*
X7433000Y-12278000D01*
X7433000Y-12278000D02*
G75*
G03*
X7433000Y-12338000I0J-30000D01*
G01*
D13*
X7513000Y-13138000D02*
G75*
G03*
X7513000Y-13138000I-30000J0D01*
G01*
D11*
X7433000Y-13168000D02*
X7533000Y-13168000D01*
X7533000Y-13168000D02*
G75*
G03*
X7533000Y-13108000I0J30000D01*
G01*
X7533000Y-13108000D02*
X7433000Y-13108000D01*
X7433000Y-13108000D02*
G75*
G03*
X7433000Y-13168000I0J-30000D01*
G01*
D13*
X7513000Y-13448000D02*
G75*
G03*
X7513000Y-13448000I-30000J0D01*
G01*
D11*
X7433000Y-13478000D02*
X7533000Y-13478000D01*
X7533000Y-13478000D02*
G75*
G03*
X7533000Y-13418000I0J30000D01*
G01*
X7533000Y-13418000D02*
X7433000Y-13418000D01*
X7433000Y-13418000D02*
G75*
G03*
X7433000Y-13478000I0J-30000D01*
G01*
D13*
X9191000Y-12308000D02*
G75*
G03*
X9191000Y-12308000I-30000J0D01*
G01*
D11*
X9111000Y-12338000D02*
X9211000Y-12338000D01*
X9211000Y-12338000D02*
G75*
G03*
X9211000Y-12278000I0J30000D01*
G01*
X9211000Y-12278000D02*
X9111000Y-12278000D01*
X9111000Y-12278000D02*
G75*
G03*
X9111000Y-12338000I0J-30000D01*
G01*
D13*
X9191000Y-13138000D02*
G75*
G03*
X9191000Y-13138000I-30000J0D01*
G01*
D11*
X9111000Y-13168000D02*
X9211000Y-13168000D01*
X9211000Y-13168000D02*
G75*
G03*
X9211000Y-13108000I0J30000D01*
G01*
X9211000Y-13108000D02*
X9111000Y-13108000D01*
X9111000Y-13108000D02*
G75*
G03*
X9111000Y-13168000I0J-30000D01*
G01*
D13*
X9191000Y-13448000D02*
G75*
G03*
X9191000Y-13448000I-30000J0D01*
G01*
D11*
X9111000Y-13478000D02*
X9211000Y-13478000D01*
X9211000Y-13478000D02*
G75*
G03*
X9211000Y-13418000I0J30000D01*
G01*
X9211000Y-13418000D02*
X9111000Y-13418000D01*
X9111000Y-13418000D02*
G75*
G03*
X9111000Y-13478000I0J-30000D01*
G01*
D13*
X10869000Y-12308000D02*
G75*
G03*
X10869000Y-12308000I-30000J0D01*
G01*
D11*
X10789000Y-12338000D02*
X10889000Y-12338000D01*
X10889000Y-12338000D02*
G75*
G03*
X10889000Y-12278000I0J30000D01*
G01*
X10889000Y-12278000D02*
X10789000Y-12278000D01*
X10789000Y-12278000D02*
G75*
G03*
X10789000Y-12338000I0J-30000D01*
G01*
D13*
X10869000Y-13138000D02*
G75*
G03*
X10869000Y-13138000I-30000J0D01*
G01*
D11*
X10789000Y-13168000D02*
X10889000Y-13168000D01*
X10889000Y-13168000D02*
G75*
G03*
X10889000Y-13108000I0J30000D01*
G01*
X10889000Y-13108000D02*
X10789000Y-13108000D01*
X10789000Y-13108000D02*
G75*
G03*
X10789000Y-13168000I0J-30000D01*
G01*
D13*
X10869000Y-13448000D02*
G75*
G03*
X10869000Y-13448000I-30000J0D01*
G01*
D11*
X10789000Y-13478000D02*
X10889000Y-13478000D01*
X10889000Y-13478000D02*
G75*
G03*
X10889000Y-13418000I0J30000D01*
G01*
X10889000Y-13418000D02*
X10789000Y-13418000D01*
X10789000Y-13418000D02*
G75*
G03*
X10789000Y-13478000I0J-30000D01*
G01*
D13*
X12547000Y-12308000D02*
G75*
G03*
X12547000Y-12308000I-30000J0D01*
G01*
D11*
X12467000Y-12338000D02*
X12567000Y-12338000D01*
X12567000Y-12338000D02*
G75*
G03*
X12567000Y-12278000I0J30000D01*
G01*
X12567000Y-12278000D02*
X12467000Y-12278000D01*
X12467000Y-12278000D02*
G75*
G03*
X12467000Y-12338000I0J-30000D01*
G01*
D13*
X12547000Y-13138000D02*
G75*
G03*
X12547000Y-13138000I-30000J0D01*
G01*
D11*
X12467000Y-13168000D02*
X12567000Y-13168000D01*
X12567000Y-13168000D02*
G75*
G03*
X12567000Y-13108000I0J30000D01*
G01*
X12567000Y-13108000D02*
X12467000Y-13108000D01*
X12467000Y-13108000D02*
G75*
G03*
X12467000Y-13168000I0J-30000D01*
G01*
D13*
X12547000Y-13448000D02*
G75*
G03*
X12547000Y-13448000I-30000J0D01*
G01*
D11*
X12467000Y-13478000D02*
X12567000Y-13478000D01*
X12567000Y-13478000D02*
G75*
G03*
X12567000Y-13418000I0J30000D01*
G01*
X12567000Y-13418000D02*
X12467000Y-13418000D01*
X12467000Y-13418000D02*
G75*
G03*
X12467000Y-13478000I0J-30000D01*
G01*
D13*
X12547000Y-13908000D02*
G75*
G03*
X12547000Y-13908000I-30000J0D01*
G01*
D11*
X12467000Y-13938000D02*
X12567000Y-13938000D01*
X12567000Y-13938000D02*
G75*
G03*
X12567000Y-13878000I0J30000D01*
G01*
X12567000Y-13878000D02*
X12467000Y-13878000D01*
X12467000Y-13878000D02*
G75*
G03*
X12467000Y-13938000I0J-30000D01*
G01*
D13*
X12547000Y-14738000D02*
G75*
G03*
X12547000Y-14738000I-30000J0D01*
G01*
D11*
X12467000Y-14768000D02*
X12567000Y-14768000D01*
X12567000Y-14768000D02*
G75*
G03*
X12567000Y-14708000I0J30000D01*
G01*
X12567000Y-14708000D02*
X12467000Y-14708000D01*
X12467000Y-14708000D02*
G75*
G03*
X12467000Y-14768000I0J-30000D01*
G01*
D13*
X12547000Y-15048000D02*
G75*
G03*
X12547000Y-15048000I-30000J0D01*
G01*
D11*
X12467000Y-15078000D02*
X12567000Y-15078000D01*
X12567000Y-15078000D02*
G75*
G03*
X12567000Y-15018000I0J30000D01*
G01*
X12567000Y-15018000D02*
X12467000Y-15018000D01*
X12467000Y-15018000D02*
G75*
G03*
X12467000Y-15078000I0J-30000D01*
G01*
D10*
X8195000Y-7750000D02*
X8195000Y-7850000D01*
X8145000Y-7800000D02*
X8245000Y-7800000D01*
X8195000Y-8004000D02*
X8195000Y-8104000D01*
X8145000Y-8054000D02*
X8245000Y-8054000D01*
X8195000Y-8258000D02*
X8195000Y-8358000D01*
X8145000Y-8308000D02*
X8245000Y-8308000D01*
X8195000Y-8512000D02*
X8195000Y-8612000D01*
X8145000Y-8562000D02*
X8245000Y-8562000D01*
X8195000Y-8766000D02*
X8195000Y-8866000D01*
X8145000Y-8816000D02*
X8245000Y-8816000D01*
X8449000Y-7750000D02*
X8449000Y-7850000D01*
X8399000Y-7800000D02*
X8499000Y-7800000D01*
X8449000Y-8004000D02*
X8449000Y-8104000D01*
X8399000Y-8054000D02*
X8499000Y-8054000D01*
X8449000Y-8258000D02*
X8449000Y-8358000D01*
X8399000Y-8308000D02*
X8499000Y-8308000D01*
X8449000Y-8512000D02*
X8449000Y-8612000D01*
X8399000Y-8562000D02*
X8499000Y-8562000D01*
X8449000Y-8766000D02*
X8449000Y-8866000D01*
X8399000Y-8816000D02*
X8499000Y-8816000D01*
X10083800Y-7722400D02*
X10083800Y-7822400D01*
X10033800Y-7772400D02*
X10133800Y-7772400D01*
X10083800Y-7976400D02*
X10083800Y-8076400D01*
X10033800Y-8026400D02*
X10133800Y-8026400D01*
X10083800Y-8230400D02*
X10083800Y-8330400D01*
X10033800Y-8280400D02*
X10133800Y-8280400D01*
X10083800Y-8484400D02*
X10083800Y-8584400D01*
X10033800Y-8534400D02*
X10133800Y-8534400D01*
X10083800Y-8738400D02*
X10083800Y-8838400D01*
X10033800Y-8788400D02*
X10133800Y-8788400D01*
X10083800Y-8992400D02*
X10083800Y-9092400D01*
X10033800Y-9042400D02*
X10133800Y-9042400D01*
X10083800Y-9246400D02*
X10083800Y-9346400D01*
X10033800Y-9296400D02*
X10133800Y-9296400D01*
X10083800Y-9500400D02*
X10083800Y-9600400D01*
X10033800Y-9550400D02*
X10133800Y-9550400D01*
X11607800Y-7722400D02*
X11607800Y-7822400D01*
X11557800Y-7772400D02*
X11657800Y-7772400D01*
X11607800Y-7976400D02*
X11607800Y-8076400D01*
X11557800Y-8026400D02*
X11657800Y-8026400D01*
X11607800Y-8230400D02*
X11607800Y-8330400D01*
X11557800Y-8280400D02*
X11657800Y-8280400D01*
X11607800Y-8484400D02*
X11607800Y-8584400D01*
X11557800Y-8534400D02*
X11657800Y-8534400D01*
X11607800Y-8738400D02*
X11607800Y-8838400D01*
X11557800Y-8788400D02*
X11657800Y-8788400D01*
X11607800Y-8992400D02*
X11607800Y-9092400D01*
X11557800Y-9042400D02*
X11657800Y-9042400D01*
X11607800Y-9246400D02*
X11607800Y-9346400D01*
X11557800Y-9296400D02*
X11657800Y-9296400D01*
X11607800Y-9500400D02*
X11607800Y-9600400D01*
X11557800Y-9550400D02*
X11657800Y-9550400D01*
D14*
X7350427Y-5992427D02*
X7350427Y-5907573D01*
X7265573Y-5907573D01*
X7265573Y-5992427D01*
X7350427Y-5992427D01*
X7700427Y-5992427D02*
X7700427Y-5907573D01*
X7615573Y-5907573D01*
X7615573Y-5992427D01*
X7700427Y-5992427D01*
X7700427Y-11842427D02*
X7700427Y-11757573D01*
X7615573Y-11757573D01*
X7615573Y-11842427D01*
X7700427Y-11842427D01*
X9028427Y-5992427D02*
X9028427Y-5907573D01*
X8943573Y-5907573D01*
X8943573Y-5992427D01*
X9028427Y-5992427D01*
X9378427Y-5992427D02*
X9378427Y-5907573D01*
X9293573Y-5907573D01*
X9293573Y-5992427D01*
X9378427Y-5992427D01*
X9378427Y-11842427D02*
X9378427Y-11757573D01*
X9293573Y-11757573D01*
X9293573Y-11842427D01*
X9378427Y-11842427D01*
X10706427Y-5992427D02*
X10706427Y-5907573D01*
X10621573Y-5907573D01*
X10621573Y-5992427D01*
X10706427Y-5992427D01*
X11056427Y-5992427D02*
X11056427Y-5907573D01*
X10971573Y-5907573D01*
X10971573Y-5992427D01*
X11056427Y-5992427D01*
X11056427Y-11842427D02*
X11056427Y-11757573D01*
X10971573Y-11757573D01*
X10971573Y-11842427D01*
X11056427Y-11842427D01*
X12384427Y-5992427D02*
X12384427Y-5907573D01*
X12299573Y-5907573D01*
X12299573Y-5992427D01*
X12384427Y-5992427D01*
X12734427Y-5992427D02*
X12734427Y-5907573D01*
X12649573Y-5907573D01*
X12649573Y-5992427D01*
X12734427Y-5992427D01*
X12734427Y-11842427D02*
X12734427Y-11757573D01*
X12649573Y-11757573D01*
X12649573Y-11842427D01*
X12734427Y-11842427D01*
D15*
X7063000Y-6450000D02*
X7148000Y-6365000D01*
X7063000Y-6280000D01*
X6978000Y-6365000D01*
X7063000Y-6450000D01*
X7063000Y-11470000D02*
X7148000Y-11385000D01*
X7063000Y-11300000D01*
X6978000Y-11385000D01*
X7063000Y-11470000D01*
X7903000Y-6570000D02*
X7988000Y-6485000D01*
X7903000Y-6400000D01*
X7818000Y-6485000D01*
X7903000Y-6570000D01*
X7903000Y-11350000D02*
X7988000Y-11265000D01*
X7903000Y-11180000D01*
X7818000Y-11265000D01*
X7903000Y-11350000D01*
X8741000Y-6450000D02*
X8826000Y-6365000D01*
X8741000Y-6280000D01*
X8656000Y-6365000D01*
X8741000Y-6450000D01*
X8741000Y-11470000D02*
X8826000Y-11385000D01*
X8741000Y-11300000D01*
X8656000Y-11385000D01*
X8741000Y-11470000D01*
X9581000Y-6570000D02*
X9666000Y-6485000D01*
X9581000Y-6400000D01*
X9496000Y-6485000D01*
X9581000Y-6570000D01*
X9581000Y-11350000D02*
X9666000Y-11265000D01*
X9581000Y-11180000D01*
X9496000Y-11265000D01*
X9581000Y-11350000D01*
X10419000Y-6450000D02*
X10504000Y-6365000D01*
X10419000Y-6280000D01*
X10334000Y-6365000D01*
X10419000Y-6450000D01*
X10419000Y-11470000D02*
X10504000Y-11385000D01*
X10419000Y-11300000D01*
X10334000Y-11385000D01*
X10419000Y-11470000D01*
X11259000Y-6570000D02*
X11344000Y-6485000D01*
X11259000Y-6400000D01*
X11174000Y-6485000D01*
X11259000Y-6570000D01*
X11259000Y-11350000D02*
X11344000Y-11265000D01*
X11259000Y-11180000D01*
X11174000Y-11265000D01*
X11259000Y-11350000D01*
X12097000Y-6450000D02*
X12182000Y-6365000D01*
X12097000Y-6280000D01*
X12012000Y-6365000D01*
X12097000Y-6450000D01*
X12097000Y-11470000D02*
X12182000Y-11385000D01*
X12097000Y-11300000D01*
X12012000Y-11385000D01*
X12097000Y-11470000D01*
X12937000Y-6570000D02*
X13022000Y-6485000D01*
X12937000Y-6400000D01*
X12852000Y-6485000D01*
X12937000Y-6570000D01*
X12937000Y-11350000D02*
X13022000Y-11265000D01*
X12937000Y-11180000D01*
X12852000Y-11265000D01*
X12937000Y-11350000D01*
D11*
X6899777Y-15716484D02*
X6899777Y-15516484D01*
X6899777Y-15516484D02*
X6947396Y-15516484D01*
X6947396Y-15516484D02*
X6975967Y-15526008D01*
X6975967Y-15526008D02*
X6995015Y-15545055D01*
X6995015Y-15545055D02*
X7004539Y-15564103D01*
X7004539Y-15564103D02*
X7014062Y-15602198D01*
X7014062Y-15602198D02*
X7014062Y-15630769D01*
X7014062Y-15630769D02*
X7004539Y-15668865D01*
X7004539Y-15668865D02*
X6995015Y-15687912D01*
X6995015Y-15687912D02*
X6975967Y-15706960D01*
X6975967Y-15706960D02*
X6947396Y-15716484D01*
X6947396Y-15716484D02*
X6899777Y-15716484D01*
X7099777Y-15716484D02*
X7099777Y-15583150D01*
X7099777Y-15621246D02*
X7109301Y-15602198D01*
X7109301Y-15602198D02*
X7118824Y-15592674D01*
X7118824Y-15592674D02*
X7137872Y-15583150D01*
X7137872Y-15583150D02*
X7156920Y-15583150D01*
X7223586Y-15716484D02*
X7223586Y-15583150D01*
X7223586Y-15516484D02*
X7214062Y-15526008D01*
X7214062Y-15526008D02*
X7223586Y-15535531D01*
X7223586Y-15535531D02*
X7233110Y-15526008D01*
X7233110Y-15526008D02*
X7223586Y-15516484D01*
X7223586Y-15516484D02*
X7223586Y-15535531D01*
X7347396Y-15716484D02*
X7328348Y-15706960D01*
X7328348Y-15706960D02*
X7318824Y-15687912D01*
X7318824Y-15687912D02*
X7318824Y-15516484D01*
X7452158Y-15716484D02*
X7433110Y-15706960D01*
X7433110Y-15706960D02*
X7423586Y-15687912D01*
X7423586Y-15687912D02*
X7423586Y-15516484D01*
X7680729Y-15716484D02*
X7680729Y-15516484D01*
X7680729Y-15516484D02*
X7747396Y-15659341D01*
X7747396Y-15659341D02*
X7814062Y-15516484D01*
X7814062Y-15516484D02*
X7814062Y-15716484D01*
X7995015Y-15716484D02*
X7995015Y-15611722D01*
X7995015Y-15611722D02*
X7985491Y-15592674D01*
X7985491Y-15592674D02*
X7966443Y-15583150D01*
X7966443Y-15583150D02*
X7928348Y-15583150D01*
X7928348Y-15583150D02*
X7909301Y-15592674D01*
X7995015Y-15706960D02*
X7975967Y-15716484D01*
X7975967Y-15716484D02*
X7928348Y-15716484D01*
X7928348Y-15716484D02*
X7909301Y-15706960D01*
X7909301Y-15706960D02*
X7899777Y-15687912D01*
X7899777Y-15687912D02*
X7899777Y-15668865D01*
X7899777Y-15668865D02*
X7909301Y-15649817D01*
X7909301Y-15649817D02*
X7928348Y-15640293D01*
X7928348Y-15640293D02*
X7975967Y-15640293D01*
X7975967Y-15640293D02*
X7995015Y-15630769D01*
X8090253Y-15583150D02*
X8090253Y-15783150D01*
X8090253Y-15592674D02*
X8109301Y-15583150D01*
X8109301Y-15583150D02*
X8147396Y-15583150D01*
X8147396Y-15583150D02*
X8166443Y-15592674D01*
X8166443Y-15592674D02*
X8175967Y-15602198D01*
X8175967Y-15602198D02*
X8185491Y-15621246D01*
X8185491Y-15621246D02*
X8185491Y-15678388D01*
X8185491Y-15678388D02*
X8175967Y-15697436D01*
X8175967Y-15697436D02*
X8166443Y-15706960D01*
X8166443Y-15706960D02*
X8147396Y-15716484D01*
X8147396Y-15716484D02*
X8109301Y-15716484D01*
X8109301Y-15716484D02*
X8090253Y-15706960D01*
X8271205Y-15697436D02*
X8280729Y-15706960D01*
X8280729Y-15706960D02*
X8271205Y-15716484D01*
X8271205Y-15716484D02*
X8261682Y-15706960D01*
X8261682Y-15706960D02*
X8271205Y-15697436D01*
X8271205Y-15697436D02*
X8271205Y-15716484D01*
X8271205Y-15592674D02*
X8280729Y-15602198D01*
X8280729Y-15602198D02*
X8271205Y-15611722D01*
X8271205Y-15611722D02*
X8261682Y-15602198D01*
X8261682Y-15602198D02*
X8271205Y-15592674D01*
X8271205Y-15592674D02*
X8271205Y-15611722D01*
D12*
X6599000Y-16025000D02*
X6639000Y-16065000D01*
X6639000Y-16025000D02*
X6599000Y-16065000D01*
D11*
X6937872Y-15936484D02*
X6956920Y-15936484D01*
X6956920Y-15936484D02*
X6975967Y-15946008D01*
X6975967Y-15946008D02*
X6985491Y-15955531D01*
X6985491Y-15955531D02*
X6995015Y-15974579D01*
X6995015Y-15974579D02*
X7004539Y-16012674D01*
X7004539Y-16012674D02*
X7004539Y-16060293D01*
X7004539Y-16060293D02*
X6995015Y-16098388D01*
X6995015Y-16098388D02*
X6985491Y-16117436D01*
X6985491Y-16117436D02*
X6975967Y-16126960D01*
X6975967Y-16126960D02*
X6956920Y-16136484D01*
X6956920Y-16136484D02*
X6937872Y-16136484D01*
X6937872Y-16136484D02*
X6918824Y-16126960D01*
X6918824Y-16126960D02*
X6909301Y-16117436D01*
X6909301Y-16117436D02*
X6899777Y-16098388D01*
X6899777Y-16098388D02*
X6890253Y-16060293D01*
X6890253Y-16060293D02*
X6890253Y-16012674D01*
X6890253Y-16012674D02*
X6899777Y-15974579D01*
X6899777Y-15974579D02*
X6909301Y-15955531D01*
X6909301Y-15955531D02*
X6918824Y-15946008D01*
X6918824Y-15946008D02*
X6937872Y-15936484D01*
X7090253Y-16117436D02*
X7099777Y-16126960D01*
X7099777Y-16126960D02*
X7090253Y-16136484D01*
X7090253Y-16136484D02*
X7080729Y-16126960D01*
X7080729Y-16126960D02*
X7090253Y-16117436D01*
X7090253Y-16117436D02*
X7090253Y-16136484D01*
X7271205Y-16003150D02*
X7271205Y-16136484D01*
X7223586Y-15926960D02*
X7175967Y-16069817D01*
X7175967Y-16069817D02*
X7299777Y-16069817D01*
X7414062Y-15936484D02*
X7433110Y-15936484D01*
X7433110Y-15936484D02*
X7452158Y-15946008D01*
X7452158Y-15946008D02*
X7461682Y-15955531D01*
X7461682Y-15955531D02*
X7471205Y-15974579D01*
X7471205Y-15974579D02*
X7480729Y-16012674D01*
X7480729Y-16012674D02*
X7480729Y-16060293D01*
X7480729Y-16060293D02*
X7471205Y-16098388D01*
X7471205Y-16098388D02*
X7461682Y-16117436D01*
X7461682Y-16117436D02*
X7452158Y-16126960D01*
X7452158Y-16126960D02*
X7433110Y-16136484D01*
X7433110Y-16136484D02*
X7414062Y-16136484D01*
X7414062Y-16136484D02*
X7395015Y-16126960D01*
X7395015Y-16126960D02*
X7385491Y-16117436D01*
X7385491Y-16117436D02*
X7375967Y-16098388D01*
X7375967Y-16098388D02*
X7366443Y-16060293D01*
X7366443Y-16060293D02*
X7366443Y-16012674D01*
X7366443Y-16012674D02*
X7375967Y-15974579D01*
X7375967Y-15974579D02*
X7385491Y-15955531D01*
X7385491Y-15955531D02*
X7395015Y-15946008D01*
X7395015Y-15946008D02*
X7414062Y-15936484D01*
X7604539Y-15936484D02*
X7623586Y-15936484D01*
X7623586Y-15936484D02*
X7642634Y-15946008D01*
X7642634Y-15946008D02*
X7652158Y-15955531D01*
X7652158Y-15955531D02*
X7661682Y-15974579D01*
X7661682Y-15974579D02*
X7671205Y-16012674D01*
X7671205Y-16012674D02*
X7671205Y-16060293D01*
X7671205Y-16060293D02*
X7661682Y-16098388D01*
X7661682Y-16098388D02*
X7652158Y-16117436D01*
X7652158Y-16117436D02*
X7642634Y-16126960D01*
X7642634Y-16126960D02*
X7623586Y-16136484D01*
X7623586Y-16136484D02*
X7604539Y-16136484D01*
X7604539Y-16136484D02*
X7585491Y-16126960D01*
X7585491Y-16126960D02*
X7575967Y-16117436D01*
X7575967Y-16117436D02*
X7566443Y-16098388D01*
X7566443Y-16098388D02*
X7556920Y-16060293D01*
X7556920Y-16060293D02*
X7556920Y-16012674D01*
X7556920Y-16012674D02*
X7566443Y-15974579D01*
X7566443Y-15974579D02*
X7575967Y-15955531D01*
X7575967Y-15955531D02*
X7585491Y-15946008D01*
X7585491Y-15946008D02*
X7604539Y-15936484D01*
X7756920Y-16136484D02*
X7756920Y-16003150D01*
X7756920Y-16022198D02*
X7766443Y-16012674D01*
X7766443Y-16012674D02*
X7785491Y-16003150D01*
X7785491Y-16003150D02*
X7814063Y-16003150D01*
X7814063Y-16003150D02*
X7833110Y-16012674D01*
X7833110Y-16012674D02*
X7842634Y-16031722D01*
X7842634Y-16031722D02*
X7842634Y-16136484D01*
X7842634Y-16031722D02*
X7852158Y-16012674D01*
X7852158Y-16012674D02*
X7871205Y-16003150D01*
X7871205Y-16003150D02*
X7899777Y-16003150D01*
X7899777Y-16003150D02*
X7918824Y-16012674D01*
X7918824Y-16012674D02*
X7928348Y-16031722D01*
X7928348Y-16031722D02*
X7928348Y-16136484D01*
X8023586Y-16136484D02*
X8023586Y-16003150D01*
X8023586Y-16022198D02*
X8033110Y-16012674D01*
X8033110Y-16012674D02*
X8052158Y-16003150D01*
X8052158Y-16003150D02*
X8080729Y-16003150D01*
X8080729Y-16003150D02*
X8099777Y-16012674D01*
X8099777Y-16012674D02*
X8109301Y-16031722D01*
X8109301Y-16031722D02*
X8109301Y-16136484D01*
X8109301Y-16031722D02*
X8118824Y-16012674D01*
X8118824Y-16012674D02*
X8137872Y-16003150D01*
X8137872Y-16003150D02*
X8166443Y-16003150D01*
X8166443Y-16003150D02*
X8185491Y-16012674D01*
X8185491Y-16012674D02*
X8195015Y-16031722D01*
X8195015Y-16031722D02*
X8195015Y-16136484D01*
X8585491Y-15926960D02*
X8414063Y-16184103D01*
X8842634Y-15936484D02*
X8861682Y-15936484D01*
X8861682Y-15936484D02*
X8880729Y-15946008D01*
X8880729Y-15946008D02*
X8890253Y-15955531D01*
X8890253Y-15955531D02*
X8899777Y-15974579D01*
X8899777Y-15974579D02*
X8909301Y-16012674D01*
X8909301Y-16012674D02*
X8909301Y-16060293D01*
X8909301Y-16060293D02*
X8899777Y-16098388D01*
X8899777Y-16098388D02*
X8890253Y-16117436D01*
X8890253Y-16117436D02*
X8880729Y-16126960D01*
X8880729Y-16126960D02*
X8861682Y-16136484D01*
X8861682Y-16136484D02*
X8842634Y-16136484D01*
X8842634Y-16136484D02*
X8823587Y-16126960D01*
X8823587Y-16126960D02*
X8814063Y-16117436D01*
X8814063Y-16117436D02*
X8804539Y-16098388D01*
X8804539Y-16098388D02*
X8795015Y-16060293D01*
X8795015Y-16060293D02*
X8795015Y-16012674D01*
X8795015Y-16012674D02*
X8804539Y-15974579D01*
X8804539Y-15974579D02*
X8814063Y-15955531D01*
X8814063Y-15955531D02*
X8823587Y-15946008D01*
X8823587Y-15946008D02*
X8842634Y-15936484D01*
X8995015Y-16117436D02*
X9004539Y-16126960D01*
X9004539Y-16126960D02*
X8995015Y-16136484D01*
X8995015Y-16136484D02*
X8985491Y-16126960D01*
X8985491Y-16126960D02*
X8995015Y-16117436D01*
X8995015Y-16117436D02*
X8995015Y-16136484D01*
X9128348Y-15936484D02*
X9147396Y-15936484D01*
X9147396Y-15936484D02*
X9166444Y-15946008D01*
X9166444Y-15946008D02*
X9175968Y-15955531D01*
X9175968Y-15955531D02*
X9185491Y-15974579D01*
X9185491Y-15974579D02*
X9195015Y-16012674D01*
X9195015Y-16012674D02*
X9195015Y-16060293D01*
X9195015Y-16060293D02*
X9185491Y-16098388D01*
X9185491Y-16098388D02*
X9175968Y-16117436D01*
X9175968Y-16117436D02*
X9166444Y-16126960D01*
X9166444Y-16126960D02*
X9147396Y-16136484D01*
X9147396Y-16136484D02*
X9128348Y-16136484D01*
X9128348Y-16136484D02*
X9109301Y-16126960D01*
X9109301Y-16126960D02*
X9099777Y-16117436D01*
X9099777Y-16117436D02*
X9090253Y-16098388D01*
X9090253Y-16098388D02*
X9080729Y-16060293D01*
X9080729Y-16060293D02*
X9080729Y-16012674D01*
X9080729Y-16012674D02*
X9090253Y-15974579D01*
X9090253Y-15974579D02*
X9099777Y-15955531D01*
X9099777Y-15955531D02*
X9109301Y-15946008D01*
X9109301Y-15946008D02*
X9128348Y-15936484D01*
X9385491Y-16136484D02*
X9271206Y-16136484D01*
X9328348Y-16136484D02*
X9328348Y-15936484D01*
X9328348Y-15936484D02*
X9309301Y-15965055D01*
X9309301Y-15965055D02*
X9290253Y-15984103D01*
X9290253Y-15984103D02*
X9271206Y-15993627D01*
X9566444Y-15936484D02*
X9471206Y-15936484D01*
X9471206Y-15936484D02*
X9461682Y-16031722D01*
X9461682Y-16031722D02*
X9471206Y-16022198D01*
X9471206Y-16022198D02*
X9490253Y-16012674D01*
X9490253Y-16012674D02*
X9537872Y-16012674D01*
X9537872Y-16012674D02*
X9556920Y-16022198D01*
X9556920Y-16022198D02*
X9566444Y-16031722D01*
X9566444Y-16031722D02*
X9575968Y-16050769D01*
X9575968Y-16050769D02*
X9575968Y-16098388D01*
X9575968Y-16098388D02*
X9566444Y-16117436D01*
X9566444Y-16117436D02*
X9556920Y-16126960D01*
X9556920Y-16126960D02*
X9537872Y-16136484D01*
X9537872Y-16136484D02*
X9490253Y-16136484D01*
X9490253Y-16136484D02*
X9471206Y-16126960D01*
X9471206Y-16126960D02*
X9461682Y-16117436D01*
X9642634Y-15936484D02*
X9775968Y-15936484D01*
X9775968Y-15936484D02*
X9690253Y-16136484D01*
X9842634Y-15936484D02*
X9842634Y-15974579D01*
X9918825Y-15936484D02*
X9918825Y-15974579D01*
X10214063Y-16212674D02*
X10204539Y-16203150D01*
X10204539Y-16203150D02*
X10185491Y-16174579D01*
X10185491Y-16174579D02*
X10175968Y-16155531D01*
X10175968Y-16155531D02*
X10166444Y-16126960D01*
X10166444Y-16126960D02*
X10156920Y-16079341D01*
X10156920Y-16079341D02*
X10156920Y-16041246D01*
X10156920Y-16041246D02*
X10166444Y-15993627D01*
X10166444Y-15993627D02*
X10175968Y-15965055D01*
X10175968Y-15965055D02*
X10185491Y-15946008D01*
X10185491Y-15946008D02*
X10204539Y-15917436D01*
X10204539Y-15917436D02*
X10214063Y-15907912D01*
X10385491Y-15936484D02*
X10290253Y-15936484D01*
X10290253Y-15936484D02*
X10280730Y-16031722D01*
X10280730Y-16031722D02*
X10290253Y-16022198D01*
X10290253Y-16022198D02*
X10309301Y-16012674D01*
X10309301Y-16012674D02*
X10356920Y-16012674D01*
X10356920Y-16012674D02*
X10375968Y-16022198D01*
X10375968Y-16022198D02*
X10385491Y-16031722D01*
X10385491Y-16031722D02*
X10395015Y-16050769D01*
X10395015Y-16050769D02*
X10395015Y-16098388D01*
X10395015Y-16098388D02*
X10385491Y-16117436D01*
X10385491Y-16117436D02*
X10375968Y-16126960D01*
X10375968Y-16126960D02*
X10356920Y-16136484D01*
X10356920Y-16136484D02*
X10309301Y-16136484D01*
X10309301Y-16136484D02*
X10290253Y-16126960D01*
X10290253Y-16126960D02*
X10280730Y-16117436D01*
X10461682Y-15936484D02*
X10585491Y-15936484D01*
X10585491Y-15936484D02*
X10518825Y-16012674D01*
X10518825Y-16012674D02*
X10547396Y-16012674D01*
X10547396Y-16012674D02*
X10566444Y-16022198D01*
X10566444Y-16022198D02*
X10575968Y-16031722D01*
X10575968Y-16031722D02*
X10585491Y-16050769D01*
X10585491Y-16050769D02*
X10585491Y-16098388D01*
X10585491Y-16098388D02*
X10575968Y-16117436D01*
X10575968Y-16117436D02*
X10566444Y-16126960D01*
X10566444Y-16126960D02*
X10547396Y-16136484D01*
X10547396Y-16136484D02*
X10490253Y-16136484D01*
X10490253Y-16136484D02*
X10471206Y-16126960D01*
X10471206Y-16126960D02*
X10461682Y-16117436D01*
X10823587Y-16136484D02*
X10823587Y-15936484D01*
X10909301Y-16136484D02*
X10909301Y-16031722D01*
X10909301Y-16031722D02*
X10899777Y-16012674D01*
X10899777Y-16012674D02*
X10880730Y-16003150D01*
X10880730Y-16003150D02*
X10852158Y-16003150D01*
X10852158Y-16003150D02*
X10833111Y-16012674D01*
X10833111Y-16012674D02*
X10823587Y-16022198D01*
X11033111Y-16136484D02*
X11014063Y-16126960D01*
X11014063Y-16126960D02*
X11004539Y-16117436D01*
X11004539Y-16117436D02*
X10995015Y-16098388D01*
X10995015Y-16098388D02*
X10995015Y-16041246D01*
X10995015Y-16041246D02*
X11004539Y-16022198D01*
X11004539Y-16022198D02*
X11014063Y-16012674D01*
X11014063Y-16012674D02*
X11033111Y-16003150D01*
X11033111Y-16003150D02*
X11061682Y-16003150D01*
X11061682Y-16003150D02*
X11080730Y-16012674D01*
X11080730Y-16012674D02*
X11090253Y-16022198D01*
X11090253Y-16022198D02*
X11099777Y-16041246D01*
X11099777Y-16041246D02*
X11099777Y-16098388D01*
X11099777Y-16098388D02*
X11090253Y-16117436D01*
X11090253Y-16117436D02*
X11080730Y-16126960D01*
X11080730Y-16126960D02*
X11061682Y-16136484D01*
X11061682Y-16136484D02*
X11033111Y-16136484D01*
X11214063Y-16136484D02*
X11195015Y-16126960D01*
X11195015Y-16126960D02*
X11185491Y-16107912D01*
X11185491Y-16107912D02*
X11185491Y-15936484D01*
X11366444Y-16126960D02*
X11347396Y-16136484D01*
X11347396Y-16136484D02*
X11309301Y-16136484D01*
X11309301Y-16136484D02*
X11290253Y-16126960D01*
X11290253Y-16126960D02*
X11280730Y-16107912D01*
X11280730Y-16107912D02*
X11280730Y-16031722D01*
X11280730Y-16031722D02*
X11290253Y-16012674D01*
X11290253Y-16012674D02*
X11309301Y-16003150D01*
X11309301Y-16003150D02*
X11347396Y-16003150D01*
X11347396Y-16003150D02*
X11366444Y-16012674D01*
X11366444Y-16012674D02*
X11375968Y-16031722D01*
X11375968Y-16031722D02*
X11375968Y-16050769D01*
X11375968Y-16050769D02*
X11280730Y-16069817D01*
X11452158Y-16126960D02*
X11471206Y-16136484D01*
X11471206Y-16136484D02*
X11509301Y-16136484D01*
X11509301Y-16136484D02*
X11528349Y-16126960D01*
X11528349Y-16126960D02*
X11537872Y-16107912D01*
X11537872Y-16107912D02*
X11537872Y-16098388D01*
X11537872Y-16098388D02*
X11528349Y-16079341D01*
X11528349Y-16079341D02*
X11509301Y-16069817D01*
X11509301Y-16069817D02*
X11480730Y-16069817D01*
X11480730Y-16069817D02*
X11461682Y-16060293D01*
X11461682Y-16060293D02*
X11452158Y-16041246D01*
X11452158Y-16041246D02*
X11452158Y-16031722D01*
X11452158Y-16031722D02*
X11461682Y-16012674D01*
X11461682Y-16012674D02*
X11480730Y-16003150D01*
X11480730Y-16003150D02*
X11509301Y-16003150D01*
X11509301Y-16003150D02*
X11528349Y-16012674D01*
X11604539Y-16212674D02*
X11614063Y-16203150D01*
X11614063Y-16203150D02*
X11633111Y-16174579D01*
X11633111Y-16174579D02*
X11642634Y-16155531D01*
X11642634Y-16155531D02*
X11652158Y-16126960D01*
X11652158Y-16126960D02*
X11661682Y-16079341D01*
X11661682Y-16079341D02*
X11661682Y-16041246D01*
X11661682Y-16041246D02*
X11652158Y-15993627D01*
X11652158Y-15993627D02*
X11642634Y-15965055D01*
X11642634Y-15965055D02*
X11633111Y-15946008D01*
X11633111Y-15946008D02*
X11614063Y-15917436D01*
X11614063Y-15917436D02*
X11604539Y-15907912D01*
D13*
X6639000Y-16309000D02*
G75*
G03*
X6639000Y-16309000I-30000J0D01*
G01*
D11*
X6937872Y-16200484D02*
X6956920Y-16200484D01*
X6956920Y-16200484D02*
X6975967Y-16210008D01*
X6975967Y-16210008D02*
X6985491Y-16219531D01*
X6985491Y-16219531D02*
X6995015Y-16238579D01*
X6995015Y-16238579D02*
X7004539Y-16276674D01*
X7004539Y-16276674D02*
X7004539Y-16324293D01*
X7004539Y-16324293D02*
X6995015Y-16362388D01*
X6995015Y-16362388D02*
X6985491Y-16381436D01*
X6985491Y-16381436D02*
X6975967Y-16390960D01*
X6975967Y-16390960D02*
X6956920Y-16400484D01*
X6956920Y-16400484D02*
X6937872Y-16400484D01*
X6937872Y-16400484D02*
X6918824Y-16390960D01*
X6918824Y-16390960D02*
X6909301Y-16381436D01*
X6909301Y-16381436D02*
X6899777Y-16362388D01*
X6899777Y-16362388D02*
X6890253Y-16324293D01*
X6890253Y-16324293D02*
X6890253Y-16276674D01*
X6890253Y-16276674D02*
X6899777Y-16238579D01*
X6899777Y-16238579D02*
X6909301Y-16219531D01*
X6909301Y-16219531D02*
X6918824Y-16210008D01*
X6918824Y-16210008D02*
X6937872Y-16200484D01*
X7090253Y-16381436D02*
X7099777Y-16390960D01*
X7099777Y-16390960D02*
X7090253Y-16400484D01*
X7090253Y-16400484D02*
X7080729Y-16390960D01*
X7080729Y-16390960D02*
X7090253Y-16381436D01*
X7090253Y-16381436D02*
X7090253Y-16400484D01*
X7271205Y-16200484D02*
X7233110Y-16200484D01*
X7233110Y-16200484D02*
X7214062Y-16210008D01*
X7214062Y-16210008D02*
X7204539Y-16219531D01*
X7204539Y-16219531D02*
X7185491Y-16248103D01*
X7185491Y-16248103D02*
X7175967Y-16286198D01*
X7175967Y-16286198D02*
X7175967Y-16362388D01*
X7175967Y-16362388D02*
X7185491Y-16381436D01*
X7185491Y-16381436D02*
X7195015Y-16390960D01*
X7195015Y-16390960D02*
X7214062Y-16400484D01*
X7214062Y-16400484D02*
X7252158Y-16400484D01*
X7252158Y-16400484D02*
X7271205Y-16390960D01*
X7271205Y-16390960D02*
X7280729Y-16381436D01*
X7280729Y-16381436D02*
X7290253Y-16362388D01*
X7290253Y-16362388D02*
X7290253Y-16314769D01*
X7290253Y-16314769D02*
X7280729Y-16295722D01*
X7280729Y-16295722D02*
X7271205Y-16286198D01*
X7271205Y-16286198D02*
X7252158Y-16276674D01*
X7252158Y-16276674D02*
X7214062Y-16276674D01*
X7214062Y-16276674D02*
X7195015Y-16286198D01*
X7195015Y-16286198D02*
X7185491Y-16295722D01*
X7185491Y-16295722D02*
X7175967Y-16314769D01*
X7414062Y-16200484D02*
X7433110Y-16200484D01*
X7433110Y-16200484D02*
X7452158Y-16210008D01*
X7452158Y-16210008D02*
X7461682Y-16219531D01*
X7461682Y-16219531D02*
X7471205Y-16238579D01*
X7471205Y-16238579D02*
X7480729Y-16276674D01*
X7480729Y-16276674D02*
X7480729Y-16324293D01*
X7480729Y-16324293D02*
X7471205Y-16362388D01*
X7471205Y-16362388D02*
X7461682Y-16381436D01*
X7461682Y-16381436D02*
X7452158Y-16390960D01*
X7452158Y-16390960D02*
X7433110Y-16400484D01*
X7433110Y-16400484D02*
X7414062Y-16400484D01*
X7414062Y-16400484D02*
X7395015Y-16390960D01*
X7395015Y-16390960D02*
X7385491Y-16381436D01*
X7385491Y-16381436D02*
X7375967Y-16362388D01*
X7375967Y-16362388D02*
X7366443Y-16324293D01*
X7366443Y-16324293D02*
X7366443Y-16276674D01*
X7366443Y-16276674D02*
X7375967Y-16238579D01*
X7375967Y-16238579D02*
X7385491Y-16219531D01*
X7385491Y-16219531D02*
X7395015Y-16210008D01*
X7395015Y-16210008D02*
X7414062Y-16200484D01*
X7604539Y-16200484D02*
X7623586Y-16200484D01*
X7623586Y-16200484D02*
X7642634Y-16210008D01*
X7642634Y-16210008D02*
X7652158Y-16219531D01*
X7652158Y-16219531D02*
X7661682Y-16238579D01*
X7661682Y-16238579D02*
X7671205Y-16276674D01*
X7671205Y-16276674D02*
X7671205Y-16324293D01*
X7671205Y-16324293D02*
X7661682Y-16362388D01*
X7661682Y-16362388D02*
X7652158Y-16381436D01*
X7652158Y-16381436D02*
X7642634Y-16390960D01*
X7642634Y-16390960D02*
X7623586Y-16400484D01*
X7623586Y-16400484D02*
X7604539Y-16400484D01*
X7604539Y-16400484D02*
X7585491Y-16390960D01*
X7585491Y-16390960D02*
X7575967Y-16381436D01*
X7575967Y-16381436D02*
X7566443Y-16362388D01*
X7566443Y-16362388D02*
X7556920Y-16324293D01*
X7556920Y-16324293D02*
X7556920Y-16276674D01*
X7556920Y-16276674D02*
X7566443Y-16238579D01*
X7566443Y-16238579D02*
X7575967Y-16219531D01*
X7575967Y-16219531D02*
X7585491Y-16210008D01*
X7585491Y-16210008D02*
X7604539Y-16200484D01*
X7756920Y-16400484D02*
X7756920Y-16267150D01*
X7756920Y-16286198D02*
X7766443Y-16276674D01*
X7766443Y-16276674D02*
X7785491Y-16267150D01*
X7785491Y-16267150D02*
X7814063Y-16267150D01*
X7814063Y-16267150D02*
X7833110Y-16276674D01*
X7833110Y-16276674D02*
X7842634Y-16295722D01*
X7842634Y-16295722D02*
X7842634Y-16400484D01*
X7842634Y-16295722D02*
X7852158Y-16276674D01*
X7852158Y-16276674D02*
X7871205Y-16267150D01*
X7871205Y-16267150D02*
X7899777Y-16267150D01*
X7899777Y-16267150D02*
X7918824Y-16276674D01*
X7918824Y-16276674D02*
X7928348Y-16295722D01*
X7928348Y-16295722D02*
X7928348Y-16400484D01*
X8023586Y-16400484D02*
X8023586Y-16267150D01*
X8023586Y-16286198D02*
X8033110Y-16276674D01*
X8033110Y-16276674D02*
X8052158Y-16267150D01*
X8052158Y-16267150D02*
X8080729Y-16267150D01*
X8080729Y-16267150D02*
X8099777Y-16276674D01*
X8099777Y-16276674D02*
X8109301Y-16295722D01*
X8109301Y-16295722D02*
X8109301Y-16400484D01*
X8109301Y-16295722D02*
X8118824Y-16276674D01*
X8118824Y-16276674D02*
X8137872Y-16267150D01*
X8137872Y-16267150D02*
X8166443Y-16267150D01*
X8166443Y-16267150D02*
X8185491Y-16276674D01*
X8185491Y-16276674D02*
X8195015Y-16295722D01*
X8195015Y-16295722D02*
X8195015Y-16400484D01*
X8585491Y-16190960D02*
X8414063Y-16448103D01*
X8842634Y-16200484D02*
X8861682Y-16200484D01*
X8861682Y-16200484D02*
X8880729Y-16210008D01*
X8880729Y-16210008D02*
X8890253Y-16219531D01*
X8890253Y-16219531D02*
X8899777Y-16238579D01*
X8899777Y-16238579D02*
X8909301Y-16276674D01*
X8909301Y-16276674D02*
X8909301Y-16324293D01*
X8909301Y-16324293D02*
X8899777Y-16362388D01*
X8899777Y-16362388D02*
X8890253Y-16381436D01*
X8890253Y-16381436D02*
X8880729Y-16390960D01*
X8880729Y-16390960D02*
X8861682Y-16400484D01*
X8861682Y-16400484D02*
X8842634Y-16400484D01*
X8842634Y-16400484D02*
X8823587Y-16390960D01*
X8823587Y-16390960D02*
X8814063Y-16381436D01*
X8814063Y-16381436D02*
X8804539Y-16362388D01*
X8804539Y-16362388D02*
X8795015Y-16324293D01*
X8795015Y-16324293D02*
X8795015Y-16276674D01*
X8795015Y-16276674D02*
X8804539Y-16238579D01*
X8804539Y-16238579D02*
X8814063Y-16219531D01*
X8814063Y-16219531D02*
X8823587Y-16210008D01*
X8823587Y-16210008D02*
X8842634Y-16200484D01*
X8995015Y-16381436D02*
X9004539Y-16390960D01*
X9004539Y-16390960D02*
X8995015Y-16400484D01*
X8995015Y-16400484D02*
X8985491Y-16390960D01*
X8985491Y-16390960D02*
X8995015Y-16381436D01*
X8995015Y-16381436D02*
X8995015Y-16400484D01*
X9128348Y-16200484D02*
X9147396Y-16200484D01*
X9147396Y-16200484D02*
X9166444Y-16210008D01*
X9166444Y-16210008D02*
X9175968Y-16219531D01*
X9175968Y-16219531D02*
X9185491Y-16238579D01*
X9185491Y-16238579D02*
X9195015Y-16276674D01*
X9195015Y-16276674D02*
X9195015Y-16324293D01*
X9195015Y-16324293D02*
X9185491Y-16362388D01*
X9185491Y-16362388D02*
X9175968Y-16381436D01*
X9175968Y-16381436D02*
X9166444Y-16390960D01*
X9166444Y-16390960D02*
X9147396Y-16400484D01*
X9147396Y-16400484D02*
X9128348Y-16400484D01*
X9128348Y-16400484D02*
X9109301Y-16390960D01*
X9109301Y-16390960D02*
X9099777Y-16381436D01*
X9099777Y-16381436D02*
X9090253Y-16362388D01*
X9090253Y-16362388D02*
X9080729Y-16324293D01*
X9080729Y-16324293D02*
X9080729Y-16276674D01*
X9080729Y-16276674D02*
X9090253Y-16238579D01*
X9090253Y-16238579D02*
X9099777Y-16219531D01*
X9099777Y-16219531D02*
X9109301Y-16210008D01*
X9109301Y-16210008D02*
X9128348Y-16200484D01*
X9271206Y-16219531D02*
X9280729Y-16210008D01*
X9280729Y-16210008D02*
X9299777Y-16200484D01*
X9299777Y-16200484D02*
X9347396Y-16200484D01*
X9347396Y-16200484D02*
X9366444Y-16210008D01*
X9366444Y-16210008D02*
X9375968Y-16219531D01*
X9375968Y-16219531D02*
X9385491Y-16238579D01*
X9385491Y-16238579D02*
X9385491Y-16257627D01*
X9385491Y-16257627D02*
X9375968Y-16286198D01*
X9375968Y-16286198D02*
X9261682Y-16400484D01*
X9261682Y-16400484D02*
X9385491Y-16400484D01*
X9452158Y-16200484D02*
X9575968Y-16200484D01*
X9575968Y-16200484D02*
X9509301Y-16276674D01*
X9509301Y-16276674D02*
X9537872Y-16276674D01*
X9537872Y-16276674D02*
X9556920Y-16286198D01*
X9556920Y-16286198D02*
X9566444Y-16295722D01*
X9566444Y-16295722D02*
X9575968Y-16314769D01*
X9575968Y-16314769D02*
X9575968Y-16362388D01*
X9575968Y-16362388D02*
X9566444Y-16381436D01*
X9566444Y-16381436D02*
X9556920Y-16390960D01*
X9556920Y-16390960D02*
X9537872Y-16400484D01*
X9537872Y-16400484D02*
X9480729Y-16400484D01*
X9480729Y-16400484D02*
X9461682Y-16390960D01*
X9461682Y-16390960D02*
X9452158Y-16381436D01*
X9747396Y-16200484D02*
X9709301Y-16200484D01*
X9709301Y-16200484D02*
X9690253Y-16210008D01*
X9690253Y-16210008D02*
X9680729Y-16219531D01*
X9680729Y-16219531D02*
X9661682Y-16248103D01*
X9661682Y-16248103D02*
X9652158Y-16286198D01*
X9652158Y-16286198D02*
X9652158Y-16362388D01*
X9652158Y-16362388D02*
X9661682Y-16381436D01*
X9661682Y-16381436D02*
X9671206Y-16390960D01*
X9671206Y-16390960D02*
X9690253Y-16400484D01*
X9690253Y-16400484D02*
X9728349Y-16400484D01*
X9728349Y-16400484D02*
X9747396Y-16390960D01*
X9747396Y-16390960D02*
X9756920Y-16381436D01*
X9756920Y-16381436D02*
X9766444Y-16362388D01*
X9766444Y-16362388D02*
X9766444Y-16314769D01*
X9766444Y-16314769D02*
X9756920Y-16295722D01*
X9756920Y-16295722D02*
X9747396Y-16286198D01*
X9747396Y-16286198D02*
X9728349Y-16276674D01*
X9728349Y-16276674D02*
X9690253Y-16276674D01*
X9690253Y-16276674D02*
X9671206Y-16286198D01*
X9671206Y-16286198D02*
X9661682Y-16295722D01*
X9661682Y-16295722D02*
X9652158Y-16314769D01*
X9842634Y-16200484D02*
X9842634Y-16238579D01*
X9918825Y-16200484D02*
X9918825Y-16238579D01*
X10214063Y-16476674D02*
X10204539Y-16467150D01*
X10204539Y-16467150D02*
X10185491Y-16438579D01*
X10185491Y-16438579D02*
X10175968Y-16419531D01*
X10175968Y-16419531D02*
X10166444Y-16390960D01*
X10166444Y-16390960D02*
X10156920Y-16343341D01*
X10156920Y-16343341D02*
X10156920Y-16305246D01*
X10156920Y-16305246D02*
X10166444Y-16257627D01*
X10166444Y-16257627D02*
X10175968Y-16229055D01*
X10175968Y-16229055D02*
X10185491Y-16210008D01*
X10185491Y-16210008D02*
X10204539Y-16181436D01*
X10204539Y-16181436D02*
X10214063Y-16171912D01*
X10328349Y-16200484D02*
X10347396Y-16200484D01*
X10347396Y-16200484D02*
X10366444Y-16210008D01*
X10366444Y-16210008D02*
X10375968Y-16219531D01*
X10375968Y-16219531D02*
X10385491Y-16238579D01*
X10385491Y-16238579D02*
X10395015Y-16276674D01*
X10395015Y-16276674D02*
X10395015Y-16324293D01*
X10395015Y-16324293D02*
X10385491Y-16362388D01*
X10385491Y-16362388D02*
X10375968Y-16381436D01*
X10375968Y-16381436D02*
X10366444Y-16390960D01*
X10366444Y-16390960D02*
X10347396Y-16400484D01*
X10347396Y-16400484D02*
X10328349Y-16400484D01*
X10328349Y-16400484D02*
X10309301Y-16390960D01*
X10309301Y-16390960D02*
X10299777Y-16381436D01*
X10299777Y-16381436D02*
X10290253Y-16362388D01*
X10290253Y-16362388D02*
X10280730Y-16324293D01*
X10280730Y-16324293D02*
X10280730Y-16276674D01*
X10280730Y-16276674D02*
X10290253Y-16238579D01*
X10290253Y-16238579D02*
X10299777Y-16219531D01*
X10299777Y-16219531D02*
X10309301Y-16210008D01*
X10309301Y-16210008D02*
X10328349Y-16200484D01*
X10633111Y-16400484D02*
X10633111Y-16200484D01*
X10718825Y-16400484D02*
X10718825Y-16295722D01*
X10718825Y-16295722D02*
X10709301Y-16276674D01*
X10709301Y-16276674D02*
X10690253Y-16267150D01*
X10690253Y-16267150D02*
X10661682Y-16267150D01*
X10661682Y-16267150D02*
X10642634Y-16276674D01*
X10642634Y-16276674D02*
X10633111Y-16286198D01*
X10842634Y-16400484D02*
X10823587Y-16390960D01*
X10823587Y-16390960D02*
X10814063Y-16381436D01*
X10814063Y-16381436D02*
X10804539Y-16362388D01*
X10804539Y-16362388D02*
X10804539Y-16305246D01*
X10804539Y-16305246D02*
X10814063Y-16286198D01*
X10814063Y-16286198D02*
X10823587Y-16276674D01*
X10823587Y-16276674D02*
X10842634Y-16267150D01*
X10842634Y-16267150D02*
X10871206Y-16267150D01*
X10871206Y-16267150D02*
X10890253Y-16276674D01*
X10890253Y-16276674D02*
X10899777Y-16286198D01*
X10899777Y-16286198D02*
X10909301Y-16305246D01*
X10909301Y-16305246D02*
X10909301Y-16362388D01*
X10909301Y-16362388D02*
X10899777Y-16381436D01*
X10899777Y-16381436D02*
X10890253Y-16390960D01*
X10890253Y-16390960D02*
X10871206Y-16400484D01*
X10871206Y-16400484D02*
X10842634Y-16400484D01*
X11023587Y-16400484D02*
X11004539Y-16390960D01*
X11004539Y-16390960D02*
X10995015Y-16371912D01*
X10995015Y-16371912D02*
X10995015Y-16200484D01*
X11175968Y-16390960D02*
X11156920Y-16400484D01*
X11156920Y-16400484D02*
X11118825Y-16400484D01*
X11118825Y-16400484D02*
X11099777Y-16390960D01*
X11099777Y-16390960D02*
X11090253Y-16371912D01*
X11090253Y-16371912D02*
X11090253Y-16295722D01*
X11090253Y-16295722D02*
X11099777Y-16276674D01*
X11099777Y-16276674D02*
X11118825Y-16267150D01*
X11118825Y-16267150D02*
X11156920Y-16267150D01*
X11156920Y-16267150D02*
X11175968Y-16276674D01*
X11175968Y-16276674D02*
X11185491Y-16295722D01*
X11185491Y-16295722D02*
X11185491Y-16314769D01*
X11185491Y-16314769D02*
X11090253Y-16333817D01*
X11261682Y-16390960D02*
X11280730Y-16400484D01*
X11280730Y-16400484D02*
X11318825Y-16400484D01*
X11318825Y-16400484D02*
X11337872Y-16390960D01*
X11337872Y-16390960D02*
X11347396Y-16371912D01*
X11347396Y-16371912D02*
X11347396Y-16362388D01*
X11347396Y-16362388D02*
X11337872Y-16343341D01*
X11337872Y-16343341D02*
X11318825Y-16333817D01*
X11318825Y-16333817D02*
X11290253Y-16333817D01*
X11290253Y-16333817D02*
X11271206Y-16324293D01*
X11271206Y-16324293D02*
X11261682Y-16305246D01*
X11261682Y-16305246D02*
X11261682Y-16295722D01*
X11261682Y-16295722D02*
X11271206Y-16276674D01*
X11271206Y-16276674D02*
X11290253Y-16267150D01*
X11290253Y-16267150D02*
X11318825Y-16267150D01*
X11318825Y-16267150D02*
X11337872Y-16276674D01*
X11585492Y-16324293D02*
X11737873Y-16324293D01*
X11661682Y-16400484D02*
X11661682Y-16248103D01*
X12090253Y-16400484D02*
X11975968Y-16400484D01*
X12033111Y-16400484D02*
X12033111Y-16200484D01*
X12033111Y-16200484D02*
X12014063Y-16229055D01*
X12014063Y-16229055D02*
X11995015Y-16248103D01*
X11995015Y-16248103D02*
X11975968Y-16257627D01*
X12271206Y-16200484D02*
X12175968Y-16200484D01*
X12175968Y-16200484D02*
X12166444Y-16295722D01*
X12166444Y-16295722D02*
X12175968Y-16286198D01*
X12175968Y-16286198D02*
X12195015Y-16276674D01*
X12195015Y-16276674D02*
X12242634Y-16276674D01*
X12242634Y-16276674D02*
X12261682Y-16286198D01*
X12261682Y-16286198D02*
X12271206Y-16295722D01*
X12271206Y-16295722D02*
X12280730Y-16314769D01*
X12280730Y-16314769D02*
X12280730Y-16362388D01*
X12280730Y-16362388D02*
X12271206Y-16381436D01*
X12271206Y-16381436D02*
X12261682Y-16390960D01*
X12261682Y-16390960D02*
X12242634Y-16400484D01*
X12242634Y-16400484D02*
X12195015Y-16400484D01*
X12195015Y-16400484D02*
X12175968Y-16390960D01*
X12175968Y-16390960D02*
X12166444Y-16381436D01*
X12509301Y-16390960D02*
X12528349Y-16400484D01*
X12528349Y-16400484D02*
X12566444Y-16400484D01*
X12566444Y-16400484D02*
X12585492Y-16390960D01*
X12585492Y-16390960D02*
X12595015Y-16371912D01*
X12595015Y-16371912D02*
X12595015Y-16362388D01*
X12595015Y-16362388D02*
X12585492Y-16343341D01*
X12585492Y-16343341D02*
X12566444Y-16333817D01*
X12566444Y-16333817D02*
X12537873Y-16333817D01*
X12537873Y-16333817D02*
X12518825Y-16324293D01*
X12518825Y-16324293D02*
X12509301Y-16305246D01*
X12509301Y-16305246D02*
X12509301Y-16295722D01*
X12509301Y-16295722D02*
X12518825Y-16276674D01*
X12518825Y-16276674D02*
X12537873Y-16267150D01*
X12537873Y-16267150D02*
X12566444Y-16267150D01*
X12566444Y-16267150D02*
X12585492Y-16276674D01*
X12709301Y-16400484D02*
X12690254Y-16390960D01*
X12690254Y-16390960D02*
X12680730Y-16371912D01*
X12680730Y-16371912D02*
X12680730Y-16200484D01*
X12814063Y-16400484D02*
X12795015Y-16390960D01*
X12795015Y-16390960D02*
X12785492Y-16381436D01*
X12785492Y-16381436D02*
X12775968Y-16362388D01*
X12775968Y-16362388D02*
X12775968Y-16305246D01*
X12775968Y-16305246D02*
X12785492Y-16286198D01*
X12785492Y-16286198D02*
X12795015Y-16276674D01*
X12795015Y-16276674D02*
X12814063Y-16267150D01*
X12814063Y-16267150D02*
X12842635Y-16267150D01*
X12842635Y-16267150D02*
X12861682Y-16276674D01*
X12861682Y-16276674D02*
X12871206Y-16286198D01*
X12871206Y-16286198D02*
X12880730Y-16305246D01*
X12880730Y-16305246D02*
X12880730Y-16362388D01*
X12880730Y-16362388D02*
X12871206Y-16381436D01*
X12871206Y-16381436D02*
X12861682Y-16390960D01*
X12861682Y-16390960D02*
X12842635Y-16400484D01*
X12842635Y-16400484D02*
X12814063Y-16400484D01*
X12937873Y-16267150D02*
X13014063Y-16267150D01*
X12966444Y-16200484D02*
X12966444Y-16371912D01*
X12966444Y-16371912D02*
X12975968Y-16390960D01*
X12975968Y-16390960D02*
X12995015Y-16400484D01*
X12995015Y-16400484D02*
X13014063Y-16400484D01*
X13071206Y-16390960D02*
X13090254Y-16400484D01*
X13090254Y-16400484D02*
X13128349Y-16400484D01*
X13128349Y-16400484D02*
X13147396Y-16390960D01*
X13147396Y-16390960D02*
X13156920Y-16371912D01*
X13156920Y-16371912D02*
X13156920Y-16362388D01*
X13156920Y-16362388D02*
X13147396Y-16343341D01*
X13147396Y-16343341D02*
X13128349Y-16333817D01*
X13128349Y-16333817D02*
X13099777Y-16333817D01*
X13099777Y-16333817D02*
X13080730Y-16324293D01*
X13080730Y-16324293D02*
X13071206Y-16305246D01*
X13071206Y-16305246D02*
X13071206Y-16295722D01*
X13071206Y-16295722D02*
X13080730Y-16276674D01*
X13080730Y-16276674D02*
X13099777Y-16267150D01*
X13099777Y-16267150D02*
X13128349Y-16267150D01*
X13128349Y-16267150D02*
X13147396Y-16276674D01*
X13223587Y-16476674D02*
X13233111Y-16467150D01*
X13233111Y-16467150D02*
X13252158Y-16438579D01*
X13252158Y-16438579D02*
X13261682Y-16419531D01*
X13261682Y-16419531D02*
X13271206Y-16390960D01*
X13271206Y-16390960D02*
X13280730Y-16343341D01*
X13280730Y-16343341D02*
X13280730Y-16305246D01*
X13280730Y-16305246D02*
X13271206Y-16257627D01*
X13271206Y-16257627D02*
X13261682Y-16229055D01*
X13261682Y-16229055D02*
X13252158Y-16210008D01*
X13252158Y-16210008D02*
X13233111Y-16181436D01*
X13233111Y-16181436D02*
X13223587Y-16171912D01*
D10*
X6589000Y-16523000D02*
X6589000Y-16623000D01*
X6539000Y-16573000D02*
X6639000Y-16573000D01*
D11*
X7004539Y-16664484D02*
X6890253Y-16664484D01*
X6947396Y-16664484D02*
X6947396Y-16464484D01*
X6947396Y-16464484D02*
X6928348Y-16493055D01*
X6928348Y-16493055D02*
X6909301Y-16512103D01*
X6909301Y-16512103D02*
X6890253Y-16521627D01*
X7090253Y-16645436D02*
X7099777Y-16654960D01*
X7099777Y-16654960D02*
X7090253Y-16664484D01*
X7090253Y-16664484D02*
X7080729Y-16654960D01*
X7080729Y-16654960D02*
X7090253Y-16645436D01*
X7090253Y-16645436D02*
X7090253Y-16664484D01*
X7223586Y-16464484D02*
X7242634Y-16464484D01*
X7242634Y-16464484D02*
X7261682Y-16474008D01*
X7261682Y-16474008D02*
X7271205Y-16483531D01*
X7271205Y-16483531D02*
X7280729Y-16502579D01*
X7280729Y-16502579D02*
X7290253Y-16540674D01*
X7290253Y-16540674D02*
X7290253Y-16588293D01*
X7290253Y-16588293D02*
X7280729Y-16626388D01*
X7280729Y-16626388D02*
X7271205Y-16645436D01*
X7271205Y-16645436D02*
X7261682Y-16654960D01*
X7261682Y-16654960D02*
X7242634Y-16664484D01*
X7242634Y-16664484D02*
X7223586Y-16664484D01*
X7223586Y-16664484D02*
X7204539Y-16654960D01*
X7204539Y-16654960D02*
X7195015Y-16645436D01*
X7195015Y-16645436D02*
X7185491Y-16626388D01*
X7185491Y-16626388D02*
X7175967Y-16588293D01*
X7175967Y-16588293D02*
X7175967Y-16540674D01*
X7175967Y-16540674D02*
X7185491Y-16502579D01*
X7185491Y-16502579D02*
X7195015Y-16483531D01*
X7195015Y-16483531D02*
X7204539Y-16474008D01*
X7204539Y-16474008D02*
X7223586Y-16464484D01*
X7414062Y-16464484D02*
X7433110Y-16464484D01*
X7433110Y-16464484D02*
X7452158Y-16474008D01*
X7452158Y-16474008D02*
X7461682Y-16483531D01*
X7461682Y-16483531D02*
X7471205Y-16502579D01*
X7471205Y-16502579D02*
X7480729Y-16540674D01*
X7480729Y-16540674D02*
X7480729Y-16588293D01*
X7480729Y-16588293D02*
X7471205Y-16626388D01*
X7471205Y-16626388D02*
X7461682Y-16645436D01*
X7461682Y-16645436D02*
X7452158Y-16654960D01*
X7452158Y-16654960D02*
X7433110Y-16664484D01*
X7433110Y-16664484D02*
X7414062Y-16664484D01*
X7414062Y-16664484D02*
X7395015Y-16654960D01*
X7395015Y-16654960D02*
X7385491Y-16645436D01*
X7385491Y-16645436D02*
X7375967Y-16626388D01*
X7375967Y-16626388D02*
X7366443Y-16588293D01*
X7366443Y-16588293D02*
X7366443Y-16540674D01*
X7366443Y-16540674D02*
X7375967Y-16502579D01*
X7375967Y-16502579D02*
X7385491Y-16483531D01*
X7385491Y-16483531D02*
X7395015Y-16474008D01*
X7395015Y-16474008D02*
X7414062Y-16464484D01*
X7604539Y-16464484D02*
X7623586Y-16464484D01*
X7623586Y-16464484D02*
X7642634Y-16474008D01*
X7642634Y-16474008D02*
X7652158Y-16483531D01*
X7652158Y-16483531D02*
X7661682Y-16502579D01*
X7661682Y-16502579D02*
X7671205Y-16540674D01*
X7671205Y-16540674D02*
X7671205Y-16588293D01*
X7671205Y-16588293D02*
X7661682Y-16626388D01*
X7661682Y-16626388D02*
X7652158Y-16645436D01*
X7652158Y-16645436D02*
X7642634Y-16654960D01*
X7642634Y-16654960D02*
X7623586Y-16664484D01*
X7623586Y-16664484D02*
X7604539Y-16664484D01*
X7604539Y-16664484D02*
X7585491Y-16654960D01*
X7585491Y-16654960D02*
X7575967Y-16645436D01*
X7575967Y-16645436D02*
X7566443Y-16626388D01*
X7566443Y-16626388D02*
X7556920Y-16588293D01*
X7556920Y-16588293D02*
X7556920Y-16540674D01*
X7556920Y-16540674D02*
X7566443Y-16502579D01*
X7566443Y-16502579D02*
X7575967Y-16483531D01*
X7575967Y-16483531D02*
X7585491Y-16474008D01*
X7585491Y-16474008D02*
X7604539Y-16464484D01*
X7756920Y-16664484D02*
X7756920Y-16531150D01*
X7756920Y-16550198D02*
X7766443Y-16540674D01*
X7766443Y-16540674D02*
X7785491Y-16531150D01*
X7785491Y-16531150D02*
X7814063Y-16531150D01*
X7814063Y-16531150D02*
X7833110Y-16540674D01*
X7833110Y-16540674D02*
X7842634Y-16559722D01*
X7842634Y-16559722D02*
X7842634Y-16664484D01*
X7842634Y-16559722D02*
X7852158Y-16540674D01*
X7852158Y-16540674D02*
X7871205Y-16531150D01*
X7871205Y-16531150D02*
X7899777Y-16531150D01*
X7899777Y-16531150D02*
X7918824Y-16540674D01*
X7918824Y-16540674D02*
X7928348Y-16559722D01*
X7928348Y-16559722D02*
X7928348Y-16664484D01*
X8023586Y-16664484D02*
X8023586Y-16531150D01*
X8023586Y-16550198D02*
X8033110Y-16540674D01*
X8033110Y-16540674D02*
X8052158Y-16531150D01*
X8052158Y-16531150D02*
X8080729Y-16531150D01*
X8080729Y-16531150D02*
X8099777Y-16540674D01*
X8099777Y-16540674D02*
X8109301Y-16559722D01*
X8109301Y-16559722D02*
X8109301Y-16664484D01*
X8109301Y-16559722D02*
X8118824Y-16540674D01*
X8118824Y-16540674D02*
X8137872Y-16531150D01*
X8137872Y-16531150D02*
X8166443Y-16531150D01*
X8166443Y-16531150D02*
X8185491Y-16540674D01*
X8185491Y-16540674D02*
X8195015Y-16559722D01*
X8195015Y-16559722D02*
X8195015Y-16664484D01*
X8585491Y-16454960D02*
X8414063Y-16712103D01*
X8842634Y-16464484D02*
X8861682Y-16464484D01*
X8861682Y-16464484D02*
X8880729Y-16474008D01*
X8880729Y-16474008D02*
X8890253Y-16483531D01*
X8890253Y-16483531D02*
X8899777Y-16502579D01*
X8899777Y-16502579D02*
X8909301Y-16540674D01*
X8909301Y-16540674D02*
X8909301Y-16588293D01*
X8909301Y-16588293D02*
X8899777Y-16626388D01*
X8899777Y-16626388D02*
X8890253Y-16645436D01*
X8890253Y-16645436D02*
X8880729Y-16654960D01*
X8880729Y-16654960D02*
X8861682Y-16664484D01*
X8861682Y-16664484D02*
X8842634Y-16664484D01*
X8842634Y-16664484D02*
X8823587Y-16654960D01*
X8823587Y-16654960D02*
X8814063Y-16645436D01*
X8814063Y-16645436D02*
X8804539Y-16626388D01*
X8804539Y-16626388D02*
X8795015Y-16588293D01*
X8795015Y-16588293D02*
X8795015Y-16540674D01*
X8795015Y-16540674D02*
X8804539Y-16502579D01*
X8804539Y-16502579D02*
X8814063Y-16483531D01*
X8814063Y-16483531D02*
X8823587Y-16474008D01*
X8823587Y-16474008D02*
X8842634Y-16464484D01*
X8995015Y-16645436D02*
X9004539Y-16654960D01*
X9004539Y-16654960D02*
X8995015Y-16664484D01*
X8995015Y-16664484D02*
X8985491Y-16654960D01*
X8985491Y-16654960D02*
X8995015Y-16645436D01*
X8995015Y-16645436D02*
X8995015Y-16664484D01*
X9128348Y-16464484D02*
X9147396Y-16464484D01*
X9147396Y-16464484D02*
X9166444Y-16474008D01*
X9166444Y-16474008D02*
X9175968Y-16483531D01*
X9175968Y-16483531D02*
X9185491Y-16502579D01*
X9185491Y-16502579D02*
X9195015Y-16540674D01*
X9195015Y-16540674D02*
X9195015Y-16588293D01*
X9195015Y-16588293D02*
X9185491Y-16626388D01*
X9185491Y-16626388D02*
X9175968Y-16645436D01*
X9175968Y-16645436D02*
X9166444Y-16654960D01*
X9166444Y-16654960D02*
X9147396Y-16664484D01*
X9147396Y-16664484D02*
X9128348Y-16664484D01*
X9128348Y-16664484D02*
X9109301Y-16654960D01*
X9109301Y-16654960D02*
X9099777Y-16645436D01*
X9099777Y-16645436D02*
X9090253Y-16626388D01*
X9090253Y-16626388D02*
X9080729Y-16588293D01*
X9080729Y-16588293D02*
X9080729Y-16540674D01*
X9080729Y-16540674D02*
X9090253Y-16502579D01*
X9090253Y-16502579D02*
X9099777Y-16483531D01*
X9099777Y-16483531D02*
X9109301Y-16474008D01*
X9109301Y-16474008D02*
X9128348Y-16464484D01*
X9261682Y-16464484D02*
X9385491Y-16464484D01*
X9385491Y-16464484D02*
X9318825Y-16540674D01*
X9318825Y-16540674D02*
X9347396Y-16540674D01*
X9347396Y-16540674D02*
X9366444Y-16550198D01*
X9366444Y-16550198D02*
X9375968Y-16559722D01*
X9375968Y-16559722D02*
X9385491Y-16578769D01*
X9385491Y-16578769D02*
X9385491Y-16626388D01*
X9385491Y-16626388D02*
X9375968Y-16645436D01*
X9375968Y-16645436D02*
X9366444Y-16654960D01*
X9366444Y-16654960D02*
X9347396Y-16664484D01*
X9347396Y-16664484D02*
X9290253Y-16664484D01*
X9290253Y-16664484D02*
X9271206Y-16654960D01*
X9271206Y-16654960D02*
X9261682Y-16645436D01*
X9480729Y-16664484D02*
X9518825Y-16664484D01*
X9518825Y-16664484D02*
X9537872Y-16654960D01*
X9537872Y-16654960D02*
X9547396Y-16645436D01*
X9547396Y-16645436D02*
X9566444Y-16616865D01*
X9566444Y-16616865D02*
X9575968Y-16578769D01*
X9575968Y-16578769D02*
X9575968Y-16502579D01*
X9575968Y-16502579D02*
X9566444Y-16483531D01*
X9566444Y-16483531D02*
X9556920Y-16474008D01*
X9556920Y-16474008D02*
X9537872Y-16464484D01*
X9537872Y-16464484D02*
X9499777Y-16464484D01*
X9499777Y-16464484D02*
X9480729Y-16474008D01*
X9480729Y-16474008D02*
X9471206Y-16483531D01*
X9471206Y-16483531D02*
X9461682Y-16502579D01*
X9461682Y-16502579D02*
X9461682Y-16550198D01*
X9461682Y-16550198D02*
X9471206Y-16569246D01*
X9471206Y-16569246D02*
X9480729Y-16578769D01*
X9480729Y-16578769D02*
X9499777Y-16588293D01*
X9499777Y-16588293D02*
X9537872Y-16588293D01*
X9537872Y-16588293D02*
X9556920Y-16578769D01*
X9556920Y-16578769D02*
X9566444Y-16569246D01*
X9566444Y-16569246D02*
X9575968Y-16550198D01*
X9747396Y-16531150D02*
X9747396Y-16664484D01*
X9699777Y-16454960D02*
X9652158Y-16597817D01*
X9652158Y-16597817D02*
X9775968Y-16597817D01*
X9842634Y-16464484D02*
X9842634Y-16502579D01*
X9918825Y-16464484D02*
X9918825Y-16502579D01*
X10214063Y-16740674D02*
X10204539Y-16731150D01*
X10204539Y-16731150D02*
X10185491Y-16702579D01*
X10185491Y-16702579D02*
X10175968Y-16683531D01*
X10175968Y-16683531D02*
X10166444Y-16654960D01*
X10166444Y-16654960D02*
X10156920Y-16607341D01*
X10156920Y-16607341D02*
X10156920Y-16569246D01*
X10156920Y-16569246D02*
X10166444Y-16521627D01*
X10166444Y-16521627D02*
X10175968Y-16493055D01*
X10175968Y-16493055D02*
X10185491Y-16474008D01*
X10185491Y-16474008D02*
X10204539Y-16445436D01*
X10204539Y-16445436D02*
X10214063Y-16435912D01*
X10280730Y-16483531D02*
X10290253Y-16474008D01*
X10290253Y-16474008D02*
X10309301Y-16464484D01*
X10309301Y-16464484D02*
X10356920Y-16464484D01*
X10356920Y-16464484D02*
X10375968Y-16474008D01*
X10375968Y-16474008D02*
X10385491Y-16483531D01*
X10385491Y-16483531D02*
X10395015Y-16502579D01*
X10395015Y-16502579D02*
X10395015Y-16521627D01*
X10395015Y-16521627D02*
X10385491Y-16550198D01*
X10385491Y-16550198D02*
X10271206Y-16664484D01*
X10271206Y-16664484D02*
X10395015Y-16664484D01*
X10566444Y-16464484D02*
X10528349Y-16464484D01*
X10528349Y-16464484D02*
X10509301Y-16474008D01*
X10509301Y-16474008D02*
X10499777Y-16483531D01*
X10499777Y-16483531D02*
X10480730Y-16512103D01*
X10480730Y-16512103D02*
X10471206Y-16550198D01*
X10471206Y-16550198D02*
X10471206Y-16626388D01*
X10471206Y-16626388D02*
X10480730Y-16645436D01*
X10480730Y-16645436D02*
X10490253Y-16654960D01*
X10490253Y-16654960D02*
X10509301Y-16664484D01*
X10509301Y-16664484D02*
X10547396Y-16664484D01*
X10547396Y-16664484D02*
X10566444Y-16654960D01*
X10566444Y-16654960D02*
X10575968Y-16645436D01*
X10575968Y-16645436D02*
X10585491Y-16626388D01*
X10585491Y-16626388D02*
X10585491Y-16578769D01*
X10585491Y-16578769D02*
X10575968Y-16559722D01*
X10575968Y-16559722D02*
X10566444Y-16550198D01*
X10566444Y-16550198D02*
X10547396Y-16540674D01*
X10547396Y-16540674D02*
X10509301Y-16540674D01*
X10509301Y-16540674D02*
X10490253Y-16550198D01*
X10490253Y-16550198D02*
X10480730Y-16559722D01*
X10480730Y-16559722D02*
X10471206Y-16578769D01*
X10823587Y-16664484D02*
X10823587Y-16464484D01*
X10909301Y-16664484D02*
X10909301Y-16559722D01*
X10909301Y-16559722D02*
X10899777Y-16540674D01*
X10899777Y-16540674D02*
X10880730Y-16531150D01*
X10880730Y-16531150D02*
X10852158Y-16531150D01*
X10852158Y-16531150D02*
X10833111Y-16540674D01*
X10833111Y-16540674D02*
X10823587Y-16550198D01*
X11033111Y-16664484D02*
X11014063Y-16654960D01*
X11014063Y-16654960D02*
X11004539Y-16645436D01*
X11004539Y-16645436D02*
X10995015Y-16626388D01*
X10995015Y-16626388D02*
X10995015Y-16569246D01*
X10995015Y-16569246D02*
X11004539Y-16550198D01*
X11004539Y-16550198D02*
X11014063Y-16540674D01*
X11014063Y-16540674D02*
X11033111Y-16531150D01*
X11033111Y-16531150D02*
X11061682Y-16531150D01*
X11061682Y-16531150D02*
X11080730Y-16540674D01*
X11080730Y-16540674D02*
X11090253Y-16550198D01*
X11090253Y-16550198D02*
X11099777Y-16569246D01*
X11099777Y-16569246D02*
X11099777Y-16626388D01*
X11099777Y-16626388D02*
X11090253Y-16645436D01*
X11090253Y-16645436D02*
X11080730Y-16654960D01*
X11080730Y-16654960D02*
X11061682Y-16664484D01*
X11061682Y-16664484D02*
X11033111Y-16664484D01*
X11214063Y-16664484D02*
X11195015Y-16654960D01*
X11195015Y-16654960D02*
X11185491Y-16635912D01*
X11185491Y-16635912D02*
X11185491Y-16464484D01*
X11366444Y-16654960D02*
X11347396Y-16664484D01*
X11347396Y-16664484D02*
X11309301Y-16664484D01*
X11309301Y-16664484D02*
X11290253Y-16654960D01*
X11290253Y-16654960D02*
X11280730Y-16635912D01*
X11280730Y-16635912D02*
X11280730Y-16559722D01*
X11280730Y-16559722D02*
X11290253Y-16540674D01*
X11290253Y-16540674D02*
X11309301Y-16531150D01*
X11309301Y-16531150D02*
X11347396Y-16531150D01*
X11347396Y-16531150D02*
X11366444Y-16540674D01*
X11366444Y-16540674D02*
X11375968Y-16559722D01*
X11375968Y-16559722D02*
X11375968Y-16578769D01*
X11375968Y-16578769D02*
X11280730Y-16597817D01*
X11452158Y-16654960D02*
X11471206Y-16664484D01*
X11471206Y-16664484D02*
X11509301Y-16664484D01*
X11509301Y-16664484D02*
X11528349Y-16654960D01*
X11528349Y-16654960D02*
X11537872Y-16635912D01*
X11537872Y-16635912D02*
X11537872Y-16626388D01*
X11537872Y-16626388D02*
X11528349Y-16607341D01*
X11528349Y-16607341D02*
X11509301Y-16597817D01*
X11509301Y-16597817D02*
X11480730Y-16597817D01*
X11480730Y-16597817D02*
X11461682Y-16588293D01*
X11461682Y-16588293D02*
X11452158Y-16569246D01*
X11452158Y-16569246D02*
X11452158Y-16559722D01*
X11452158Y-16559722D02*
X11461682Y-16540674D01*
X11461682Y-16540674D02*
X11480730Y-16531150D01*
X11480730Y-16531150D02*
X11509301Y-16531150D01*
X11509301Y-16531150D02*
X11528349Y-16540674D01*
X11604539Y-16740674D02*
X11614063Y-16731150D01*
X11614063Y-16731150D02*
X11633111Y-16702579D01*
X11633111Y-16702579D02*
X11642634Y-16683531D01*
X11642634Y-16683531D02*
X11652158Y-16654960D01*
X11652158Y-16654960D02*
X11661682Y-16607341D01*
X11661682Y-16607341D02*
X11661682Y-16569246D01*
X11661682Y-16569246D02*
X11652158Y-16521627D01*
X11652158Y-16521627D02*
X11642634Y-16493055D01*
X11642634Y-16493055D02*
X11633111Y-16474008D01*
X11633111Y-16474008D02*
X11614063Y-16445436D01*
X11614063Y-16445436D02*
X11604539Y-16435912D01*
D14*
X6621427Y-16879427D02*
X6621427Y-16794573D01*
X6536573Y-16794573D01*
X6536573Y-16879427D01*
X6621427Y-16879427D01*
D11*
X7004539Y-16928484D02*
X6890253Y-16928484D01*
X6947396Y-16928484D02*
X6947396Y-16728484D01*
X6947396Y-16728484D02*
X6928348Y-16757055D01*
X6928348Y-16757055D02*
X6909301Y-16776103D01*
X6909301Y-16776103D02*
X6890253Y-16785627D01*
X7090253Y-16909436D02*
X7099777Y-16918960D01*
X7099777Y-16918960D02*
X7090253Y-16928484D01*
X7090253Y-16928484D02*
X7080729Y-16918960D01*
X7080729Y-16918960D02*
X7090253Y-16909436D01*
X7090253Y-16909436D02*
X7090253Y-16928484D01*
X7175967Y-16747531D02*
X7185491Y-16738008D01*
X7185491Y-16738008D02*
X7204539Y-16728484D01*
X7204539Y-16728484D02*
X7252158Y-16728484D01*
X7252158Y-16728484D02*
X7271205Y-16738008D01*
X7271205Y-16738008D02*
X7280729Y-16747531D01*
X7280729Y-16747531D02*
X7290253Y-16766579D01*
X7290253Y-16766579D02*
X7290253Y-16785627D01*
X7290253Y-16785627D02*
X7280729Y-16814198D01*
X7280729Y-16814198D02*
X7166443Y-16928484D01*
X7166443Y-16928484D02*
X7290253Y-16928484D01*
X7414062Y-16728484D02*
X7433110Y-16728484D01*
X7433110Y-16728484D02*
X7452158Y-16738008D01*
X7452158Y-16738008D02*
X7461682Y-16747531D01*
X7461682Y-16747531D02*
X7471205Y-16766579D01*
X7471205Y-16766579D02*
X7480729Y-16804674D01*
X7480729Y-16804674D02*
X7480729Y-16852293D01*
X7480729Y-16852293D02*
X7471205Y-16890389D01*
X7471205Y-16890389D02*
X7461682Y-16909436D01*
X7461682Y-16909436D02*
X7452158Y-16918960D01*
X7452158Y-16918960D02*
X7433110Y-16928484D01*
X7433110Y-16928484D02*
X7414062Y-16928484D01*
X7414062Y-16928484D02*
X7395015Y-16918960D01*
X7395015Y-16918960D02*
X7385491Y-16909436D01*
X7385491Y-16909436D02*
X7375967Y-16890389D01*
X7375967Y-16890389D02*
X7366443Y-16852293D01*
X7366443Y-16852293D02*
X7366443Y-16804674D01*
X7366443Y-16804674D02*
X7375967Y-16766579D01*
X7375967Y-16766579D02*
X7385491Y-16747531D01*
X7385491Y-16747531D02*
X7395015Y-16738008D01*
X7395015Y-16738008D02*
X7414062Y-16728484D01*
X7604539Y-16728484D02*
X7623586Y-16728484D01*
X7623586Y-16728484D02*
X7642634Y-16738008D01*
X7642634Y-16738008D02*
X7652158Y-16747531D01*
X7652158Y-16747531D02*
X7661682Y-16766579D01*
X7661682Y-16766579D02*
X7671205Y-16804674D01*
X7671205Y-16804674D02*
X7671205Y-16852293D01*
X7671205Y-16852293D02*
X7661682Y-16890389D01*
X7661682Y-16890389D02*
X7652158Y-16909436D01*
X7652158Y-16909436D02*
X7642634Y-16918960D01*
X7642634Y-16918960D02*
X7623586Y-16928484D01*
X7623586Y-16928484D02*
X7604539Y-16928484D01*
X7604539Y-16928484D02*
X7585491Y-16918960D01*
X7585491Y-16918960D02*
X7575967Y-16909436D01*
X7575967Y-16909436D02*
X7566443Y-16890389D01*
X7566443Y-16890389D02*
X7556920Y-16852293D01*
X7556920Y-16852293D02*
X7556920Y-16804674D01*
X7556920Y-16804674D02*
X7566443Y-16766579D01*
X7566443Y-16766579D02*
X7575967Y-16747531D01*
X7575967Y-16747531D02*
X7585491Y-16738008D01*
X7585491Y-16738008D02*
X7604539Y-16728484D01*
X7756920Y-16928484D02*
X7756920Y-16795150D01*
X7756920Y-16814198D02*
X7766443Y-16804674D01*
X7766443Y-16804674D02*
X7785491Y-16795150D01*
X7785491Y-16795150D02*
X7814063Y-16795150D01*
X7814063Y-16795150D02*
X7833110Y-16804674D01*
X7833110Y-16804674D02*
X7842634Y-16823722D01*
X7842634Y-16823722D02*
X7842634Y-16928484D01*
X7842634Y-16823722D02*
X7852158Y-16804674D01*
X7852158Y-16804674D02*
X7871205Y-16795150D01*
X7871205Y-16795150D02*
X7899777Y-16795150D01*
X7899777Y-16795150D02*
X7918824Y-16804674D01*
X7918824Y-16804674D02*
X7928348Y-16823722D01*
X7928348Y-16823722D02*
X7928348Y-16928484D01*
X8023586Y-16928484D02*
X8023586Y-16795150D01*
X8023586Y-16814198D02*
X8033110Y-16804674D01*
X8033110Y-16804674D02*
X8052158Y-16795150D01*
X8052158Y-16795150D02*
X8080729Y-16795150D01*
X8080729Y-16795150D02*
X8099777Y-16804674D01*
X8099777Y-16804674D02*
X8109301Y-16823722D01*
X8109301Y-16823722D02*
X8109301Y-16928484D01*
X8109301Y-16823722D02*
X8118824Y-16804674D01*
X8118824Y-16804674D02*
X8137872Y-16795150D01*
X8137872Y-16795150D02*
X8166443Y-16795150D01*
X8166443Y-16795150D02*
X8185491Y-16804674D01*
X8185491Y-16804674D02*
X8195015Y-16823722D01*
X8195015Y-16823722D02*
X8195015Y-16928484D01*
X8585491Y-16718960D02*
X8414063Y-16976103D01*
X8842634Y-16728484D02*
X8861682Y-16728484D01*
X8861682Y-16728484D02*
X8880729Y-16738008D01*
X8880729Y-16738008D02*
X8890253Y-16747531D01*
X8890253Y-16747531D02*
X8899777Y-16766579D01*
X8899777Y-16766579D02*
X8909301Y-16804674D01*
X8909301Y-16804674D02*
X8909301Y-16852293D01*
X8909301Y-16852293D02*
X8899777Y-16890389D01*
X8899777Y-16890389D02*
X8890253Y-16909436D01*
X8890253Y-16909436D02*
X8880729Y-16918960D01*
X8880729Y-16918960D02*
X8861682Y-16928484D01*
X8861682Y-16928484D02*
X8842634Y-16928484D01*
X8842634Y-16928484D02*
X8823587Y-16918960D01*
X8823587Y-16918960D02*
X8814063Y-16909436D01*
X8814063Y-16909436D02*
X8804539Y-16890389D01*
X8804539Y-16890389D02*
X8795015Y-16852293D01*
X8795015Y-16852293D02*
X8795015Y-16804674D01*
X8795015Y-16804674D02*
X8804539Y-16766579D01*
X8804539Y-16766579D02*
X8814063Y-16747531D01*
X8814063Y-16747531D02*
X8823587Y-16738008D01*
X8823587Y-16738008D02*
X8842634Y-16728484D01*
X8995015Y-16909436D02*
X9004539Y-16918960D01*
X9004539Y-16918960D02*
X8995015Y-16928484D01*
X8995015Y-16928484D02*
X8985491Y-16918960D01*
X8985491Y-16918960D02*
X8995015Y-16909436D01*
X8995015Y-16909436D02*
X8995015Y-16928484D01*
X9128348Y-16728484D02*
X9147396Y-16728484D01*
X9147396Y-16728484D02*
X9166444Y-16738008D01*
X9166444Y-16738008D02*
X9175968Y-16747531D01*
X9175968Y-16747531D02*
X9185491Y-16766579D01*
X9185491Y-16766579D02*
X9195015Y-16804674D01*
X9195015Y-16804674D02*
X9195015Y-16852293D01*
X9195015Y-16852293D02*
X9185491Y-16890389D01*
X9185491Y-16890389D02*
X9175968Y-16909436D01*
X9175968Y-16909436D02*
X9166444Y-16918960D01*
X9166444Y-16918960D02*
X9147396Y-16928484D01*
X9147396Y-16928484D02*
X9128348Y-16928484D01*
X9128348Y-16928484D02*
X9109301Y-16918960D01*
X9109301Y-16918960D02*
X9099777Y-16909436D01*
X9099777Y-16909436D02*
X9090253Y-16890389D01*
X9090253Y-16890389D02*
X9080729Y-16852293D01*
X9080729Y-16852293D02*
X9080729Y-16804674D01*
X9080729Y-16804674D02*
X9090253Y-16766579D01*
X9090253Y-16766579D02*
X9099777Y-16747531D01*
X9099777Y-16747531D02*
X9109301Y-16738008D01*
X9109301Y-16738008D02*
X9128348Y-16728484D01*
X9366444Y-16795150D02*
X9366444Y-16928484D01*
X9318825Y-16718960D02*
X9271206Y-16861817D01*
X9271206Y-16861817D02*
X9395015Y-16861817D01*
X9452158Y-16728484D02*
X9585491Y-16728484D01*
X9585491Y-16728484D02*
X9499777Y-16928484D01*
X9652158Y-16747531D02*
X9661682Y-16738008D01*
X9661682Y-16738008D02*
X9680729Y-16728484D01*
X9680729Y-16728484D02*
X9728349Y-16728484D01*
X9728349Y-16728484D02*
X9747396Y-16738008D01*
X9747396Y-16738008D02*
X9756920Y-16747531D01*
X9756920Y-16747531D02*
X9766444Y-16766579D01*
X9766444Y-16766579D02*
X9766444Y-16785627D01*
X9766444Y-16785627D02*
X9756920Y-16814198D01*
X9756920Y-16814198D02*
X9642634Y-16928484D01*
X9642634Y-16928484D02*
X9766444Y-16928484D01*
X9842634Y-16728484D02*
X9842634Y-16766579D01*
X9918825Y-16728484D02*
X9918825Y-16766579D01*
X10214063Y-17004674D02*
X10204539Y-16995150D01*
X10204539Y-16995150D02*
X10185491Y-16966579D01*
X10185491Y-16966579D02*
X10175968Y-16947531D01*
X10175968Y-16947531D02*
X10166444Y-16918960D01*
X10166444Y-16918960D02*
X10156920Y-16871341D01*
X10156920Y-16871341D02*
X10156920Y-16833246D01*
X10156920Y-16833246D02*
X10166444Y-16785627D01*
X10166444Y-16785627D02*
X10175968Y-16757055D01*
X10175968Y-16757055D02*
X10185491Y-16738008D01*
X10185491Y-16738008D02*
X10204539Y-16709436D01*
X10204539Y-16709436D02*
X10214063Y-16699912D01*
X10395015Y-16928484D02*
X10280730Y-16928484D01*
X10337872Y-16928484D02*
X10337872Y-16728484D01*
X10337872Y-16728484D02*
X10318825Y-16757055D01*
X10318825Y-16757055D02*
X10299777Y-16776103D01*
X10299777Y-16776103D02*
X10280730Y-16785627D01*
X10471206Y-16747531D02*
X10480730Y-16738008D01*
X10480730Y-16738008D02*
X10499777Y-16728484D01*
X10499777Y-16728484D02*
X10547396Y-16728484D01*
X10547396Y-16728484D02*
X10566444Y-16738008D01*
X10566444Y-16738008D02*
X10575968Y-16747531D01*
X10575968Y-16747531D02*
X10585491Y-16766579D01*
X10585491Y-16766579D02*
X10585491Y-16785627D01*
X10585491Y-16785627D02*
X10575968Y-16814198D01*
X10575968Y-16814198D02*
X10461682Y-16928484D01*
X10461682Y-16928484D02*
X10585491Y-16928484D01*
X10823587Y-16928484D02*
X10823587Y-16728484D01*
X10909301Y-16928484D02*
X10909301Y-16823722D01*
X10909301Y-16823722D02*
X10899777Y-16804674D01*
X10899777Y-16804674D02*
X10880730Y-16795150D01*
X10880730Y-16795150D02*
X10852158Y-16795150D01*
X10852158Y-16795150D02*
X10833111Y-16804674D01*
X10833111Y-16804674D02*
X10823587Y-16814198D01*
X11033111Y-16928484D02*
X11014063Y-16918960D01*
X11014063Y-16918960D02*
X11004539Y-16909436D01*
X11004539Y-16909436D02*
X10995015Y-16890389D01*
X10995015Y-16890389D02*
X10995015Y-16833246D01*
X10995015Y-16833246D02*
X11004539Y-16814198D01*
X11004539Y-16814198D02*
X11014063Y-16804674D01*
X11014063Y-16804674D02*
X11033111Y-16795150D01*
X11033111Y-16795150D02*
X11061682Y-16795150D01*
X11061682Y-16795150D02*
X11080730Y-16804674D01*
X11080730Y-16804674D02*
X11090253Y-16814198D01*
X11090253Y-16814198D02*
X11099777Y-16833246D01*
X11099777Y-16833246D02*
X11099777Y-16890389D01*
X11099777Y-16890389D02*
X11090253Y-16909436D01*
X11090253Y-16909436D02*
X11080730Y-16918960D01*
X11080730Y-16918960D02*
X11061682Y-16928484D01*
X11061682Y-16928484D02*
X11033111Y-16928484D01*
X11214063Y-16928484D02*
X11195015Y-16918960D01*
X11195015Y-16918960D02*
X11185491Y-16899912D01*
X11185491Y-16899912D02*
X11185491Y-16728484D01*
X11366444Y-16918960D02*
X11347396Y-16928484D01*
X11347396Y-16928484D02*
X11309301Y-16928484D01*
X11309301Y-16928484D02*
X11290253Y-16918960D01*
X11290253Y-16918960D02*
X11280730Y-16899912D01*
X11280730Y-16899912D02*
X11280730Y-16823722D01*
X11280730Y-16823722D02*
X11290253Y-16804674D01*
X11290253Y-16804674D02*
X11309301Y-16795150D01*
X11309301Y-16795150D02*
X11347396Y-16795150D01*
X11347396Y-16795150D02*
X11366444Y-16804674D01*
X11366444Y-16804674D02*
X11375968Y-16823722D01*
X11375968Y-16823722D02*
X11375968Y-16842770D01*
X11375968Y-16842770D02*
X11280730Y-16861817D01*
X11452158Y-16918960D02*
X11471206Y-16928484D01*
X11471206Y-16928484D02*
X11509301Y-16928484D01*
X11509301Y-16928484D02*
X11528349Y-16918960D01*
X11528349Y-16918960D02*
X11537872Y-16899912D01*
X11537872Y-16899912D02*
X11537872Y-16890389D01*
X11537872Y-16890389D02*
X11528349Y-16871341D01*
X11528349Y-16871341D02*
X11509301Y-16861817D01*
X11509301Y-16861817D02*
X11480730Y-16861817D01*
X11480730Y-16861817D02*
X11461682Y-16852293D01*
X11461682Y-16852293D02*
X11452158Y-16833246D01*
X11452158Y-16833246D02*
X11452158Y-16823722D01*
X11452158Y-16823722D02*
X11461682Y-16804674D01*
X11461682Y-16804674D02*
X11480730Y-16795150D01*
X11480730Y-16795150D02*
X11509301Y-16795150D01*
X11509301Y-16795150D02*
X11528349Y-16804674D01*
X11604539Y-17004674D02*
X11614063Y-16995150D01*
X11614063Y-16995150D02*
X11633111Y-16966579D01*
X11633111Y-16966579D02*
X11642634Y-16947531D01*
X11642634Y-16947531D02*
X11652158Y-16918960D01*
X11652158Y-16918960D02*
X11661682Y-16871341D01*
X11661682Y-16871341D02*
X11661682Y-16833246D01*
X11661682Y-16833246D02*
X11652158Y-16785627D01*
X11652158Y-16785627D02*
X11642634Y-16757055D01*
X11642634Y-16757055D02*
X11633111Y-16738008D01*
X11633111Y-16738008D02*
X11614063Y-16709436D01*
X11614063Y-16709436D02*
X11604539Y-16699912D01*
D15*
X6554000Y-17186000D02*
X6639000Y-17101000D01*
X6554000Y-17016000D01*
X6469000Y-17101000D01*
X6554000Y-17186000D01*
D11*
X7004539Y-17192484D02*
X6890253Y-17192484D01*
X6947396Y-17192484D02*
X6947396Y-16992484D01*
X6947396Y-16992484D02*
X6928348Y-17021055D01*
X6928348Y-17021055D02*
X6909301Y-17040103D01*
X6909301Y-17040103D02*
X6890253Y-17049627D01*
X7090253Y-17173436D02*
X7099777Y-17182960D01*
X7099777Y-17182960D02*
X7090253Y-17192484D01*
X7090253Y-17192484D02*
X7080729Y-17182960D01*
X7080729Y-17182960D02*
X7090253Y-17173436D01*
X7090253Y-17173436D02*
X7090253Y-17192484D01*
X7166443Y-16992484D02*
X7299777Y-16992484D01*
X7299777Y-16992484D02*
X7214062Y-17192484D01*
X7414062Y-16992484D02*
X7433110Y-16992484D01*
X7433110Y-16992484D02*
X7452158Y-17002008D01*
X7452158Y-17002008D02*
X7461682Y-17011531D01*
X7461682Y-17011531D02*
X7471205Y-17030579D01*
X7471205Y-17030579D02*
X7480729Y-17068674D01*
X7480729Y-17068674D02*
X7480729Y-17116293D01*
X7480729Y-17116293D02*
X7471205Y-17154389D01*
X7471205Y-17154389D02*
X7461682Y-17173436D01*
X7461682Y-17173436D02*
X7452158Y-17182960D01*
X7452158Y-17182960D02*
X7433110Y-17192484D01*
X7433110Y-17192484D02*
X7414062Y-17192484D01*
X7414062Y-17192484D02*
X7395015Y-17182960D01*
X7395015Y-17182960D02*
X7385491Y-17173436D01*
X7385491Y-17173436D02*
X7375967Y-17154389D01*
X7375967Y-17154389D02*
X7366443Y-17116293D01*
X7366443Y-17116293D02*
X7366443Y-17068674D01*
X7366443Y-17068674D02*
X7375967Y-17030579D01*
X7375967Y-17030579D02*
X7385491Y-17011531D01*
X7385491Y-17011531D02*
X7395015Y-17002008D01*
X7395015Y-17002008D02*
X7414062Y-16992484D01*
X7604539Y-16992484D02*
X7623586Y-16992484D01*
X7623586Y-16992484D02*
X7642634Y-17002008D01*
X7642634Y-17002008D02*
X7652158Y-17011531D01*
X7652158Y-17011531D02*
X7661682Y-17030579D01*
X7661682Y-17030579D02*
X7671205Y-17068674D01*
X7671205Y-17068674D02*
X7671205Y-17116293D01*
X7671205Y-17116293D02*
X7661682Y-17154389D01*
X7661682Y-17154389D02*
X7652158Y-17173436D01*
X7652158Y-17173436D02*
X7642634Y-17182960D01*
X7642634Y-17182960D02*
X7623586Y-17192484D01*
X7623586Y-17192484D02*
X7604539Y-17192484D01*
X7604539Y-17192484D02*
X7585491Y-17182960D01*
X7585491Y-17182960D02*
X7575967Y-17173436D01*
X7575967Y-17173436D02*
X7566443Y-17154389D01*
X7566443Y-17154389D02*
X7556920Y-17116293D01*
X7556920Y-17116293D02*
X7556920Y-17068674D01*
X7556920Y-17068674D02*
X7566443Y-17030579D01*
X7566443Y-17030579D02*
X7575967Y-17011531D01*
X7575967Y-17011531D02*
X7585491Y-17002008D01*
X7585491Y-17002008D02*
X7604539Y-16992484D01*
X7756920Y-17192484D02*
X7756920Y-17059150D01*
X7756920Y-17078198D02*
X7766443Y-17068674D01*
X7766443Y-17068674D02*
X7785491Y-17059150D01*
X7785491Y-17059150D02*
X7814063Y-17059150D01*
X7814063Y-17059150D02*
X7833110Y-17068674D01*
X7833110Y-17068674D02*
X7842634Y-17087722D01*
X7842634Y-17087722D02*
X7842634Y-17192484D01*
X7842634Y-17087722D02*
X7852158Y-17068674D01*
X7852158Y-17068674D02*
X7871205Y-17059150D01*
X7871205Y-17059150D02*
X7899777Y-17059150D01*
X7899777Y-17059150D02*
X7918824Y-17068674D01*
X7918824Y-17068674D02*
X7928348Y-17087722D01*
X7928348Y-17087722D02*
X7928348Y-17192484D01*
X8023586Y-17192484D02*
X8023586Y-17059150D01*
X8023586Y-17078198D02*
X8033110Y-17068674D01*
X8033110Y-17068674D02*
X8052158Y-17059150D01*
X8052158Y-17059150D02*
X8080729Y-17059150D01*
X8080729Y-17059150D02*
X8099777Y-17068674D01*
X8099777Y-17068674D02*
X8109301Y-17087722D01*
X8109301Y-17087722D02*
X8109301Y-17192484D01*
X8109301Y-17087722D02*
X8118824Y-17068674D01*
X8118824Y-17068674D02*
X8137872Y-17059150D01*
X8137872Y-17059150D02*
X8166443Y-17059150D01*
X8166443Y-17059150D02*
X8185491Y-17068674D01*
X8185491Y-17068674D02*
X8195015Y-17087722D01*
X8195015Y-17087722D02*
X8195015Y-17192484D01*
X8585491Y-16982960D02*
X8414063Y-17240103D01*
X8842634Y-16992484D02*
X8861682Y-16992484D01*
X8861682Y-16992484D02*
X8880729Y-17002008D01*
X8880729Y-17002008D02*
X8890253Y-17011531D01*
X8890253Y-17011531D02*
X8899777Y-17030579D01*
X8899777Y-17030579D02*
X8909301Y-17068674D01*
X8909301Y-17068674D02*
X8909301Y-17116293D01*
X8909301Y-17116293D02*
X8899777Y-17154389D01*
X8899777Y-17154389D02*
X8890253Y-17173436D01*
X8890253Y-17173436D02*
X8880729Y-17182960D01*
X8880729Y-17182960D02*
X8861682Y-17192484D01*
X8861682Y-17192484D02*
X8842634Y-17192484D01*
X8842634Y-17192484D02*
X8823587Y-17182960D01*
X8823587Y-17182960D02*
X8814063Y-17173436D01*
X8814063Y-17173436D02*
X8804539Y-17154389D01*
X8804539Y-17154389D02*
X8795015Y-17116293D01*
X8795015Y-17116293D02*
X8795015Y-17068674D01*
X8795015Y-17068674D02*
X8804539Y-17030579D01*
X8804539Y-17030579D02*
X8814063Y-17011531D01*
X8814063Y-17011531D02*
X8823587Y-17002008D01*
X8823587Y-17002008D02*
X8842634Y-16992484D01*
X8995015Y-17173436D02*
X9004539Y-17182960D01*
X9004539Y-17182960D02*
X8995015Y-17192484D01*
X8995015Y-17192484D02*
X8985491Y-17182960D01*
X8985491Y-17182960D02*
X8995015Y-17173436D01*
X8995015Y-17173436D02*
X8995015Y-17192484D01*
X9128348Y-16992484D02*
X9147396Y-16992484D01*
X9147396Y-16992484D02*
X9166444Y-17002008D01*
X9166444Y-17002008D02*
X9175968Y-17011531D01*
X9175968Y-17011531D02*
X9185491Y-17030579D01*
X9185491Y-17030579D02*
X9195015Y-17068674D01*
X9195015Y-17068674D02*
X9195015Y-17116293D01*
X9195015Y-17116293D02*
X9185491Y-17154389D01*
X9185491Y-17154389D02*
X9175968Y-17173436D01*
X9175968Y-17173436D02*
X9166444Y-17182960D01*
X9166444Y-17182960D02*
X9147396Y-17192484D01*
X9147396Y-17192484D02*
X9128348Y-17192484D01*
X9128348Y-17192484D02*
X9109301Y-17182960D01*
X9109301Y-17182960D02*
X9099777Y-17173436D01*
X9099777Y-17173436D02*
X9090253Y-17154389D01*
X9090253Y-17154389D02*
X9080729Y-17116293D01*
X9080729Y-17116293D02*
X9080729Y-17068674D01*
X9080729Y-17068674D02*
X9090253Y-17030579D01*
X9090253Y-17030579D02*
X9099777Y-17011531D01*
X9099777Y-17011531D02*
X9109301Y-17002008D01*
X9109301Y-17002008D02*
X9128348Y-16992484D01*
X9366444Y-16992484D02*
X9328348Y-16992484D01*
X9328348Y-16992484D02*
X9309301Y-17002008D01*
X9309301Y-17002008D02*
X9299777Y-17011531D01*
X9299777Y-17011531D02*
X9280729Y-17040103D01*
X9280729Y-17040103D02*
X9271206Y-17078198D01*
X9271206Y-17078198D02*
X9271206Y-17154389D01*
X9271206Y-17154389D02*
X9280729Y-17173436D01*
X9280729Y-17173436D02*
X9290253Y-17182960D01*
X9290253Y-17182960D02*
X9309301Y-17192484D01*
X9309301Y-17192484D02*
X9347396Y-17192484D01*
X9347396Y-17192484D02*
X9366444Y-17182960D01*
X9366444Y-17182960D02*
X9375968Y-17173436D01*
X9375968Y-17173436D02*
X9385491Y-17154389D01*
X9385491Y-17154389D02*
X9385491Y-17106770D01*
X9385491Y-17106770D02*
X9375968Y-17087722D01*
X9375968Y-17087722D02*
X9366444Y-17078198D01*
X9366444Y-17078198D02*
X9347396Y-17068674D01*
X9347396Y-17068674D02*
X9309301Y-17068674D01*
X9309301Y-17068674D02*
X9290253Y-17078198D01*
X9290253Y-17078198D02*
X9280729Y-17087722D01*
X9280729Y-17087722D02*
X9271206Y-17106770D01*
X9556920Y-16992484D02*
X9518825Y-16992484D01*
X9518825Y-16992484D02*
X9499777Y-17002008D01*
X9499777Y-17002008D02*
X9490253Y-17011531D01*
X9490253Y-17011531D02*
X9471206Y-17040103D01*
X9471206Y-17040103D02*
X9461682Y-17078198D01*
X9461682Y-17078198D02*
X9461682Y-17154389D01*
X9461682Y-17154389D02*
X9471206Y-17173436D01*
X9471206Y-17173436D02*
X9480729Y-17182960D01*
X9480729Y-17182960D02*
X9499777Y-17192484D01*
X9499777Y-17192484D02*
X9537872Y-17192484D01*
X9537872Y-17192484D02*
X9556920Y-17182960D01*
X9556920Y-17182960D02*
X9566444Y-17173436D01*
X9566444Y-17173436D02*
X9575968Y-17154389D01*
X9575968Y-17154389D02*
X9575968Y-17106770D01*
X9575968Y-17106770D02*
X9566444Y-17087722D01*
X9566444Y-17087722D02*
X9556920Y-17078198D01*
X9556920Y-17078198D02*
X9537872Y-17068674D01*
X9537872Y-17068674D02*
X9499777Y-17068674D01*
X9499777Y-17068674D02*
X9480729Y-17078198D01*
X9480729Y-17078198D02*
X9471206Y-17087722D01*
X9471206Y-17087722D02*
X9461682Y-17106770D01*
X9671206Y-17192484D02*
X9709301Y-17192484D01*
X9709301Y-17192484D02*
X9728349Y-17182960D01*
X9728349Y-17182960D02*
X9737872Y-17173436D01*
X9737872Y-17173436D02*
X9756920Y-17144865D01*
X9756920Y-17144865D02*
X9766444Y-17106770D01*
X9766444Y-17106770D02*
X9766444Y-17030579D01*
X9766444Y-17030579D02*
X9756920Y-17011531D01*
X9756920Y-17011531D02*
X9747396Y-17002008D01*
X9747396Y-17002008D02*
X9728349Y-16992484D01*
X9728349Y-16992484D02*
X9690253Y-16992484D01*
X9690253Y-16992484D02*
X9671206Y-17002008D01*
X9671206Y-17002008D02*
X9661682Y-17011531D01*
X9661682Y-17011531D02*
X9652158Y-17030579D01*
X9652158Y-17030579D02*
X9652158Y-17078198D01*
X9652158Y-17078198D02*
X9661682Y-17097246D01*
X9661682Y-17097246D02*
X9671206Y-17106770D01*
X9671206Y-17106770D02*
X9690253Y-17116293D01*
X9690253Y-17116293D02*
X9728349Y-17116293D01*
X9728349Y-17116293D02*
X9747396Y-17106770D01*
X9747396Y-17106770D02*
X9756920Y-17097246D01*
X9756920Y-17097246D02*
X9766444Y-17078198D01*
X9842634Y-16992484D02*
X9842634Y-17030579D01*
X9918825Y-16992484D02*
X9918825Y-17030579D01*
X10214063Y-17268674D02*
X10204539Y-17259150D01*
X10204539Y-17259150D02*
X10185491Y-17230579D01*
X10185491Y-17230579D02*
X10175968Y-17211531D01*
X10175968Y-17211531D02*
X10166444Y-17182960D01*
X10166444Y-17182960D02*
X10156920Y-17135341D01*
X10156920Y-17135341D02*
X10156920Y-17097246D01*
X10156920Y-17097246D02*
X10166444Y-17049627D01*
X10166444Y-17049627D02*
X10175968Y-17021055D01*
X10175968Y-17021055D02*
X10185491Y-17002008D01*
X10185491Y-17002008D02*
X10204539Y-16973436D01*
X10204539Y-16973436D02*
X10214063Y-16963912D01*
X10395015Y-17192484D02*
X10280730Y-17192484D01*
X10337872Y-17192484D02*
X10337872Y-16992484D01*
X10337872Y-16992484D02*
X10318825Y-17021055D01*
X10318825Y-17021055D02*
X10299777Y-17040103D01*
X10299777Y-17040103D02*
X10280730Y-17049627D01*
X10566444Y-16992484D02*
X10528349Y-16992484D01*
X10528349Y-16992484D02*
X10509301Y-17002008D01*
X10509301Y-17002008D02*
X10499777Y-17011531D01*
X10499777Y-17011531D02*
X10480730Y-17040103D01*
X10480730Y-17040103D02*
X10471206Y-17078198D01*
X10471206Y-17078198D02*
X10471206Y-17154389D01*
X10471206Y-17154389D02*
X10480730Y-17173436D01*
X10480730Y-17173436D02*
X10490253Y-17182960D01*
X10490253Y-17182960D02*
X10509301Y-17192484D01*
X10509301Y-17192484D02*
X10547396Y-17192484D01*
X10547396Y-17192484D02*
X10566444Y-17182960D01*
X10566444Y-17182960D02*
X10575968Y-17173436D01*
X10575968Y-17173436D02*
X10585491Y-17154389D01*
X10585491Y-17154389D02*
X10585491Y-17106770D01*
X10585491Y-17106770D02*
X10575968Y-17087722D01*
X10575968Y-17087722D02*
X10566444Y-17078198D01*
X10566444Y-17078198D02*
X10547396Y-17068674D01*
X10547396Y-17068674D02*
X10509301Y-17068674D01*
X10509301Y-17068674D02*
X10490253Y-17078198D01*
X10490253Y-17078198D02*
X10480730Y-17087722D01*
X10480730Y-17087722D02*
X10471206Y-17106770D01*
X10823587Y-17192484D02*
X10823587Y-16992484D01*
X10909301Y-17192484D02*
X10909301Y-17087722D01*
X10909301Y-17087722D02*
X10899777Y-17068674D01*
X10899777Y-17068674D02*
X10880730Y-17059150D01*
X10880730Y-17059150D02*
X10852158Y-17059150D01*
X10852158Y-17059150D02*
X10833111Y-17068674D01*
X10833111Y-17068674D02*
X10823587Y-17078198D01*
X11033111Y-17192484D02*
X11014063Y-17182960D01*
X11014063Y-17182960D02*
X11004539Y-17173436D01*
X11004539Y-17173436D02*
X10995015Y-17154389D01*
X10995015Y-17154389D02*
X10995015Y-17097246D01*
X10995015Y-17097246D02*
X11004539Y-17078198D01*
X11004539Y-17078198D02*
X11014063Y-17068674D01*
X11014063Y-17068674D02*
X11033111Y-17059150D01*
X11033111Y-17059150D02*
X11061682Y-17059150D01*
X11061682Y-17059150D02*
X11080730Y-17068674D01*
X11080730Y-17068674D02*
X11090253Y-17078198D01*
X11090253Y-17078198D02*
X11099777Y-17097246D01*
X11099777Y-17097246D02*
X11099777Y-17154389D01*
X11099777Y-17154389D02*
X11090253Y-17173436D01*
X11090253Y-17173436D02*
X11080730Y-17182960D01*
X11080730Y-17182960D02*
X11061682Y-17192484D01*
X11061682Y-17192484D02*
X11033111Y-17192484D01*
X11214063Y-17192484D02*
X11195015Y-17182960D01*
X11195015Y-17182960D02*
X11185491Y-17163912D01*
X11185491Y-17163912D02*
X11185491Y-16992484D01*
X11366444Y-17182960D02*
X11347396Y-17192484D01*
X11347396Y-17192484D02*
X11309301Y-17192484D01*
X11309301Y-17192484D02*
X11290253Y-17182960D01*
X11290253Y-17182960D02*
X11280730Y-17163912D01*
X11280730Y-17163912D02*
X11280730Y-17087722D01*
X11280730Y-17087722D02*
X11290253Y-17068674D01*
X11290253Y-17068674D02*
X11309301Y-17059150D01*
X11309301Y-17059150D02*
X11347396Y-17059150D01*
X11347396Y-17059150D02*
X11366444Y-17068674D01*
X11366444Y-17068674D02*
X11375968Y-17087722D01*
X11375968Y-17087722D02*
X11375968Y-17106770D01*
X11375968Y-17106770D02*
X11280730Y-17125817D01*
X11452158Y-17182960D02*
X11471206Y-17192484D01*
X11471206Y-17192484D02*
X11509301Y-17192484D01*
X11509301Y-17192484D02*
X11528349Y-17182960D01*
X11528349Y-17182960D02*
X11537872Y-17163912D01*
X11537872Y-17163912D02*
X11537872Y-17154389D01*
X11537872Y-17154389D02*
X11528349Y-17135341D01*
X11528349Y-17135341D02*
X11509301Y-17125817D01*
X11509301Y-17125817D02*
X11480730Y-17125817D01*
X11480730Y-17125817D02*
X11461682Y-17116293D01*
X11461682Y-17116293D02*
X11452158Y-17097246D01*
X11452158Y-17097246D02*
X11452158Y-17087722D01*
X11452158Y-17087722D02*
X11461682Y-17068674D01*
X11461682Y-17068674D02*
X11480730Y-17059150D01*
X11480730Y-17059150D02*
X11509301Y-17059150D01*
X11509301Y-17059150D02*
X11528349Y-17068674D01*
X11604539Y-17268674D02*
X11614063Y-17259150D01*
X11614063Y-17259150D02*
X11633111Y-17230579D01*
X11633111Y-17230579D02*
X11642634Y-17211531D01*
X11642634Y-17211531D02*
X11652158Y-17182960D01*
X11652158Y-17182960D02*
X11661682Y-17135341D01*
X11661682Y-17135341D02*
X11661682Y-17097246D01*
X11661682Y-17097246D02*
X11652158Y-17049627D01*
X11652158Y-17049627D02*
X11642634Y-17021055D01*
X11642634Y-17021055D02*
X11633111Y-17002008D01*
X11633111Y-17002008D02*
X11614063Y-16973436D01*
X11614063Y-16973436D02*
X11604539Y-16963912D01*
M02*
