G04 #@! TF.GenerationSoftware,KiCad,Pcbnew,7.0.7*
G04 #@! TF.CreationDate,2025-11-09T15:54:12+08:00*
G04 #@! TF.ProjectId,3340_VCO_PANEL,33333430-5f56-4434-9f5f-50414e454c2e,rev?*
G04 #@! TF.SameCoordinates,Original*
G04 #@! TF.FileFunction,Legend,Bot*
G04 #@! TF.FilePolarity,Positive*
%FSLAX46Y46*%
G04 Gerber Fmt 4.6, Leading zero omitted, Abs format (unit mm)*
G04 Created by KiCad (PCBNEW 7.0.7) date 2025-11-09 15:54:12*
%MOMM*%
%LPD*%
G01*
G04 APERTURE LIST*
%ADD10C,0.150000*%
%ADD11C,6.200000*%
%ADD12C,6.500000*%
%ADD13O,3.200000X50.800000*%
%ADD14O,5.200000X3.200000*%
G04 APERTURE END LIST*
D10*
X104025506Y-115709819D02*
X104025506Y-116424104D01*
X104025506Y-116424104D02*
X104073125Y-116566961D01*
X104073125Y-116566961D02*
X104168363Y-116662200D01*
X104168363Y-116662200D02*
X104311220Y-116709819D01*
X104311220Y-116709819D02*
X104406458Y-116709819D01*
X103073125Y-116709819D02*
X103549315Y-116709819D01*
X103549315Y-116709819D02*
X103549315Y-115709819D01*
X102168363Y-116614580D02*
X102215982Y-116662200D01*
X102215982Y-116662200D02*
X102358839Y-116709819D01*
X102358839Y-116709819D02*
X102454077Y-116709819D01*
X102454077Y-116709819D02*
X102596934Y-116662200D01*
X102596934Y-116662200D02*
X102692172Y-116566961D01*
X102692172Y-116566961D02*
X102739791Y-116471723D01*
X102739791Y-116471723D02*
X102787410Y-116281247D01*
X102787410Y-116281247D02*
X102787410Y-116138390D01*
X102787410Y-116138390D02*
X102739791Y-115947914D01*
X102739791Y-115947914D02*
X102692172Y-115852676D01*
X102692172Y-115852676D02*
X102596934Y-115757438D01*
X102596934Y-115757438D02*
X102454077Y-115709819D01*
X102454077Y-115709819D02*
X102358839Y-115709819D01*
X102358839Y-115709819D02*
X102215982Y-115757438D01*
X102215982Y-115757438D02*
X102168363Y-115805057D01*
X101454077Y-115709819D02*
X101454077Y-116424104D01*
X101454077Y-116424104D02*
X101501696Y-116566961D01*
X101501696Y-116566961D02*
X101596934Y-116662200D01*
X101596934Y-116662200D02*
X101739791Y-116709819D01*
X101739791Y-116709819D02*
X101835029Y-116709819D01*
X100501696Y-116709819D02*
X100977886Y-116709819D01*
X100977886Y-116709819D02*
X100977886Y-115709819D01*
X99596934Y-116614580D02*
X99644553Y-116662200D01*
X99644553Y-116662200D02*
X99787410Y-116709819D01*
X99787410Y-116709819D02*
X99882648Y-116709819D01*
X99882648Y-116709819D02*
X100025505Y-116662200D01*
X100025505Y-116662200D02*
X100120743Y-116566961D01*
X100120743Y-116566961D02*
X100168362Y-116471723D01*
X100168362Y-116471723D02*
X100215981Y-116281247D01*
X100215981Y-116281247D02*
X100215981Y-116138390D01*
X100215981Y-116138390D02*
X100168362Y-115947914D01*
X100168362Y-115947914D02*
X100120743Y-115852676D01*
X100120743Y-115852676D02*
X100025505Y-115757438D01*
X100025505Y-115757438D02*
X99882648Y-115709819D01*
X99882648Y-115709819D02*
X99787410Y-115709819D01*
X99787410Y-115709819D02*
X99644553Y-115757438D01*
X99644553Y-115757438D02*
X99596934Y-115805057D01*
X98882648Y-115709819D02*
X98882648Y-116424104D01*
X98882648Y-116424104D02*
X98930267Y-116566961D01*
X98930267Y-116566961D02*
X99025505Y-116662200D01*
X99025505Y-116662200D02*
X99168362Y-116709819D01*
X99168362Y-116709819D02*
X99263600Y-116709819D01*
X97930267Y-116709819D02*
X98406457Y-116709819D01*
X98406457Y-116709819D02*
X98406457Y-115709819D01*
X97025505Y-116614580D02*
X97073124Y-116662200D01*
X97073124Y-116662200D02*
X97215981Y-116709819D01*
X97215981Y-116709819D02*
X97311219Y-116709819D01*
X97311219Y-116709819D02*
X97454076Y-116662200D01*
X97454076Y-116662200D02*
X97549314Y-116566961D01*
X97549314Y-116566961D02*
X97596933Y-116471723D01*
X97596933Y-116471723D02*
X97644552Y-116281247D01*
X97644552Y-116281247D02*
X97644552Y-116138390D01*
X97644552Y-116138390D02*
X97596933Y-115947914D01*
X97596933Y-115947914D02*
X97549314Y-115852676D01*
X97549314Y-115852676D02*
X97454076Y-115757438D01*
X97454076Y-115757438D02*
X97311219Y-115709819D01*
X97311219Y-115709819D02*
X97215981Y-115709819D01*
X97215981Y-115709819D02*
X97073124Y-115757438D01*
X97073124Y-115757438D02*
X97025505Y-115805057D01*
X96311219Y-115709819D02*
X96311219Y-116424104D01*
X96311219Y-116424104D02*
X96358838Y-116566961D01*
X96358838Y-116566961D02*
X96454076Y-116662200D01*
X96454076Y-116662200D02*
X96596933Y-116709819D01*
X96596933Y-116709819D02*
X96692171Y-116709819D01*
X95358838Y-116709819D02*
X95835028Y-116709819D01*
X95835028Y-116709819D02*
X95835028Y-115709819D01*
X94454076Y-116614580D02*
X94501695Y-116662200D01*
X94501695Y-116662200D02*
X94644552Y-116709819D01*
X94644552Y-116709819D02*
X94739790Y-116709819D01*
X94739790Y-116709819D02*
X94882647Y-116662200D01*
X94882647Y-116662200D02*
X94977885Y-116566961D01*
X94977885Y-116566961D02*
X95025504Y-116471723D01*
X95025504Y-116471723D02*
X95073123Y-116281247D01*
X95073123Y-116281247D02*
X95073123Y-116138390D01*
X95073123Y-116138390D02*
X95025504Y-115947914D01*
X95025504Y-115947914D02*
X94977885Y-115852676D01*
X94977885Y-115852676D02*
X94882647Y-115757438D01*
X94882647Y-115757438D02*
X94739790Y-115709819D01*
X94739790Y-115709819D02*
X94644552Y-115709819D01*
X94644552Y-115709819D02*
X94501695Y-115757438D01*
X94501695Y-115757438D02*
X94454076Y-115805057D01*
%LPC*%
D11*
X74830000Y-144000000D03*
X91610000Y-144000000D03*
X125170000Y-144000000D03*
X108390000Y-144000000D03*
X91610000Y-128000000D03*
X108390000Y-128000000D03*
X125170000Y-128000000D03*
X74830000Y-128000000D03*
D12*
X116780000Y-49500000D03*
X83220000Y-49500000D03*
D13*
X91610000Y-88750000D03*
X125170000Y-88750000D03*
X74830000Y-88750000D03*
X108390000Y-88750000D03*
D14*
X72100000Y-161250000D03*
X127980000Y-38750000D03*
X127980000Y-161250000D03*
X72100000Y-38750000D03*
%LPD*%
M02*
