M48
; DRILL file {KiCad 7.0.7} date Sat Nov  1 14:08:20 2025
; FORMAT={-:-/ absolute / metric / decimal}
; #@! TF.CreationDate,2025-11-01T14:08:20+08:00
; #@! TF.GenerationSoftware,Kicad,Pcbnew,7.0.7
; #@! TF.FileFunction,Plated,1,2,PTH
FMAT,2
METRIC
; #@! TA.AperFunction,Plated,PTH,ViaDrill
T1C0.400
; #@! TA.AperFunction,Plated,PTH,ComponentDrill
T2C0.600
; #@! TA.AperFunction,Plated,PTH,ComponentDrill
T3C1.000
; #@! TA.AperFunction,Plated,PTH,ComponentDrill
T4C1.200
; #@! TA.AperFunction,Plated,PTH,ComponentDrill
T5C1.700
%
G90
G05
T1
X68.94Y-48.5
X68.94Y-59.944
X68.94Y-71.389
X68.94Y-82.833
X68.94Y-94.278
X68.94Y-105.722
X68.94Y-117.167
X68.94Y-128.611
X68.94Y-140.056
X68.94Y-151.5
X76.2Y-54.356
X78.486Y-104.394
X78.994Y-70.612
X81.364Y-151.5
X81.788Y-140.97
X83.058Y-94.742
X83.312Y-127.0
X88.138Y-108.204
X89.662Y-73.66
X92.202Y-89.154
X93.726Y-143.51
X93.788Y-48.5
X93.788Y-151.5
X96.266Y-99.822
X96.52Y-75.946
X96.52Y-79.502
X99.06Y-53.594
X100.076Y-65.532
X100.076Y-117.856
X100.076Y-131.826
X105.156Y-78.994
X105.918Y-71.12
X106.212Y-48.5
X106.212Y-151.5
X109.474Y-140.716
X110.998Y-71.12
X114.808Y-122.174
X116.078Y-103.124
X118.636Y-151.5
X119.634Y-81.28
X119.634Y-84.328
X120.142Y-71.374
X121.666Y-55.118
X131.06Y-48.5
X131.06Y-59.944
X131.06Y-71.389
X131.06Y-82.833
X131.06Y-94.278
X131.06Y-105.722
X131.06Y-117.167
X131.06Y-128.611
X131.06Y-140.056
X131.06Y-151.5
T3
X81.95Y-78.0
X81.95Y-80.54
X81.95Y-83.08
X81.95Y-85.62
X81.95Y-88.16
X84.49Y-78.0
X84.49Y-80.54
X84.49Y-83.08
X84.49Y-85.62
X84.49Y-88.16
X100.838Y-77.724
X100.838Y-80.264
X100.838Y-82.804
X100.838Y-85.344
X100.838Y-87.884
X100.838Y-90.424
X100.838Y-92.964
X100.838Y-95.504
X116.078Y-77.724
X116.078Y-80.264
X116.078Y-82.804
X116.078Y-85.344
X116.078Y-87.884
X116.078Y-90.424
X116.078Y-92.964
X116.078Y-95.504
T4
X73.08Y-59.5
X76.58Y-59.5
X76.58Y-118.0
X89.86Y-59.5
X93.36Y-59.5
X93.36Y-118.0
X106.64Y-59.5
X110.14Y-59.5
X110.14Y-118.0
X123.42Y-59.5
X126.92Y-59.5
X126.92Y-118.0
T5
X70.63Y-63.65
X70.63Y-113.85
X79.03Y-64.85
X79.03Y-112.65
X87.41Y-63.65
X87.41Y-113.85
X95.81Y-64.85
X95.81Y-112.65
X104.19Y-63.65
X104.19Y-113.85
X112.59Y-64.85
X112.59Y-112.65
X120.97Y-63.65
X120.97Y-113.85
X129.37Y-64.85
X129.37Y-112.65
T2
X74.33Y-123.08G85X75.33Y-123.08
G05
X74.33Y-131.38G85X75.33Y-131.38
G05
X74.33Y-134.48G85X75.33Y-134.48
G05
X91.11Y-123.08G85X92.11Y-123.08
G05
X91.11Y-131.38G85X92.11Y-131.38
G05
X91.11Y-134.48G85X92.11Y-134.48
G05
X107.89Y-123.08G85X108.89Y-123.08
G05
X107.89Y-131.38G85X108.89Y-131.38
G05
X107.89Y-134.48G85X108.89Y-134.48
G05
X124.67Y-123.08G85X125.67Y-123.08
G05
X124.67Y-131.38G85X125.67Y-131.38
G05
X124.67Y-134.48G85X125.67Y-134.48
G05
X124.67Y-139.08G85X125.67Y-139.08
G05
X124.67Y-147.38G85X125.67Y-147.38
G05
X124.67Y-150.48G85X125.67Y-150.48
G05
T0
M30
