G04 #@! TF.GenerationSoftware,KiCad,Pcbnew,7.0.7*
G04 #@! TF.CreationDate,2025-11-01T14:08:12+08:00*
G04 #@! TF.ProjectId,2144_LPF,32313434-5f4c-4504-962e-6b696361645f,rev?*
G04 #@! TF.SameCoordinates,Original*
G04 #@! TF.FileFunction,Copper,L2,Bot*
G04 #@! TF.FilePolarity,Positive*
%FSLAX46Y46*%
G04 Gerber Fmt 4.6, Leading zero omitted, Abs format (unit mm)*
G04 Created by KiCad (PCBNEW 7.0.7) date 2025-11-01 14:08:12*
%MOMM*%
%LPD*%
G01*
G04 APERTURE LIST*
G04 Aperture macros list*
%AMRoundRect*
0 Rectangle with rounded corners*
0 $1 Rounding radius*
0 $2 $3 $4 $5 $6 $7 $8 $9 X,Y pos of 4 corners*
0 Add a 4 corners polygon primitive as box body*
4,1,4,$2,$3,$4,$5,$6,$7,$8,$9,$2,$3,0*
0 Add four circle primitives for the rounded corners*
1,1,$1+$1,$2,$3*
1,1,$1+$1,$4,$5*
1,1,$1+$1,$6,$7*
1,1,$1+$1,$8,$9*
0 Add four rect primitives between the rounded corners*
20,1,$1+$1,$2,$3,$4,$5,0*
20,1,$1+$1,$4,$5,$6,$7,0*
20,1,$1+$1,$6,$7,$8,$9,0*
20,1,$1+$1,$8,$9,$2,$3,0*%
G04 Aperture macros list end*
G04 #@! TA.AperFunction,ComponentPad*
%ADD10R,1.750000X1.750000*%
G04 #@! TD*
G04 #@! TA.AperFunction,ComponentPad*
%ADD11C,1.750000*%
G04 #@! TD*
G04 #@! TA.AperFunction,ComponentPad*
%ADD12C,2.700000*%
G04 #@! TD*
G04 #@! TA.AperFunction,ComponentPad*
%ADD13O,3.100000X2.300000*%
G04 #@! TD*
G04 #@! TA.AperFunction,ComponentPad*
%ADD14RoundRect,0.650000X-0.650000X-0.650000X0.650000X-0.650000X0.650000X0.650000X-0.650000X0.650000X0*%
G04 #@! TD*
G04 #@! TA.AperFunction,ComponentPad*
%ADD15R,1.700000X1.700000*%
G04 #@! TD*
G04 #@! TA.AperFunction,ComponentPad*
%ADD16C,1.700000*%
G04 #@! TD*
G04 #@! TA.AperFunction,ComponentPad*
%ADD17RoundRect,0.250000X0.600000X0.600000X-0.600000X0.600000X-0.600000X-0.600000X0.600000X-0.600000X0*%
G04 #@! TD*
G04 #@! TA.AperFunction,ViaPad*
%ADD18C,0.800000*%
G04 #@! TD*
G04 #@! TA.AperFunction,Conductor*
%ADD19C,0.508000*%
G04 #@! TD*
G04 APERTURE END LIST*
D10*
X126920000Y-59500000D03*
D11*
X123420000Y-59500000D03*
X126920000Y-118000000D03*
D12*
X120970000Y-63650000D03*
X129370000Y-64850000D03*
X129370000Y-112650000D03*
X120970000Y-113850000D03*
D13*
X125170000Y-134480000D03*
D14*
X125170000Y-123080000D03*
X125170000Y-131380000D03*
D10*
X76580000Y-59500000D03*
D11*
X73080000Y-59500000D03*
X76580000Y-118000000D03*
D12*
X70630000Y-63650000D03*
X79030000Y-64850000D03*
X79030000Y-112650000D03*
X70630000Y-113850000D03*
D13*
X125170000Y-150480000D03*
D14*
X125170000Y-139080000D03*
X125170000Y-147380000D03*
D10*
X93360000Y-59500000D03*
D11*
X89860000Y-59500000D03*
X93360000Y-118000000D03*
D12*
X87410000Y-63650000D03*
X95810000Y-64850000D03*
X95810000Y-112650000D03*
X87410000Y-113850000D03*
D10*
X110140000Y-59500000D03*
D11*
X106640000Y-59500000D03*
X110140000Y-118000000D03*
D12*
X104190000Y-63650000D03*
X112590000Y-64850000D03*
X112590000Y-112650000D03*
X104190000Y-113850000D03*
D13*
X91610000Y-134480000D03*
D14*
X91610000Y-123080000D03*
X91610000Y-131380000D03*
D13*
X74830000Y-134480000D03*
D14*
X74830000Y-123080000D03*
X74830000Y-131380000D03*
D13*
X108390000Y-134480000D03*
D14*
X108390000Y-123080000D03*
X108390000Y-131380000D03*
D15*
X100838000Y-95504000D03*
D16*
X100838000Y-92964000D03*
X100838000Y-90424000D03*
X100838000Y-87884000D03*
X100838000Y-85344000D03*
X100838000Y-82804000D03*
X100838000Y-80264000D03*
X100838000Y-77724000D03*
X116078000Y-77724000D03*
X116078000Y-80264000D03*
X116078000Y-82804000D03*
X116078000Y-85344000D03*
X116078000Y-87884000D03*
X116078000Y-90424000D03*
X116078000Y-92964000D03*
X116078000Y-95504000D03*
D17*
X84490000Y-78000000D03*
D16*
X81950000Y-78000000D03*
X84490000Y-80540000D03*
X81950000Y-80540000D03*
X84490000Y-83080000D03*
X81950000Y-83080000D03*
X84490000Y-85620000D03*
X81950000Y-85620000D03*
X84490000Y-88160000D03*
X81950000Y-88160000D03*
D18*
X93788000Y-48500000D03*
X100076000Y-65532000D03*
X96266000Y-99822000D03*
X131060000Y-117166664D03*
X81788000Y-140970000D03*
X131060000Y-151500000D03*
X78486000Y-104394000D03*
X68940000Y-71388888D03*
X68940000Y-59944444D03*
X92202000Y-89154000D03*
X68940000Y-105722220D03*
X68940000Y-117166664D03*
X83058000Y-94742000D03*
X131060000Y-82833332D03*
X131060000Y-140055552D03*
X68940000Y-82833332D03*
X131060000Y-71388888D03*
X106212000Y-151500000D03*
X109474000Y-140716000D03*
X68940000Y-128611108D03*
X78994000Y-70612000D03*
X100076000Y-131826000D03*
X105156000Y-78994000D03*
X100076000Y-117856000D03*
X68940000Y-94277776D03*
X99060000Y-53594000D03*
X114808000Y-122174000D03*
X131060000Y-48500000D03*
X131060000Y-105722220D03*
X89662000Y-73660000D03*
X88138000Y-108204000D03*
X76200000Y-54356000D03*
X131060000Y-128611108D03*
X118636000Y-151500000D03*
X120142000Y-71374000D03*
X121666000Y-55118000D03*
X68940000Y-48500000D03*
X68940000Y-140055552D03*
X116078000Y-103124000D03*
X93788000Y-151500000D03*
X93726000Y-143510000D03*
X131060000Y-94277776D03*
X131060000Y-59944444D03*
X83312000Y-127000000D03*
X81364000Y-151500000D03*
X106212000Y-48500000D03*
X68940000Y-151500000D03*
X105918000Y-71120000D03*
X110998000Y-71120000D03*
X96520000Y-75946000D03*
X96520000Y-79502000D03*
X119634000Y-81280000D03*
X119634000Y-84328000D03*
D19*
X110998000Y-71120000D02*
X105918000Y-71120000D01*
X96520000Y-79502000D02*
X96520000Y-75946000D01*
X119634000Y-84328000D02*
X119634000Y-81280000D01*
G04 #@! TA.AperFunction,Conductor*
G36*
X82552470Y-85869363D02*
G01*
X82558949Y-85875396D01*
X83064925Y-86381373D01*
X83118424Y-86304970D01*
X83173001Y-86261345D01*
X83242499Y-86254152D01*
X83304854Y-86285674D01*
X83321574Y-86304970D01*
X83375072Y-86381373D01*
X83375073Y-86381373D01*
X83881050Y-85875395D01*
X83942373Y-85841910D01*
X84012064Y-85846894D01*
X84067998Y-85888765D01*
X84073039Y-85896025D01*
X84108239Y-85950798D01*
X84190215Y-86021830D01*
X84223602Y-86050759D01*
X84221293Y-86053422D01*
X84256006Y-86093499D01*
X84265935Y-86162660D01*
X84236898Y-86226210D01*
X84230882Y-86232669D01*
X83728625Y-86734925D01*
X83804594Y-86788119D01*
X83848219Y-86842696D01*
X83855413Y-86912194D01*
X83823890Y-86974549D01*
X83804595Y-86991269D01*
X83618594Y-87121508D01*
X83451505Y-87288597D01*
X83321575Y-87474158D01*
X83266998Y-87517783D01*
X83197500Y-87524977D01*
X83135145Y-87493454D01*
X83118425Y-87474158D01*
X82988494Y-87288597D01*
X82821402Y-87121506D01*
X82821401Y-87121505D01*
X82635405Y-86991269D01*
X82591781Y-86936692D01*
X82584588Y-86867193D01*
X82616110Y-86804839D01*
X82635405Y-86788119D01*
X82711373Y-86734925D01*
X82209116Y-86232669D01*
X82175631Y-86171346D01*
X82180615Y-86101655D01*
X82217640Y-86052193D01*
X82216398Y-86050759D01*
X82223100Y-86044952D01*
X82331761Y-85950798D01*
X82366954Y-85896037D01*
X82419755Y-85850283D01*
X82488914Y-85840339D01*
X82552470Y-85869363D01*
G37*
G04 #@! TD.AperFunction*
G04 #@! TA.AperFunction,Conductor*
G36*
X82552470Y-83329363D02*
G01*
X82558949Y-83335396D01*
X83064925Y-83841373D01*
X83118424Y-83764970D01*
X83173001Y-83721345D01*
X83242499Y-83714152D01*
X83304854Y-83745674D01*
X83321574Y-83764970D01*
X83375072Y-83841373D01*
X83375073Y-83841373D01*
X83881050Y-83335395D01*
X83942373Y-83301910D01*
X84012064Y-83306894D01*
X84067998Y-83348765D01*
X84073039Y-83356025D01*
X84108239Y-83410798D01*
X84190215Y-83481830D01*
X84223602Y-83510759D01*
X84221293Y-83513422D01*
X84256006Y-83553499D01*
X84265935Y-83622660D01*
X84236898Y-83686210D01*
X84230882Y-83692669D01*
X83728625Y-84194925D01*
X83805031Y-84248425D01*
X83848655Y-84303002D01*
X83855848Y-84372501D01*
X83824326Y-84434855D01*
X83805029Y-84451576D01*
X83728625Y-84505072D01*
X84230883Y-85007330D01*
X84264368Y-85068653D01*
X84259384Y-85138345D01*
X84222357Y-85187805D01*
X84223602Y-85189241D01*
X84108238Y-85289202D01*
X84073046Y-85343962D01*
X84020242Y-85389717D01*
X83951083Y-85399660D01*
X83887528Y-85370634D01*
X83881050Y-85364603D01*
X83375072Y-84858625D01*
X83375072Y-84858626D01*
X83321574Y-84935030D01*
X83266998Y-84978655D01*
X83197499Y-84985849D01*
X83135144Y-84954326D01*
X83118424Y-84935030D01*
X83064925Y-84858626D01*
X83064925Y-84858625D01*
X82558949Y-85364602D01*
X82497626Y-85398087D01*
X82427934Y-85393103D01*
X82372001Y-85351231D01*
X82366953Y-85343961D01*
X82331761Y-85289202D01*
X82216398Y-85189241D01*
X82218708Y-85186574D01*
X82184005Y-85146528D01*
X82174058Y-85077370D01*
X82203080Y-85013813D01*
X82209116Y-85007330D01*
X82711373Y-84505073D01*
X82634969Y-84451576D01*
X82591344Y-84396999D01*
X82584150Y-84327501D01*
X82615672Y-84265146D01*
X82634968Y-84248425D01*
X82711373Y-84194925D01*
X82209116Y-83692669D01*
X82175631Y-83631346D01*
X82180615Y-83561655D01*
X82217640Y-83512193D01*
X82216398Y-83510759D01*
X82223100Y-83504952D01*
X82331761Y-83410798D01*
X82366954Y-83356037D01*
X82419755Y-83310283D01*
X82488914Y-83300339D01*
X82552470Y-83329363D01*
G37*
G04 #@! TD.AperFunction*
G04 #@! TA.AperFunction,Conductor*
G36*
X82552470Y-80789363D02*
G01*
X82558949Y-80795396D01*
X83064925Y-81301373D01*
X83118425Y-81224968D01*
X83173002Y-81181344D01*
X83242501Y-81174151D01*
X83304855Y-81205673D01*
X83321576Y-81224969D01*
X83375073Y-81301372D01*
X83881050Y-80795395D01*
X83942373Y-80761910D01*
X84012064Y-80766894D01*
X84067998Y-80808765D01*
X84073039Y-80816025D01*
X84108239Y-80870798D01*
X84190215Y-80941830D01*
X84223602Y-80970759D01*
X84221293Y-80973422D01*
X84256006Y-81013499D01*
X84265935Y-81082660D01*
X84236898Y-81146210D01*
X84230882Y-81152669D01*
X83728625Y-81654925D01*
X83805031Y-81708425D01*
X83848655Y-81763002D01*
X83855848Y-81832501D01*
X83824326Y-81894855D01*
X83805029Y-81911576D01*
X83728625Y-81965072D01*
X84230883Y-82467330D01*
X84264368Y-82528653D01*
X84259384Y-82598345D01*
X84222357Y-82647805D01*
X84223602Y-82649241D01*
X84108238Y-82749202D01*
X84073046Y-82803962D01*
X84020242Y-82849717D01*
X83951083Y-82859660D01*
X83887528Y-82830634D01*
X83881050Y-82824603D01*
X83375072Y-82318625D01*
X83375072Y-82318626D01*
X83321574Y-82395030D01*
X83266998Y-82438655D01*
X83197499Y-82445849D01*
X83135144Y-82414326D01*
X83118424Y-82395030D01*
X83064925Y-82318626D01*
X83064925Y-82318625D01*
X82558949Y-82824602D01*
X82497626Y-82858087D01*
X82427934Y-82853103D01*
X82372001Y-82811231D01*
X82366953Y-82803961D01*
X82331761Y-82749202D01*
X82216398Y-82649241D01*
X82218708Y-82646574D01*
X82184005Y-82606528D01*
X82174058Y-82537370D01*
X82203080Y-82473813D01*
X82209116Y-82467330D01*
X82711373Y-81965073D01*
X82634969Y-81911576D01*
X82591344Y-81856999D01*
X82584150Y-81787501D01*
X82615672Y-81725146D01*
X82634968Y-81708425D01*
X82711373Y-81654925D01*
X82209116Y-81152669D01*
X82175631Y-81091346D01*
X82180615Y-81021655D01*
X82217640Y-80972193D01*
X82216398Y-80970759D01*
X82223100Y-80964952D01*
X82331761Y-80870798D01*
X82366954Y-80816037D01*
X82419755Y-80770283D01*
X82488914Y-80760339D01*
X82552470Y-80789363D01*
G37*
G04 #@! TD.AperFunction*
G04 #@! TA.AperFunction,Conductor*
G36*
X83177038Y-78867053D02*
G01*
X83202335Y-78910733D01*
X83205186Y-78919334D01*
X83297288Y-79068656D01*
X83421344Y-79192712D01*
X83570666Y-79284814D01*
X83643032Y-79308793D01*
X83700476Y-79348566D01*
X83727299Y-79413081D01*
X83727412Y-79423859D01*
X84230883Y-79927330D01*
X84264368Y-79988653D01*
X84259384Y-80058345D01*
X84222357Y-80107805D01*
X84223602Y-80109241D01*
X84108238Y-80209202D01*
X84073046Y-80263962D01*
X84020242Y-80309717D01*
X83951083Y-80319660D01*
X83887528Y-80290634D01*
X83881050Y-80284603D01*
X83375072Y-79778625D01*
X83375072Y-79778626D01*
X83321574Y-79855030D01*
X83266998Y-79898655D01*
X83197499Y-79905849D01*
X83135144Y-79874326D01*
X83118424Y-79855030D01*
X83064925Y-79778626D01*
X83064925Y-79778625D01*
X82558949Y-80284602D01*
X82497626Y-80318087D01*
X82427934Y-80313103D01*
X82372001Y-80271231D01*
X82366953Y-80263961D01*
X82331761Y-80209202D01*
X82216398Y-80109241D01*
X82218708Y-80106574D01*
X82184005Y-80066528D01*
X82174058Y-79997370D01*
X82203080Y-79933813D01*
X82209116Y-79927330D01*
X82711373Y-79425073D01*
X82711373Y-79425072D01*
X82635405Y-79371880D01*
X82591780Y-79317304D01*
X82584586Y-79247805D01*
X82616108Y-79185451D01*
X82635399Y-79168734D01*
X82821401Y-79038495D01*
X82988495Y-78871401D01*
X82988504Y-78871388D01*
X82989636Y-78870040D01*
X82990293Y-78869602D01*
X82992323Y-78867573D01*
X82992730Y-78867980D01*
X83047805Y-78831334D01*
X83117666Y-78830220D01*
X83177038Y-78867053D01*
G37*
G04 #@! TD.AperFunction*
G04 #@! TA.AperFunction,Conductor*
G36*
X132503039Y-47019685D02*
G01*
X132548794Y-47072489D01*
X132560000Y-47124000D01*
X132560000Y-152876000D01*
X132540315Y-152943039D01*
X132487511Y-152988794D01*
X132436000Y-153000000D01*
X67564000Y-153000000D01*
X67496961Y-152980315D01*
X67451206Y-152927511D01*
X67440000Y-152876000D01*
X67440000Y-150730001D01*
X123134572Y-150730001D01*
X123135274Y-150738911D01*
X123135274Y-150738914D01*
X123195901Y-150991445D01*
X123195906Y-150991462D01*
X123295290Y-151231397D01*
X123295292Y-151231400D01*
X123430990Y-151452840D01*
X123430991Y-151452841D01*
X123599666Y-151650333D01*
X123797158Y-151819008D01*
X123797159Y-151819009D01*
X124018599Y-151954707D01*
X124018602Y-151954709D01*
X124258537Y-152054093D01*
X124258554Y-152054098D01*
X124511088Y-152114725D01*
X124511087Y-152114725D01*
X124705171Y-152130000D01*
X124920000Y-152130000D01*
X124920000Y-150904000D01*
X124939685Y-150836961D01*
X124992489Y-150791206D01*
X125044000Y-150780000D01*
X125296000Y-150780000D01*
X125363039Y-150799685D01*
X125408794Y-150852489D01*
X125420000Y-150904000D01*
X125420000Y-152130000D01*
X125634829Y-152130000D01*
X125828911Y-152114725D01*
X126081445Y-152054098D01*
X126081462Y-152054093D01*
X126321397Y-151954709D01*
X126321400Y-151954707D01*
X126542840Y-151819009D01*
X126542841Y-151819008D01*
X126740333Y-151650333D01*
X126909008Y-151452841D01*
X126909009Y-151452840D01*
X127044707Y-151231400D01*
X127044709Y-151231397D01*
X127144093Y-150991462D01*
X127144098Y-150991445D01*
X127204725Y-150738914D01*
X127204725Y-150738911D01*
X127205427Y-150730001D01*
X127205426Y-150730000D01*
X126074979Y-150730000D01*
X126007940Y-150710315D01*
X125962185Y-150657511D01*
X125952241Y-150588353D01*
X125955713Y-150572066D01*
X125973894Y-150508162D01*
X125973895Y-150508160D01*
X125963546Y-150396482D01*
X125963546Y-150396479D01*
X125963544Y-150396475D01*
X125961115Y-150387937D01*
X125961701Y-150318070D01*
X125999966Y-150259610D01*
X126063763Y-150231119D01*
X126080381Y-150230000D01*
X127205426Y-150230000D01*
X127205427Y-150229998D01*
X127204725Y-150221088D01*
X127204725Y-150221085D01*
X127144098Y-149968554D01*
X127144093Y-149968537D01*
X127044709Y-149728602D01*
X127044707Y-149728599D01*
X126909009Y-149507159D01*
X126909008Y-149507158D01*
X126740333Y-149309666D01*
X126542841Y-149140991D01*
X126538898Y-149138126D01*
X126539506Y-149137288D01*
X126496001Y-149089197D01*
X126484582Y-149020267D01*
X126512242Y-148956106D01*
X126537590Y-148932989D01*
X126558142Y-148918911D01*
X126708911Y-148768142D01*
X126829409Y-148592237D01*
X126915532Y-148397185D01*
X126964349Y-148189630D01*
X126970500Y-148101012D01*
X126970500Y-146658988D01*
X126964349Y-146570370D01*
X126964347Y-146570364D01*
X126964347Y-146570359D01*
X126915534Y-146362823D01*
X126915532Y-146362817D01*
X126915532Y-146362815D01*
X126829409Y-146167763D01*
X126708911Y-145991858D01*
X126708906Y-145991852D01*
X126558147Y-145841093D01*
X126558141Y-145841088D01*
X126382238Y-145720592D01*
X126382239Y-145720592D01*
X126382237Y-145720591D01*
X126187185Y-145634468D01*
X126187183Y-145634467D01*
X126187182Y-145634467D01*
X126187176Y-145634465D01*
X125979640Y-145585652D01*
X125979625Y-145585650D01*
X125906546Y-145580578D01*
X125891012Y-145579500D01*
X124448988Y-145579500D01*
X124434705Y-145580491D01*
X124360374Y-145585650D01*
X124360359Y-145585652D01*
X124152823Y-145634465D01*
X124152817Y-145634467D01*
X123957761Y-145720592D01*
X123781858Y-145841088D01*
X123781852Y-145841093D01*
X123631093Y-145991852D01*
X123631088Y-145991858D01*
X123510592Y-146167761D01*
X123424467Y-146362817D01*
X123424465Y-146362823D01*
X123375652Y-146570359D01*
X123375650Y-146570374D01*
X123369500Y-146658990D01*
X123369500Y-148101010D01*
X123375650Y-148189625D01*
X123375652Y-148189640D01*
X123424465Y-148397176D01*
X123424467Y-148397182D01*
X123424468Y-148397185D01*
X123510591Y-148592237D01*
X123510592Y-148592238D01*
X123631088Y-148768141D01*
X123631093Y-148768147D01*
X123781852Y-148918906D01*
X123781856Y-148918909D01*
X123781858Y-148918911D01*
X123802405Y-148932986D01*
X123846589Y-148987112D01*
X123854496Y-149056533D01*
X123823617Y-149119208D01*
X123800926Y-149137884D01*
X123801102Y-149138126D01*
X123797158Y-149140991D01*
X123599666Y-149309666D01*
X123430991Y-149507158D01*
X123430990Y-149507159D01*
X123295292Y-149728599D01*
X123295290Y-149728602D01*
X123195906Y-149968537D01*
X123195901Y-149968554D01*
X123135274Y-150221085D01*
X123135274Y-150221088D01*
X123134572Y-150229998D01*
X123134574Y-150230000D01*
X124265021Y-150230000D01*
X124332060Y-150249685D01*
X124377815Y-150302489D01*
X124387759Y-150371647D01*
X124384287Y-150387934D01*
X124366105Y-150451837D01*
X124366104Y-150451837D01*
X124376453Y-150563517D01*
X124378885Y-150572063D01*
X124378299Y-150641930D01*
X124340034Y-150700390D01*
X124276237Y-150728881D01*
X124259619Y-150730000D01*
X123134574Y-150730000D01*
X123134572Y-150730001D01*
X67440000Y-150730001D01*
X67440000Y-139801010D01*
X123369500Y-139801010D01*
X123375650Y-139889625D01*
X123375652Y-139889640D01*
X123424465Y-140097176D01*
X123424467Y-140097182D01*
X123424468Y-140097185D01*
X123510591Y-140292237D01*
X123510592Y-140292238D01*
X123631088Y-140468141D01*
X123631093Y-140468147D01*
X123781852Y-140618906D01*
X123781858Y-140618911D01*
X123957763Y-140739409D01*
X124152815Y-140825532D01*
X124152821Y-140825533D01*
X124152823Y-140825534D01*
X124360359Y-140874347D01*
X124360364Y-140874347D01*
X124360370Y-140874349D01*
X124448988Y-140880500D01*
X124448990Y-140880500D01*
X125891010Y-140880500D01*
X125891012Y-140880500D01*
X125979630Y-140874349D01*
X125979636Y-140874347D01*
X125979640Y-140874347D01*
X126187176Y-140825534D01*
X126187174Y-140825534D01*
X126187185Y-140825532D01*
X126382237Y-140739409D01*
X126558142Y-140618911D01*
X126708911Y-140468142D01*
X126829409Y-140292237D01*
X126915532Y-140097185D01*
X126964349Y-139889630D01*
X126970500Y-139801012D01*
X126970500Y-138358988D01*
X126964349Y-138270370D01*
X126964347Y-138270364D01*
X126964347Y-138270359D01*
X126915534Y-138062823D01*
X126915532Y-138062817D01*
X126915532Y-138062815D01*
X126829409Y-137867763D01*
X126708911Y-137691858D01*
X126708906Y-137691852D01*
X126558147Y-137541093D01*
X126558141Y-137541088D01*
X126382238Y-137420592D01*
X126382239Y-137420592D01*
X126382237Y-137420591D01*
X126187185Y-137334468D01*
X126187183Y-137334467D01*
X126187182Y-137334467D01*
X126187176Y-137334465D01*
X125979640Y-137285652D01*
X125979625Y-137285650D01*
X125906546Y-137280578D01*
X125891012Y-137279500D01*
X124448988Y-137279500D01*
X124434705Y-137280491D01*
X124360374Y-137285650D01*
X124360359Y-137285652D01*
X124152823Y-137334465D01*
X124152817Y-137334467D01*
X123957761Y-137420592D01*
X123781858Y-137541088D01*
X123781852Y-137541093D01*
X123631093Y-137691852D01*
X123631088Y-137691858D01*
X123510592Y-137867761D01*
X123424467Y-138062817D01*
X123424465Y-138062823D01*
X123375652Y-138270359D01*
X123375650Y-138270374D01*
X123369500Y-138358990D01*
X123369500Y-139801010D01*
X67440000Y-139801010D01*
X67440000Y-134730001D01*
X72794572Y-134730001D01*
X72795274Y-134738911D01*
X72795274Y-134738914D01*
X72855901Y-134991445D01*
X72855906Y-134991462D01*
X72955290Y-135231397D01*
X72955292Y-135231400D01*
X73090990Y-135452840D01*
X73090991Y-135452841D01*
X73259666Y-135650333D01*
X73457158Y-135819008D01*
X73457159Y-135819009D01*
X73678599Y-135954707D01*
X73678602Y-135954709D01*
X73918537Y-136054093D01*
X73918554Y-136054098D01*
X74171088Y-136114725D01*
X74171087Y-136114725D01*
X74365171Y-136130000D01*
X74580000Y-136130000D01*
X74580000Y-134904000D01*
X74599685Y-134836961D01*
X74652489Y-134791206D01*
X74704000Y-134780000D01*
X74956000Y-134780000D01*
X75023039Y-134799685D01*
X75068794Y-134852489D01*
X75080000Y-134904000D01*
X75080000Y-136130000D01*
X75294829Y-136130000D01*
X75488911Y-136114725D01*
X75741445Y-136054098D01*
X75741462Y-136054093D01*
X75981397Y-135954709D01*
X75981400Y-135954707D01*
X76202840Y-135819009D01*
X76202841Y-135819008D01*
X76400333Y-135650333D01*
X76569008Y-135452841D01*
X76569009Y-135452840D01*
X76704707Y-135231400D01*
X76704709Y-135231397D01*
X76804093Y-134991462D01*
X76804098Y-134991445D01*
X76864725Y-134738914D01*
X76864725Y-134738911D01*
X76865427Y-134730001D01*
X89574572Y-134730001D01*
X89575274Y-134738911D01*
X89575274Y-134738914D01*
X89635901Y-134991445D01*
X89635906Y-134991462D01*
X89735290Y-135231397D01*
X89735292Y-135231400D01*
X89870990Y-135452840D01*
X89870991Y-135452841D01*
X90039666Y-135650333D01*
X90237158Y-135819008D01*
X90237159Y-135819009D01*
X90458599Y-135954707D01*
X90458602Y-135954709D01*
X90698537Y-136054093D01*
X90698554Y-136054098D01*
X90951088Y-136114725D01*
X90951087Y-136114725D01*
X91145171Y-136130000D01*
X91360000Y-136130000D01*
X91360000Y-134904000D01*
X91379685Y-134836961D01*
X91432489Y-134791206D01*
X91484000Y-134780000D01*
X91736000Y-134780000D01*
X91803039Y-134799685D01*
X91848794Y-134852489D01*
X91860000Y-134904000D01*
X91860000Y-136130000D01*
X92074829Y-136130000D01*
X92268911Y-136114725D01*
X92521445Y-136054098D01*
X92521462Y-136054093D01*
X92761397Y-135954709D01*
X92761400Y-135954707D01*
X92982840Y-135819009D01*
X92982841Y-135819008D01*
X93180333Y-135650333D01*
X93349008Y-135452841D01*
X93349009Y-135452840D01*
X93484707Y-135231400D01*
X93484709Y-135231397D01*
X93584093Y-134991462D01*
X93584098Y-134991445D01*
X93644725Y-134738914D01*
X93644725Y-134738911D01*
X93645427Y-134730001D01*
X106354572Y-134730001D01*
X106355274Y-134738911D01*
X106355274Y-134738914D01*
X106415901Y-134991445D01*
X106415906Y-134991462D01*
X106515290Y-135231397D01*
X106515292Y-135231400D01*
X106650990Y-135452840D01*
X106650991Y-135452841D01*
X106819666Y-135650333D01*
X107017158Y-135819008D01*
X107017159Y-135819009D01*
X107238599Y-135954707D01*
X107238602Y-135954709D01*
X107478537Y-136054093D01*
X107478554Y-136054098D01*
X107731088Y-136114725D01*
X107731087Y-136114725D01*
X107925171Y-136130000D01*
X108140000Y-136130000D01*
X108140000Y-134904000D01*
X108159685Y-134836961D01*
X108212489Y-134791206D01*
X108264000Y-134780000D01*
X108516000Y-134780000D01*
X108583039Y-134799685D01*
X108628794Y-134852489D01*
X108640000Y-134904000D01*
X108639999Y-136130000D01*
X108854829Y-136130000D01*
X109048911Y-136114725D01*
X109301445Y-136054098D01*
X109301462Y-136054093D01*
X109541397Y-135954709D01*
X109541400Y-135954707D01*
X109762840Y-135819009D01*
X109762841Y-135819008D01*
X109960333Y-135650333D01*
X110129008Y-135452841D01*
X110129009Y-135452840D01*
X110264707Y-135231400D01*
X110264709Y-135231397D01*
X110364093Y-134991462D01*
X110364098Y-134991445D01*
X110424725Y-134738914D01*
X110424725Y-134738911D01*
X110425427Y-134730001D01*
X123134572Y-134730001D01*
X123135274Y-134738911D01*
X123135274Y-134738914D01*
X123195901Y-134991445D01*
X123195906Y-134991462D01*
X123295290Y-135231397D01*
X123295292Y-135231400D01*
X123430990Y-135452840D01*
X123430991Y-135452841D01*
X123599666Y-135650333D01*
X123797158Y-135819008D01*
X123797159Y-135819009D01*
X124018599Y-135954707D01*
X124018602Y-135954709D01*
X124258537Y-136054093D01*
X124258554Y-136054098D01*
X124511088Y-136114725D01*
X124511087Y-136114725D01*
X124705171Y-136130000D01*
X124920000Y-136130000D01*
X124920000Y-134904000D01*
X124939685Y-134836961D01*
X124992489Y-134791206D01*
X125044000Y-134780000D01*
X125296000Y-134780000D01*
X125363039Y-134799685D01*
X125408794Y-134852489D01*
X125420000Y-134904000D01*
X125420000Y-136130000D01*
X125634829Y-136130000D01*
X125828911Y-136114725D01*
X126081445Y-136054098D01*
X126081462Y-136054093D01*
X126321397Y-135954709D01*
X126321400Y-135954707D01*
X126542840Y-135819009D01*
X126542841Y-135819008D01*
X126740333Y-135650333D01*
X126909008Y-135452841D01*
X126909009Y-135452840D01*
X127044707Y-135231400D01*
X127044709Y-135231397D01*
X127144093Y-134991462D01*
X127144098Y-134991445D01*
X127204725Y-134738914D01*
X127204725Y-134738911D01*
X127205427Y-134730001D01*
X127205426Y-134730000D01*
X126074979Y-134730000D01*
X126007940Y-134710315D01*
X125962185Y-134657511D01*
X125952241Y-134588353D01*
X125955713Y-134572066D01*
X125973894Y-134508162D01*
X125973895Y-134508160D01*
X125963546Y-134396482D01*
X125963546Y-134396479D01*
X125963544Y-134396475D01*
X125961115Y-134387937D01*
X125961701Y-134318070D01*
X125999966Y-134259610D01*
X126063763Y-134231119D01*
X126080381Y-134230000D01*
X127205426Y-134230000D01*
X127205427Y-134229998D01*
X127204725Y-134221088D01*
X127204725Y-134221085D01*
X127144098Y-133968554D01*
X127144093Y-133968537D01*
X127044709Y-133728602D01*
X127044707Y-133728599D01*
X126909009Y-133507159D01*
X126909008Y-133507158D01*
X126740333Y-133309666D01*
X126542841Y-133140991D01*
X126538898Y-133138126D01*
X126539506Y-133137288D01*
X126496001Y-133089197D01*
X126484582Y-133020267D01*
X126512242Y-132956106D01*
X126537590Y-132932989D01*
X126558142Y-132918911D01*
X126708911Y-132768142D01*
X126829409Y-132592237D01*
X126915532Y-132397185D01*
X126964349Y-132189630D01*
X126970500Y-132101012D01*
X126970500Y-130658988D01*
X126964349Y-130570370D01*
X126964347Y-130570364D01*
X126964347Y-130570359D01*
X126915534Y-130362823D01*
X126915532Y-130362817D01*
X126915532Y-130362815D01*
X126829409Y-130167763D01*
X126708911Y-129991858D01*
X126708906Y-129991852D01*
X126558147Y-129841093D01*
X126558141Y-129841088D01*
X126382238Y-129720592D01*
X126382239Y-129720592D01*
X126382237Y-129720591D01*
X126187185Y-129634468D01*
X126187183Y-129634467D01*
X126187182Y-129634467D01*
X126187176Y-129634465D01*
X125979640Y-129585652D01*
X125979625Y-129585650D01*
X125906546Y-129580578D01*
X125891012Y-129579500D01*
X124448988Y-129579500D01*
X124434705Y-129580491D01*
X124360374Y-129585650D01*
X124360359Y-129585652D01*
X124152823Y-129634465D01*
X124152817Y-129634467D01*
X123957761Y-129720592D01*
X123781858Y-129841088D01*
X123781852Y-129841093D01*
X123631093Y-129991852D01*
X123631088Y-129991858D01*
X123510592Y-130167761D01*
X123424467Y-130362817D01*
X123424465Y-130362823D01*
X123375652Y-130570359D01*
X123375650Y-130570374D01*
X123369500Y-130658990D01*
X123369500Y-132101010D01*
X123375650Y-132189625D01*
X123375652Y-132189640D01*
X123424465Y-132397176D01*
X123424467Y-132397182D01*
X123424468Y-132397185D01*
X123510591Y-132592237D01*
X123510592Y-132592238D01*
X123631088Y-132768141D01*
X123631093Y-132768147D01*
X123781852Y-132918906D01*
X123781856Y-132918909D01*
X123781858Y-132918911D01*
X123802405Y-132932986D01*
X123846589Y-132987112D01*
X123854496Y-133056533D01*
X123823617Y-133119208D01*
X123800926Y-133137884D01*
X123801102Y-133138126D01*
X123797158Y-133140991D01*
X123599666Y-133309666D01*
X123430991Y-133507158D01*
X123430990Y-133507159D01*
X123295292Y-133728599D01*
X123295290Y-133728602D01*
X123195906Y-133968537D01*
X123195901Y-133968554D01*
X123135274Y-134221085D01*
X123135274Y-134221088D01*
X123134572Y-134229998D01*
X123134574Y-134230000D01*
X124265021Y-134230000D01*
X124332060Y-134249685D01*
X124377815Y-134302489D01*
X124387759Y-134371647D01*
X124384287Y-134387934D01*
X124366105Y-134451837D01*
X124366104Y-134451837D01*
X124376453Y-134563517D01*
X124378885Y-134572063D01*
X124378299Y-134641930D01*
X124340034Y-134700390D01*
X124276237Y-134728881D01*
X124259619Y-134730000D01*
X123134574Y-134730000D01*
X123134572Y-134730001D01*
X110425427Y-134730001D01*
X110425426Y-134730000D01*
X109294979Y-134730000D01*
X109227940Y-134710315D01*
X109182185Y-134657511D01*
X109172241Y-134588353D01*
X109175713Y-134572066D01*
X109193894Y-134508162D01*
X109193895Y-134508160D01*
X109183546Y-134396482D01*
X109183546Y-134396479D01*
X109183544Y-134396475D01*
X109181115Y-134387937D01*
X109181701Y-134318070D01*
X109219966Y-134259610D01*
X109283763Y-134231119D01*
X109300381Y-134230000D01*
X110425426Y-134230000D01*
X110425427Y-134229998D01*
X110424725Y-134221088D01*
X110424725Y-134221085D01*
X110364098Y-133968554D01*
X110364093Y-133968537D01*
X110264709Y-133728602D01*
X110264707Y-133728599D01*
X110129009Y-133507159D01*
X110129008Y-133507158D01*
X109960333Y-133309666D01*
X109762841Y-133140991D01*
X109758898Y-133138126D01*
X109759506Y-133137288D01*
X109716001Y-133089197D01*
X109704582Y-133020267D01*
X109732242Y-132956106D01*
X109757590Y-132932989D01*
X109778142Y-132918911D01*
X109928911Y-132768142D01*
X110049409Y-132592237D01*
X110135532Y-132397185D01*
X110184349Y-132189630D01*
X110190500Y-132101012D01*
X110190500Y-130658988D01*
X110184349Y-130570370D01*
X110184347Y-130570364D01*
X110184347Y-130570359D01*
X110135534Y-130362823D01*
X110135532Y-130362817D01*
X110135532Y-130362815D01*
X110049409Y-130167763D01*
X109928911Y-129991858D01*
X109928906Y-129991852D01*
X109778147Y-129841093D01*
X109778141Y-129841088D01*
X109602238Y-129720592D01*
X109602239Y-129720592D01*
X109602237Y-129720591D01*
X109407185Y-129634468D01*
X109407183Y-129634467D01*
X109407182Y-129634467D01*
X109407176Y-129634465D01*
X109199640Y-129585652D01*
X109199625Y-129585650D01*
X109126546Y-129580578D01*
X109111012Y-129579500D01*
X107668988Y-129579500D01*
X107654705Y-129580491D01*
X107580374Y-129585650D01*
X107580359Y-129585652D01*
X107372823Y-129634465D01*
X107372817Y-129634467D01*
X107177761Y-129720592D01*
X107001858Y-129841088D01*
X107001852Y-129841093D01*
X106851093Y-129991852D01*
X106851088Y-129991858D01*
X106730592Y-130167761D01*
X106644467Y-130362817D01*
X106644465Y-130362823D01*
X106595652Y-130570359D01*
X106595650Y-130570374D01*
X106589500Y-130658990D01*
X106589500Y-132101010D01*
X106595650Y-132189625D01*
X106595652Y-132189640D01*
X106644465Y-132397176D01*
X106644467Y-132397182D01*
X106644468Y-132397185D01*
X106730591Y-132592237D01*
X106730592Y-132592238D01*
X106851088Y-132768141D01*
X106851093Y-132768147D01*
X107001852Y-132918906D01*
X107001856Y-132918909D01*
X107001858Y-132918911D01*
X107022405Y-132932986D01*
X107066589Y-132987112D01*
X107074496Y-133056533D01*
X107043617Y-133119208D01*
X107020926Y-133137884D01*
X107021102Y-133138126D01*
X107017158Y-133140991D01*
X106819666Y-133309666D01*
X106650991Y-133507158D01*
X106650990Y-133507159D01*
X106515292Y-133728599D01*
X106515290Y-133728602D01*
X106415906Y-133968537D01*
X106415901Y-133968554D01*
X106355274Y-134221085D01*
X106355274Y-134221088D01*
X106354572Y-134229998D01*
X106354574Y-134230000D01*
X107485021Y-134230000D01*
X107552060Y-134249685D01*
X107597815Y-134302489D01*
X107607759Y-134371647D01*
X107604287Y-134387934D01*
X107586105Y-134451837D01*
X107586104Y-134451837D01*
X107596453Y-134563517D01*
X107598885Y-134572063D01*
X107598299Y-134641930D01*
X107560034Y-134700390D01*
X107496237Y-134728881D01*
X107479619Y-134730000D01*
X106354574Y-134730000D01*
X106354572Y-134730001D01*
X93645427Y-134730001D01*
X93645426Y-134730000D01*
X92514979Y-134730000D01*
X92447940Y-134710315D01*
X92402185Y-134657511D01*
X92392241Y-134588353D01*
X92395713Y-134572066D01*
X92413894Y-134508162D01*
X92413895Y-134508160D01*
X92403546Y-134396482D01*
X92403546Y-134396479D01*
X92403544Y-134396475D01*
X92401115Y-134387937D01*
X92401701Y-134318070D01*
X92439966Y-134259610D01*
X92503763Y-134231119D01*
X92520381Y-134230000D01*
X93645426Y-134230000D01*
X93645427Y-134229998D01*
X93644725Y-134221088D01*
X93644725Y-134221085D01*
X93584098Y-133968554D01*
X93584093Y-133968537D01*
X93484709Y-133728602D01*
X93484707Y-133728599D01*
X93349009Y-133507159D01*
X93349008Y-133507158D01*
X93180333Y-133309666D01*
X92982841Y-133140991D01*
X92978898Y-133138126D01*
X92979506Y-133137288D01*
X92936001Y-133089197D01*
X92924582Y-133020267D01*
X92952242Y-132956106D01*
X92977590Y-132932989D01*
X92998142Y-132918911D01*
X93148911Y-132768142D01*
X93269409Y-132592237D01*
X93355532Y-132397185D01*
X93404349Y-132189630D01*
X93410500Y-132101012D01*
X93410500Y-130658988D01*
X93404349Y-130570370D01*
X93404347Y-130570364D01*
X93404347Y-130570359D01*
X93355534Y-130362823D01*
X93355532Y-130362817D01*
X93355532Y-130362815D01*
X93269409Y-130167763D01*
X93148911Y-129991858D01*
X93148906Y-129991852D01*
X92998147Y-129841093D01*
X92998141Y-129841088D01*
X92822238Y-129720592D01*
X92822239Y-129720592D01*
X92822237Y-129720591D01*
X92627185Y-129634468D01*
X92627183Y-129634467D01*
X92627182Y-129634467D01*
X92627176Y-129634465D01*
X92419640Y-129585652D01*
X92419625Y-129585650D01*
X92346546Y-129580578D01*
X92331012Y-129579500D01*
X90888988Y-129579500D01*
X90874705Y-129580491D01*
X90800374Y-129585650D01*
X90800359Y-129585652D01*
X90592823Y-129634465D01*
X90592817Y-129634467D01*
X90397761Y-129720592D01*
X90221858Y-129841088D01*
X90221852Y-129841093D01*
X90071093Y-129991852D01*
X90071088Y-129991858D01*
X89950592Y-130167761D01*
X89864467Y-130362817D01*
X89864465Y-130362823D01*
X89815652Y-130570359D01*
X89815650Y-130570374D01*
X89809500Y-130658990D01*
X89809500Y-132101010D01*
X89815650Y-132189625D01*
X89815652Y-132189640D01*
X89864465Y-132397176D01*
X89864467Y-132397182D01*
X89864468Y-132397185D01*
X89950591Y-132592237D01*
X89950592Y-132592238D01*
X90071088Y-132768141D01*
X90071093Y-132768147D01*
X90221852Y-132918906D01*
X90221856Y-132918909D01*
X90221858Y-132918911D01*
X90242405Y-132932986D01*
X90286589Y-132987112D01*
X90294496Y-133056533D01*
X90263617Y-133119208D01*
X90240926Y-133137884D01*
X90241102Y-133138126D01*
X90237158Y-133140991D01*
X90039666Y-133309666D01*
X89870991Y-133507158D01*
X89870990Y-133507159D01*
X89735292Y-133728599D01*
X89735290Y-133728602D01*
X89635906Y-133968537D01*
X89635901Y-133968554D01*
X89575274Y-134221085D01*
X89575274Y-134221088D01*
X89574572Y-134229998D01*
X89574574Y-134230000D01*
X90705021Y-134230000D01*
X90772060Y-134249685D01*
X90817815Y-134302489D01*
X90827759Y-134371647D01*
X90824287Y-134387934D01*
X90806105Y-134451837D01*
X90806104Y-134451837D01*
X90816453Y-134563517D01*
X90818885Y-134572063D01*
X90818299Y-134641930D01*
X90780034Y-134700390D01*
X90716237Y-134728881D01*
X90699619Y-134730000D01*
X89574574Y-134730000D01*
X89574572Y-134730001D01*
X76865427Y-134730001D01*
X76865426Y-134730000D01*
X75734979Y-134730000D01*
X75667940Y-134710315D01*
X75622185Y-134657511D01*
X75612241Y-134588353D01*
X75615713Y-134572066D01*
X75633894Y-134508162D01*
X75633895Y-134508160D01*
X75623546Y-134396482D01*
X75623546Y-134396479D01*
X75623544Y-134396475D01*
X75621115Y-134387937D01*
X75621701Y-134318070D01*
X75659966Y-134259610D01*
X75723763Y-134231119D01*
X75740381Y-134230000D01*
X76865426Y-134230000D01*
X76865427Y-134229998D01*
X76864725Y-134221088D01*
X76864725Y-134221085D01*
X76804098Y-133968554D01*
X76804093Y-133968537D01*
X76704709Y-133728602D01*
X76704707Y-133728599D01*
X76569009Y-133507159D01*
X76569008Y-133507158D01*
X76400333Y-133309666D01*
X76202841Y-133140991D01*
X76198898Y-133138126D01*
X76199506Y-133137288D01*
X76156001Y-133089197D01*
X76144582Y-133020267D01*
X76172242Y-132956106D01*
X76197590Y-132932989D01*
X76218142Y-132918911D01*
X76368911Y-132768142D01*
X76489409Y-132592237D01*
X76575532Y-132397185D01*
X76624349Y-132189630D01*
X76630500Y-132101012D01*
X76630500Y-130658988D01*
X76624349Y-130570370D01*
X76624347Y-130570364D01*
X76624347Y-130570359D01*
X76575534Y-130362823D01*
X76575532Y-130362817D01*
X76575532Y-130362815D01*
X76489409Y-130167763D01*
X76368911Y-129991858D01*
X76368906Y-129991852D01*
X76218147Y-129841093D01*
X76218141Y-129841088D01*
X76042238Y-129720592D01*
X76042239Y-129720592D01*
X76042237Y-129720591D01*
X75847185Y-129634468D01*
X75847183Y-129634467D01*
X75847182Y-129634467D01*
X75847176Y-129634465D01*
X75639640Y-129585652D01*
X75639625Y-129585650D01*
X75566546Y-129580578D01*
X75551012Y-129579500D01*
X74108988Y-129579500D01*
X74094705Y-129580491D01*
X74020374Y-129585650D01*
X74020359Y-129585652D01*
X73812823Y-129634465D01*
X73812817Y-129634467D01*
X73617761Y-129720592D01*
X73441858Y-129841088D01*
X73441852Y-129841093D01*
X73291093Y-129991852D01*
X73291088Y-129991858D01*
X73170592Y-130167761D01*
X73084467Y-130362817D01*
X73084465Y-130362823D01*
X73035652Y-130570359D01*
X73035650Y-130570374D01*
X73029500Y-130658990D01*
X73029500Y-132101010D01*
X73035650Y-132189625D01*
X73035652Y-132189640D01*
X73084465Y-132397176D01*
X73084467Y-132397182D01*
X73084468Y-132397185D01*
X73170591Y-132592237D01*
X73170592Y-132592238D01*
X73291088Y-132768141D01*
X73291093Y-132768147D01*
X73441852Y-132918906D01*
X73441856Y-132918909D01*
X73441858Y-132918911D01*
X73462405Y-132932986D01*
X73506589Y-132987112D01*
X73514496Y-133056533D01*
X73483617Y-133119208D01*
X73460926Y-133137884D01*
X73461102Y-133138126D01*
X73457158Y-133140991D01*
X73259666Y-133309666D01*
X73090991Y-133507158D01*
X73090990Y-133507159D01*
X72955292Y-133728599D01*
X72955290Y-133728602D01*
X72855906Y-133968537D01*
X72855901Y-133968554D01*
X72795274Y-134221085D01*
X72795274Y-134221088D01*
X72794572Y-134229998D01*
X72794574Y-134230000D01*
X73925021Y-134230000D01*
X73992060Y-134249685D01*
X74037815Y-134302489D01*
X74047759Y-134371647D01*
X74044287Y-134387934D01*
X74026105Y-134451837D01*
X74026104Y-134451837D01*
X74036453Y-134563517D01*
X74038885Y-134572063D01*
X74038299Y-134641930D01*
X74000034Y-134700390D01*
X73936237Y-134728881D01*
X73919619Y-134730000D01*
X72794574Y-134730000D01*
X72794572Y-134730001D01*
X67440000Y-134730001D01*
X67440000Y-123801010D01*
X73029500Y-123801010D01*
X73035650Y-123889625D01*
X73035652Y-123889640D01*
X73084465Y-124097176D01*
X73084467Y-124097182D01*
X73084468Y-124097185D01*
X73170591Y-124292237D01*
X73170592Y-124292238D01*
X73291088Y-124468141D01*
X73291093Y-124468147D01*
X73441852Y-124618906D01*
X73441858Y-124618911D01*
X73617763Y-124739409D01*
X73812815Y-124825532D01*
X73812821Y-124825533D01*
X73812823Y-124825534D01*
X74020359Y-124874347D01*
X74020364Y-124874347D01*
X74020370Y-124874349D01*
X74108988Y-124880500D01*
X74108990Y-124880500D01*
X75551010Y-124880500D01*
X75551012Y-124880500D01*
X75639630Y-124874349D01*
X75639636Y-124874347D01*
X75639640Y-124874347D01*
X75847176Y-124825534D01*
X75847174Y-124825534D01*
X75847185Y-124825532D01*
X76042237Y-124739409D01*
X76218142Y-124618911D01*
X76368911Y-124468142D01*
X76489409Y-124292237D01*
X76575532Y-124097185D01*
X76624349Y-123889630D01*
X76630500Y-123801012D01*
X76630500Y-123801010D01*
X89809500Y-123801010D01*
X89815650Y-123889625D01*
X89815652Y-123889640D01*
X89864465Y-124097176D01*
X89864467Y-124097182D01*
X89864468Y-124097185D01*
X89950591Y-124292237D01*
X89950592Y-124292238D01*
X90071088Y-124468141D01*
X90071093Y-124468147D01*
X90221852Y-124618906D01*
X90221858Y-124618911D01*
X90397763Y-124739409D01*
X90592815Y-124825532D01*
X90592821Y-124825533D01*
X90592823Y-124825534D01*
X90800359Y-124874347D01*
X90800364Y-124874347D01*
X90800370Y-124874349D01*
X90888988Y-124880500D01*
X90888990Y-124880500D01*
X92331010Y-124880500D01*
X92331012Y-124880500D01*
X92419630Y-124874349D01*
X92419636Y-124874347D01*
X92419640Y-124874347D01*
X92627176Y-124825534D01*
X92627174Y-124825534D01*
X92627185Y-124825532D01*
X92822237Y-124739409D01*
X92998142Y-124618911D01*
X93148911Y-124468142D01*
X93269409Y-124292237D01*
X93355532Y-124097185D01*
X93404349Y-123889630D01*
X93410500Y-123801012D01*
X93410500Y-123801010D01*
X106589500Y-123801010D01*
X106595650Y-123889625D01*
X106595652Y-123889640D01*
X106644465Y-124097176D01*
X106644467Y-124097182D01*
X106644468Y-124097185D01*
X106730591Y-124292237D01*
X106730592Y-124292238D01*
X106851088Y-124468141D01*
X106851093Y-124468147D01*
X107001852Y-124618906D01*
X107001858Y-124618911D01*
X107177763Y-124739409D01*
X107372815Y-124825532D01*
X107372821Y-124825533D01*
X107372823Y-124825534D01*
X107580359Y-124874347D01*
X107580364Y-124874347D01*
X107580370Y-124874349D01*
X107668988Y-124880500D01*
X107668990Y-124880500D01*
X109111010Y-124880500D01*
X109111012Y-124880500D01*
X109199630Y-124874349D01*
X109199636Y-124874347D01*
X109199640Y-124874347D01*
X109407176Y-124825534D01*
X109407174Y-124825534D01*
X109407185Y-124825532D01*
X109602237Y-124739409D01*
X109778142Y-124618911D01*
X109928911Y-124468142D01*
X110049409Y-124292237D01*
X110135532Y-124097185D01*
X110184349Y-123889630D01*
X110190500Y-123801012D01*
X110190500Y-123801010D01*
X123369500Y-123801010D01*
X123375650Y-123889625D01*
X123375652Y-123889640D01*
X123424465Y-124097176D01*
X123424467Y-124097182D01*
X123424468Y-124097185D01*
X123510591Y-124292237D01*
X123510592Y-124292238D01*
X123631088Y-124468141D01*
X123631093Y-124468147D01*
X123781852Y-124618906D01*
X123781858Y-124618911D01*
X123957763Y-124739409D01*
X124152815Y-124825532D01*
X124152821Y-124825533D01*
X124152823Y-124825534D01*
X124360359Y-124874347D01*
X124360364Y-124874347D01*
X124360370Y-124874349D01*
X124448988Y-124880500D01*
X124448990Y-124880500D01*
X125891010Y-124880500D01*
X125891012Y-124880500D01*
X125979630Y-124874349D01*
X125979636Y-124874347D01*
X125979640Y-124874347D01*
X126187176Y-124825534D01*
X126187174Y-124825534D01*
X126187185Y-124825532D01*
X126382237Y-124739409D01*
X126558142Y-124618911D01*
X126708911Y-124468142D01*
X126829409Y-124292237D01*
X126915532Y-124097185D01*
X126964349Y-123889630D01*
X126970500Y-123801012D01*
X126970500Y-122358988D01*
X126964349Y-122270370D01*
X126964347Y-122270364D01*
X126964347Y-122270359D01*
X126915534Y-122062823D01*
X126915532Y-122062817D01*
X126915532Y-122062815D01*
X126829409Y-121867763D01*
X126708911Y-121691858D01*
X126708906Y-121691852D01*
X126558147Y-121541093D01*
X126558141Y-121541088D01*
X126382238Y-121420592D01*
X126382239Y-121420592D01*
X126382237Y-121420591D01*
X126187185Y-121334468D01*
X126187183Y-121334467D01*
X126187182Y-121334467D01*
X126187176Y-121334465D01*
X125979640Y-121285652D01*
X125979625Y-121285650D01*
X125906546Y-121280578D01*
X125891012Y-121279500D01*
X124448988Y-121279500D01*
X124434705Y-121280491D01*
X124360374Y-121285650D01*
X124360359Y-121285652D01*
X124152823Y-121334465D01*
X124152817Y-121334467D01*
X123957761Y-121420592D01*
X123781858Y-121541088D01*
X123781852Y-121541093D01*
X123631093Y-121691852D01*
X123631088Y-121691858D01*
X123510592Y-121867761D01*
X123424467Y-122062817D01*
X123424465Y-122062823D01*
X123375652Y-122270359D01*
X123375650Y-122270374D01*
X123369500Y-122358990D01*
X123369500Y-123801010D01*
X110190500Y-123801010D01*
X110190500Y-122358988D01*
X110184349Y-122270370D01*
X110184347Y-122270364D01*
X110184347Y-122270359D01*
X110135534Y-122062823D01*
X110135532Y-122062817D01*
X110135532Y-122062815D01*
X110049409Y-121867763D01*
X109928911Y-121691858D01*
X109928906Y-121691852D01*
X109778147Y-121541093D01*
X109778141Y-121541088D01*
X109602238Y-121420592D01*
X109602239Y-121420592D01*
X109602237Y-121420591D01*
X109407185Y-121334468D01*
X109407183Y-121334467D01*
X109407182Y-121334467D01*
X109407176Y-121334465D01*
X109199640Y-121285652D01*
X109199625Y-121285650D01*
X109126546Y-121280578D01*
X109111012Y-121279500D01*
X107668988Y-121279500D01*
X107654705Y-121280491D01*
X107580374Y-121285650D01*
X107580359Y-121285652D01*
X107372823Y-121334465D01*
X107372817Y-121334467D01*
X107177761Y-121420592D01*
X107001858Y-121541088D01*
X107001852Y-121541093D01*
X106851093Y-121691852D01*
X106851088Y-121691858D01*
X106730592Y-121867761D01*
X106644467Y-122062817D01*
X106644465Y-122062823D01*
X106595652Y-122270359D01*
X106595650Y-122270374D01*
X106589500Y-122358990D01*
X106589500Y-123801010D01*
X93410500Y-123801010D01*
X93410500Y-122358988D01*
X93404349Y-122270370D01*
X93404347Y-122270364D01*
X93404347Y-122270359D01*
X93355534Y-122062823D01*
X93355532Y-122062817D01*
X93355532Y-122062815D01*
X93269409Y-121867763D01*
X93148911Y-121691858D01*
X93148906Y-121691852D01*
X92998147Y-121541093D01*
X92998141Y-121541088D01*
X92822238Y-121420592D01*
X92822239Y-121420592D01*
X92822237Y-121420591D01*
X92627185Y-121334468D01*
X92627183Y-121334467D01*
X92627182Y-121334467D01*
X92627176Y-121334465D01*
X92419640Y-121285652D01*
X92419625Y-121285650D01*
X92346546Y-121280578D01*
X92331012Y-121279500D01*
X90888988Y-121279500D01*
X90874705Y-121280491D01*
X90800374Y-121285650D01*
X90800359Y-121285652D01*
X90592823Y-121334465D01*
X90592817Y-121334467D01*
X90397761Y-121420592D01*
X90221858Y-121541088D01*
X90221852Y-121541093D01*
X90071093Y-121691852D01*
X90071088Y-121691858D01*
X89950592Y-121867761D01*
X89864467Y-122062817D01*
X89864465Y-122062823D01*
X89815652Y-122270359D01*
X89815650Y-122270374D01*
X89809500Y-122358990D01*
X89809500Y-123801010D01*
X76630500Y-123801010D01*
X76630500Y-122358988D01*
X76624349Y-122270370D01*
X76624347Y-122270364D01*
X76624347Y-122270359D01*
X76575534Y-122062823D01*
X76575532Y-122062817D01*
X76575532Y-122062815D01*
X76489409Y-121867763D01*
X76368911Y-121691858D01*
X76368906Y-121691852D01*
X76218147Y-121541093D01*
X76218141Y-121541088D01*
X76042238Y-121420592D01*
X76042239Y-121420592D01*
X76042237Y-121420591D01*
X75847185Y-121334468D01*
X75847183Y-121334467D01*
X75847182Y-121334467D01*
X75847176Y-121334465D01*
X75639640Y-121285652D01*
X75639625Y-121285650D01*
X75566546Y-121280578D01*
X75551012Y-121279500D01*
X74108988Y-121279500D01*
X74094705Y-121280491D01*
X74020374Y-121285650D01*
X74020359Y-121285652D01*
X73812823Y-121334465D01*
X73812817Y-121334467D01*
X73617761Y-121420592D01*
X73441858Y-121541088D01*
X73441852Y-121541093D01*
X73291093Y-121691852D01*
X73291088Y-121691858D01*
X73170592Y-121867761D01*
X73084467Y-122062817D01*
X73084465Y-122062823D01*
X73035652Y-122270359D01*
X73035650Y-122270374D01*
X73029500Y-122358990D01*
X73029500Y-123801010D01*
X67440000Y-123801010D01*
X67440000Y-118000006D01*
X75200288Y-118000006D01*
X75219103Y-118227085D01*
X75219105Y-118227093D01*
X75275045Y-118447993D01*
X75366577Y-118656664D01*
X75366579Y-118656668D01*
X75446874Y-118779570D01*
X75898589Y-118327855D01*
X75959912Y-118294370D01*
X76029603Y-118299354D01*
X76084645Y-118340048D01*
X76152075Y-118427925D01*
X76152076Y-118427926D01*
X76239948Y-118495352D01*
X76281151Y-118551780D01*
X76285306Y-118621526D01*
X76252143Y-118681409D01*
X75799015Y-119134536D01*
X75799016Y-119134537D01*
X75825366Y-119155046D01*
X75825372Y-119155050D01*
X76025769Y-119263499D01*
X76025780Y-119263504D01*
X76241298Y-119337492D01*
X76466065Y-119375000D01*
X76693935Y-119375000D01*
X76918701Y-119337492D01*
X77134219Y-119263504D01*
X77134230Y-119263499D01*
X77334633Y-119155047D01*
X77360982Y-119134537D01*
X77360982Y-119134536D01*
X76907855Y-118681409D01*
X76874370Y-118620086D01*
X76879354Y-118550394D01*
X76920047Y-118495355D01*
X77007925Y-118427925D01*
X77075355Y-118340048D01*
X77131781Y-118298848D01*
X77201527Y-118294693D01*
X77261410Y-118327856D01*
X77713124Y-118779571D01*
X77793420Y-118656669D01*
X77884954Y-118447993D01*
X77940894Y-118227093D01*
X77940896Y-118227085D01*
X77959712Y-118000006D01*
X91980288Y-118000006D01*
X91999103Y-118227085D01*
X91999105Y-118227093D01*
X92055045Y-118447993D01*
X92146577Y-118656664D01*
X92146579Y-118656668D01*
X92226874Y-118779570D01*
X92678589Y-118327855D01*
X92739912Y-118294370D01*
X92809603Y-118299354D01*
X92864645Y-118340048D01*
X92932075Y-118427925D01*
X92932076Y-118427926D01*
X93019948Y-118495352D01*
X93061151Y-118551780D01*
X93065306Y-118621526D01*
X93032143Y-118681409D01*
X92579015Y-119134536D01*
X92579016Y-119134537D01*
X92605366Y-119155046D01*
X92605372Y-119155050D01*
X92805769Y-119263499D01*
X92805780Y-119263504D01*
X93021298Y-119337492D01*
X93246065Y-119375000D01*
X93473935Y-119375000D01*
X93698701Y-119337492D01*
X93914219Y-119263504D01*
X93914230Y-119263499D01*
X94114633Y-119155047D01*
X94140982Y-119134537D01*
X94140982Y-119134536D01*
X93687855Y-118681409D01*
X93654370Y-118620086D01*
X93659354Y-118550394D01*
X93700047Y-118495355D01*
X93787925Y-118427925D01*
X93855355Y-118340048D01*
X93911781Y-118298848D01*
X93981527Y-118294693D01*
X94041410Y-118327856D01*
X94493124Y-118779571D01*
X94573420Y-118656669D01*
X94664954Y-118447993D01*
X94720894Y-118227093D01*
X94720896Y-118227085D01*
X94739712Y-118000006D01*
X108760288Y-118000006D01*
X108779103Y-118227085D01*
X108779105Y-118227093D01*
X108835045Y-118447993D01*
X108926577Y-118656664D01*
X108926579Y-118656668D01*
X109006874Y-118779570D01*
X109458589Y-118327855D01*
X109519912Y-118294370D01*
X109589603Y-118299354D01*
X109644645Y-118340048D01*
X109712075Y-118427925D01*
X109712076Y-118427926D01*
X109799948Y-118495352D01*
X109841151Y-118551780D01*
X109845306Y-118621526D01*
X109812143Y-118681409D01*
X109359015Y-119134536D01*
X109359016Y-119134537D01*
X109385366Y-119155046D01*
X109385372Y-119155050D01*
X109585769Y-119263499D01*
X109585780Y-119263504D01*
X109801298Y-119337492D01*
X110026065Y-119375000D01*
X110253935Y-119375000D01*
X110478701Y-119337492D01*
X110694219Y-119263504D01*
X110694230Y-119263499D01*
X110894633Y-119155047D01*
X110920982Y-119134537D01*
X110920982Y-119134536D01*
X110467855Y-118681409D01*
X110434370Y-118620086D01*
X110439354Y-118550394D01*
X110480047Y-118495355D01*
X110567925Y-118427925D01*
X110635355Y-118340048D01*
X110691781Y-118298848D01*
X110761527Y-118294693D01*
X110821410Y-118327856D01*
X111273124Y-118779571D01*
X111353420Y-118656669D01*
X111444954Y-118447993D01*
X111500894Y-118227093D01*
X111500896Y-118227085D01*
X111519712Y-118000006D01*
X125540288Y-118000006D01*
X125559103Y-118227085D01*
X125559105Y-118227093D01*
X125615045Y-118447993D01*
X125706577Y-118656664D01*
X125706579Y-118656668D01*
X125786874Y-118779570D01*
X126238589Y-118327855D01*
X126299912Y-118294370D01*
X126369603Y-118299354D01*
X126424645Y-118340048D01*
X126492075Y-118427925D01*
X126492076Y-118427926D01*
X126579948Y-118495352D01*
X126621151Y-118551780D01*
X126625306Y-118621526D01*
X126592143Y-118681409D01*
X126139015Y-119134536D01*
X126139016Y-119134537D01*
X126165366Y-119155046D01*
X126165372Y-119155050D01*
X126365769Y-119263499D01*
X126365780Y-119263504D01*
X126581298Y-119337492D01*
X126806065Y-119375000D01*
X127033935Y-119375000D01*
X127258701Y-119337492D01*
X127474219Y-119263504D01*
X127474230Y-119263499D01*
X127674633Y-119155047D01*
X127700982Y-119134537D01*
X127700982Y-119134536D01*
X127247855Y-118681409D01*
X127214370Y-118620086D01*
X127219354Y-118550394D01*
X127260047Y-118495355D01*
X127347925Y-118427925D01*
X127415355Y-118340048D01*
X127471781Y-118298848D01*
X127541527Y-118294693D01*
X127601410Y-118327856D01*
X128053124Y-118779571D01*
X128133420Y-118656669D01*
X128224954Y-118447993D01*
X128280894Y-118227093D01*
X128280896Y-118227085D01*
X128299712Y-118000006D01*
X128299712Y-117999993D01*
X128280896Y-117772914D01*
X128280894Y-117772906D01*
X128224954Y-117552006D01*
X128133420Y-117343330D01*
X128053124Y-117220427D01*
X127601409Y-117672143D01*
X127540086Y-117705628D01*
X127470394Y-117700644D01*
X127415352Y-117659948D01*
X127347926Y-117572076D01*
X127321770Y-117552006D01*
X127260048Y-117504645D01*
X127218847Y-117448218D01*
X127214692Y-117378472D01*
X127247855Y-117318589D01*
X127700983Y-116865462D01*
X127700982Y-116865461D01*
X127674632Y-116844952D01*
X127674627Y-116844949D01*
X127474230Y-116736500D01*
X127474219Y-116736495D01*
X127258701Y-116662507D01*
X127033935Y-116625000D01*
X126806065Y-116625000D01*
X126581298Y-116662507D01*
X126365780Y-116736495D01*
X126365769Y-116736500D01*
X126165373Y-116844948D01*
X126139016Y-116865462D01*
X126592144Y-117318590D01*
X126625629Y-117379913D01*
X126620645Y-117449605D01*
X126579950Y-117504645D01*
X126518230Y-117552006D01*
X126492074Y-117572076D01*
X126424645Y-117659950D01*
X126368216Y-117701152D01*
X126298470Y-117705306D01*
X126238589Y-117672143D01*
X125786874Y-117220428D01*
X125706578Y-117343333D01*
X125706577Y-117343335D01*
X125615045Y-117552006D01*
X125559105Y-117772906D01*
X125559103Y-117772914D01*
X125540288Y-117999993D01*
X125540288Y-118000006D01*
X111519712Y-118000006D01*
X111519712Y-117999993D01*
X111500896Y-117772914D01*
X111500894Y-117772906D01*
X111444954Y-117552006D01*
X111353420Y-117343330D01*
X111273124Y-117220427D01*
X110821409Y-117672143D01*
X110760086Y-117705628D01*
X110690394Y-117700644D01*
X110635352Y-117659948D01*
X110567926Y-117572076D01*
X110541770Y-117552006D01*
X110480048Y-117504645D01*
X110438847Y-117448218D01*
X110434692Y-117378472D01*
X110467855Y-117318589D01*
X110920983Y-116865462D01*
X110920982Y-116865461D01*
X110894632Y-116844952D01*
X110894627Y-116844949D01*
X110694230Y-116736500D01*
X110694219Y-116736495D01*
X110478701Y-116662507D01*
X110253935Y-116625000D01*
X110026065Y-116625000D01*
X109801298Y-116662507D01*
X109585780Y-116736495D01*
X109585769Y-116736500D01*
X109385373Y-116844948D01*
X109359016Y-116865462D01*
X109812144Y-117318590D01*
X109845629Y-117379913D01*
X109840645Y-117449605D01*
X109799950Y-117504645D01*
X109738230Y-117552006D01*
X109712074Y-117572076D01*
X109644645Y-117659950D01*
X109588216Y-117701152D01*
X109518470Y-117705306D01*
X109458589Y-117672143D01*
X109006874Y-117220428D01*
X108926578Y-117343333D01*
X108926577Y-117343335D01*
X108835045Y-117552006D01*
X108779105Y-117772906D01*
X108779103Y-117772914D01*
X108760288Y-117999993D01*
X108760288Y-118000006D01*
X94739712Y-118000006D01*
X94739712Y-117999993D01*
X94720896Y-117772914D01*
X94720894Y-117772906D01*
X94664954Y-117552006D01*
X94573420Y-117343330D01*
X94493124Y-117220427D01*
X94041409Y-117672143D01*
X93980086Y-117705628D01*
X93910394Y-117700644D01*
X93855352Y-117659948D01*
X93787926Y-117572076D01*
X93761770Y-117552006D01*
X93700048Y-117504645D01*
X93658847Y-117448218D01*
X93654692Y-117378472D01*
X93687855Y-117318589D01*
X94140983Y-116865462D01*
X94140982Y-116865461D01*
X94114632Y-116844952D01*
X94114627Y-116844949D01*
X93914230Y-116736500D01*
X93914219Y-116736495D01*
X93698701Y-116662507D01*
X93473935Y-116625000D01*
X93246065Y-116625000D01*
X93021298Y-116662507D01*
X92805780Y-116736495D01*
X92805769Y-116736500D01*
X92605373Y-116844948D01*
X92579016Y-116865462D01*
X93032144Y-117318590D01*
X93065629Y-117379913D01*
X93060645Y-117449605D01*
X93019950Y-117504645D01*
X92958230Y-117552006D01*
X92932074Y-117572076D01*
X92864645Y-117659950D01*
X92808216Y-117701152D01*
X92738470Y-117705306D01*
X92678589Y-117672143D01*
X92226874Y-117220428D01*
X92146578Y-117343333D01*
X92146577Y-117343335D01*
X92055045Y-117552006D01*
X91999105Y-117772906D01*
X91999103Y-117772914D01*
X91980288Y-117999993D01*
X91980288Y-118000006D01*
X77959712Y-118000006D01*
X77959712Y-117999993D01*
X77940896Y-117772914D01*
X77940894Y-117772906D01*
X77884954Y-117552006D01*
X77793420Y-117343330D01*
X77713124Y-117220427D01*
X77261409Y-117672143D01*
X77200086Y-117705628D01*
X77130394Y-117700644D01*
X77075352Y-117659948D01*
X77007926Y-117572076D01*
X76981770Y-117552006D01*
X76920048Y-117504645D01*
X76878847Y-117448218D01*
X76874692Y-117378472D01*
X76907855Y-117318589D01*
X77360983Y-116865462D01*
X77360982Y-116865461D01*
X77334632Y-116844952D01*
X77334627Y-116844949D01*
X77134230Y-116736500D01*
X77134219Y-116736495D01*
X76918701Y-116662507D01*
X76693935Y-116625000D01*
X76466065Y-116625000D01*
X76241298Y-116662507D01*
X76025780Y-116736495D01*
X76025769Y-116736500D01*
X75825373Y-116844948D01*
X75799016Y-116865462D01*
X76252144Y-117318590D01*
X76285629Y-117379913D01*
X76280645Y-117449605D01*
X76239950Y-117504645D01*
X76178230Y-117552006D01*
X76152074Y-117572076D01*
X76084645Y-117659950D01*
X76028216Y-117701152D01*
X75958470Y-117705306D01*
X75898589Y-117672143D01*
X75446874Y-117220428D01*
X75366578Y-117343333D01*
X75366577Y-117343335D01*
X75275045Y-117552006D01*
X75219105Y-117772906D01*
X75219103Y-117772914D01*
X75200288Y-117999993D01*
X75200288Y-118000006D01*
X67440000Y-118000006D01*
X67440000Y-113850001D01*
X68774773Y-113850001D01*
X68793657Y-114114027D01*
X68793658Y-114114034D01*
X68849921Y-114372673D01*
X68942426Y-114620690D01*
X68942428Y-114620694D01*
X69069280Y-114853005D01*
X69069285Y-114853013D01*
X69227906Y-115064907D01*
X69227922Y-115064925D01*
X69415074Y-115252077D01*
X69415092Y-115252093D01*
X69626986Y-115410714D01*
X69626994Y-115410719D01*
X69859305Y-115537571D01*
X69859309Y-115537573D01*
X69859311Y-115537574D01*
X70107322Y-115630077D01*
X70107325Y-115630077D01*
X70107326Y-115630078D01*
X70302552Y-115672546D01*
X70365974Y-115686343D01*
X70609660Y-115703772D01*
X70629999Y-115705227D01*
X70630000Y-115705227D01*
X70630001Y-115705227D01*
X70648884Y-115703876D01*
X70894026Y-115686343D01*
X71152678Y-115630077D01*
X71400689Y-115537574D01*
X71633011Y-115410716D01*
X71844915Y-115252087D01*
X72032087Y-115064915D01*
X72190716Y-114853011D01*
X72317574Y-114620689D01*
X72410077Y-114372678D01*
X72466343Y-114114026D01*
X72485227Y-113850000D01*
X72466343Y-113585974D01*
X72410077Y-113327322D01*
X72317574Y-113079311D01*
X72190716Y-112846989D01*
X72190714Y-112846986D01*
X72043254Y-112650001D01*
X77174773Y-112650001D01*
X77193657Y-112914027D01*
X77193658Y-112914034D01*
X77249921Y-113172673D01*
X77342426Y-113420690D01*
X77342428Y-113420694D01*
X77469280Y-113653005D01*
X77469285Y-113653013D01*
X77627906Y-113864907D01*
X77627922Y-113864925D01*
X77815074Y-114052077D01*
X77815092Y-114052093D01*
X78026986Y-114210714D01*
X78026994Y-114210719D01*
X78259305Y-114337571D01*
X78259309Y-114337573D01*
X78259311Y-114337574D01*
X78507322Y-114430077D01*
X78507325Y-114430077D01*
X78507326Y-114430078D01*
X78702552Y-114472546D01*
X78765974Y-114486343D01*
X79009660Y-114503772D01*
X79029999Y-114505227D01*
X79030000Y-114505227D01*
X79030001Y-114505227D01*
X79048885Y-114503876D01*
X79294026Y-114486343D01*
X79552678Y-114430077D01*
X79800689Y-114337574D01*
X80033011Y-114210716D01*
X80244915Y-114052087D01*
X80432087Y-113864915D01*
X80443251Y-113850001D01*
X85554773Y-113850001D01*
X85573657Y-114114027D01*
X85573658Y-114114034D01*
X85629921Y-114372673D01*
X85722426Y-114620690D01*
X85722428Y-114620694D01*
X85849280Y-114853005D01*
X85849285Y-114853013D01*
X86007906Y-115064907D01*
X86007922Y-115064925D01*
X86195074Y-115252077D01*
X86195092Y-115252093D01*
X86406986Y-115410714D01*
X86406994Y-115410719D01*
X86639305Y-115537571D01*
X86639309Y-115537573D01*
X86639311Y-115537574D01*
X86887322Y-115630077D01*
X86887325Y-115630077D01*
X86887326Y-115630078D01*
X87082552Y-115672546D01*
X87145974Y-115686343D01*
X87389660Y-115703772D01*
X87409999Y-115705227D01*
X87410000Y-115705227D01*
X87410001Y-115705227D01*
X87428884Y-115703876D01*
X87674026Y-115686343D01*
X87932678Y-115630077D01*
X88180689Y-115537574D01*
X88413011Y-115410716D01*
X88624915Y-115252087D01*
X88812087Y-115064915D01*
X88970716Y-114853011D01*
X89097574Y-114620689D01*
X89190077Y-114372678D01*
X89246343Y-114114026D01*
X89265227Y-113850000D01*
X89246343Y-113585974D01*
X89190077Y-113327322D01*
X89097574Y-113079311D01*
X88970716Y-112846989D01*
X88970714Y-112846986D01*
X88823254Y-112650001D01*
X93954773Y-112650001D01*
X93973657Y-112914027D01*
X93973658Y-112914034D01*
X94029921Y-113172673D01*
X94122426Y-113420690D01*
X94122428Y-113420694D01*
X94249280Y-113653005D01*
X94249285Y-113653013D01*
X94407906Y-113864907D01*
X94407922Y-113864925D01*
X94595074Y-114052077D01*
X94595092Y-114052093D01*
X94806986Y-114210714D01*
X94806994Y-114210719D01*
X95039305Y-114337571D01*
X95039309Y-114337573D01*
X95039311Y-114337574D01*
X95287322Y-114430077D01*
X95287325Y-114430077D01*
X95287326Y-114430078D01*
X95482552Y-114472546D01*
X95545974Y-114486343D01*
X95789660Y-114503772D01*
X95809999Y-114505227D01*
X95810000Y-114505227D01*
X95810001Y-114505227D01*
X95828884Y-114503876D01*
X96074026Y-114486343D01*
X96332678Y-114430077D01*
X96580689Y-114337574D01*
X96813011Y-114210716D01*
X97024915Y-114052087D01*
X97212087Y-113864915D01*
X97223251Y-113850001D01*
X102334773Y-113850001D01*
X102353657Y-114114027D01*
X102353658Y-114114034D01*
X102409921Y-114372673D01*
X102502426Y-114620690D01*
X102502428Y-114620694D01*
X102629280Y-114853005D01*
X102629285Y-114853013D01*
X102787906Y-115064907D01*
X102787922Y-115064925D01*
X102975074Y-115252077D01*
X102975092Y-115252093D01*
X103186986Y-115410714D01*
X103186994Y-115410719D01*
X103419305Y-115537571D01*
X103419309Y-115537573D01*
X103419311Y-115537574D01*
X103667322Y-115630077D01*
X103667325Y-115630077D01*
X103667326Y-115630078D01*
X103862552Y-115672546D01*
X103925974Y-115686343D01*
X104169660Y-115703772D01*
X104189999Y-115705227D01*
X104190000Y-115705227D01*
X104190001Y-115705227D01*
X104208885Y-115703876D01*
X104454026Y-115686343D01*
X104712678Y-115630077D01*
X104960689Y-115537574D01*
X105193011Y-115410716D01*
X105404915Y-115252087D01*
X105592087Y-115064915D01*
X105750716Y-114853011D01*
X105877574Y-114620689D01*
X105970077Y-114372678D01*
X106026343Y-114114026D01*
X106045227Y-113850000D01*
X106026343Y-113585974D01*
X105970077Y-113327322D01*
X105877574Y-113079311D01*
X105750716Y-112846989D01*
X105750714Y-112846986D01*
X105603254Y-112650001D01*
X110734773Y-112650001D01*
X110753657Y-112914027D01*
X110753658Y-112914034D01*
X110809921Y-113172673D01*
X110902426Y-113420690D01*
X110902428Y-113420694D01*
X111029280Y-113653005D01*
X111029285Y-113653013D01*
X111187906Y-113864907D01*
X111187922Y-113864925D01*
X111375074Y-114052077D01*
X111375092Y-114052093D01*
X111586986Y-114210714D01*
X111586994Y-114210719D01*
X111819305Y-114337571D01*
X111819309Y-114337573D01*
X111819311Y-114337574D01*
X112067322Y-114430077D01*
X112067325Y-114430077D01*
X112067326Y-114430078D01*
X112262552Y-114472546D01*
X112325974Y-114486343D01*
X112569660Y-114503772D01*
X112589999Y-114505227D01*
X112590000Y-114505227D01*
X112590001Y-114505227D01*
X112608884Y-114503876D01*
X112854026Y-114486343D01*
X113112678Y-114430077D01*
X113360689Y-114337574D01*
X113593011Y-114210716D01*
X113804915Y-114052087D01*
X113992087Y-113864915D01*
X114003251Y-113850001D01*
X119114773Y-113850001D01*
X119133657Y-114114027D01*
X119133658Y-114114034D01*
X119189921Y-114372673D01*
X119282426Y-114620690D01*
X119282428Y-114620694D01*
X119409280Y-114853005D01*
X119409285Y-114853013D01*
X119567906Y-115064907D01*
X119567922Y-115064925D01*
X119755074Y-115252077D01*
X119755092Y-115252093D01*
X119966986Y-115410714D01*
X119966994Y-115410719D01*
X120199305Y-115537571D01*
X120199309Y-115537573D01*
X120199311Y-115537574D01*
X120447322Y-115630077D01*
X120447325Y-115630077D01*
X120447326Y-115630078D01*
X120642551Y-115672546D01*
X120705974Y-115686343D01*
X120949660Y-115703772D01*
X120969999Y-115705227D01*
X120970000Y-115705227D01*
X120970001Y-115705227D01*
X120988885Y-115703876D01*
X121234026Y-115686343D01*
X121492678Y-115630077D01*
X121740689Y-115537574D01*
X121973011Y-115410716D01*
X122184915Y-115252087D01*
X122372087Y-115064915D01*
X122530716Y-114853011D01*
X122657574Y-114620689D01*
X122750077Y-114372678D01*
X122806343Y-114114026D01*
X122825227Y-113850000D01*
X122806343Y-113585974D01*
X122750077Y-113327322D01*
X122657574Y-113079311D01*
X122530716Y-112846989D01*
X122530714Y-112846986D01*
X122383254Y-112650001D01*
X127514773Y-112650001D01*
X127533657Y-112914027D01*
X127533658Y-112914034D01*
X127589921Y-113172673D01*
X127682426Y-113420690D01*
X127682428Y-113420694D01*
X127809280Y-113653005D01*
X127809285Y-113653013D01*
X127967906Y-113864907D01*
X127967922Y-113864925D01*
X128155074Y-114052077D01*
X128155092Y-114052093D01*
X128366986Y-114210714D01*
X128366994Y-114210719D01*
X128599305Y-114337571D01*
X128599309Y-114337573D01*
X128599311Y-114337574D01*
X128847322Y-114430077D01*
X128847325Y-114430077D01*
X128847326Y-114430078D01*
X129042552Y-114472546D01*
X129105974Y-114486343D01*
X129349660Y-114503772D01*
X129369999Y-114505227D01*
X129370000Y-114505227D01*
X129370001Y-114505227D01*
X129388884Y-114503876D01*
X129634026Y-114486343D01*
X129892678Y-114430077D01*
X130140689Y-114337574D01*
X130373011Y-114210716D01*
X130584915Y-114052087D01*
X130772087Y-113864915D01*
X130930716Y-113653011D01*
X131057574Y-113420689D01*
X131150077Y-113172678D01*
X131206343Y-112914026D01*
X131225227Y-112650000D01*
X131224159Y-112635074D01*
X131222525Y-112612230D01*
X131206343Y-112385974D01*
X131185310Y-112289285D01*
X131150078Y-112127326D01*
X131128667Y-112069921D01*
X131057574Y-111879311D01*
X130930716Y-111646989D01*
X130930714Y-111646986D01*
X130772093Y-111435092D01*
X130772077Y-111435074D01*
X130584925Y-111247922D01*
X130584907Y-111247906D01*
X130373013Y-111089285D01*
X130373005Y-111089280D01*
X130140694Y-110962428D01*
X130140690Y-110962426D01*
X129892673Y-110869921D01*
X129634034Y-110813658D01*
X129634027Y-110813657D01*
X129370001Y-110794773D01*
X129369999Y-110794773D01*
X129105972Y-110813657D01*
X129105965Y-110813658D01*
X128847326Y-110869921D01*
X128599309Y-110962426D01*
X128599305Y-110962428D01*
X128366994Y-111089280D01*
X128366986Y-111089285D01*
X128155092Y-111247906D01*
X128155074Y-111247922D01*
X127967922Y-111435074D01*
X127967906Y-111435092D01*
X127809285Y-111646986D01*
X127809280Y-111646994D01*
X127682428Y-111879305D01*
X127682426Y-111879309D01*
X127589921Y-112127326D01*
X127533658Y-112385965D01*
X127533657Y-112385972D01*
X127514773Y-112649998D01*
X127514773Y-112650001D01*
X122383254Y-112650001D01*
X122372093Y-112635092D01*
X122372077Y-112635074D01*
X122184925Y-112447922D01*
X122184907Y-112447906D01*
X121973013Y-112289285D01*
X121973005Y-112289280D01*
X121740694Y-112162428D01*
X121740690Y-112162426D01*
X121492673Y-112069921D01*
X121234034Y-112013658D01*
X121234027Y-112013657D01*
X120970001Y-111994773D01*
X120969999Y-111994773D01*
X120705972Y-112013657D01*
X120705965Y-112013658D01*
X120447326Y-112069921D01*
X120199309Y-112162426D01*
X120199305Y-112162428D01*
X119966994Y-112289280D01*
X119966986Y-112289285D01*
X119755092Y-112447906D01*
X119755074Y-112447922D01*
X119567922Y-112635074D01*
X119567906Y-112635092D01*
X119409285Y-112846986D01*
X119409280Y-112846994D01*
X119282428Y-113079305D01*
X119282426Y-113079309D01*
X119189921Y-113327326D01*
X119133658Y-113585965D01*
X119133657Y-113585972D01*
X119114773Y-113849998D01*
X119114773Y-113850001D01*
X114003251Y-113850001D01*
X114150716Y-113653011D01*
X114277574Y-113420689D01*
X114370077Y-113172678D01*
X114426343Y-112914026D01*
X114445227Y-112650000D01*
X114444159Y-112635074D01*
X114442525Y-112612230D01*
X114426343Y-112385974D01*
X114405310Y-112289285D01*
X114370078Y-112127326D01*
X114348667Y-112069921D01*
X114277574Y-111879311D01*
X114150716Y-111646989D01*
X114150714Y-111646986D01*
X113992093Y-111435092D01*
X113992077Y-111435074D01*
X113804925Y-111247922D01*
X113804907Y-111247906D01*
X113593013Y-111089285D01*
X113593005Y-111089280D01*
X113360694Y-110962428D01*
X113360690Y-110962426D01*
X113112673Y-110869921D01*
X112854034Y-110813658D01*
X112854027Y-110813657D01*
X112590001Y-110794773D01*
X112589999Y-110794773D01*
X112325972Y-110813657D01*
X112325965Y-110813658D01*
X112067326Y-110869921D01*
X111819309Y-110962426D01*
X111819305Y-110962428D01*
X111586994Y-111089280D01*
X111586986Y-111089285D01*
X111375092Y-111247906D01*
X111375074Y-111247922D01*
X111187922Y-111435074D01*
X111187906Y-111435092D01*
X111029285Y-111646986D01*
X111029280Y-111646994D01*
X110902428Y-111879305D01*
X110902426Y-111879309D01*
X110809921Y-112127326D01*
X110753658Y-112385965D01*
X110753657Y-112385972D01*
X110734773Y-112649998D01*
X110734773Y-112650001D01*
X105603254Y-112650001D01*
X105592093Y-112635092D01*
X105592077Y-112635074D01*
X105404925Y-112447922D01*
X105404907Y-112447906D01*
X105193013Y-112289285D01*
X105193005Y-112289280D01*
X104960694Y-112162428D01*
X104960690Y-112162426D01*
X104712673Y-112069921D01*
X104454034Y-112013658D01*
X104454027Y-112013657D01*
X104190001Y-111994773D01*
X104189999Y-111994773D01*
X103925972Y-112013657D01*
X103925965Y-112013658D01*
X103667326Y-112069921D01*
X103419309Y-112162426D01*
X103419305Y-112162428D01*
X103186994Y-112289280D01*
X103186986Y-112289285D01*
X102975092Y-112447906D01*
X102975074Y-112447922D01*
X102787922Y-112635074D01*
X102787906Y-112635092D01*
X102629285Y-112846986D01*
X102629280Y-112846994D01*
X102502428Y-113079305D01*
X102502426Y-113079309D01*
X102409921Y-113327326D01*
X102353658Y-113585965D01*
X102353657Y-113585972D01*
X102334773Y-113849998D01*
X102334773Y-113850001D01*
X97223251Y-113850001D01*
X97370716Y-113653011D01*
X97497574Y-113420689D01*
X97590077Y-113172678D01*
X97646343Y-112914026D01*
X97665227Y-112650000D01*
X97664159Y-112635074D01*
X97662525Y-112612230D01*
X97646343Y-112385974D01*
X97625310Y-112289285D01*
X97590078Y-112127326D01*
X97568667Y-112069921D01*
X97497574Y-111879311D01*
X97370716Y-111646989D01*
X97370714Y-111646986D01*
X97212093Y-111435092D01*
X97212077Y-111435074D01*
X97024925Y-111247922D01*
X97024907Y-111247906D01*
X96813013Y-111089285D01*
X96813005Y-111089280D01*
X96580694Y-110962428D01*
X96580690Y-110962426D01*
X96332673Y-110869921D01*
X96074034Y-110813658D01*
X96074027Y-110813657D01*
X95810001Y-110794773D01*
X95809999Y-110794773D01*
X95545972Y-110813657D01*
X95545965Y-110813658D01*
X95287326Y-110869921D01*
X95039309Y-110962426D01*
X95039305Y-110962428D01*
X94806994Y-111089280D01*
X94806986Y-111089285D01*
X94595092Y-111247906D01*
X94595074Y-111247922D01*
X94407922Y-111435074D01*
X94407906Y-111435092D01*
X94249285Y-111646986D01*
X94249280Y-111646994D01*
X94122428Y-111879305D01*
X94122426Y-111879309D01*
X94029921Y-112127326D01*
X93973658Y-112385965D01*
X93973657Y-112385972D01*
X93954773Y-112649998D01*
X93954773Y-112650001D01*
X88823254Y-112650001D01*
X88812093Y-112635092D01*
X88812077Y-112635074D01*
X88624925Y-112447922D01*
X88624907Y-112447906D01*
X88413013Y-112289285D01*
X88413005Y-112289280D01*
X88180694Y-112162428D01*
X88180690Y-112162426D01*
X87932673Y-112069921D01*
X87674034Y-112013658D01*
X87674027Y-112013657D01*
X87410001Y-111994773D01*
X87409999Y-111994773D01*
X87145972Y-112013657D01*
X87145965Y-112013658D01*
X86887326Y-112069921D01*
X86639309Y-112162426D01*
X86639305Y-112162428D01*
X86406994Y-112289280D01*
X86406986Y-112289285D01*
X86195092Y-112447906D01*
X86195074Y-112447922D01*
X86007922Y-112635074D01*
X86007906Y-112635092D01*
X85849285Y-112846986D01*
X85849280Y-112846994D01*
X85722428Y-113079305D01*
X85722426Y-113079309D01*
X85629921Y-113327326D01*
X85573658Y-113585965D01*
X85573657Y-113585972D01*
X85554773Y-113849998D01*
X85554773Y-113850001D01*
X80443251Y-113850001D01*
X80590716Y-113653011D01*
X80717574Y-113420689D01*
X80810077Y-113172678D01*
X80866343Y-112914026D01*
X80885227Y-112650000D01*
X80884159Y-112635074D01*
X80882525Y-112612230D01*
X80866343Y-112385974D01*
X80845310Y-112289285D01*
X80810078Y-112127326D01*
X80788667Y-112069921D01*
X80717574Y-111879311D01*
X80590716Y-111646989D01*
X80590714Y-111646986D01*
X80432093Y-111435092D01*
X80432077Y-111435074D01*
X80244925Y-111247922D01*
X80244907Y-111247906D01*
X80033013Y-111089285D01*
X80033005Y-111089280D01*
X79800694Y-110962428D01*
X79800690Y-110962426D01*
X79552673Y-110869921D01*
X79294034Y-110813658D01*
X79294027Y-110813657D01*
X79030001Y-110794773D01*
X79029999Y-110794773D01*
X78765972Y-110813657D01*
X78765965Y-110813658D01*
X78507326Y-110869921D01*
X78259309Y-110962426D01*
X78259305Y-110962428D01*
X78026994Y-111089280D01*
X78026986Y-111089285D01*
X77815092Y-111247906D01*
X77815074Y-111247922D01*
X77627922Y-111435074D01*
X77627906Y-111435092D01*
X77469285Y-111646986D01*
X77469280Y-111646994D01*
X77342428Y-111879305D01*
X77342426Y-111879309D01*
X77249921Y-112127326D01*
X77193658Y-112385965D01*
X77193657Y-112385972D01*
X77174773Y-112649998D01*
X77174773Y-112650001D01*
X72043254Y-112650001D01*
X72032093Y-112635092D01*
X72032077Y-112635074D01*
X71844925Y-112447922D01*
X71844907Y-112447906D01*
X71633013Y-112289285D01*
X71633005Y-112289280D01*
X71400694Y-112162428D01*
X71400690Y-112162426D01*
X71152673Y-112069921D01*
X70894034Y-112013658D01*
X70894027Y-112013657D01*
X70630001Y-111994773D01*
X70629999Y-111994773D01*
X70365972Y-112013657D01*
X70365965Y-112013658D01*
X70107326Y-112069921D01*
X69859309Y-112162426D01*
X69859305Y-112162428D01*
X69626994Y-112289280D01*
X69626986Y-112289285D01*
X69415092Y-112447906D01*
X69415074Y-112447922D01*
X69227922Y-112635074D01*
X69227906Y-112635092D01*
X69069285Y-112846986D01*
X69069280Y-112846994D01*
X68942428Y-113079305D01*
X68942426Y-113079309D01*
X68849921Y-113327326D01*
X68793658Y-113585965D01*
X68793657Y-113585972D01*
X68774773Y-113849998D01*
X68774773Y-113850001D01*
X67440000Y-113850001D01*
X67440000Y-92964000D01*
X99482341Y-92964000D01*
X99502936Y-93199403D01*
X99502938Y-93199413D01*
X99564094Y-93427655D01*
X99564096Y-93427659D01*
X99564097Y-93427663D01*
X99663965Y-93641830D01*
X99663967Y-93641834D01*
X99772281Y-93796521D01*
X99799501Y-93835396D01*
X99799506Y-93835402D01*
X99921818Y-93957714D01*
X99955303Y-94019037D01*
X99950319Y-94088729D01*
X99908447Y-94144662D01*
X99877471Y-94161577D01*
X99745912Y-94210646D01*
X99745906Y-94210649D01*
X99630812Y-94296809D01*
X99630809Y-94296812D01*
X99544649Y-94411906D01*
X99544645Y-94411913D01*
X99494403Y-94546620D01*
X99494401Y-94546627D01*
X99488000Y-94606155D01*
X99488000Y-94606172D01*
X99487999Y-95253999D01*
X99488000Y-95254000D01*
X100224653Y-95254000D01*
X100291692Y-95273685D01*
X100337447Y-95326489D01*
X100347391Y-95395647D01*
X100343631Y-95412933D01*
X100338000Y-95432111D01*
X100338000Y-95575888D01*
X100343631Y-95595067D01*
X100343630Y-95664936D01*
X100305855Y-95723714D01*
X100242299Y-95752738D01*
X100224653Y-95754000D01*
X99488000Y-95754000D01*
X99488000Y-96401844D01*
X99494401Y-96461372D01*
X99494403Y-96461379D01*
X99544645Y-96596086D01*
X99544649Y-96596093D01*
X99630809Y-96711187D01*
X99630812Y-96711190D01*
X99745906Y-96797350D01*
X99745913Y-96797354D01*
X99880620Y-96847596D01*
X99880627Y-96847598D01*
X99940155Y-96853999D01*
X99940172Y-96854000D01*
X100588000Y-96854000D01*
X100588000Y-96116301D01*
X100607685Y-96049262D01*
X100660489Y-96003507D01*
X100729647Y-95993563D01*
X100802237Y-96004000D01*
X100802238Y-96004000D01*
X100873762Y-96004000D01*
X100873763Y-96004000D01*
X100946353Y-95993563D01*
X101015512Y-96003507D01*
X101068315Y-96049262D01*
X101088000Y-96116301D01*
X101087999Y-96854000D01*
X101735828Y-96854000D01*
X101735844Y-96853999D01*
X101795372Y-96847598D01*
X101795379Y-96847596D01*
X101930086Y-96797354D01*
X101930093Y-96797350D01*
X102045187Y-96711190D01*
X102045190Y-96711187D01*
X102131350Y-96596093D01*
X102131354Y-96596086D01*
X102181596Y-96461379D01*
X102181598Y-96461372D01*
X102187999Y-96401844D01*
X102188000Y-96401827D01*
X102188000Y-95754000D01*
X101451347Y-95754000D01*
X101384308Y-95734315D01*
X101338553Y-95681511D01*
X101328609Y-95612353D01*
X101332369Y-95595067D01*
X101338000Y-95575888D01*
X101338000Y-95432111D01*
X101332369Y-95412933D01*
X101332370Y-95343064D01*
X101370145Y-95284286D01*
X101433701Y-95255262D01*
X101451347Y-95254000D01*
X102188000Y-95254000D01*
X102188000Y-94606172D01*
X102187999Y-94606155D01*
X102181598Y-94546627D01*
X102181596Y-94546620D01*
X102131354Y-94411913D01*
X102131350Y-94411906D01*
X102045190Y-94296812D01*
X102045187Y-94296809D01*
X101930093Y-94210649D01*
X101930088Y-94210646D01*
X101798528Y-94161577D01*
X101742595Y-94119705D01*
X101718178Y-94054241D01*
X101733030Y-93985968D01*
X101754175Y-93957720D01*
X101876495Y-93835401D01*
X102012035Y-93641830D01*
X102111903Y-93427663D01*
X102173063Y-93199408D01*
X102193659Y-92964000D01*
X114722341Y-92964000D01*
X114742936Y-93199403D01*
X114742938Y-93199413D01*
X114804094Y-93427655D01*
X114804096Y-93427659D01*
X114804097Y-93427663D01*
X114903965Y-93641829D01*
X114903965Y-93641830D01*
X114903967Y-93641834D01*
X115012281Y-93796521D01*
X115039505Y-93835401D01*
X115206599Y-94002495D01*
X115392594Y-94132730D01*
X115436218Y-94187307D01*
X115443411Y-94256806D01*
X115411889Y-94319160D01*
X115392593Y-94335880D01*
X115316626Y-94389072D01*
X115316625Y-94389072D01*
X115818883Y-94891330D01*
X115852368Y-94952653D01*
X115847384Y-95022345D01*
X115810357Y-95071805D01*
X115811602Y-95073241D01*
X115696238Y-95173202D01*
X115661046Y-95227962D01*
X115608242Y-95273717D01*
X115539083Y-95283660D01*
X115475528Y-95254634D01*
X115469050Y-95248603D01*
X114963072Y-94742625D01*
X114904401Y-94826419D01*
X114804570Y-95040507D01*
X114804566Y-95040516D01*
X114743432Y-95268673D01*
X114743430Y-95268684D01*
X114722843Y-95503998D01*
X114722843Y-95504001D01*
X114743430Y-95739315D01*
X114743432Y-95739326D01*
X114804566Y-95967483D01*
X114804570Y-95967492D01*
X114904400Y-96181579D01*
X114904402Y-96181583D01*
X114963072Y-96265373D01*
X114963073Y-96265373D01*
X115469050Y-95759395D01*
X115530373Y-95725910D01*
X115600064Y-95730894D01*
X115655998Y-95772765D01*
X115661039Y-95780025D01*
X115661048Y-95780039D01*
X115696239Y-95834798D01*
X115811602Y-95934759D01*
X115809293Y-95937422D01*
X115844006Y-95977499D01*
X115853935Y-96046660D01*
X115824898Y-96110210D01*
X115818882Y-96116669D01*
X115316625Y-96618925D01*
X115400421Y-96677599D01*
X115614507Y-96777429D01*
X115614516Y-96777433D01*
X115842673Y-96838567D01*
X115842684Y-96838569D01*
X116077998Y-96859157D01*
X116078002Y-96859157D01*
X116313315Y-96838569D01*
X116313326Y-96838567D01*
X116541483Y-96777433D01*
X116541492Y-96777429D01*
X116755578Y-96677600D01*
X116755582Y-96677598D01*
X116839373Y-96618926D01*
X116839373Y-96618925D01*
X116337116Y-96116669D01*
X116303631Y-96055346D01*
X116308615Y-95985655D01*
X116345640Y-95936193D01*
X116344398Y-95934759D01*
X116351100Y-95928952D01*
X116459761Y-95834798D01*
X116494954Y-95780037D01*
X116547755Y-95734283D01*
X116616914Y-95724339D01*
X116680470Y-95753363D01*
X116686949Y-95759396D01*
X117192925Y-96265373D01*
X117192926Y-96265373D01*
X117251598Y-96181582D01*
X117251600Y-96181578D01*
X117351429Y-95967492D01*
X117351433Y-95967483D01*
X117412567Y-95739326D01*
X117412569Y-95739315D01*
X117433157Y-95504001D01*
X117433157Y-95503998D01*
X117412569Y-95268684D01*
X117412567Y-95268673D01*
X117351433Y-95040516D01*
X117351429Y-95040507D01*
X117251600Y-94826423D01*
X117251599Y-94826421D01*
X117192925Y-94742626D01*
X117192925Y-94742625D01*
X116686949Y-95248602D01*
X116625626Y-95282087D01*
X116555934Y-95277103D01*
X116500001Y-95235231D01*
X116494953Y-95227961D01*
X116459761Y-95173202D01*
X116344398Y-95073241D01*
X116346708Y-95070574D01*
X116312005Y-95030528D01*
X116302058Y-94961370D01*
X116331080Y-94897813D01*
X116337116Y-94891330D01*
X116839373Y-94389073D01*
X116839373Y-94389072D01*
X116763405Y-94335880D01*
X116719780Y-94281304D01*
X116712586Y-94211805D01*
X116744108Y-94149451D01*
X116763399Y-94132734D01*
X116949401Y-94002495D01*
X117116495Y-93835401D01*
X117252035Y-93641830D01*
X117351903Y-93427663D01*
X117413063Y-93199408D01*
X117433659Y-92964000D01*
X117413063Y-92728592D01*
X117351903Y-92500337D01*
X117252035Y-92286171D01*
X117116495Y-92092599D01*
X117116494Y-92092597D01*
X116949402Y-91925506D01*
X116949401Y-91925505D01*
X116763842Y-91795575D01*
X116763841Y-91795574D01*
X116720216Y-91740997D01*
X116713024Y-91671498D01*
X116744546Y-91609144D01*
X116763836Y-91592428D01*
X116949401Y-91462495D01*
X117116495Y-91295401D01*
X117252035Y-91101830D01*
X117351903Y-90887663D01*
X117413063Y-90659408D01*
X117433659Y-90424000D01*
X117413063Y-90188592D01*
X117351903Y-89960337D01*
X117252035Y-89746171D01*
X117116495Y-89552599D01*
X117116494Y-89552597D01*
X116949402Y-89385506D01*
X116949396Y-89385501D01*
X116763842Y-89255575D01*
X116720217Y-89200998D01*
X116713023Y-89131500D01*
X116744546Y-89069145D01*
X116763842Y-89052425D01*
X116793876Y-89031395D01*
X116949401Y-88922495D01*
X117116495Y-88755401D01*
X117252035Y-88561830D01*
X117351903Y-88347663D01*
X117413063Y-88119408D01*
X117433659Y-87884000D01*
X117413063Y-87648592D01*
X117351903Y-87420337D01*
X117252035Y-87206171D01*
X117192753Y-87121506D01*
X117116494Y-87012597D01*
X116949402Y-86845506D01*
X116949401Y-86845505D01*
X116763842Y-86715575D01*
X116763841Y-86715574D01*
X116720216Y-86660997D01*
X116713024Y-86591498D01*
X116744546Y-86529144D01*
X116763836Y-86512428D01*
X116949401Y-86382495D01*
X117116495Y-86215401D01*
X117252035Y-86021830D01*
X117351903Y-85807663D01*
X117413063Y-85579408D01*
X117433659Y-85344000D01*
X117413063Y-85108592D01*
X117351903Y-84880337D01*
X117252035Y-84666171D01*
X117139234Y-84505073D01*
X117116494Y-84472597D01*
X116971896Y-84328000D01*
X118728540Y-84328000D01*
X118748326Y-84516256D01*
X118748327Y-84516259D01*
X118806818Y-84696277D01*
X118806821Y-84696284D01*
X118901467Y-84860216D01*
X119008110Y-84978655D01*
X119028129Y-85000888D01*
X119181265Y-85112148D01*
X119181270Y-85112151D01*
X119354192Y-85189142D01*
X119354197Y-85189144D01*
X119539354Y-85228500D01*
X119539355Y-85228500D01*
X119728644Y-85228500D01*
X119728646Y-85228500D01*
X119913803Y-85189144D01*
X120086730Y-85112151D01*
X120239871Y-85000888D01*
X120366533Y-84860216D01*
X120461179Y-84696284D01*
X120519674Y-84516256D01*
X120539460Y-84328000D01*
X120519674Y-84139744D01*
X120461179Y-83959716D01*
X120405111Y-83862603D01*
X120388500Y-83800609D01*
X120388500Y-81807388D01*
X120405110Y-81745397D01*
X120461179Y-81648284D01*
X120519674Y-81468256D01*
X120539460Y-81280000D01*
X120519674Y-81091744D01*
X120461179Y-80911716D01*
X120366533Y-80747784D01*
X120239871Y-80607112D01*
X120239870Y-80607111D01*
X120086734Y-80495851D01*
X120086729Y-80495848D01*
X119913807Y-80418857D01*
X119913802Y-80418855D01*
X119768000Y-80387865D01*
X119728646Y-80379500D01*
X119539354Y-80379500D01*
X119506897Y-80386398D01*
X119354197Y-80418855D01*
X119354192Y-80418857D01*
X119181270Y-80495848D01*
X119181265Y-80495851D01*
X119028129Y-80607111D01*
X118901466Y-80747785D01*
X118806821Y-80911715D01*
X118806818Y-80911722D01*
X118748455Y-81091346D01*
X118748326Y-81091744D01*
X118728540Y-81280000D01*
X118748326Y-81468256D01*
X118748327Y-81468259D01*
X118806818Y-81648277D01*
X118806821Y-81648284D01*
X118862887Y-81745392D01*
X118879500Y-81807392D01*
X118879500Y-83800606D01*
X118862888Y-83862605D01*
X118806820Y-83959718D01*
X118806818Y-83959722D01*
X118754417Y-84120998D01*
X118748326Y-84139744D01*
X118728540Y-84328000D01*
X116971896Y-84328000D01*
X116949402Y-84305506D01*
X116949396Y-84305501D01*
X116763842Y-84175575D01*
X116720217Y-84120998D01*
X116713023Y-84051500D01*
X116744546Y-83989145D01*
X116763842Y-83972425D01*
X116786026Y-83956891D01*
X116949401Y-83842495D01*
X117116495Y-83675401D01*
X117252035Y-83481830D01*
X117351903Y-83267663D01*
X117413063Y-83039408D01*
X117433659Y-82804000D01*
X117413063Y-82568592D01*
X117351903Y-82340337D01*
X117252035Y-82126171D01*
X117139234Y-81965073D01*
X117116494Y-81932597D01*
X116949402Y-81765506D01*
X116949401Y-81765505D01*
X116791477Y-81654925D01*
X116763841Y-81635574D01*
X116720216Y-81580997D01*
X116713024Y-81511498D01*
X116744546Y-81449144D01*
X116763836Y-81432428D01*
X116949401Y-81302495D01*
X117116495Y-81135401D01*
X117252035Y-80941830D01*
X117351903Y-80727663D01*
X117413063Y-80499408D01*
X117433659Y-80264000D01*
X117413063Y-80028592D01*
X117351903Y-79800337D01*
X117252035Y-79586171D01*
X117193098Y-79501999D01*
X117116494Y-79392597D01*
X116949402Y-79225506D01*
X116949396Y-79225501D01*
X116763842Y-79095575D01*
X116720217Y-79040998D01*
X116713023Y-78971500D01*
X116744546Y-78909145D01*
X116763842Y-78892425D01*
X116851089Y-78831334D01*
X116949401Y-78762495D01*
X117116495Y-78595401D01*
X117252035Y-78401830D01*
X117351903Y-78187663D01*
X117413063Y-77959408D01*
X117433659Y-77724000D01*
X117413063Y-77488592D01*
X117351903Y-77260337D01*
X117252035Y-77046171D01*
X117192753Y-76961506D01*
X117116494Y-76852597D01*
X116949402Y-76685506D01*
X116949395Y-76685501D01*
X116755834Y-76549967D01*
X116755830Y-76549965D01*
X116755828Y-76549964D01*
X116541663Y-76450097D01*
X116541659Y-76450096D01*
X116541655Y-76450094D01*
X116313413Y-76388938D01*
X116313403Y-76388936D01*
X116078001Y-76368341D01*
X116077999Y-76368341D01*
X115842596Y-76388936D01*
X115842586Y-76388938D01*
X115614344Y-76450094D01*
X115614335Y-76450098D01*
X115400171Y-76549964D01*
X115400169Y-76549965D01*
X115206597Y-76685505D01*
X115039505Y-76852597D01*
X114903965Y-77046169D01*
X114903964Y-77046171D01*
X114804098Y-77260335D01*
X114804094Y-77260344D01*
X114742938Y-77488586D01*
X114742936Y-77488596D01*
X114722341Y-77723999D01*
X114722341Y-77724000D01*
X114742936Y-77959403D01*
X114742938Y-77959413D01*
X114804094Y-78187655D01*
X114804096Y-78187659D01*
X114804097Y-78187663D01*
X114903965Y-78401829D01*
X114903965Y-78401830D01*
X114903967Y-78401834D01*
X115039501Y-78595395D01*
X115039506Y-78595402D01*
X115206597Y-78762493D01*
X115206603Y-78762498D01*
X115392158Y-78892425D01*
X115435783Y-78947002D01*
X115442977Y-79016500D01*
X115411454Y-79078855D01*
X115392158Y-79095575D01*
X115206597Y-79225505D01*
X115039505Y-79392597D01*
X114903965Y-79586169D01*
X114903964Y-79586171D01*
X114804098Y-79800335D01*
X114804094Y-79800344D01*
X114742938Y-80028586D01*
X114742936Y-80028596D01*
X114722341Y-80263999D01*
X114722341Y-80264000D01*
X114742936Y-80499403D01*
X114742938Y-80499413D01*
X114804094Y-80727655D01*
X114804096Y-80727659D01*
X114804097Y-80727663D01*
X114835681Y-80795395D01*
X114903965Y-80941830D01*
X114903967Y-80941834D01*
X115039501Y-81135395D01*
X115039506Y-81135402D01*
X115206597Y-81302493D01*
X115206603Y-81302498D01*
X115392158Y-81432425D01*
X115435783Y-81487002D01*
X115442977Y-81556500D01*
X115411454Y-81618855D01*
X115392158Y-81635575D01*
X115206597Y-81765505D01*
X115039505Y-81932597D01*
X114903965Y-82126169D01*
X114903964Y-82126171D01*
X114804098Y-82340335D01*
X114804094Y-82340344D01*
X114742938Y-82568586D01*
X114742936Y-82568596D01*
X114722341Y-82803999D01*
X114722341Y-82804000D01*
X114742936Y-83039403D01*
X114742938Y-83039413D01*
X114804094Y-83267655D01*
X114804096Y-83267659D01*
X114804097Y-83267663D01*
X114835681Y-83335395D01*
X114903965Y-83481830D01*
X114903967Y-83481834D01*
X115039501Y-83675395D01*
X115039506Y-83675402D01*
X115206597Y-83842493D01*
X115206603Y-83842498D01*
X115392158Y-83972425D01*
X115435783Y-84027002D01*
X115442977Y-84096500D01*
X115411454Y-84158855D01*
X115392158Y-84175575D01*
X115206597Y-84305505D01*
X115039505Y-84472597D01*
X114903965Y-84666169D01*
X114903964Y-84666171D01*
X114804098Y-84880335D01*
X114804094Y-84880344D01*
X114742938Y-85108586D01*
X114742936Y-85108596D01*
X114722341Y-85343999D01*
X114722341Y-85344000D01*
X114742936Y-85579403D01*
X114742938Y-85579413D01*
X114804094Y-85807655D01*
X114804096Y-85807659D01*
X114804097Y-85807663D01*
X114835681Y-85875395D01*
X114903965Y-86021830D01*
X114903967Y-86021834D01*
X115039501Y-86215395D01*
X115039506Y-86215402D01*
X115206597Y-86382493D01*
X115206603Y-86382498D01*
X115392158Y-86512425D01*
X115435783Y-86567002D01*
X115442977Y-86636500D01*
X115411454Y-86698855D01*
X115392158Y-86715575D01*
X115206597Y-86845505D01*
X115039505Y-87012597D01*
X114903965Y-87206169D01*
X114903964Y-87206171D01*
X114804098Y-87420335D01*
X114804094Y-87420344D01*
X114742938Y-87648586D01*
X114742936Y-87648596D01*
X114722341Y-87883999D01*
X114722341Y-87884000D01*
X114742936Y-88119403D01*
X114742938Y-88119413D01*
X114804094Y-88347655D01*
X114804096Y-88347659D01*
X114804097Y-88347663D01*
X114903965Y-88561830D01*
X114903967Y-88561834D01*
X115039501Y-88755395D01*
X115039506Y-88755402D01*
X115206597Y-88922493D01*
X115206603Y-88922498D01*
X115392158Y-89052425D01*
X115435783Y-89107002D01*
X115442977Y-89176500D01*
X115411454Y-89238855D01*
X115392158Y-89255575D01*
X115206597Y-89385505D01*
X115039505Y-89552597D01*
X114903965Y-89746169D01*
X114903964Y-89746171D01*
X114804098Y-89960335D01*
X114804094Y-89960344D01*
X114742938Y-90188586D01*
X114742936Y-90188596D01*
X114722341Y-90423999D01*
X114722341Y-90424000D01*
X114742936Y-90659403D01*
X114742938Y-90659413D01*
X114804094Y-90887655D01*
X114804096Y-90887659D01*
X114804097Y-90887663D01*
X114903964Y-91101829D01*
X114903965Y-91101830D01*
X114903967Y-91101834D01*
X115039501Y-91295395D01*
X115039506Y-91295402D01*
X115206597Y-91462493D01*
X115206603Y-91462498D01*
X115392158Y-91592425D01*
X115435783Y-91647002D01*
X115442977Y-91716500D01*
X115411454Y-91778855D01*
X115392158Y-91795575D01*
X115206597Y-91925505D01*
X115039505Y-92092597D01*
X114903965Y-92286169D01*
X114903964Y-92286171D01*
X114804098Y-92500335D01*
X114804094Y-92500344D01*
X114742938Y-92728586D01*
X114742936Y-92728596D01*
X114722341Y-92963999D01*
X114722341Y-92964000D01*
X102193659Y-92964000D01*
X102173063Y-92728592D01*
X102111903Y-92500337D01*
X102012035Y-92286171D01*
X101876495Y-92092599D01*
X101876494Y-92092597D01*
X101709402Y-91925506D01*
X101709396Y-91925501D01*
X101523842Y-91795575D01*
X101480217Y-91740998D01*
X101473023Y-91671500D01*
X101504546Y-91609145D01*
X101523842Y-91592425D01*
X101546026Y-91576891D01*
X101709401Y-91462495D01*
X101876495Y-91295401D01*
X102012035Y-91101830D01*
X102111903Y-90887663D01*
X102173063Y-90659408D01*
X102193659Y-90424000D01*
X102173063Y-90188592D01*
X102111903Y-89960337D01*
X102012035Y-89746171D01*
X101876495Y-89552599D01*
X101876494Y-89552597D01*
X101709402Y-89385506D01*
X101709396Y-89385501D01*
X101523842Y-89255575D01*
X101480217Y-89200998D01*
X101473023Y-89131500D01*
X101504546Y-89069145D01*
X101523842Y-89052425D01*
X101553876Y-89031395D01*
X101709401Y-88922495D01*
X101876495Y-88755401D01*
X102012035Y-88561830D01*
X102111903Y-88347663D01*
X102173063Y-88119408D01*
X102193659Y-87884000D01*
X102173063Y-87648592D01*
X102111903Y-87420337D01*
X102012035Y-87206171D01*
X101952753Y-87121506D01*
X101876494Y-87012597D01*
X101709402Y-86845506D01*
X101709396Y-86845501D01*
X101523842Y-86715575D01*
X101480217Y-86660998D01*
X101473023Y-86591500D01*
X101504546Y-86529145D01*
X101523842Y-86512425D01*
X101546026Y-86496891D01*
X101709401Y-86382495D01*
X101876495Y-86215401D01*
X102012035Y-86021830D01*
X102111903Y-85807663D01*
X102173063Y-85579408D01*
X102193659Y-85344000D01*
X102173063Y-85108592D01*
X102111903Y-84880337D01*
X102012035Y-84666171D01*
X101899234Y-84505073D01*
X101876494Y-84472597D01*
X101709402Y-84305506D01*
X101709396Y-84305501D01*
X101523842Y-84175575D01*
X101480217Y-84120998D01*
X101473023Y-84051500D01*
X101504546Y-83989145D01*
X101523842Y-83972425D01*
X101546026Y-83956891D01*
X101709401Y-83842495D01*
X101876495Y-83675401D01*
X102012035Y-83481830D01*
X102111903Y-83267663D01*
X102173063Y-83039408D01*
X102193659Y-82804000D01*
X102173063Y-82568592D01*
X102111903Y-82340337D01*
X102012035Y-82126171D01*
X101899234Y-81965073D01*
X101876494Y-81932597D01*
X101709402Y-81765506D01*
X101709396Y-81765501D01*
X101523842Y-81635575D01*
X101480217Y-81580998D01*
X101473023Y-81511500D01*
X101504546Y-81449145D01*
X101523842Y-81432425D01*
X101546026Y-81416891D01*
X101709401Y-81302495D01*
X101876495Y-81135401D01*
X102012035Y-80941830D01*
X102111903Y-80727663D01*
X102173063Y-80499408D01*
X102193659Y-80264000D01*
X102173063Y-80028592D01*
X102111903Y-79800337D01*
X102012035Y-79586171D01*
X101953098Y-79501999D01*
X101876494Y-79392597D01*
X101709402Y-79225506D01*
X101709396Y-79225501D01*
X101523842Y-79095575D01*
X101480217Y-79040998D01*
X101473023Y-78971500D01*
X101504546Y-78909145D01*
X101523842Y-78892425D01*
X101611089Y-78831334D01*
X101709401Y-78762495D01*
X101876495Y-78595401D01*
X102012035Y-78401830D01*
X102111903Y-78187663D01*
X102173063Y-77959408D01*
X102193659Y-77724000D01*
X102173063Y-77488592D01*
X102111903Y-77260337D01*
X102012035Y-77046171D01*
X101952753Y-76961506D01*
X101876494Y-76852597D01*
X101709402Y-76685506D01*
X101709395Y-76685501D01*
X101515834Y-76549967D01*
X101515830Y-76549965D01*
X101515828Y-76549964D01*
X101301663Y-76450097D01*
X101301659Y-76450096D01*
X101301655Y-76450094D01*
X101073413Y-76388938D01*
X101073403Y-76388936D01*
X100838001Y-76368341D01*
X100837999Y-76368341D01*
X100602596Y-76388936D01*
X100602586Y-76388938D01*
X100374344Y-76450094D01*
X100374335Y-76450098D01*
X100160171Y-76549964D01*
X100160169Y-76549965D01*
X99966597Y-76685505D01*
X99799505Y-76852597D01*
X99663965Y-77046169D01*
X99663964Y-77046171D01*
X99564098Y-77260335D01*
X99564094Y-77260344D01*
X99502938Y-77488586D01*
X99502936Y-77488596D01*
X99482341Y-77723999D01*
X99482341Y-77724000D01*
X99502936Y-77959403D01*
X99502938Y-77959413D01*
X99564094Y-78187655D01*
X99564096Y-78187659D01*
X99564097Y-78187663D01*
X99663965Y-78401830D01*
X99663967Y-78401834D01*
X99799501Y-78595395D01*
X99799506Y-78595402D01*
X99966597Y-78762493D01*
X99966603Y-78762498D01*
X100152158Y-78892425D01*
X100195783Y-78947002D01*
X100202977Y-79016500D01*
X100171454Y-79078855D01*
X100152158Y-79095575D01*
X99966597Y-79225505D01*
X99799505Y-79392597D01*
X99663965Y-79586169D01*
X99663964Y-79586171D01*
X99564098Y-79800335D01*
X99564094Y-79800344D01*
X99502938Y-80028586D01*
X99502936Y-80028596D01*
X99482341Y-80263999D01*
X99482341Y-80264000D01*
X99502936Y-80499403D01*
X99502938Y-80499413D01*
X99564094Y-80727655D01*
X99564096Y-80727659D01*
X99564097Y-80727663D01*
X99595681Y-80795395D01*
X99663965Y-80941830D01*
X99663967Y-80941834D01*
X99799501Y-81135395D01*
X99799506Y-81135402D01*
X99966597Y-81302493D01*
X99966603Y-81302498D01*
X100152158Y-81432425D01*
X100195783Y-81487002D01*
X100202977Y-81556500D01*
X100171454Y-81618855D01*
X100152158Y-81635575D01*
X99966597Y-81765505D01*
X99799505Y-81932597D01*
X99663965Y-82126169D01*
X99663964Y-82126171D01*
X99564098Y-82340335D01*
X99564094Y-82340344D01*
X99502938Y-82568586D01*
X99502936Y-82568596D01*
X99482341Y-82803999D01*
X99482341Y-82804000D01*
X99502936Y-83039403D01*
X99502938Y-83039413D01*
X99564094Y-83267655D01*
X99564096Y-83267659D01*
X99564097Y-83267663D01*
X99595681Y-83335395D01*
X99663965Y-83481830D01*
X99663967Y-83481834D01*
X99799501Y-83675395D01*
X99799506Y-83675402D01*
X99966597Y-83842493D01*
X99966603Y-83842498D01*
X100152158Y-83972425D01*
X100195783Y-84027002D01*
X100202977Y-84096500D01*
X100171454Y-84158855D01*
X100152158Y-84175575D01*
X99966597Y-84305505D01*
X99799505Y-84472597D01*
X99663965Y-84666169D01*
X99663964Y-84666171D01*
X99564098Y-84880335D01*
X99564094Y-84880344D01*
X99502938Y-85108586D01*
X99502936Y-85108596D01*
X99482341Y-85343999D01*
X99482341Y-85344000D01*
X99502936Y-85579403D01*
X99502938Y-85579413D01*
X99564094Y-85807655D01*
X99564096Y-85807659D01*
X99564097Y-85807663D01*
X99595681Y-85875395D01*
X99663965Y-86021830D01*
X99663967Y-86021834D01*
X99799501Y-86215395D01*
X99799506Y-86215402D01*
X99966597Y-86382493D01*
X99966603Y-86382498D01*
X100152158Y-86512425D01*
X100195783Y-86567002D01*
X100202977Y-86636500D01*
X100171454Y-86698855D01*
X100152158Y-86715575D01*
X99966597Y-86845505D01*
X99799505Y-87012597D01*
X99663965Y-87206169D01*
X99663964Y-87206171D01*
X99564098Y-87420335D01*
X99564094Y-87420344D01*
X99502938Y-87648586D01*
X99502936Y-87648596D01*
X99482341Y-87883999D01*
X99482341Y-87884000D01*
X99502936Y-88119403D01*
X99502938Y-88119413D01*
X99564094Y-88347655D01*
X99564096Y-88347659D01*
X99564097Y-88347663D01*
X99663965Y-88561830D01*
X99663967Y-88561834D01*
X99799501Y-88755395D01*
X99799506Y-88755402D01*
X99966597Y-88922493D01*
X99966603Y-88922498D01*
X100152158Y-89052425D01*
X100195783Y-89107002D01*
X100202977Y-89176500D01*
X100171454Y-89238855D01*
X100152158Y-89255575D01*
X99966597Y-89385505D01*
X99799505Y-89552597D01*
X99663965Y-89746169D01*
X99663964Y-89746171D01*
X99564098Y-89960335D01*
X99564094Y-89960344D01*
X99502938Y-90188586D01*
X99502936Y-90188596D01*
X99482341Y-90423999D01*
X99482341Y-90424000D01*
X99502936Y-90659403D01*
X99502938Y-90659413D01*
X99564094Y-90887655D01*
X99564096Y-90887659D01*
X99564097Y-90887663D01*
X99663965Y-91101829D01*
X99663965Y-91101830D01*
X99663967Y-91101834D01*
X99799501Y-91295395D01*
X99799506Y-91295402D01*
X99966597Y-91462493D01*
X99966603Y-91462498D01*
X100152158Y-91592425D01*
X100195783Y-91647002D01*
X100202977Y-91716500D01*
X100171454Y-91778855D01*
X100152158Y-91795575D01*
X99966597Y-91925505D01*
X99799505Y-92092597D01*
X99663965Y-92286169D01*
X99663964Y-92286171D01*
X99564098Y-92500335D01*
X99564094Y-92500344D01*
X99502938Y-92728586D01*
X99502936Y-92728596D01*
X99482341Y-92963999D01*
X99482341Y-92964000D01*
X67440000Y-92964000D01*
X67440000Y-88160000D01*
X80594341Y-88160000D01*
X80614936Y-88395403D01*
X80614938Y-88395413D01*
X80676094Y-88623655D01*
X80676096Y-88623659D01*
X80676097Y-88623663D01*
X80680000Y-88632032D01*
X80775965Y-88837830D01*
X80775967Y-88837834D01*
X80835248Y-88922495D01*
X80911505Y-89031401D01*
X81078599Y-89198495D01*
X81082174Y-89200998D01*
X81272165Y-89334032D01*
X81272167Y-89334033D01*
X81272170Y-89334035D01*
X81486337Y-89433903D01*
X81714592Y-89495063D01*
X81902918Y-89511539D01*
X81949999Y-89515659D01*
X81950000Y-89515659D01*
X81950001Y-89515659D01*
X81989234Y-89512226D01*
X82185408Y-89495063D01*
X82413663Y-89433903D01*
X82627830Y-89334035D01*
X82821401Y-89198495D01*
X82988495Y-89031401D01*
X83118424Y-88845842D01*
X83173002Y-88802217D01*
X83242500Y-88795023D01*
X83304855Y-88826546D01*
X83321575Y-88845842D01*
X83451500Y-89031395D01*
X83451505Y-89031401D01*
X83618599Y-89198495D01*
X83622174Y-89200998D01*
X83812165Y-89334032D01*
X83812167Y-89334033D01*
X83812170Y-89334035D01*
X84026337Y-89433903D01*
X84254592Y-89495063D01*
X84442918Y-89511539D01*
X84489999Y-89515659D01*
X84490000Y-89515659D01*
X84490001Y-89515659D01*
X84529234Y-89512226D01*
X84725408Y-89495063D01*
X84953663Y-89433903D01*
X85167830Y-89334035D01*
X85361401Y-89198495D01*
X85528495Y-89031401D01*
X85664035Y-88837830D01*
X85763903Y-88623663D01*
X85825063Y-88395408D01*
X85845659Y-88160000D01*
X85825063Y-87924592D01*
X85763903Y-87696337D01*
X85664035Y-87482171D01*
X85658425Y-87474158D01*
X85528494Y-87288597D01*
X85361402Y-87121506D01*
X85361401Y-87121505D01*
X85175405Y-86991269D01*
X85131781Y-86936692D01*
X85124588Y-86867193D01*
X85156110Y-86804839D01*
X85175405Y-86788119D01*
X85251373Y-86734925D01*
X84749116Y-86232669D01*
X84715631Y-86171346D01*
X84720615Y-86101655D01*
X84757640Y-86052193D01*
X84756398Y-86050759D01*
X84763100Y-86044952D01*
X84871761Y-85950798D01*
X84906954Y-85896037D01*
X84959755Y-85850283D01*
X85028914Y-85840339D01*
X85092470Y-85869363D01*
X85098949Y-85875396D01*
X85604925Y-86381373D01*
X85604926Y-86381373D01*
X85663598Y-86297582D01*
X85663600Y-86297578D01*
X85763429Y-86083492D01*
X85763433Y-86083483D01*
X85824567Y-85855326D01*
X85824569Y-85855315D01*
X85845157Y-85620001D01*
X85845157Y-85619998D01*
X85824569Y-85384684D01*
X85824567Y-85384673D01*
X85763433Y-85156516D01*
X85763429Y-85156507D01*
X85663600Y-84942423D01*
X85663599Y-84942421D01*
X85604925Y-84858626D01*
X85604925Y-84858625D01*
X85098949Y-85364602D01*
X85037626Y-85398087D01*
X84967934Y-85393103D01*
X84912001Y-85351231D01*
X84906953Y-85343961D01*
X84871761Y-85289202D01*
X84756398Y-85189241D01*
X84758708Y-85186574D01*
X84724005Y-85146528D01*
X84714058Y-85077370D01*
X84743080Y-85013813D01*
X84749116Y-85007330D01*
X85251373Y-84505073D01*
X85174969Y-84451576D01*
X85131344Y-84396999D01*
X85124150Y-84327501D01*
X85155672Y-84265146D01*
X85174968Y-84248425D01*
X85251373Y-84194925D01*
X84749116Y-83692669D01*
X84715631Y-83631346D01*
X84720615Y-83561655D01*
X84757640Y-83512193D01*
X84756398Y-83510759D01*
X84763100Y-83504952D01*
X84871761Y-83410798D01*
X84906954Y-83356037D01*
X84959755Y-83310283D01*
X85028914Y-83300339D01*
X85092470Y-83329363D01*
X85098949Y-83335396D01*
X85604925Y-83841373D01*
X85604926Y-83841373D01*
X85663598Y-83757582D01*
X85663600Y-83757578D01*
X85763429Y-83543492D01*
X85763433Y-83543483D01*
X85824567Y-83315326D01*
X85824569Y-83315315D01*
X85845157Y-83080001D01*
X85845157Y-83079998D01*
X85824569Y-82844684D01*
X85824567Y-82844673D01*
X85763433Y-82616516D01*
X85763429Y-82616507D01*
X85663600Y-82402423D01*
X85663599Y-82402421D01*
X85604925Y-82318626D01*
X85604925Y-82318625D01*
X85098949Y-82824602D01*
X85037626Y-82858087D01*
X84967934Y-82853103D01*
X84912001Y-82811231D01*
X84906953Y-82803961D01*
X84871761Y-82749202D01*
X84756398Y-82649241D01*
X84758708Y-82646574D01*
X84724005Y-82606528D01*
X84714058Y-82537370D01*
X84743080Y-82473813D01*
X84749116Y-82467330D01*
X85251373Y-81965073D01*
X85174969Y-81911576D01*
X85131344Y-81856999D01*
X85124150Y-81787501D01*
X85155672Y-81725146D01*
X85174968Y-81708425D01*
X85251373Y-81654925D01*
X84749116Y-81152669D01*
X84715631Y-81091346D01*
X84720615Y-81021655D01*
X84757640Y-80972193D01*
X84756398Y-80970759D01*
X84763100Y-80964952D01*
X84871761Y-80870798D01*
X84906954Y-80816037D01*
X84959755Y-80770283D01*
X85028914Y-80760339D01*
X85092470Y-80789363D01*
X85098949Y-80795396D01*
X85604925Y-81301373D01*
X85604926Y-81301373D01*
X85663598Y-81217582D01*
X85663600Y-81217578D01*
X85763429Y-81003492D01*
X85763433Y-81003483D01*
X85824567Y-80775326D01*
X85824569Y-80775315D01*
X85845157Y-80540001D01*
X85845157Y-80539998D01*
X85824569Y-80304684D01*
X85824567Y-80304673D01*
X85763433Y-80076516D01*
X85763429Y-80076507D01*
X85663600Y-79862423D01*
X85663599Y-79862421D01*
X85604925Y-79778626D01*
X85604925Y-79778625D01*
X85098949Y-80284602D01*
X85037626Y-80318087D01*
X84967934Y-80313103D01*
X84912001Y-80271231D01*
X84906953Y-80263961D01*
X84871761Y-80209202D01*
X84756398Y-80109241D01*
X84758708Y-80106574D01*
X84724005Y-80066528D01*
X84714058Y-79997370D01*
X84743080Y-79933813D01*
X84749116Y-79927330D01*
X85174446Y-79502000D01*
X95614540Y-79502000D01*
X95634326Y-79690256D01*
X95634327Y-79690259D01*
X95692818Y-79870277D01*
X95692821Y-79870284D01*
X95787467Y-80034216D01*
X95852619Y-80106574D01*
X95914129Y-80174888D01*
X96067265Y-80286148D01*
X96067270Y-80286151D01*
X96240192Y-80363142D01*
X96240197Y-80363144D01*
X96425354Y-80402500D01*
X96425355Y-80402500D01*
X96614644Y-80402500D01*
X96614646Y-80402500D01*
X96799803Y-80363144D01*
X96972730Y-80286151D01*
X97125871Y-80174888D01*
X97252533Y-80034216D01*
X97347179Y-79870284D01*
X97405674Y-79690256D01*
X97425460Y-79502000D01*
X97405674Y-79313744D01*
X97347179Y-79133716D01*
X97291111Y-79036604D01*
X97274500Y-78974606D01*
X97274500Y-76473392D01*
X97291113Y-76411392D01*
X97304077Y-76388938D01*
X97347179Y-76314284D01*
X97405674Y-76134256D01*
X97425460Y-75946000D01*
X97405674Y-75757744D01*
X97347179Y-75577716D01*
X97252533Y-75413784D01*
X97125871Y-75273112D01*
X97125870Y-75273111D01*
X96972734Y-75161851D01*
X96972729Y-75161848D01*
X96799807Y-75084857D01*
X96799802Y-75084855D01*
X96654001Y-75053865D01*
X96614646Y-75045500D01*
X96425354Y-75045500D01*
X96392897Y-75052398D01*
X96240197Y-75084855D01*
X96240192Y-75084857D01*
X96067270Y-75161848D01*
X96067265Y-75161851D01*
X95914129Y-75273111D01*
X95787466Y-75413785D01*
X95692821Y-75577715D01*
X95692818Y-75577722D01*
X95634327Y-75757740D01*
X95634326Y-75757744D01*
X95614540Y-75946000D01*
X95634326Y-76134256D01*
X95634327Y-76134259D01*
X95692818Y-76314277D01*
X95692821Y-76314284D01*
X95748887Y-76411392D01*
X95765500Y-76473392D01*
X95765500Y-78974606D01*
X95748888Y-79036605D01*
X95692820Y-79133718D01*
X95692818Y-79133722D01*
X95634327Y-79313740D01*
X95634326Y-79313744D01*
X95614540Y-79502000D01*
X85174446Y-79502000D01*
X85255789Y-79420657D01*
X85266209Y-79368808D01*
X85314823Y-79318624D01*
X85336961Y-79308796D01*
X85409334Y-79284814D01*
X85558656Y-79192712D01*
X85682712Y-79068656D01*
X85774814Y-78919334D01*
X85829999Y-78752797D01*
X85840500Y-78650009D01*
X85840499Y-77349992D01*
X85829999Y-77247203D01*
X85774814Y-77080666D01*
X85682712Y-76931344D01*
X85558656Y-76807288D01*
X85465888Y-76750068D01*
X85409336Y-76715187D01*
X85409331Y-76715185D01*
X85407862Y-76714698D01*
X85242797Y-76660001D01*
X85242795Y-76660000D01*
X85140010Y-76649500D01*
X83839998Y-76649500D01*
X83839981Y-76649501D01*
X83737203Y-76660000D01*
X83737200Y-76660001D01*
X83570668Y-76715185D01*
X83570663Y-76715187D01*
X83421342Y-76807289D01*
X83297289Y-76931342D01*
X83205187Y-77080663D01*
X83205183Y-77080673D01*
X83202335Y-77089268D01*
X83162560Y-77146711D01*
X83098044Y-77173531D01*
X83029268Y-77161214D01*
X82992517Y-77132233D01*
X82992324Y-77132427D01*
X82990682Y-77130785D01*
X82989642Y-77129965D01*
X82988494Y-77128597D01*
X82821402Y-76961506D01*
X82821395Y-76961501D01*
X82627834Y-76825967D01*
X82627830Y-76825965D01*
X82587777Y-76807288D01*
X82413663Y-76726097D01*
X82413659Y-76726096D01*
X82413655Y-76726094D01*
X82185413Y-76664938D01*
X82185403Y-76664936D01*
X81950001Y-76644341D01*
X81949999Y-76644341D01*
X81714596Y-76664936D01*
X81714586Y-76664938D01*
X81486344Y-76726094D01*
X81486335Y-76726098D01*
X81272171Y-76825964D01*
X81272169Y-76825965D01*
X81078597Y-76961505D01*
X80911505Y-77128597D01*
X80775965Y-77322169D01*
X80775964Y-77322171D01*
X80676098Y-77536335D01*
X80676094Y-77536344D01*
X80614938Y-77764586D01*
X80614936Y-77764596D01*
X80594341Y-77999999D01*
X80594341Y-78000000D01*
X80614936Y-78235403D01*
X80614938Y-78235413D01*
X80676094Y-78463655D01*
X80676096Y-78463659D01*
X80676097Y-78463663D01*
X80737525Y-78595395D01*
X80775965Y-78677830D01*
X80775967Y-78677834D01*
X80835248Y-78762495D01*
X80911505Y-78871401D01*
X81078599Y-79038495D01*
X81264594Y-79168730D01*
X81308218Y-79223307D01*
X81315411Y-79292806D01*
X81283889Y-79355160D01*
X81264593Y-79371880D01*
X81188626Y-79425072D01*
X81188625Y-79425072D01*
X81690883Y-79927330D01*
X81724368Y-79988653D01*
X81719384Y-80058345D01*
X81682357Y-80107805D01*
X81683602Y-80109241D01*
X81568238Y-80209202D01*
X81533046Y-80263962D01*
X81480242Y-80309717D01*
X81411083Y-80319660D01*
X81347528Y-80290634D01*
X81341050Y-80284603D01*
X80835072Y-79778625D01*
X80776401Y-79862419D01*
X80676570Y-80076507D01*
X80676566Y-80076516D01*
X80615432Y-80304673D01*
X80615430Y-80304684D01*
X80594843Y-80539998D01*
X80594843Y-80540001D01*
X80615430Y-80775315D01*
X80615432Y-80775326D01*
X80676566Y-81003483D01*
X80676570Y-81003492D01*
X80776400Y-81217579D01*
X80776402Y-81217583D01*
X80835072Y-81301373D01*
X80835073Y-81301373D01*
X81341050Y-80795395D01*
X81402373Y-80761910D01*
X81472064Y-80766894D01*
X81527998Y-80808765D01*
X81533039Y-80816025D01*
X81568239Y-80870798D01*
X81650215Y-80941830D01*
X81683602Y-80970759D01*
X81681293Y-80973422D01*
X81716006Y-81013499D01*
X81725935Y-81082660D01*
X81696898Y-81146210D01*
X81690882Y-81152669D01*
X81188625Y-81654925D01*
X81265031Y-81708425D01*
X81308655Y-81763002D01*
X81315848Y-81832501D01*
X81284326Y-81894855D01*
X81265029Y-81911576D01*
X81188625Y-81965072D01*
X81690883Y-82467330D01*
X81724368Y-82528653D01*
X81719384Y-82598345D01*
X81682357Y-82647805D01*
X81683602Y-82649241D01*
X81568238Y-82749202D01*
X81533046Y-82803962D01*
X81480242Y-82849717D01*
X81411083Y-82859660D01*
X81347528Y-82830634D01*
X81341050Y-82824603D01*
X80835072Y-82318625D01*
X80776401Y-82402419D01*
X80676570Y-82616507D01*
X80676566Y-82616516D01*
X80615432Y-82844673D01*
X80615430Y-82844684D01*
X80594843Y-83079998D01*
X80594843Y-83080001D01*
X80615430Y-83315315D01*
X80615432Y-83315326D01*
X80676566Y-83543483D01*
X80676570Y-83543492D01*
X80776400Y-83757579D01*
X80776402Y-83757583D01*
X80835072Y-83841373D01*
X80835073Y-83841373D01*
X81341050Y-83335395D01*
X81402373Y-83301910D01*
X81472064Y-83306894D01*
X81527998Y-83348765D01*
X81533039Y-83356025D01*
X81568239Y-83410798D01*
X81650215Y-83481830D01*
X81683602Y-83510759D01*
X81681293Y-83513422D01*
X81716006Y-83553499D01*
X81725935Y-83622660D01*
X81696898Y-83686210D01*
X81690882Y-83692669D01*
X81188625Y-84194925D01*
X81265031Y-84248425D01*
X81308655Y-84303002D01*
X81315848Y-84372501D01*
X81284326Y-84434855D01*
X81265029Y-84451576D01*
X81188625Y-84505072D01*
X81690883Y-85007330D01*
X81724368Y-85068653D01*
X81719384Y-85138345D01*
X81682357Y-85187805D01*
X81683602Y-85189241D01*
X81568238Y-85289202D01*
X81533046Y-85343962D01*
X81480242Y-85389717D01*
X81411083Y-85399660D01*
X81347528Y-85370634D01*
X81341050Y-85364603D01*
X80835072Y-84858625D01*
X80776401Y-84942419D01*
X80676570Y-85156507D01*
X80676566Y-85156516D01*
X80615432Y-85384673D01*
X80615430Y-85384684D01*
X80594843Y-85619998D01*
X80594843Y-85620001D01*
X80615430Y-85855315D01*
X80615432Y-85855326D01*
X80676566Y-86083483D01*
X80676570Y-86083492D01*
X80776400Y-86297579D01*
X80776402Y-86297583D01*
X80835072Y-86381373D01*
X80835073Y-86381373D01*
X81341050Y-85875395D01*
X81402373Y-85841910D01*
X81472064Y-85846894D01*
X81527998Y-85888765D01*
X81533039Y-85896025D01*
X81568239Y-85950798D01*
X81650215Y-86021830D01*
X81683602Y-86050759D01*
X81681293Y-86053422D01*
X81716006Y-86093499D01*
X81725935Y-86162660D01*
X81696898Y-86226210D01*
X81690882Y-86232669D01*
X81188625Y-86734925D01*
X81264594Y-86788119D01*
X81308219Y-86842696D01*
X81315413Y-86912194D01*
X81283890Y-86974549D01*
X81264595Y-86991269D01*
X81078594Y-87121508D01*
X80911505Y-87288597D01*
X80775965Y-87482169D01*
X80775964Y-87482171D01*
X80676098Y-87696335D01*
X80676094Y-87696344D01*
X80614938Y-87924586D01*
X80614936Y-87924596D01*
X80594341Y-88159999D01*
X80594341Y-88160000D01*
X67440000Y-88160000D01*
X67440000Y-71120000D01*
X105012540Y-71120000D01*
X105032326Y-71308256D01*
X105032327Y-71308259D01*
X105090818Y-71488277D01*
X105090821Y-71488284D01*
X105185467Y-71652216D01*
X105312128Y-71792887D01*
X105312129Y-71792888D01*
X105465265Y-71904148D01*
X105465270Y-71904151D01*
X105638192Y-71981142D01*
X105638197Y-71981144D01*
X105823354Y-72020500D01*
X105823355Y-72020500D01*
X106012644Y-72020500D01*
X106012646Y-72020500D01*
X106197803Y-71981144D01*
X106370730Y-71904151D01*
X106378944Y-71898182D01*
X106444750Y-71874702D01*
X106451831Y-71874500D01*
X110464169Y-71874500D01*
X110531208Y-71894185D01*
X110537056Y-71898183D01*
X110545269Y-71904150D01*
X110545270Y-71904151D01*
X110718192Y-71981142D01*
X110718197Y-71981144D01*
X110903354Y-72020500D01*
X110903355Y-72020500D01*
X111092644Y-72020500D01*
X111092646Y-72020500D01*
X111277803Y-71981144D01*
X111450730Y-71904151D01*
X111603871Y-71792888D01*
X111730533Y-71652216D01*
X111825179Y-71488284D01*
X111883674Y-71308256D01*
X111903460Y-71120000D01*
X111883674Y-70931744D01*
X111825179Y-70751716D01*
X111730533Y-70587784D01*
X111603871Y-70447112D01*
X111603870Y-70447111D01*
X111450734Y-70335851D01*
X111450729Y-70335848D01*
X111277807Y-70258857D01*
X111277802Y-70258855D01*
X111132000Y-70227865D01*
X111092646Y-70219500D01*
X110903354Y-70219500D01*
X110870897Y-70226398D01*
X110718197Y-70258855D01*
X110718192Y-70258857D01*
X110545270Y-70335848D01*
X110545269Y-70335849D01*
X110537056Y-70341817D01*
X110471250Y-70365298D01*
X110464169Y-70365500D01*
X106451831Y-70365500D01*
X106384792Y-70345815D01*
X106378944Y-70341817D01*
X106370730Y-70335849D01*
X106370729Y-70335848D01*
X106197807Y-70258857D01*
X106197802Y-70258855D01*
X106052000Y-70227865D01*
X106012646Y-70219500D01*
X105823354Y-70219500D01*
X105790897Y-70226398D01*
X105638197Y-70258855D01*
X105638192Y-70258857D01*
X105465270Y-70335848D01*
X105465265Y-70335851D01*
X105312129Y-70447111D01*
X105185466Y-70587785D01*
X105090821Y-70751715D01*
X105090818Y-70751722D01*
X105032327Y-70931740D01*
X105032326Y-70931744D01*
X105012540Y-71120000D01*
X67440000Y-71120000D01*
X67440000Y-63650001D01*
X68774773Y-63650001D01*
X68793657Y-63914027D01*
X68793658Y-63914034D01*
X68849921Y-64172673D01*
X68942426Y-64420690D01*
X68942428Y-64420694D01*
X69069280Y-64653005D01*
X69069285Y-64653013D01*
X69227906Y-64864907D01*
X69227922Y-64864925D01*
X69415074Y-65052077D01*
X69415092Y-65052093D01*
X69626986Y-65210714D01*
X69626994Y-65210719D01*
X69859305Y-65337571D01*
X69859309Y-65337573D01*
X69859311Y-65337574D01*
X70107322Y-65430077D01*
X70107325Y-65430077D01*
X70107326Y-65430078D01*
X70302551Y-65472546D01*
X70365974Y-65486343D01*
X70609660Y-65503772D01*
X70629999Y-65505227D01*
X70630000Y-65505227D01*
X70630001Y-65505227D01*
X70648885Y-65503876D01*
X70894026Y-65486343D01*
X71152678Y-65430077D01*
X71400689Y-65337574D01*
X71633011Y-65210716D01*
X71844915Y-65052087D01*
X72032087Y-64864915D01*
X72043251Y-64850001D01*
X77174773Y-64850001D01*
X77193657Y-65114027D01*
X77193658Y-65114034D01*
X77249921Y-65372673D01*
X77342426Y-65620690D01*
X77342428Y-65620694D01*
X77469280Y-65853005D01*
X77469285Y-65853013D01*
X77627906Y-66064907D01*
X77627922Y-66064925D01*
X77815074Y-66252077D01*
X77815092Y-66252093D01*
X78026986Y-66410714D01*
X78026994Y-66410719D01*
X78259305Y-66537571D01*
X78259309Y-66537573D01*
X78259311Y-66537574D01*
X78507322Y-66630077D01*
X78507325Y-66630077D01*
X78507326Y-66630078D01*
X78702552Y-66672546D01*
X78765974Y-66686343D01*
X79009660Y-66703772D01*
X79029999Y-66705227D01*
X79030000Y-66705227D01*
X79030001Y-66705227D01*
X79048884Y-66703876D01*
X79294026Y-66686343D01*
X79552678Y-66630077D01*
X79800689Y-66537574D01*
X80033011Y-66410716D01*
X80244915Y-66252087D01*
X80432087Y-66064915D01*
X80590716Y-65853011D01*
X80717574Y-65620689D01*
X80810077Y-65372678D01*
X80866343Y-65114026D01*
X80885227Y-64850000D01*
X80866343Y-64585974D01*
X80810077Y-64327322D01*
X80717574Y-64079311D01*
X80590716Y-63846989D01*
X80590714Y-63846986D01*
X80443254Y-63650001D01*
X85554773Y-63650001D01*
X85573657Y-63914027D01*
X85573658Y-63914034D01*
X85629921Y-64172673D01*
X85722426Y-64420690D01*
X85722428Y-64420694D01*
X85849280Y-64653005D01*
X85849285Y-64653013D01*
X86007906Y-64864907D01*
X86007922Y-64864925D01*
X86195074Y-65052077D01*
X86195092Y-65052093D01*
X86406986Y-65210714D01*
X86406994Y-65210719D01*
X86639305Y-65337571D01*
X86639309Y-65337573D01*
X86639311Y-65337574D01*
X86887322Y-65430077D01*
X86887325Y-65430077D01*
X86887326Y-65430078D01*
X87082552Y-65472546D01*
X87145974Y-65486343D01*
X87389660Y-65503772D01*
X87409999Y-65505227D01*
X87410000Y-65505227D01*
X87410001Y-65505227D01*
X87428884Y-65503876D01*
X87674026Y-65486343D01*
X87932678Y-65430077D01*
X88180689Y-65337574D01*
X88413011Y-65210716D01*
X88624915Y-65052087D01*
X88812087Y-64864915D01*
X88823251Y-64850001D01*
X93954773Y-64850001D01*
X93973657Y-65114027D01*
X93973658Y-65114034D01*
X94029921Y-65372673D01*
X94122426Y-65620690D01*
X94122428Y-65620694D01*
X94249280Y-65853005D01*
X94249285Y-65853013D01*
X94407906Y-66064907D01*
X94407922Y-66064925D01*
X94595074Y-66252077D01*
X94595092Y-66252093D01*
X94806986Y-66410714D01*
X94806994Y-66410719D01*
X95039305Y-66537571D01*
X95039309Y-66537573D01*
X95039311Y-66537574D01*
X95287322Y-66630077D01*
X95287325Y-66630077D01*
X95287326Y-66630078D01*
X95482551Y-66672546D01*
X95545974Y-66686343D01*
X95789660Y-66703772D01*
X95809999Y-66705227D01*
X95810000Y-66705227D01*
X95810001Y-66705227D01*
X95828885Y-66703876D01*
X96074026Y-66686343D01*
X96332678Y-66630077D01*
X96580689Y-66537574D01*
X96813011Y-66410716D01*
X97024915Y-66252087D01*
X97212087Y-66064915D01*
X97370716Y-65853011D01*
X97497574Y-65620689D01*
X97590077Y-65372678D01*
X97646343Y-65114026D01*
X97665227Y-64850000D01*
X97646343Y-64585974D01*
X97590077Y-64327322D01*
X97497574Y-64079311D01*
X97370716Y-63846989D01*
X97370714Y-63846986D01*
X97223254Y-63650001D01*
X102334773Y-63650001D01*
X102353657Y-63914027D01*
X102353658Y-63914034D01*
X102409921Y-64172673D01*
X102502426Y-64420690D01*
X102502428Y-64420694D01*
X102629280Y-64653005D01*
X102629285Y-64653013D01*
X102787906Y-64864907D01*
X102787922Y-64864925D01*
X102975074Y-65052077D01*
X102975092Y-65052093D01*
X103186986Y-65210714D01*
X103186994Y-65210719D01*
X103419305Y-65337571D01*
X103419309Y-65337573D01*
X103419311Y-65337574D01*
X103667322Y-65430077D01*
X103667325Y-65430077D01*
X103667326Y-65430078D01*
X103862552Y-65472546D01*
X103925974Y-65486343D01*
X104169660Y-65503772D01*
X104189999Y-65505227D01*
X104190000Y-65505227D01*
X104190001Y-65505227D01*
X104208884Y-65503876D01*
X104454026Y-65486343D01*
X104712678Y-65430077D01*
X104960689Y-65337574D01*
X105193011Y-65210716D01*
X105404915Y-65052087D01*
X105592087Y-64864915D01*
X105603251Y-64850001D01*
X110734773Y-64850001D01*
X110753657Y-65114027D01*
X110753658Y-65114034D01*
X110809921Y-65372673D01*
X110902426Y-65620690D01*
X110902428Y-65620694D01*
X111029280Y-65853005D01*
X111029285Y-65853013D01*
X111187906Y-66064907D01*
X111187922Y-66064925D01*
X111375074Y-66252077D01*
X111375092Y-66252093D01*
X111586986Y-66410714D01*
X111586994Y-66410719D01*
X111819305Y-66537571D01*
X111819309Y-66537573D01*
X111819311Y-66537574D01*
X112067322Y-66630077D01*
X112067325Y-66630077D01*
X112067326Y-66630078D01*
X112262552Y-66672546D01*
X112325974Y-66686343D01*
X112569660Y-66703772D01*
X112589999Y-66705227D01*
X112590000Y-66705227D01*
X112590001Y-66705227D01*
X112608884Y-66703876D01*
X112854026Y-66686343D01*
X113112678Y-66630077D01*
X113360689Y-66537574D01*
X113593011Y-66410716D01*
X113804915Y-66252087D01*
X113992087Y-66064915D01*
X114150716Y-65853011D01*
X114277574Y-65620689D01*
X114370077Y-65372678D01*
X114426343Y-65114026D01*
X114445227Y-64850000D01*
X114426343Y-64585974D01*
X114370077Y-64327322D01*
X114277574Y-64079311D01*
X114150716Y-63846989D01*
X114150714Y-63846986D01*
X114003254Y-63650001D01*
X119114773Y-63650001D01*
X119133657Y-63914027D01*
X119133658Y-63914034D01*
X119189921Y-64172673D01*
X119282426Y-64420690D01*
X119282428Y-64420694D01*
X119409280Y-64653005D01*
X119409285Y-64653013D01*
X119567906Y-64864907D01*
X119567922Y-64864925D01*
X119755074Y-65052077D01*
X119755092Y-65052093D01*
X119966986Y-65210714D01*
X119966994Y-65210719D01*
X120199305Y-65337571D01*
X120199309Y-65337573D01*
X120199311Y-65337574D01*
X120447322Y-65430077D01*
X120447325Y-65430077D01*
X120447326Y-65430078D01*
X120642552Y-65472546D01*
X120705974Y-65486343D01*
X120949660Y-65503772D01*
X120969999Y-65505227D01*
X120970000Y-65505227D01*
X120970001Y-65505227D01*
X120988885Y-65503876D01*
X121234026Y-65486343D01*
X121492678Y-65430077D01*
X121740689Y-65337574D01*
X121973011Y-65210716D01*
X122184915Y-65052087D01*
X122372087Y-64864915D01*
X122383251Y-64850001D01*
X127514773Y-64850001D01*
X127533657Y-65114027D01*
X127533658Y-65114034D01*
X127589921Y-65372673D01*
X127682426Y-65620690D01*
X127682428Y-65620694D01*
X127809280Y-65853005D01*
X127809285Y-65853013D01*
X127967906Y-66064907D01*
X127967922Y-66064925D01*
X128155074Y-66252077D01*
X128155092Y-66252093D01*
X128366986Y-66410714D01*
X128366994Y-66410719D01*
X128599305Y-66537571D01*
X128599309Y-66537573D01*
X128599311Y-66537574D01*
X128847322Y-66630077D01*
X128847325Y-66630077D01*
X128847326Y-66630078D01*
X129042552Y-66672546D01*
X129105974Y-66686343D01*
X129349660Y-66703772D01*
X129369999Y-66705227D01*
X129370000Y-66705227D01*
X129370001Y-66705227D01*
X129388885Y-66703876D01*
X129634026Y-66686343D01*
X129892678Y-66630077D01*
X130140689Y-66537574D01*
X130373011Y-66410716D01*
X130584915Y-66252087D01*
X130772087Y-66064915D01*
X130930716Y-65853011D01*
X131057574Y-65620689D01*
X131150077Y-65372678D01*
X131206343Y-65114026D01*
X131225227Y-64850000D01*
X131206343Y-64585974D01*
X131150077Y-64327322D01*
X131057574Y-64079311D01*
X130930716Y-63846989D01*
X130930714Y-63846986D01*
X130772093Y-63635092D01*
X130772077Y-63635074D01*
X130584925Y-63447922D01*
X130584907Y-63447906D01*
X130373013Y-63289285D01*
X130373005Y-63289280D01*
X130140694Y-63162428D01*
X130140690Y-63162426D01*
X129892673Y-63069921D01*
X129634034Y-63013658D01*
X129634027Y-63013657D01*
X129370001Y-62994773D01*
X129369999Y-62994773D01*
X129105972Y-63013657D01*
X129105965Y-63013658D01*
X128847326Y-63069921D01*
X128599309Y-63162426D01*
X128599305Y-63162428D01*
X128366994Y-63289280D01*
X128366986Y-63289285D01*
X128155092Y-63447906D01*
X128155074Y-63447922D01*
X127967922Y-63635074D01*
X127967906Y-63635092D01*
X127809285Y-63846986D01*
X127809280Y-63846994D01*
X127682428Y-64079305D01*
X127682426Y-64079309D01*
X127589921Y-64327326D01*
X127533658Y-64585965D01*
X127533657Y-64585972D01*
X127514773Y-64849998D01*
X127514773Y-64850001D01*
X122383251Y-64850001D01*
X122530716Y-64653011D01*
X122657574Y-64420689D01*
X122750077Y-64172678D01*
X122806343Y-63914026D01*
X122825227Y-63650000D01*
X122824159Y-63635074D01*
X122822525Y-63612229D01*
X122806343Y-63385974D01*
X122785310Y-63289285D01*
X122750078Y-63127326D01*
X122728667Y-63069921D01*
X122657574Y-62879311D01*
X122530716Y-62646989D01*
X122530714Y-62646986D01*
X122372093Y-62435092D01*
X122372077Y-62435074D01*
X122184925Y-62247922D01*
X122184907Y-62247906D01*
X121973013Y-62089285D01*
X121973005Y-62089280D01*
X121740694Y-61962428D01*
X121740690Y-61962426D01*
X121492673Y-61869921D01*
X121234034Y-61813658D01*
X121234027Y-61813657D01*
X120970001Y-61794773D01*
X120969999Y-61794773D01*
X120705972Y-61813657D01*
X120705965Y-61813658D01*
X120447326Y-61869921D01*
X120199309Y-61962426D01*
X120199305Y-61962428D01*
X119966994Y-62089280D01*
X119966986Y-62089285D01*
X119755092Y-62247906D01*
X119755074Y-62247922D01*
X119567922Y-62435074D01*
X119567906Y-62435092D01*
X119409285Y-62646986D01*
X119409280Y-62646994D01*
X119282428Y-62879305D01*
X119282426Y-62879309D01*
X119189921Y-63127326D01*
X119133658Y-63385965D01*
X119133657Y-63385972D01*
X119114773Y-63649998D01*
X119114773Y-63650001D01*
X114003254Y-63650001D01*
X113992093Y-63635092D01*
X113992077Y-63635074D01*
X113804925Y-63447922D01*
X113804907Y-63447906D01*
X113593013Y-63289285D01*
X113593005Y-63289280D01*
X113360694Y-63162428D01*
X113360690Y-63162426D01*
X113112673Y-63069921D01*
X112854034Y-63013658D01*
X112854027Y-63013657D01*
X112590001Y-62994773D01*
X112589999Y-62994773D01*
X112325972Y-63013657D01*
X112325965Y-63013658D01*
X112067326Y-63069921D01*
X111819309Y-63162426D01*
X111819305Y-63162428D01*
X111586994Y-63289280D01*
X111586986Y-63289285D01*
X111375092Y-63447906D01*
X111375074Y-63447922D01*
X111187922Y-63635074D01*
X111187906Y-63635092D01*
X111029285Y-63846986D01*
X111029280Y-63846994D01*
X110902428Y-64079305D01*
X110902426Y-64079309D01*
X110809921Y-64327326D01*
X110753658Y-64585965D01*
X110753657Y-64585972D01*
X110734773Y-64849998D01*
X110734773Y-64850001D01*
X105603251Y-64850001D01*
X105750716Y-64653011D01*
X105877574Y-64420689D01*
X105970077Y-64172678D01*
X106026343Y-63914026D01*
X106045227Y-63650000D01*
X106044159Y-63635074D01*
X106042525Y-63612229D01*
X106026343Y-63385974D01*
X106005310Y-63289285D01*
X105970078Y-63127326D01*
X105948667Y-63069921D01*
X105877574Y-62879311D01*
X105750716Y-62646989D01*
X105750714Y-62646986D01*
X105592093Y-62435092D01*
X105592077Y-62435074D01*
X105404925Y-62247922D01*
X105404907Y-62247906D01*
X105193013Y-62089285D01*
X105193005Y-62089280D01*
X104960694Y-61962428D01*
X104960690Y-61962426D01*
X104712673Y-61869921D01*
X104454034Y-61813658D01*
X104454027Y-61813657D01*
X104190001Y-61794773D01*
X104189999Y-61794773D01*
X103925972Y-61813657D01*
X103925965Y-61813658D01*
X103667326Y-61869921D01*
X103419309Y-61962426D01*
X103419305Y-61962428D01*
X103186994Y-62089280D01*
X103186986Y-62089285D01*
X102975092Y-62247906D01*
X102975074Y-62247922D01*
X102787922Y-62435074D01*
X102787906Y-62435092D01*
X102629285Y-62646986D01*
X102629280Y-62646994D01*
X102502428Y-62879305D01*
X102502426Y-62879309D01*
X102409921Y-63127326D01*
X102353658Y-63385965D01*
X102353657Y-63385972D01*
X102334773Y-63649998D01*
X102334773Y-63650001D01*
X97223254Y-63650001D01*
X97212093Y-63635092D01*
X97212077Y-63635074D01*
X97024925Y-63447922D01*
X97024907Y-63447906D01*
X96813013Y-63289285D01*
X96813005Y-63289280D01*
X96580694Y-63162428D01*
X96580690Y-63162426D01*
X96332673Y-63069921D01*
X96074034Y-63013658D01*
X96074027Y-63013657D01*
X95810001Y-62994773D01*
X95809999Y-62994773D01*
X95545972Y-63013657D01*
X95545965Y-63013658D01*
X95287326Y-63069921D01*
X95039309Y-63162426D01*
X95039305Y-63162428D01*
X94806994Y-63289280D01*
X94806986Y-63289285D01*
X94595092Y-63447906D01*
X94595074Y-63447922D01*
X94407922Y-63635074D01*
X94407906Y-63635092D01*
X94249285Y-63846986D01*
X94249280Y-63846994D01*
X94122428Y-64079305D01*
X94122426Y-64079309D01*
X94029921Y-64327326D01*
X93973658Y-64585965D01*
X93973657Y-64585972D01*
X93954773Y-64849998D01*
X93954773Y-64850001D01*
X88823251Y-64850001D01*
X88970716Y-64653011D01*
X89097574Y-64420689D01*
X89190077Y-64172678D01*
X89246343Y-63914026D01*
X89265227Y-63650000D01*
X89264159Y-63635074D01*
X89262525Y-63612229D01*
X89246343Y-63385974D01*
X89225310Y-63289285D01*
X89190078Y-63127326D01*
X89168667Y-63069921D01*
X89097574Y-62879311D01*
X88970716Y-62646989D01*
X88970714Y-62646986D01*
X88812093Y-62435092D01*
X88812077Y-62435074D01*
X88624925Y-62247922D01*
X88624907Y-62247906D01*
X88413013Y-62089285D01*
X88413005Y-62089280D01*
X88180694Y-61962428D01*
X88180690Y-61962426D01*
X87932673Y-61869921D01*
X87674034Y-61813658D01*
X87674027Y-61813657D01*
X87410001Y-61794773D01*
X87409999Y-61794773D01*
X87145972Y-61813657D01*
X87145965Y-61813658D01*
X86887326Y-61869921D01*
X86639309Y-61962426D01*
X86639305Y-61962428D01*
X86406994Y-62089280D01*
X86406986Y-62089285D01*
X86195092Y-62247906D01*
X86195074Y-62247922D01*
X86007922Y-62435074D01*
X86007906Y-62435092D01*
X85849285Y-62646986D01*
X85849280Y-62646994D01*
X85722428Y-62879305D01*
X85722426Y-62879309D01*
X85629921Y-63127326D01*
X85573658Y-63385965D01*
X85573657Y-63385972D01*
X85554773Y-63649998D01*
X85554773Y-63650001D01*
X80443254Y-63650001D01*
X80432093Y-63635092D01*
X80432077Y-63635074D01*
X80244925Y-63447922D01*
X80244907Y-63447906D01*
X80033013Y-63289285D01*
X80033005Y-63289280D01*
X79800694Y-63162428D01*
X79800690Y-63162426D01*
X79552673Y-63069921D01*
X79294034Y-63013658D01*
X79294027Y-63013657D01*
X79030001Y-62994773D01*
X79029999Y-62994773D01*
X78765972Y-63013657D01*
X78765965Y-63013658D01*
X78507326Y-63069921D01*
X78259309Y-63162426D01*
X78259305Y-63162428D01*
X78026994Y-63289280D01*
X78026986Y-63289285D01*
X77815092Y-63447906D01*
X77815074Y-63447922D01*
X77627922Y-63635074D01*
X77627906Y-63635092D01*
X77469285Y-63846986D01*
X77469280Y-63846994D01*
X77342428Y-64079305D01*
X77342426Y-64079309D01*
X77249921Y-64327326D01*
X77193658Y-64585965D01*
X77193657Y-64585972D01*
X77174773Y-64849998D01*
X77174773Y-64850001D01*
X72043251Y-64850001D01*
X72190716Y-64653011D01*
X72317574Y-64420689D01*
X72410077Y-64172678D01*
X72466343Y-63914026D01*
X72485227Y-63650000D01*
X72484159Y-63635074D01*
X72482525Y-63612229D01*
X72466343Y-63385974D01*
X72445310Y-63289285D01*
X72410078Y-63127326D01*
X72388667Y-63069921D01*
X72317574Y-62879311D01*
X72190716Y-62646989D01*
X72190714Y-62646986D01*
X72032093Y-62435092D01*
X72032077Y-62435074D01*
X71844925Y-62247922D01*
X71844907Y-62247906D01*
X71633013Y-62089285D01*
X71633005Y-62089280D01*
X71400694Y-61962428D01*
X71400690Y-61962426D01*
X71152673Y-61869921D01*
X70894034Y-61813658D01*
X70894027Y-61813657D01*
X70630001Y-61794773D01*
X70629999Y-61794773D01*
X70365972Y-61813657D01*
X70365965Y-61813658D01*
X70107326Y-61869921D01*
X69859309Y-61962426D01*
X69859305Y-61962428D01*
X69626994Y-62089280D01*
X69626986Y-62089285D01*
X69415092Y-62247906D01*
X69415074Y-62247922D01*
X69227922Y-62435074D01*
X69227906Y-62435092D01*
X69069285Y-62646986D01*
X69069280Y-62646994D01*
X68942428Y-62879305D01*
X68942426Y-62879309D01*
X68849921Y-63127326D01*
X68793658Y-63385965D01*
X68793657Y-63385972D01*
X68774773Y-63649998D01*
X68774773Y-63650001D01*
X67440000Y-63650001D01*
X67440000Y-59500006D01*
X71699786Y-59500006D01*
X71718608Y-59727168D01*
X71718610Y-59727179D01*
X71774569Y-59948155D01*
X71866137Y-60156908D01*
X71990814Y-60347742D01*
X72145208Y-60515458D01*
X72145212Y-60515461D01*
X72325090Y-60655466D01*
X72325094Y-60655469D01*
X72325096Y-60655470D01*
X72325099Y-60655472D01*
X72441646Y-60718543D01*
X72525574Y-60763963D01*
X72637529Y-60802397D01*
X72741173Y-60837979D01*
X72741175Y-60837979D01*
X72741177Y-60837980D01*
X72966023Y-60875500D01*
X72966024Y-60875500D01*
X73193976Y-60875500D01*
X73193977Y-60875500D01*
X73418823Y-60837980D01*
X73634426Y-60763963D01*
X73834906Y-60655469D01*
X74014794Y-60515456D01*
X74100025Y-60422870D01*
X75204500Y-60422870D01*
X75204501Y-60422876D01*
X75210908Y-60482483D01*
X75261202Y-60617328D01*
X75261206Y-60617335D01*
X75347452Y-60732544D01*
X75347455Y-60732547D01*
X75462664Y-60818793D01*
X75462671Y-60818797D01*
X75597517Y-60869091D01*
X75597516Y-60869091D01*
X75604444Y-60869835D01*
X75657127Y-60875500D01*
X77502872Y-60875499D01*
X77562483Y-60869091D01*
X77697331Y-60818796D01*
X77812546Y-60732546D01*
X77898796Y-60617331D01*
X77949091Y-60482483D01*
X77955500Y-60422873D01*
X77955500Y-59500006D01*
X88479786Y-59500006D01*
X88498608Y-59727168D01*
X88498610Y-59727179D01*
X88554569Y-59948155D01*
X88646137Y-60156908D01*
X88770814Y-60347742D01*
X88925208Y-60515458D01*
X88925212Y-60515461D01*
X89105090Y-60655466D01*
X89105094Y-60655469D01*
X89105096Y-60655470D01*
X89105099Y-60655472D01*
X89221646Y-60718543D01*
X89305574Y-60763963D01*
X89417529Y-60802397D01*
X89521173Y-60837979D01*
X89521175Y-60837979D01*
X89521177Y-60837980D01*
X89746023Y-60875500D01*
X89746024Y-60875500D01*
X89973976Y-60875500D01*
X89973977Y-60875500D01*
X90198823Y-60837980D01*
X90414426Y-60763963D01*
X90614906Y-60655469D01*
X90794794Y-60515456D01*
X90880025Y-60422870D01*
X91984500Y-60422870D01*
X91984501Y-60422876D01*
X91990908Y-60482483D01*
X92041202Y-60617328D01*
X92041206Y-60617335D01*
X92127452Y-60732544D01*
X92127455Y-60732547D01*
X92242664Y-60818793D01*
X92242671Y-60818797D01*
X92377517Y-60869091D01*
X92377516Y-60869091D01*
X92384444Y-60869835D01*
X92437127Y-60875500D01*
X94282872Y-60875499D01*
X94342483Y-60869091D01*
X94477331Y-60818796D01*
X94592546Y-60732546D01*
X94678796Y-60617331D01*
X94729091Y-60482483D01*
X94735500Y-60422873D01*
X94735500Y-59500006D01*
X105259786Y-59500006D01*
X105278608Y-59727168D01*
X105278610Y-59727179D01*
X105334569Y-59948155D01*
X105426137Y-60156908D01*
X105550814Y-60347742D01*
X105705208Y-60515458D01*
X105705212Y-60515461D01*
X105885090Y-60655466D01*
X105885094Y-60655469D01*
X105885096Y-60655470D01*
X105885099Y-60655472D01*
X106001646Y-60718543D01*
X106085574Y-60763963D01*
X106197529Y-60802397D01*
X106301173Y-60837979D01*
X106301175Y-60837979D01*
X106301177Y-60837980D01*
X106526023Y-60875500D01*
X106526024Y-60875500D01*
X106753976Y-60875500D01*
X106753977Y-60875500D01*
X106978823Y-60837980D01*
X107194426Y-60763963D01*
X107394906Y-60655469D01*
X107574794Y-60515456D01*
X107660025Y-60422870D01*
X108764500Y-60422870D01*
X108764501Y-60422876D01*
X108770908Y-60482483D01*
X108821202Y-60617328D01*
X108821206Y-60617335D01*
X108907452Y-60732544D01*
X108907455Y-60732547D01*
X109022664Y-60818793D01*
X109022671Y-60818797D01*
X109157517Y-60869091D01*
X109157516Y-60869091D01*
X109164444Y-60869835D01*
X109217127Y-60875500D01*
X111062872Y-60875499D01*
X111122483Y-60869091D01*
X111257331Y-60818796D01*
X111372546Y-60732546D01*
X111458796Y-60617331D01*
X111509091Y-60482483D01*
X111515500Y-60422873D01*
X111515500Y-59500006D01*
X122039786Y-59500006D01*
X122058608Y-59727168D01*
X122058610Y-59727179D01*
X122114569Y-59948155D01*
X122206137Y-60156908D01*
X122330814Y-60347742D01*
X122485208Y-60515458D01*
X122485212Y-60515461D01*
X122665090Y-60655466D01*
X122665094Y-60655469D01*
X122665096Y-60655470D01*
X122665099Y-60655472D01*
X122781646Y-60718543D01*
X122865574Y-60763963D01*
X122977529Y-60802397D01*
X123081173Y-60837979D01*
X123081175Y-60837979D01*
X123081177Y-60837980D01*
X123306023Y-60875500D01*
X123306024Y-60875500D01*
X123533976Y-60875500D01*
X123533977Y-60875500D01*
X123758823Y-60837980D01*
X123974426Y-60763963D01*
X124174906Y-60655469D01*
X124354794Y-60515456D01*
X124440025Y-60422870D01*
X125544500Y-60422870D01*
X125544501Y-60422876D01*
X125550908Y-60482483D01*
X125601202Y-60617328D01*
X125601206Y-60617335D01*
X125687452Y-60732544D01*
X125687455Y-60732547D01*
X125802664Y-60818793D01*
X125802671Y-60818797D01*
X125937517Y-60869091D01*
X125937516Y-60869091D01*
X125944444Y-60869835D01*
X125997127Y-60875500D01*
X127842872Y-60875499D01*
X127902483Y-60869091D01*
X128037331Y-60818796D01*
X128152546Y-60732546D01*
X128238796Y-60617331D01*
X128289091Y-60482483D01*
X128295500Y-60422873D01*
X128295499Y-58577128D01*
X128289091Y-58517517D01*
X128238796Y-58382669D01*
X128238795Y-58382668D01*
X128238793Y-58382664D01*
X128152547Y-58267455D01*
X128152544Y-58267452D01*
X128037335Y-58181206D01*
X128037328Y-58181202D01*
X127902482Y-58130908D01*
X127902483Y-58130908D01*
X127842883Y-58124501D01*
X127842881Y-58124500D01*
X127842873Y-58124500D01*
X127842864Y-58124500D01*
X125997129Y-58124500D01*
X125997123Y-58124501D01*
X125937516Y-58130908D01*
X125802671Y-58181202D01*
X125802664Y-58181206D01*
X125687455Y-58267452D01*
X125687452Y-58267455D01*
X125601206Y-58382664D01*
X125601202Y-58382671D01*
X125550908Y-58517517D01*
X125544501Y-58577116D01*
X125544501Y-58577123D01*
X125544500Y-58577135D01*
X125544500Y-60422870D01*
X124440025Y-60422870D01*
X124509183Y-60347745D01*
X124633862Y-60156909D01*
X124725430Y-59948155D01*
X124781390Y-59727176D01*
X124800214Y-59500000D01*
X124800214Y-59499993D01*
X124781391Y-59272831D01*
X124781389Y-59272820D01*
X124725430Y-59051844D01*
X124633862Y-58843091D01*
X124509185Y-58652257D01*
X124354791Y-58484541D01*
X124354787Y-58484538D01*
X124174909Y-58344533D01*
X124174900Y-58344527D01*
X123974432Y-58236040D01*
X123974429Y-58236039D01*
X123974426Y-58236037D01*
X123974420Y-58236035D01*
X123974418Y-58236034D01*
X123758826Y-58162020D01*
X123572378Y-58130908D01*
X123533977Y-58124500D01*
X123306023Y-58124500D01*
X123267622Y-58130908D01*
X123081173Y-58162020D01*
X122865581Y-58236034D01*
X122865567Y-58236040D01*
X122665099Y-58344527D01*
X122665090Y-58344533D01*
X122485212Y-58484538D01*
X122485208Y-58484541D01*
X122330814Y-58652257D01*
X122206137Y-58843091D01*
X122114569Y-59051844D01*
X122058610Y-59272820D01*
X122058608Y-59272831D01*
X122039786Y-59499993D01*
X122039786Y-59500006D01*
X111515500Y-59500006D01*
X111515499Y-58577128D01*
X111509091Y-58517517D01*
X111458796Y-58382669D01*
X111458795Y-58382668D01*
X111458793Y-58382664D01*
X111372547Y-58267455D01*
X111372544Y-58267452D01*
X111257335Y-58181206D01*
X111257328Y-58181202D01*
X111122482Y-58130908D01*
X111122483Y-58130908D01*
X111062883Y-58124501D01*
X111062881Y-58124500D01*
X111062873Y-58124500D01*
X111062864Y-58124500D01*
X109217129Y-58124500D01*
X109217123Y-58124501D01*
X109157516Y-58130908D01*
X109022671Y-58181202D01*
X109022664Y-58181206D01*
X108907455Y-58267452D01*
X108907452Y-58267455D01*
X108821206Y-58382664D01*
X108821202Y-58382671D01*
X108770908Y-58517517D01*
X108764501Y-58577116D01*
X108764501Y-58577123D01*
X108764500Y-58577135D01*
X108764500Y-60422870D01*
X107660025Y-60422870D01*
X107729183Y-60347745D01*
X107853862Y-60156909D01*
X107945430Y-59948155D01*
X108001390Y-59727176D01*
X108020214Y-59500000D01*
X108020214Y-59499993D01*
X108001391Y-59272831D01*
X108001389Y-59272820D01*
X107945430Y-59051844D01*
X107853862Y-58843091D01*
X107729185Y-58652257D01*
X107574791Y-58484541D01*
X107574787Y-58484538D01*
X107394909Y-58344533D01*
X107394900Y-58344527D01*
X107194432Y-58236040D01*
X107194429Y-58236039D01*
X107194426Y-58236037D01*
X107194420Y-58236035D01*
X107194418Y-58236034D01*
X106978826Y-58162020D01*
X106792378Y-58130908D01*
X106753977Y-58124500D01*
X106526023Y-58124500D01*
X106487622Y-58130908D01*
X106301173Y-58162020D01*
X106085581Y-58236034D01*
X106085567Y-58236040D01*
X105885099Y-58344527D01*
X105885090Y-58344533D01*
X105705212Y-58484538D01*
X105705208Y-58484541D01*
X105550814Y-58652257D01*
X105426137Y-58843091D01*
X105334569Y-59051844D01*
X105278610Y-59272820D01*
X105278608Y-59272831D01*
X105259786Y-59499993D01*
X105259786Y-59500006D01*
X94735500Y-59500006D01*
X94735499Y-58577128D01*
X94729091Y-58517517D01*
X94678796Y-58382669D01*
X94678795Y-58382668D01*
X94678793Y-58382664D01*
X94592547Y-58267455D01*
X94592544Y-58267452D01*
X94477335Y-58181206D01*
X94477328Y-58181202D01*
X94342482Y-58130908D01*
X94342483Y-58130908D01*
X94282883Y-58124501D01*
X94282881Y-58124500D01*
X94282873Y-58124500D01*
X94282864Y-58124500D01*
X92437129Y-58124500D01*
X92437123Y-58124501D01*
X92377516Y-58130908D01*
X92242671Y-58181202D01*
X92242664Y-58181206D01*
X92127455Y-58267452D01*
X92127452Y-58267455D01*
X92041206Y-58382664D01*
X92041202Y-58382671D01*
X91990908Y-58517517D01*
X91984501Y-58577116D01*
X91984501Y-58577123D01*
X91984500Y-58577135D01*
X91984500Y-60422870D01*
X90880025Y-60422870D01*
X90949183Y-60347745D01*
X91073862Y-60156909D01*
X91165430Y-59948155D01*
X91221390Y-59727176D01*
X91240214Y-59500000D01*
X91240214Y-59499993D01*
X91221391Y-59272831D01*
X91221389Y-59272820D01*
X91165430Y-59051844D01*
X91073862Y-58843091D01*
X90949185Y-58652257D01*
X90794791Y-58484541D01*
X90794787Y-58484538D01*
X90614909Y-58344533D01*
X90614900Y-58344527D01*
X90414432Y-58236040D01*
X90414429Y-58236039D01*
X90414426Y-58236037D01*
X90414420Y-58236035D01*
X90414418Y-58236034D01*
X90198826Y-58162020D01*
X90012378Y-58130908D01*
X89973977Y-58124500D01*
X89746023Y-58124500D01*
X89707622Y-58130908D01*
X89521173Y-58162020D01*
X89305581Y-58236034D01*
X89305567Y-58236040D01*
X89105099Y-58344527D01*
X89105090Y-58344533D01*
X88925212Y-58484538D01*
X88925208Y-58484541D01*
X88770814Y-58652257D01*
X88646137Y-58843091D01*
X88554569Y-59051844D01*
X88498610Y-59272820D01*
X88498608Y-59272831D01*
X88479786Y-59499993D01*
X88479786Y-59500006D01*
X77955500Y-59500006D01*
X77955499Y-58577128D01*
X77949091Y-58517517D01*
X77898796Y-58382669D01*
X77898795Y-58382668D01*
X77898793Y-58382664D01*
X77812547Y-58267455D01*
X77812544Y-58267452D01*
X77697335Y-58181206D01*
X77697328Y-58181202D01*
X77562482Y-58130908D01*
X77562483Y-58130908D01*
X77502883Y-58124501D01*
X77502881Y-58124500D01*
X77502873Y-58124500D01*
X77502864Y-58124500D01*
X75657129Y-58124500D01*
X75657123Y-58124501D01*
X75597516Y-58130908D01*
X75462671Y-58181202D01*
X75462664Y-58181206D01*
X75347455Y-58267452D01*
X75347452Y-58267455D01*
X75261206Y-58382664D01*
X75261202Y-58382671D01*
X75210908Y-58517517D01*
X75204501Y-58577116D01*
X75204501Y-58577123D01*
X75204500Y-58577135D01*
X75204500Y-60422870D01*
X74100025Y-60422870D01*
X74169183Y-60347745D01*
X74293862Y-60156909D01*
X74385430Y-59948155D01*
X74441390Y-59727176D01*
X74460214Y-59500000D01*
X74460214Y-59499993D01*
X74441391Y-59272831D01*
X74441389Y-59272820D01*
X74385430Y-59051844D01*
X74293862Y-58843091D01*
X74169185Y-58652257D01*
X74014791Y-58484541D01*
X74014787Y-58484538D01*
X73834909Y-58344533D01*
X73834900Y-58344527D01*
X73634432Y-58236040D01*
X73634429Y-58236039D01*
X73634426Y-58236037D01*
X73634420Y-58236035D01*
X73634418Y-58236034D01*
X73418826Y-58162020D01*
X73232378Y-58130908D01*
X73193977Y-58124500D01*
X72966023Y-58124500D01*
X72927622Y-58130908D01*
X72741173Y-58162020D01*
X72525581Y-58236034D01*
X72525567Y-58236040D01*
X72325099Y-58344527D01*
X72325090Y-58344533D01*
X72145212Y-58484538D01*
X72145208Y-58484541D01*
X71990814Y-58652257D01*
X71866137Y-58843091D01*
X71774569Y-59051844D01*
X71718610Y-59272820D01*
X71718608Y-59272831D01*
X71699786Y-59499993D01*
X71699786Y-59500006D01*
X67440000Y-59500006D01*
X67440000Y-49567763D01*
X81365787Y-49567763D01*
X81395413Y-49837013D01*
X81395415Y-49837024D01*
X81463926Y-50099082D01*
X81463928Y-50099088D01*
X81569870Y-50348390D01*
X81641998Y-50466575D01*
X81710979Y-50579605D01*
X81710986Y-50579615D01*
X81884253Y-50787819D01*
X81884259Y-50787824D01*
X82085998Y-50968582D01*
X82311910Y-51118044D01*
X82557176Y-51233020D01*
X82557183Y-51233022D01*
X82557185Y-51233023D01*
X82816557Y-51311057D01*
X82816564Y-51311058D01*
X82816569Y-51311060D01*
X83084561Y-51350500D01*
X83084566Y-51350500D01*
X83287636Y-51350500D01*
X83339133Y-51346730D01*
X83490156Y-51335677D01*
X83602758Y-51310593D01*
X83754546Y-51276782D01*
X83754548Y-51276781D01*
X83754553Y-51276780D01*
X84007558Y-51180014D01*
X84243777Y-51047441D01*
X84458177Y-50881888D01*
X84646186Y-50686881D01*
X84803799Y-50466579D01*
X84877787Y-50322669D01*
X84927649Y-50225690D01*
X84927651Y-50225684D01*
X84927656Y-50225675D01*
X85015118Y-49969305D01*
X85064319Y-49702933D01*
X85069259Y-49567763D01*
X114925787Y-49567763D01*
X114955413Y-49837013D01*
X114955415Y-49837024D01*
X115023926Y-50099082D01*
X115023928Y-50099088D01*
X115129870Y-50348390D01*
X115201998Y-50466575D01*
X115270979Y-50579605D01*
X115270986Y-50579615D01*
X115444253Y-50787819D01*
X115444259Y-50787824D01*
X115645998Y-50968582D01*
X115871910Y-51118044D01*
X116117176Y-51233020D01*
X116117183Y-51233022D01*
X116117185Y-51233023D01*
X116376557Y-51311057D01*
X116376564Y-51311058D01*
X116376569Y-51311060D01*
X116644561Y-51350500D01*
X116644566Y-51350500D01*
X116847636Y-51350500D01*
X116899133Y-51346730D01*
X117050156Y-51335677D01*
X117162758Y-51310593D01*
X117314546Y-51276782D01*
X117314548Y-51276781D01*
X117314553Y-51276780D01*
X117567558Y-51180014D01*
X117803777Y-51047441D01*
X118018177Y-50881888D01*
X118206186Y-50686881D01*
X118363799Y-50466579D01*
X118437787Y-50322669D01*
X118487649Y-50225690D01*
X118487651Y-50225684D01*
X118487656Y-50225675D01*
X118575118Y-49969305D01*
X118624319Y-49702933D01*
X118634212Y-49432235D01*
X118604586Y-49162982D01*
X118536072Y-48900912D01*
X118430130Y-48651610D01*
X118289018Y-48420390D01*
X118199747Y-48313119D01*
X118115746Y-48212180D01*
X118115740Y-48212175D01*
X117914002Y-48031418D01*
X117688092Y-47881957D01*
X117688090Y-47881956D01*
X117442824Y-47766980D01*
X117442819Y-47766978D01*
X117442814Y-47766976D01*
X117183442Y-47688942D01*
X117183428Y-47688939D01*
X117067791Y-47671921D01*
X116915439Y-47649500D01*
X116712369Y-47649500D01*
X116712364Y-47649500D01*
X116509844Y-47664323D01*
X116509831Y-47664325D01*
X116245453Y-47723217D01*
X116245446Y-47723220D01*
X115992439Y-47819987D01*
X115756226Y-47952557D01*
X115541822Y-48118112D01*
X115353822Y-48313109D01*
X115353816Y-48313116D01*
X115196202Y-48533419D01*
X115196199Y-48533424D01*
X115072350Y-48774309D01*
X115072343Y-48774327D01*
X114984884Y-49030685D01*
X114984881Y-49030699D01*
X114935681Y-49297068D01*
X114935680Y-49297075D01*
X114925787Y-49567763D01*
X85069259Y-49567763D01*
X85074212Y-49432235D01*
X85044586Y-49162982D01*
X84976072Y-48900912D01*
X84870130Y-48651610D01*
X84729018Y-48420390D01*
X84639747Y-48313119D01*
X84555746Y-48212180D01*
X84555740Y-48212175D01*
X84354002Y-48031418D01*
X84128092Y-47881957D01*
X84128090Y-47881956D01*
X83882824Y-47766980D01*
X83882819Y-47766978D01*
X83882814Y-47766976D01*
X83623442Y-47688942D01*
X83623428Y-47688939D01*
X83507791Y-47671921D01*
X83355439Y-47649500D01*
X83152369Y-47649500D01*
X83152364Y-47649500D01*
X82949844Y-47664323D01*
X82949831Y-47664325D01*
X82685453Y-47723217D01*
X82685446Y-47723220D01*
X82432439Y-47819987D01*
X82196226Y-47952557D01*
X81981822Y-48118112D01*
X81793822Y-48313109D01*
X81793816Y-48313116D01*
X81636202Y-48533419D01*
X81636199Y-48533424D01*
X81512350Y-48774309D01*
X81512343Y-48774327D01*
X81424884Y-49030685D01*
X81424881Y-49030699D01*
X81375681Y-49297068D01*
X81375680Y-49297075D01*
X81365787Y-49567763D01*
X67440000Y-49567763D01*
X67440000Y-47124000D01*
X67459685Y-47056961D01*
X67512489Y-47011206D01*
X67564000Y-47000000D01*
X132436000Y-47000000D01*
X132503039Y-47019685D01*
G37*
G04 #@! TD.AperFunction*
M02*
