G04 #@! TF.GenerationSoftware,KiCad,Pcbnew,7.0.7*
G04 #@! TF.CreationDate,2025-11-01T14:08:12+08:00*
G04 #@! TF.ProjectId,2144_LPF,32313434-5f4c-4504-962e-6b696361645f,rev?*
G04 #@! TF.SameCoordinates,Original*
G04 #@! TF.FileFunction,Legend,Bot*
G04 #@! TF.FilePolarity,Positive*
%FSLAX46Y46*%
G04 Gerber Fmt 4.6, Leading zero omitted, Abs format (unit mm)*
G04 Created by KiCad (PCBNEW 7.0.7) date 2025-11-01 14:08:12*
%MOMM*%
%LPD*%
G01*
G04 APERTURE LIST*
G04 Aperture macros list*
%AMRoundRect*
0 Rectangle with rounded corners*
0 $1 Rounding radius*
0 $2 $3 $4 $5 $6 $7 $8 $9 X,Y pos of 4 corners*
0 Add a 4 corners polygon primitive as box body*
4,1,4,$2,$3,$4,$5,$6,$7,$8,$9,$2,$3,0*
0 Add four circle primitives for the rounded corners*
1,1,$1+$1,$2,$3*
1,1,$1+$1,$4,$5*
1,1,$1+$1,$6,$7*
1,1,$1+$1,$8,$9*
0 Add four rect primitives between the rounded corners*
20,1,$1+$1,$2,$3,$4,$5,0*
20,1,$1+$1,$4,$5,$6,$7,0*
20,1,$1+$1,$6,$7,$8,$9,0*
20,1,$1+$1,$8,$9,$2,$3,0*%
G04 Aperture macros list end*
%ADD10C,0.150000*%
%ADD11C,0.100000*%
%ADD12C,0.120000*%
%ADD13C,3.200000*%
%ADD14R,1.750000X1.750000*%
%ADD15C,1.750000*%
%ADD16C,2.700000*%
%ADD17O,3.100000X2.300000*%
%ADD18RoundRect,0.650000X-0.650000X-0.650000X0.650000X-0.650000X0.650000X0.650000X-0.650000X0.650000X0*%
%ADD19R,1.700000X1.700000*%
%ADD20C,1.700000*%
%ADD21RoundRect,0.250000X0.600000X0.600000X-0.600000X0.600000X-0.600000X-0.600000X0.600000X-0.600000X0*%
G04 APERTURE END LIST*
D10*
X77641220Y-88134866D02*
X76879316Y-88134866D01*
X75879316Y-88515819D02*
X76450744Y-88515819D01*
X76165030Y-88515819D02*
X76165030Y-87515819D01*
X76165030Y-87515819D02*
X76260268Y-87658676D01*
X76260268Y-87658676D02*
X76355506Y-87753914D01*
X76355506Y-87753914D02*
X76450744Y-87801533D01*
X75498363Y-87611057D02*
X75450744Y-87563438D01*
X75450744Y-87563438D02*
X75355506Y-87515819D01*
X75355506Y-87515819D02*
X75117411Y-87515819D01*
X75117411Y-87515819D02*
X75022173Y-87563438D01*
X75022173Y-87563438D02*
X74974554Y-87611057D01*
X74974554Y-87611057D02*
X74926935Y-87706295D01*
X74926935Y-87706295D02*
X74926935Y-87801533D01*
X74926935Y-87801533D02*
X74974554Y-87944390D01*
X74974554Y-87944390D02*
X75545982Y-88515819D01*
X75545982Y-88515819D02*
X74926935Y-88515819D01*
X74641220Y-87515819D02*
X74307887Y-88515819D01*
X74307887Y-88515819D02*
X73974554Y-87515819D01*
X76165030Y-85086938D02*
X76260268Y-85039319D01*
X76260268Y-85039319D02*
X76403125Y-85039319D01*
X76403125Y-85039319D02*
X76545982Y-85086938D01*
X76545982Y-85086938D02*
X76641220Y-85182176D01*
X76641220Y-85182176D02*
X76688839Y-85277414D01*
X76688839Y-85277414D02*
X76736458Y-85467890D01*
X76736458Y-85467890D02*
X76736458Y-85610747D01*
X76736458Y-85610747D02*
X76688839Y-85801223D01*
X76688839Y-85801223D02*
X76641220Y-85896461D01*
X76641220Y-85896461D02*
X76545982Y-85991700D01*
X76545982Y-85991700D02*
X76403125Y-86039319D01*
X76403125Y-86039319D02*
X76307887Y-86039319D01*
X76307887Y-86039319D02*
X76165030Y-85991700D01*
X76165030Y-85991700D02*
X76117411Y-85944080D01*
X76117411Y-85944080D02*
X76117411Y-85610747D01*
X76117411Y-85610747D02*
X76307887Y-85610747D01*
X75688839Y-86039319D02*
X75688839Y-85039319D01*
X75688839Y-85039319D02*
X75117411Y-86039319D01*
X75117411Y-86039319D02*
X75117411Y-85039319D01*
X74641220Y-86039319D02*
X74641220Y-85039319D01*
X74641220Y-85039319D02*
X74403125Y-85039319D01*
X74403125Y-85039319D02*
X74260268Y-85086938D01*
X74260268Y-85086938D02*
X74165030Y-85182176D01*
X74165030Y-85182176D02*
X74117411Y-85277414D01*
X74117411Y-85277414D02*
X74069792Y-85467890D01*
X74069792Y-85467890D02*
X74069792Y-85610747D01*
X74069792Y-85610747D02*
X74117411Y-85801223D01*
X74117411Y-85801223D02*
X74165030Y-85896461D01*
X74165030Y-85896461D02*
X74260268Y-85991700D01*
X74260268Y-85991700D02*
X74403125Y-86039319D01*
X74403125Y-86039319D02*
X74641220Y-86039319D01*
X76165030Y-80133938D02*
X76260268Y-80086319D01*
X76260268Y-80086319D02*
X76403125Y-80086319D01*
X76403125Y-80086319D02*
X76545982Y-80133938D01*
X76545982Y-80133938D02*
X76641220Y-80229176D01*
X76641220Y-80229176D02*
X76688839Y-80324414D01*
X76688839Y-80324414D02*
X76736458Y-80514890D01*
X76736458Y-80514890D02*
X76736458Y-80657747D01*
X76736458Y-80657747D02*
X76688839Y-80848223D01*
X76688839Y-80848223D02*
X76641220Y-80943461D01*
X76641220Y-80943461D02*
X76545982Y-81038700D01*
X76545982Y-81038700D02*
X76403125Y-81086319D01*
X76403125Y-81086319D02*
X76307887Y-81086319D01*
X76307887Y-81086319D02*
X76165030Y-81038700D01*
X76165030Y-81038700D02*
X76117411Y-80991080D01*
X76117411Y-80991080D02*
X76117411Y-80657747D01*
X76117411Y-80657747D02*
X76307887Y-80657747D01*
X75688839Y-81086319D02*
X75688839Y-80086319D01*
X75688839Y-80086319D02*
X75117411Y-81086319D01*
X75117411Y-81086319D02*
X75117411Y-80086319D01*
X74641220Y-81086319D02*
X74641220Y-80086319D01*
X74641220Y-80086319D02*
X74403125Y-80086319D01*
X74403125Y-80086319D02*
X74260268Y-80133938D01*
X74260268Y-80133938D02*
X74165030Y-80229176D01*
X74165030Y-80229176D02*
X74117411Y-80324414D01*
X74117411Y-80324414D02*
X74069792Y-80514890D01*
X74069792Y-80514890D02*
X74069792Y-80657747D01*
X74069792Y-80657747D02*
X74117411Y-80848223D01*
X74117411Y-80848223D02*
X74165030Y-80943461D01*
X74165030Y-80943461D02*
X74260268Y-81038700D01*
X74260268Y-81038700D02*
X74403125Y-81086319D01*
X74403125Y-81086319D02*
X74641220Y-81086319D01*
X96405506Y-146697819D02*
X96405506Y-147412104D01*
X96405506Y-147412104D02*
X96453125Y-147554961D01*
X96453125Y-147554961D02*
X96548363Y-147650200D01*
X96548363Y-147650200D02*
X96691220Y-147697819D01*
X96691220Y-147697819D02*
X96786458Y-147697819D01*
X95453125Y-147697819D02*
X95929315Y-147697819D01*
X95929315Y-147697819D02*
X95929315Y-146697819D01*
X94548363Y-147602580D02*
X94595982Y-147650200D01*
X94595982Y-147650200D02*
X94738839Y-147697819D01*
X94738839Y-147697819D02*
X94834077Y-147697819D01*
X94834077Y-147697819D02*
X94976934Y-147650200D01*
X94976934Y-147650200D02*
X95072172Y-147554961D01*
X95072172Y-147554961D02*
X95119791Y-147459723D01*
X95119791Y-147459723D02*
X95167410Y-147269247D01*
X95167410Y-147269247D02*
X95167410Y-147126390D01*
X95167410Y-147126390D02*
X95119791Y-146935914D01*
X95119791Y-146935914D02*
X95072172Y-146840676D01*
X95072172Y-146840676D02*
X94976934Y-146745438D01*
X94976934Y-146745438D02*
X94834077Y-146697819D01*
X94834077Y-146697819D02*
X94738839Y-146697819D01*
X94738839Y-146697819D02*
X94595982Y-146745438D01*
X94595982Y-146745438D02*
X94548363Y-146793057D01*
X93834077Y-146697819D02*
X93834077Y-147412104D01*
X93834077Y-147412104D02*
X93881696Y-147554961D01*
X93881696Y-147554961D02*
X93976934Y-147650200D01*
X93976934Y-147650200D02*
X94119791Y-147697819D01*
X94119791Y-147697819D02*
X94215029Y-147697819D01*
X92881696Y-147697819D02*
X93357886Y-147697819D01*
X93357886Y-147697819D02*
X93357886Y-146697819D01*
X91976934Y-147602580D02*
X92024553Y-147650200D01*
X92024553Y-147650200D02*
X92167410Y-147697819D01*
X92167410Y-147697819D02*
X92262648Y-147697819D01*
X92262648Y-147697819D02*
X92405505Y-147650200D01*
X92405505Y-147650200D02*
X92500743Y-147554961D01*
X92500743Y-147554961D02*
X92548362Y-147459723D01*
X92548362Y-147459723D02*
X92595981Y-147269247D01*
X92595981Y-147269247D02*
X92595981Y-147126390D01*
X92595981Y-147126390D02*
X92548362Y-146935914D01*
X92548362Y-146935914D02*
X92500743Y-146840676D01*
X92500743Y-146840676D02*
X92405505Y-146745438D01*
X92405505Y-146745438D02*
X92262648Y-146697819D01*
X92262648Y-146697819D02*
X92167410Y-146697819D01*
X92167410Y-146697819D02*
X92024553Y-146745438D01*
X92024553Y-146745438D02*
X91976934Y-146793057D01*
X91262648Y-146697819D02*
X91262648Y-147412104D01*
X91262648Y-147412104D02*
X91310267Y-147554961D01*
X91310267Y-147554961D02*
X91405505Y-147650200D01*
X91405505Y-147650200D02*
X91548362Y-147697819D01*
X91548362Y-147697819D02*
X91643600Y-147697819D01*
X90310267Y-147697819D02*
X90786457Y-147697819D01*
X90786457Y-147697819D02*
X90786457Y-146697819D01*
X89405505Y-147602580D02*
X89453124Y-147650200D01*
X89453124Y-147650200D02*
X89595981Y-147697819D01*
X89595981Y-147697819D02*
X89691219Y-147697819D01*
X89691219Y-147697819D02*
X89834076Y-147650200D01*
X89834076Y-147650200D02*
X89929314Y-147554961D01*
X89929314Y-147554961D02*
X89976933Y-147459723D01*
X89976933Y-147459723D02*
X90024552Y-147269247D01*
X90024552Y-147269247D02*
X90024552Y-147126390D01*
X90024552Y-147126390D02*
X89976933Y-146935914D01*
X89976933Y-146935914D02*
X89929314Y-146840676D01*
X89929314Y-146840676D02*
X89834076Y-146745438D01*
X89834076Y-146745438D02*
X89691219Y-146697819D01*
X89691219Y-146697819D02*
X89595981Y-146697819D01*
X89595981Y-146697819D02*
X89453124Y-146745438D01*
X89453124Y-146745438D02*
X89405505Y-146793057D01*
X88691219Y-146697819D02*
X88691219Y-147412104D01*
X88691219Y-147412104D02*
X88738838Y-147554961D01*
X88738838Y-147554961D02*
X88834076Y-147650200D01*
X88834076Y-147650200D02*
X88976933Y-147697819D01*
X88976933Y-147697819D02*
X89072171Y-147697819D01*
X87738838Y-147697819D02*
X88215028Y-147697819D01*
X88215028Y-147697819D02*
X88215028Y-146697819D01*
X86834076Y-147602580D02*
X86881695Y-147650200D01*
X86881695Y-147650200D02*
X87024552Y-147697819D01*
X87024552Y-147697819D02*
X87119790Y-147697819D01*
X87119790Y-147697819D02*
X87262647Y-147650200D01*
X87262647Y-147650200D02*
X87357885Y-147554961D01*
X87357885Y-147554961D02*
X87405504Y-147459723D01*
X87405504Y-147459723D02*
X87453123Y-147269247D01*
X87453123Y-147269247D02*
X87453123Y-147126390D01*
X87453123Y-147126390D02*
X87405504Y-146935914D01*
X87405504Y-146935914D02*
X87357885Y-146840676D01*
X87357885Y-146840676D02*
X87262647Y-146745438D01*
X87262647Y-146745438D02*
X87119790Y-146697819D01*
X87119790Y-146697819D02*
X87024552Y-146697819D01*
X87024552Y-146697819D02*
X86881695Y-146745438D01*
X86881695Y-146745438D02*
X86834076Y-146793057D01*
X77641220Y-78228866D02*
X76879316Y-78228866D01*
X77260268Y-78609819D02*
X77260268Y-77847914D01*
X75879316Y-78609819D02*
X76450744Y-78609819D01*
X76165030Y-78609819D02*
X76165030Y-77609819D01*
X76165030Y-77609819D02*
X76260268Y-77752676D01*
X76260268Y-77752676D02*
X76355506Y-77847914D01*
X76355506Y-77847914D02*
X76450744Y-77895533D01*
X75498363Y-77705057D02*
X75450744Y-77657438D01*
X75450744Y-77657438D02*
X75355506Y-77609819D01*
X75355506Y-77609819D02*
X75117411Y-77609819D01*
X75117411Y-77609819D02*
X75022173Y-77657438D01*
X75022173Y-77657438D02*
X74974554Y-77705057D01*
X74974554Y-77705057D02*
X74926935Y-77800295D01*
X74926935Y-77800295D02*
X74926935Y-77895533D01*
X74926935Y-77895533D02*
X74974554Y-78038390D01*
X74974554Y-78038390D02*
X75545982Y-78609819D01*
X75545982Y-78609819D02*
X74926935Y-78609819D01*
X74641220Y-77609819D02*
X74307887Y-78609819D01*
X74307887Y-78609819D02*
X73974554Y-77609819D01*
X76165030Y-82610438D02*
X76260268Y-82562819D01*
X76260268Y-82562819D02*
X76403125Y-82562819D01*
X76403125Y-82562819D02*
X76545982Y-82610438D01*
X76545982Y-82610438D02*
X76641220Y-82705676D01*
X76641220Y-82705676D02*
X76688839Y-82800914D01*
X76688839Y-82800914D02*
X76736458Y-82991390D01*
X76736458Y-82991390D02*
X76736458Y-83134247D01*
X76736458Y-83134247D02*
X76688839Y-83324723D01*
X76688839Y-83324723D02*
X76641220Y-83419961D01*
X76641220Y-83419961D02*
X76545982Y-83515200D01*
X76545982Y-83515200D02*
X76403125Y-83562819D01*
X76403125Y-83562819D02*
X76307887Y-83562819D01*
X76307887Y-83562819D02*
X76165030Y-83515200D01*
X76165030Y-83515200D02*
X76117411Y-83467580D01*
X76117411Y-83467580D02*
X76117411Y-83134247D01*
X76117411Y-83134247D02*
X76307887Y-83134247D01*
X75688839Y-83562819D02*
X75688839Y-82562819D01*
X75688839Y-82562819D02*
X75117411Y-83562819D01*
X75117411Y-83562819D02*
X75117411Y-82562819D01*
X74641220Y-83562819D02*
X74641220Y-82562819D01*
X74641220Y-82562819D02*
X74403125Y-82562819D01*
X74403125Y-82562819D02*
X74260268Y-82610438D01*
X74260268Y-82610438D02*
X74165030Y-82705676D01*
X74165030Y-82705676D02*
X74117411Y-82800914D01*
X74117411Y-82800914D02*
X74069792Y-82991390D01*
X74069792Y-82991390D02*
X74069792Y-83134247D01*
X74069792Y-83134247D02*
X74117411Y-83324723D01*
X74117411Y-83324723D02*
X74165030Y-83419961D01*
X74165030Y-83419961D02*
X74260268Y-83515200D01*
X74260268Y-83515200D02*
X74403125Y-83562819D01*
X74403125Y-83562819D02*
X74641220Y-83562819D01*
D11*
X107950095Y-95538580D02*
X107950095Y-94729057D01*
X107950095Y-94729057D02*
X107997714Y-94633819D01*
X107997714Y-94633819D02*
X108045333Y-94586200D01*
X108045333Y-94586200D02*
X108140571Y-94538580D01*
X108140571Y-94538580D02*
X108331047Y-94538580D01*
X108331047Y-94538580D02*
X108426285Y-94586200D01*
X108426285Y-94586200D02*
X108473904Y-94633819D01*
X108473904Y-94633819D02*
X108521523Y-94729057D01*
X108521523Y-94729057D02*
X108521523Y-95538580D01*
X109521523Y-94538580D02*
X108950095Y-94538580D01*
X109235809Y-94538580D02*
X109235809Y-95538580D01*
X109235809Y-95538580D02*
X109140571Y-95395723D01*
X109140571Y-95395723D02*
X109045333Y-95300485D01*
X109045333Y-95300485D02*
X108950095Y-95252866D01*
D10*
X83553333Y-71354819D02*
X83553333Y-72069104D01*
X83553333Y-72069104D02*
X83600952Y-72211961D01*
X83600952Y-72211961D02*
X83696190Y-72307200D01*
X83696190Y-72307200D02*
X83839047Y-72354819D01*
X83839047Y-72354819D02*
X83934285Y-72354819D01*
X82648571Y-71354819D02*
X82839047Y-71354819D01*
X82839047Y-71354819D02*
X82934285Y-71402438D01*
X82934285Y-71402438D02*
X82981904Y-71450057D01*
X82981904Y-71450057D02*
X83077142Y-71592914D01*
X83077142Y-71592914D02*
X83124761Y-71783390D01*
X83124761Y-71783390D02*
X83124761Y-72164342D01*
X83124761Y-72164342D02*
X83077142Y-72259580D01*
X83077142Y-72259580D02*
X83029523Y-72307200D01*
X83029523Y-72307200D02*
X82934285Y-72354819D01*
X82934285Y-72354819D02*
X82743809Y-72354819D01*
X82743809Y-72354819D02*
X82648571Y-72307200D01*
X82648571Y-72307200D02*
X82600952Y-72259580D01*
X82600952Y-72259580D02*
X82553333Y-72164342D01*
X82553333Y-72164342D02*
X82553333Y-71926247D01*
X82553333Y-71926247D02*
X82600952Y-71831009D01*
X82600952Y-71831009D02*
X82648571Y-71783390D01*
X82648571Y-71783390D02*
X82743809Y-71735771D01*
X82743809Y-71735771D02*
X82934285Y-71735771D01*
X82934285Y-71735771D02*
X83029523Y-71783390D01*
X83029523Y-71783390D02*
X83077142Y-71831009D01*
X83077142Y-71831009D02*
X83124761Y-71926247D01*
D11*
X99822000Y-96520000D02*
X117094000Y-96520000D01*
X117094000Y-96520000D02*
X117094000Y-76708000D01*
X117094000Y-76708000D02*
X99822000Y-76708000D01*
X99822000Y-76708000D02*
X99822000Y-96520000D01*
D12*
X89170000Y-78500000D02*
X88170000Y-78000000D01*
X89170000Y-77500000D02*
X89170000Y-78500000D01*
X88170000Y-78000000D02*
X89170000Y-77500000D01*
X87780000Y-93370000D02*
X87780000Y-72790000D01*
X87780000Y-81030000D02*
X86470000Y-81030000D01*
X87780000Y-72790000D02*
X78660000Y-72790000D01*
X86470000Y-92070000D02*
X86470000Y-85130000D01*
X86470000Y-85130000D02*
X87780000Y-85130000D01*
X86470000Y-85130000D02*
X86470000Y-85130000D01*
X86470000Y-81030000D02*
X86470000Y-74090000D01*
X86470000Y-74090000D02*
X79970000Y-74090000D01*
X79970000Y-92070000D02*
X86470000Y-92070000D01*
X79970000Y-74090000D02*
X79970000Y-92070000D01*
X78660000Y-93370000D02*
X87780000Y-93370000D01*
X78660000Y-72790000D02*
X78660000Y-93370000D01*
%LPC*%
D13*
X116780000Y-49500000D03*
D14*
X126920000Y-59500000D03*
D15*
X123420000Y-59500000D03*
X126920000Y-118000000D03*
D16*
X120970000Y-63650000D03*
X129370000Y-64850000D03*
X129370000Y-112650000D03*
X120970000Y-113850000D03*
D17*
X125170000Y-134480000D03*
D18*
X125170000Y-123080000D03*
X125170000Y-131380000D03*
D14*
X76580000Y-59500000D03*
D15*
X73080000Y-59500000D03*
X76580000Y-118000000D03*
D16*
X70630000Y-63650000D03*
X79030000Y-64850000D03*
X79030000Y-112650000D03*
X70630000Y-113850000D03*
D13*
X83220000Y-49500000D03*
D17*
X125170000Y-150480000D03*
D18*
X125170000Y-139080000D03*
X125170000Y-147380000D03*
D14*
X93360000Y-59500000D03*
D15*
X89860000Y-59500000D03*
X93360000Y-118000000D03*
D16*
X87410000Y-63650000D03*
X95810000Y-64850000D03*
X95810000Y-112650000D03*
X87410000Y-113850000D03*
D14*
X110140000Y-59500000D03*
D15*
X106640000Y-59500000D03*
X110140000Y-118000000D03*
D16*
X104190000Y-63650000D03*
X112590000Y-64850000D03*
X112590000Y-112650000D03*
X104190000Y-113850000D03*
D17*
X91610000Y-134480000D03*
D18*
X91610000Y-123080000D03*
X91610000Y-131380000D03*
D17*
X74830000Y-134480000D03*
D18*
X74830000Y-123080000D03*
X74830000Y-131380000D03*
D17*
X108390000Y-134480000D03*
D18*
X108390000Y-123080000D03*
X108390000Y-131380000D03*
D19*
X100838000Y-95504000D03*
D20*
X100838000Y-92964000D03*
X100838000Y-90424000D03*
X100838000Y-87884000D03*
X100838000Y-85344000D03*
X100838000Y-82804000D03*
X100838000Y-80264000D03*
X100838000Y-77724000D03*
X116078000Y-77724000D03*
X116078000Y-80264000D03*
X116078000Y-82804000D03*
X116078000Y-85344000D03*
X116078000Y-87884000D03*
X116078000Y-90424000D03*
X116078000Y-92964000D03*
X116078000Y-95504000D03*
D21*
X84490000Y-78000000D03*
D20*
X81950000Y-78000000D03*
X84490000Y-80540000D03*
X81950000Y-80540000D03*
X84490000Y-83080000D03*
X81950000Y-83080000D03*
X84490000Y-85620000D03*
X81950000Y-85620000D03*
X84490000Y-88160000D03*
X81950000Y-88160000D03*
%LPD*%
M02*
