G04 #@! TF.GenerationSoftware,KiCad,Pcbnew,7.0.7*
G04 #@! TF.CreationDate,2025-11-01T14:17:37+08:00*
G04 #@! TF.ProjectId,2164_VCA,32313634-5f56-4434-912e-6b696361645f,rev?*
G04 #@! TF.SameCoordinates,Original*
G04 #@! TF.FileFunction,Legend,Top*
G04 #@! TF.FilePolarity,Positive*
%FSLAX46Y46*%
G04 Gerber Fmt 4.6, Leading zero omitted, Abs format (unit mm)*
G04 Created by KiCad (PCBNEW 7.0.7) date 2025-11-01 14:17:37*
%MOMM*%
%LPD*%
G01*
G04 APERTURE LIST*
G04 Aperture macros list*
%AMRoundRect*
0 Rectangle with rounded corners*
0 $1 Rounding radius*
0 $2 $3 $4 $5 $6 $7 $8 $9 X,Y pos of 4 corners*
0 Add a 4 corners polygon primitive as box body*
4,1,4,$2,$3,$4,$5,$6,$7,$8,$9,$2,$3,0*
0 Add four circle primitives for the rounded corners*
1,1,$1+$1,$2,$3*
1,1,$1+$1,$4,$5*
1,1,$1+$1,$6,$7*
1,1,$1+$1,$8,$9*
0 Add four rect primitives between the rounded corners*
20,1,$1+$1,$2,$3,$4,$5,0*
20,1,$1+$1,$4,$5,$6,$7,0*
20,1,$1+$1,$6,$7,$8,$9,0*
20,1,$1+$1,$8,$9,$2,$3,0*%
G04 Aperture macros list end*
%ADD10C,0.150000*%
%ADD11C,0.120000*%
%ADD12C,0.200000*%
%ADD13C,3.200000*%
%ADD14R,1.750000X1.750000*%
%ADD15C,1.750000*%
%ADD16C,2.700000*%
%ADD17O,3.100000X2.300000*%
%ADD18RoundRect,0.650000X-0.650000X-0.650000X0.650000X-0.650000X0.650000X0.650000X-0.650000X0.650000X0*%
%ADD19R,1.800000X1.800000*%
%ADD20C,1.800000*%
%ADD21C,1.440000*%
%ADD22R,1.700000X1.700000*%
%ADD23C,1.700000*%
%ADD24RoundRect,0.250000X0.600000X0.600000X-0.600000X0.600000X-0.600000X-0.600000X0.600000X-0.600000X0*%
G04 APERTURE END LIST*
D10*
X116018095Y-54154819D02*
X116018095Y-53154819D01*
X116018095Y-53631009D02*
X116589523Y-53631009D01*
X116589523Y-54154819D02*
X116589523Y-53154819D01*
X117018095Y-53250057D02*
X117065714Y-53202438D01*
X117065714Y-53202438D02*
X117160952Y-53154819D01*
X117160952Y-53154819D02*
X117399047Y-53154819D01*
X117399047Y-53154819D02*
X117494285Y-53202438D01*
X117494285Y-53202438D02*
X117541904Y-53250057D01*
X117541904Y-53250057D02*
X117589523Y-53345295D01*
X117589523Y-53345295D02*
X117589523Y-53440533D01*
X117589523Y-53440533D02*
X117541904Y-53583390D01*
X117541904Y-53583390D02*
X116970476Y-54154819D01*
X116970476Y-54154819D02*
X117589523Y-54154819D01*
X131374819Y-89345238D02*
X130898628Y-89678571D01*
X131374819Y-89916666D02*
X130374819Y-89916666D01*
X130374819Y-89916666D02*
X130374819Y-89535714D01*
X130374819Y-89535714D02*
X130422438Y-89440476D01*
X130422438Y-89440476D02*
X130470057Y-89392857D01*
X130470057Y-89392857D02*
X130565295Y-89345238D01*
X130565295Y-89345238D02*
X130708152Y-89345238D01*
X130708152Y-89345238D02*
X130803390Y-89392857D01*
X130803390Y-89392857D02*
X130851009Y-89440476D01*
X130851009Y-89440476D02*
X130898628Y-89535714D01*
X130898628Y-89535714D02*
X130898628Y-89916666D01*
X130374819Y-89059523D02*
X131374819Y-88726190D01*
X131374819Y-88726190D02*
X130374819Y-88392857D01*
X130708152Y-87630952D02*
X131374819Y-87630952D01*
X130327200Y-87869047D02*
X131041485Y-88107142D01*
X131041485Y-88107142D02*
X131041485Y-87488095D01*
X122336666Y-120654819D02*
X122336666Y-121369104D01*
X122336666Y-121369104D02*
X122289047Y-121511961D01*
X122289047Y-121511961D02*
X122193809Y-121607200D01*
X122193809Y-121607200D02*
X122050952Y-121654819D01*
X122050952Y-121654819D02*
X121955714Y-121654819D01*
X122765238Y-120750057D02*
X122812857Y-120702438D01*
X122812857Y-120702438D02*
X122908095Y-120654819D01*
X122908095Y-120654819D02*
X123146190Y-120654819D01*
X123146190Y-120654819D02*
X123241428Y-120702438D01*
X123241428Y-120702438D02*
X123289047Y-120750057D01*
X123289047Y-120750057D02*
X123336666Y-120845295D01*
X123336666Y-120845295D02*
X123336666Y-120940533D01*
X123336666Y-120940533D02*
X123289047Y-121083390D01*
X123289047Y-121083390D02*
X122717619Y-121654819D01*
X122717619Y-121654819D02*
X123336666Y-121654819D01*
X69542819Y-81875238D02*
X69066628Y-82208571D01*
X69542819Y-82446666D02*
X68542819Y-82446666D01*
X68542819Y-82446666D02*
X68542819Y-82065714D01*
X68542819Y-82065714D02*
X68590438Y-81970476D01*
X68590438Y-81970476D02*
X68638057Y-81922857D01*
X68638057Y-81922857D02*
X68733295Y-81875238D01*
X68733295Y-81875238D02*
X68876152Y-81875238D01*
X68876152Y-81875238D02*
X68971390Y-81922857D01*
X68971390Y-81922857D02*
X69019009Y-81970476D01*
X69019009Y-81970476D02*
X69066628Y-82065714D01*
X69066628Y-82065714D02*
X69066628Y-82446666D01*
X68542819Y-81589523D02*
X69542819Y-81256190D01*
X69542819Y-81256190D02*
X68542819Y-80922857D01*
X69542819Y-80065714D02*
X69542819Y-80637142D01*
X69542819Y-80351428D02*
X68542819Y-80351428D01*
X68542819Y-80351428D02*
X68685676Y-80446666D01*
X68685676Y-80446666D02*
X68780914Y-80541904D01*
X68780914Y-80541904D02*
X68828533Y-80637142D01*
X82481905Y-117494819D02*
X82481905Y-116494819D01*
X82481905Y-116494819D02*
X82720000Y-116494819D01*
X82720000Y-116494819D02*
X82862857Y-116542438D01*
X82862857Y-116542438D02*
X82958095Y-116637676D01*
X82958095Y-116637676D02*
X83005714Y-116732914D01*
X83005714Y-116732914D02*
X83053333Y-116923390D01*
X83053333Y-116923390D02*
X83053333Y-117066247D01*
X83053333Y-117066247D02*
X83005714Y-117256723D01*
X83005714Y-117256723D02*
X82958095Y-117351961D01*
X82958095Y-117351961D02*
X82862857Y-117447200D01*
X82862857Y-117447200D02*
X82720000Y-117494819D01*
X82720000Y-117494819D02*
X82481905Y-117494819D01*
X84005714Y-117494819D02*
X83434286Y-117494819D01*
X83720000Y-117494819D02*
X83720000Y-116494819D01*
X83720000Y-116494819D02*
X83624762Y-116637676D01*
X83624762Y-116637676D02*
X83529524Y-116732914D01*
X83529524Y-116732914D02*
X83434286Y-116780533D01*
X82458095Y-54154819D02*
X82458095Y-53154819D01*
X82458095Y-53631009D02*
X83029523Y-53631009D01*
X83029523Y-54154819D02*
X83029523Y-53154819D01*
X84029523Y-54154819D02*
X83458095Y-54154819D01*
X83743809Y-54154819D02*
X83743809Y-53154819D01*
X83743809Y-53154819D02*
X83648571Y-53297676D01*
X83648571Y-53297676D02*
X83553333Y-53392914D01*
X83553333Y-53392914D02*
X83458095Y-53440533D01*
X116001905Y-123414819D02*
X116001905Y-122414819D01*
X116001905Y-122414819D02*
X116240000Y-122414819D01*
X116240000Y-122414819D02*
X116382857Y-122462438D01*
X116382857Y-122462438D02*
X116478095Y-122557676D01*
X116478095Y-122557676D02*
X116525714Y-122652914D01*
X116525714Y-122652914D02*
X116573333Y-122843390D01*
X116573333Y-122843390D02*
X116573333Y-122986247D01*
X116573333Y-122986247D02*
X116525714Y-123176723D01*
X116525714Y-123176723D02*
X116478095Y-123271961D01*
X116478095Y-123271961D02*
X116382857Y-123367200D01*
X116382857Y-123367200D02*
X116240000Y-123414819D01*
X116240000Y-123414819D02*
X116001905Y-123414819D01*
X116954286Y-122510057D02*
X117001905Y-122462438D01*
X117001905Y-122462438D02*
X117097143Y-122414819D01*
X117097143Y-122414819D02*
X117335238Y-122414819D01*
X117335238Y-122414819D02*
X117430476Y-122462438D01*
X117430476Y-122462438D02*
X117478095Y-122510057D01*
X117478095Y-122510057D02*
X117525714Y-122605295D01*
X117525714Y-122605295D02*
X117525714Y-122700533D01*
X117525714Y-122700533D02*
X117478095Y-122843390D01*
X117478095Y-122843390D02*
X116906667Y-123414819D01*
X116906667Y-123414819D02*
X117525714Y-123414819D01*
X88776666Y-136654819D02*
X88776666Y-137369104D01*
X88776666Y-137369104D02*
X88729047Y-137511961D01*
X88729047Y-137511961D02*
X88633809Y-137607200D01*
X88633809Y-137607200D02*
X88490952Y-137654819D01*
X88490952Y-137654819D02*
X88395714Y-137654819D01*
X89729047Y-136654819D02*
X89252857Y-136654819D01*
X89252857Y-136654819D02*
X89205238Y-137131009D01*
X89205238Y-137131009D02*
X89252857Y-137083390D01*
X89252857Y-137083390D02*
X89348095Y-137035771D01*
X89348095Y-137035771D02*
X89586190Y-137035771D01*
X89586190Y-137035771D02*
X89681428Y-137083390D01*
X89681428Y-137083390D02*
X89729047Y-137131009D01*
X89729047Y-137131009D02*
X89776666Y-137226247D01*
X89776666Y-137226247D02*
X89776666Y-137464342D01*
X89776666Y-137464342D02*
X89729047Y-137559580D01*
X89729047Y-137559580D02*
X89681428Y-137607200D01*
X89681428Y-137607200D02*
X89586190Y-137654819D01*
X89586190Y-137654819D02*
X89348095Y-137654819D01*
X89348095Y-137654819D02*
X89252857Y-137607200D01*
X89252857Y-137607200D02*
X89205238Y-137559580D01*
X122336666Y-136654819D02*
X122336666Y-137369104D01*
X122336666Y-137369104D02*
X122289047Y-137511961D01*
X122289047Y-137511961D02*
X122193809Y-137607200D01*
X122193809Y-137607200D02*
X122050952Y-137654819D01*
X122050952Y-137654819D02*
X121955714Y-137654819D01*
X122717619Y-136654819D02*
X123384285Y-136654819D01*
X123384285Y-136654819D02*
X122955714Y-137654819D01*
X97814819Y-89345238D02*
X97338628Y-89678571D01*
X97814819Y-89916666D02*
X96814819Y-89916666D01*
X96814819Y-89916666D02*
X96814819Y-89535714D01*
X96814819Y-89535714D02*
X96862438Y-89440476D01*
X96862438Y-89440476D02*
X96910057Y-89392857D01*
X96910057Y-89392857D02*
X97005295Y-89345238D01*
X97005295Y-89345238D02*
X97148152Y-89345238D01*
X97148152Y-89345238D02*
X97243390Y-89392857D01*
X97243390Y-89392857D02*
X97291009Y-89440476D01*
X97291009Y-89440476D02*
X97338628Y-89535714D01*
X97338628Y-89535714D02*
X97338628Y-89916666D01*
X96814819Y-89059523D02*
X97814819Y-88726190D01*
X97814819Y-88726190D02*
X96814819Y-88392857D01*
X96910057Y-88107142D02*
X96862438Y-88059523D01*
X96862438Y-88059523D02*
X96814819Y-87964285D01*
X96814819Y-87964285D02*
X96814819Y-87726190D01*
X96814819Y-87726190D02*
X96862438Y-87630952D01*
X96862438Y-87630952D02*
X96910057Y-87583333D01*
X96910057Y-87583333D02*
X97005295Y-87535714D01*
X97005295Y-87535714D02*
X97100533Y-87535714D01*
X97100533Y-87535714D02*
X97243390Y-87583333D01*
X97243390Y-87583333D02*
X97814819Y-88154761D01*
X97814819Y-88154761D02*
X97814819Y-87535714D01*
X114246819Y-89581238D02*
X113770628Y-89914571D01*
X114246819Y-90152666D02*
X113246819Y-90152666D01*
X113246819Y-90152666D02*
X113246819Y-89771714D01*
X113246819Y-89771714D02*
X113294438Y-89676476D01*
X113294438Y-89676476D02*
X113342057Y-89628857D01*
X113342057Y-89628857D02*
X113437295Y-89581238D01*
X113437295Y-89581238D02*
X113580152Y-89581238D01*
X113580152Y-89581238D02*
X113675390Y-89628857D01*
X113675390Y-89628857D02*
X113723009Y-89676476D01*
X113723009Y-89676476D02*
X113770628Y-89771714D01*
X113770628Y-89771714D02*
X113770628Y-90152666D01*
X113246819Y-89295523D02*
X114246819Y-88962190D01*
X114246819Y-88962190D02*
X113246819Y-88628857D01*
X113246819Y-88390761D02*
X113246819Y-87771714D01*
X113246819Y-87771714D02*
X113627771Y-88105047D01*
X113627771Y-88105047D02*
X113627771Y-87962190D01*
X113627771Y-87962190D02*
X113675390Y-87866952D01*
X113675390Y-87866952D02*
X113723009Y-87819333D01*
X113723009Y-87819333D02*
X113818247Y-87771714D01*
X113818247Y-87771714D02*
X114056342Y-87771714D01*
X114056342Y-87771714D02*
X114151580Y-87819333D01*
X114151580Y-87819333D02*
X114199200Y-87866952D01*
X114199200Y-87866952D02*
X114246819Y-87962190D01*
X114246819Y-87962190D02*
X114246819Y-88247904D01*
X114246819Y-88247904D02*
X114199200Y-88343142D01*
X114199200Y-88343142D02*
X114151580Y-88390761D01*
X105556666Y-120654819D02*
X105556666Y-121369104D01*
X105556666Y-121369104D02*
X105509047Y-121511961D01*
X105509047Y-121511961D02*
X105413809Y-121607200D01*
X105413809Y-121607200D02*
X105270952Y-121654819D01*
X105270952Y-121654819D02*
X105175714Y-121654819D01*
X106461428Y-120988152D02*
X106461428Y-121654819D01*
X106223333Y-120607200D02*
X105985238Y-121321485D01*
X105985238Y-121321485D02*
X106604285Y-121321485D01*
X71996666Y-120654819D02*
X71996666Y-121369104D01*
X71996666Y-121369104D02*
X71949047Y-121511961D01*
X71949047Y-121511961D02*
X71853809Y-121607200D01*
X71853809Y-121607200D02*
X71710952Y-121654819D01*
X71710952Y-121654819D02*
X71615714Y-121654819D01*
X72377619Y-120654819D02*
X72996666Y-120654819D01*
X72996666Y-120654819D02*
X72663333Y-121035771D01*
X72663333Y-121035771D02*
X72806190Y-121035771D01*
X72806190Y-121035771D02*
X72901428Y-121083390D01*
X72901428Y-121083390D02*
X72949047Y-121131009D01*
X72949047Y-121131009D02*
X72996666Y-121226247D01*
X72996666Y-121226247D02*
X72996666Y-121464342D01*
X72996666Y-121464342D02*
X72949047Y-121559580D01*
X72949047Y-121559580D02*
X72901428Y-121607200D01*
X72901428Y-121607200D02*
X72806190Y-121654819D01*
X72806190Y-121654819D02*
X72520476Y-121654819D01*
X72520476Y-121654819D02*
X72425238Y-121607200D01*
X72425238Y-121607200D02*
X72377619Y-121559580D01*
X88776666Y-120654819D02*
X88776666Y-121369104D01*
X88776666Y-121369104D02*
X88729047Y-121511961D01*
X88729047Y-121511961D02*
X88633809Y-121607200D01*
X88633809Y-121607200D02*
X88490952Y-121654819D01*
X88490952Y-121654819D02*
X88395714Y-121654819D01*
X89776666Y-121654819D02*
X89205238Y-121654819D01*
X89490952Y-121654819D02*
X89490952Y-120654819D01*
X89490952Y-120654819D02*
X89395714Y-120797676D01*
X89395714Y-120797676D02*
X89300476Y-120892914D01*
X89300476Y-120892914D02*
X89205238Y-120940533D01*
D11*
X127420000Y-57825000D02*
X126420000Y-57825000D01*
X126420000Y-57825000D02*
X126920000Y-58325000D01*
X126920000Y-58325000D02*
X127420000Y-57825000D01*
X129790000Y-58630000D02*
X128095000Y-58630000D01*
X129790000Y-58630000D02*
X129790000Y-63215000D01*
X125745000Y-58630000D02*
X124242000Y-58630000D01*
X122597000Y-58630000D02*
X120550000Y-58630000D01*
X120550000Y-58630000D02*
X120550000Y-62015000D01*
X120550000Y-65286000D02*
X120550000Y-112215000D01*
X126670000Y-66250000D02*
X123670000Y-66250000D01*
X125170000Y-66250000D02*
X124420000Y-67000000D01*
X125170000Y-66250000D02*
X125170000Y-111250000D01*
X129790000Y-66486000D02*
X129790000Y-111015000D01*
X125920000Y-67000000D02*
X125170000Y-66250000D01*
X125920000Y-110500000D02*
X125170000Y-111250000D01*
X126670000Y-111250000D02*
X123670000Y-111250000D01*
X125170000Y-111250000D02*
X124420000Y-110500000D01*
X129790000Y-114286000D02*
X129790000Y-118870000D01*
X120550000Y-115486000D02*
X120550000Y-118870000D01*
X129790000Y-118870000D02*
X127743000Y-118870000D01*
X126097000Y-118870000D02*
X120550000Y-118870000D01*
D12*
X120670000Y-122000000D02*
X123570000Y-122000000D01*
X120670000Y-132500000D02*
X120670000Y-122000000D01*
X120670000Y-132500000D02*
X123670000Y-132500000D01*
X126670000Y-132500000D02*
X129670000Y-132500000D01*
X126770000Y-122000000D02*
X129670000Y-122000000D01*
X129670000Y-132500000D02*
X129670000Y-122000000D01*
D11*
X125170000Y-125105001D02*
G75*
G03*
X123820000Y-130588576I-26869J-2901351D01*
G01*
X126520000Y-130588577D02*
G75*
G03*
X125170000Y-125105000I-1323132J2582225D01*
G01*
X126970000Y-128000000D02*
G75*
G03*
X126970000Y-128000000I-1800000J0D01*
G01*
X77080000Y-57825000D02*
X76080000Y-57825000D01*
X76080000Y-57825000D02*
X76580000Y-58325000D01*
X76580000Y-58325000D02*
X77080000Y-57825000D01*
X79450000Y-58630000D02*
X77755000Y-58630000D01*
X79450000Y-58630000D02*
X79450000Y-63215000D01*
X75405000Y-58630000D02*
X73902000Y-58630000D01*
X72257000Y-58630000D02*
X70210000Y-58630000D01*
X70210000Y-58630000D02*
X70210000Y-62015000D01*
X70210000Y-65286000D02*
X70210000Y-112215000D01*
X76330000Y-66250000D02*
X73330000Y-66250000D01*
X74830000Y-66250000D02*
X74080000Y-67000000D01*
X74830000Y-66250000D02*
X74830000Y-111250000D01*
X79450000Y-66486000D02*
X79450000Y-111015000D01*
X75580000Y-67000000D02*
X74830000Y-66250000D01*
X75580000Y-110500000D02*
X74830000Y-111250000D01*
X76330000Y-111250000D02*
X73330000Y-111250000D01*
X74830000Y-111250000D02*
X74080000Y-110500000D01*
X79450000Y-114286000D02*
X79450000Y-118870000D01*
X70210000Y-115486000D02*
X70210000Y-118870000D01*
X79450000Y-118870000D02*
X77403000Y-118870000D01*
X75757000Y-118870000D02*
X70210000Y-118870000D01*
X81660000Y-118764000D02*
X81660000Y-118920000D01*
X81660000Y-121080000D02*
X81660000Y-121236000D01*
X84892334Y-118921392D02*
G75*
G03*
X81660001Y-118764485I-1672334J-1078608D01*
G01*
X84261129Y-118920164D02*
G75*
G03*
X82179040Y-118920001I-1041129J-1079836D01*
G01*
X82179040Y-121079999D02*
G75*
G03*
X84261129Y-121079836I1040960J1079999D01*
G01*
X81660001Y-121235515D02*
G75*
G03*
X84892334Y-121078608I1559999J1235515D01*
G01*
X118300000Y-121236000D02*
X118300000Y-121080000D01*
X118300000Y-118920000D02*
X118300000Y-118764000D01*
X115067666Y-121078608D02*
G75*
G03*
X118299999Y-121235515I1672334J1078608D01*
G01*
X115698871Y-121079836D02*
G75*
G03*
X117780960Y-121079999I1041129J1079836D01*
G01*
X117780960Y-118920001D02*
G75*
G03*
X115698871Y-118920164I-1040960J-1079999D01*
G01*
X118299999Y-118764485D02*
G75*
G03*
X115067666Y-118921392I-1559999J-1235515D01*
G01*
D12*
X87110000Y-138000000D02*
X90010000Y-138000000D01*
X87110000Y-148500000D02*
X87110000Y-138000000D01*
X87110000Y-148500000D02*
X90110000Y-148500000D01*
X93110000Y-148500000D02*
X96110000Y-148500000D01*
X93210000Y-138000000D02*
X96110000Y-138000000D01*
X96110000Y-148500000D02*
X96110000Y-138000000D01*
D11*
X91610000Y-141105001D02*
G75*
G03*
X90260000Y-146588576I-26869J-2901351D01*
G01*
X92960000Y-146588577D02*
G75*
G03*
X91610000Y-141105000I-1323132J2582225D01*
G01*
X93410000Y-144000000D02*
G75*
G03*
X93410000Y-144000000I-1800000J0D01*
G01*
D12*
X120670000Y-138000000D02*
X123570000Y-138000000D01*
X120670000Y-148500000D02*
X120670000Y-138000000D01*
X120670000Y-148500000D02*
X123670000Y-148500000D01*
X126670000Y-148500000D02*
X129670000Y-148500000D01*
X126770000Y-138000000D02*
X129670000Y-138000000D01*
X129670000Y-148500000D02*
X129670000Y-138000000D01*
D11*
X125170000Y-141105001D02*
G75*
G03*
X123820000Y-146588576I-26869J-2901351D01*
G01*
X126520000Y-146588577D02*
G75*
G03*
X125170000Y-141105000I-1323132J2582225D01*
G01*
X126970000Y-144000000D02*
G75*
G03*
X126970000Y-144000000I-1800000J0D01*
G01*
X93860000Y-57825000D02*
X92860000Y-57825000D01*
X92860000Y-57825000D02*
X93360000Y-58325000D01*
X93360000Y-58325000D02*
X93860000Y-57825000D01*
X96230000Y-58630000D02*
X94535000Y-58630000D01*
X96230000Y-58630000D02*
X96230000Y-63215000D01*
X92185000Y-58630000D02*
X90682000Y-58630000D01*
X89037000Y-58630000D02*
X86990000Y-58630000D01*
X86990000Y-58630000D02*
X86990000Y-62015000D01*
X86990000Y-65286000D02*
X86990000Y-112215000D01*
X93110000Y-66250000D02*
X90110000Y-66250000D01*
X91610000Y-66250000D02*
X90860000Y-67000000D01*
X91610000Y-66250000D02*
X91610000Y-111250000D01*
X96230000Y-66486000D02*
X96230000Y-111015000D01*
X92360000Y-67000000D02*
X91610000Y-66250000D01*
X92360000Y-110500000D02*
X91610000Y-111250000D01*
X93110000Y-111250000D02*
X90110000Y-111250000D01*
X91610000Y-111250000D02*
X90860000Y-110500000D01*
X96230000Y-114286000D02*
X96230000Y-118870000D01*
X86990000Y-115486000D02*
X86990000Y-118870000D01*
X96230000Y-118870000D02*
X94183000Y-118870000D01*
X92537000Y-118870000D02*
X86990000Y-118870000D01*
X110640000Y-57825000D02*
X109640000Y-57825000D01*
X109640000Y-57825000D02*
X110140000Y-58325000D01*
X110140000Y-58325000D02*
X110640000Y-57825000D01*
X113010000Y-58630000D02*
X111315000Y-58630000D01*
X113010000Y-58630000D02*
X113010000Y-63215000D01*
X108965000Y-58630000D02*
X107462000Y-58630000D01*
X105817000Y-58630000D02*
X103770000Y-58630000D01*
X103770000Y-58630000D02*
X103770000Y-62015000D01*
X103770000Y-65286000D02*
X103770000Y-112215000D01*
X109890000Y-66250000D02*
X106890000Y-66250000D01*
X108390000Y-66250000D02*
X107640000Y-67000000D01*
X108390000Y-66250000D02*
X108390000Y-111250000D01*
X113010000Y-66486000D02*
X113010000Y-111015000D01*
X109140000Y-67000000D02*
X108390000Y-66250000D01*
X109140000Y-110500000D02*
X108390000Y-111250000D01*
X109890000Y-111250000D02*
X106890000Y-111250000D01*
X108390000Y-111250000D02*
X107640000Y-110500000D01*
X113010000Y-114286000D02*
X113010000Y-118870000D01*
X103770000Y-115486000D02*
X103770000Y-118870000D01*
X113010000Y-118870000D02*
X110963000Y-118870000D01*
X109317000Y-118870000D02*
X103770000Y-118870000D01*
D12*
X103890000Y-122000000D02*
X106790000Y-122000000D01*
X103890000Y-132500000D02*
X103890000Y-122000000D01*
X103890000Y-132500000D02*
X106890000Y-132500000D01*
X109890000Y-132500000D02*
X112890000Y-132500000D01*
X109990000Y-122000000D02*
X112890000Y-122000000D01*
X112890000Y-132500000D02*
X112890000Y-122000000D01*
D11*
X108390000Y-125105001D02*
G75*
G03*
X107040000Y-130588576I-26869J-2901351D01*
G01*
X109740000Y-130588577D02*
G75*
G03*
X108390000Y-125105000I-1323132J2582225D01*
G01*
X110190000Y-128000000D02*
G75*
G03*
X110190000Y-128000000I-1800000J0D01*
G01*
D12*
X70330000Y-122000000D02*
X73230000Y-122000000D01*
X70330000Y-132500000D02*
X70330000Y-122000000D01*
X70330000Y-132500000D02*
X73330000Y-132500000D01*
X76330000Y-132500000D02*
X79330000Y-132500000D01*
X76430000Y-122000000D02*
X79330000Y-122000000D01*
X79330000Y-132500000D02*
X79330000Y-122000000D01*
D11*
X74830000Y-125105001D02*
G75*
G03*
X73480000Y-130588576I-26869J-2901351D01*
G01*
X76180000Y-130588577D02*
G75*
G03*
X74830000Y-125105000I-1323132J2582225D01*
G01*
X76630000Y-128000000D02*
G75*
G03*
X76630000Y-128000000I-1800000J0D01*
G01*
D12*
X87110000Y-122000000D02*
X90010000Y-122000000D01*
X87110000Y-132500000D02*
X87110000Y-122000000D01*
X87110000Y-132500000D02*
X90110000Y-132500000D01*
X93110000Y-132500000D02*
X96110000Y-132500000D01*
X93210000Y-122000000D02*
X96110000Y-122000000D01*
X96110000Y-132500000D02*
X96110000Y-122000000D01*
D11*
X91610000Y-125105001D02*
G75*
G03*
X90260000Y-130588576I-26869J-2901351D01*
G01*
X92960000Y-130588577D02*
G75*
G03*
X91610000Y-125105000I-1323132J2582225D01*
G01*
X93410000Y-128000000D02*
G75*
G03*
X93410000Y-128000000I-1800000J0D01*
G01*
%LPC*%
D13*
X116780000Y-49500000D03*
D14*
X126920000Y-59500000D03*
D15*
X123420000Y-59500000D03*
X126920000Y-118000000D03*
D16*
X120970000Y-63650000D03*
X129370000Y-64850000D03*
X129370000Y-112650000D03*
X120970000Y-113850000D03*
D17*
X125170000Y-134480000D03*
D18*
X125170000Y-123080000D03*
X125170000Y-131380000D03*
D14*
X76580000Y-59500000D03*
D15*
X73080000Y-59500000D03*
X76580000Y-118000000D03*
D16*
X70630000Y-63650000D03*
X79030000Y-64850000D03*
X79030000Y-112650000D03*
X70630000Y-113850000D03*
D19*
X81950000Y-120000000D03*
D20*
X84490000Y-120000000D03*
D13*
X83220000Y-49500000D03*
D19*
X118010000Y-120000000D03*
D20*
X115470000Y-120000000D03*
D17*
X91610000Y-150480000D03*
D18*
X91610000Y-139080000D03*
X91610000Y-147380000D03*
D17*
X125170000Y-150480000D03*
D18*
X125170000Y-139080000D03*
X125170000Y-147380000D03*
D14*
X93360000Y-59500000D03*
D15*
X89860000Y-59500000D03*
X93360000Y-118000000D03*
D16*
X87410000Y-63650000D03*
X95810000Y-64850000D03*
X95810000Y-112650000D03*
X87410000Y-113850000D03*
D14*
X110140000Y-59500000D03*
D15*
X106640000Y-59500000D03*
X110140000Y-118000000D03*
D16*
X104190000Y-63650000D03*
X112590000Y-64850000D03*
X112590000Y-112650000D03*
X104190000Y-113850000D03*
D17*
X108390000Y-134480000D03*
D18*
X108390000Y-123080000D03*
X108390000Y-131380000D03*
D17*
X74830000Y-134480000D03*
D18*
X74830000Y-123080000D03*
X74830000Y-131380000D03*
D17*
X91610000Y-134480000D03*
D18*
X91610000Y-123080000D03*
X91610000Y-131380000D03*
D21*
X84582000Y-100584000D03*
X82042000Y-103124000D03*
X84582000Y-105664000D03*
D22*
X100838000Y-92710000D03*
D23*
X100838000Y-90170000D03*
X100838000Y-87630000D03*
X100838000Y-85090000D03*
X100838000Y-82550000D03*
X100838000Y-80010000D03*
X100838000Y-77470000D03*
X100838000Y-74930000D03*
X116078000Y-74930000D03*
X116078000Y-77470000D03*
X116078000Y-80010000D03*
X116078000Y-82550000D03*
X116078000Y-85090000D03*
X116078000Y-87630000D03*
X116078000Y-90170000D03*
X116078000Y-92710000D03*
D24*
X84490000Y-78000000D03*
D23*
X81950000Y-78000000D03*
X84490000Y-80540000D03*
X81950000Y-80540000D03*
X84490000Y-83080000D03*
X81950000Y-83080000D03*
X84490000Y-85620000D03*
X81950000Y-85620000D03*
X84490000Y-88160000D03*
X81950000Y-88160000D03*
D21*
X115570000Y-105410000D03*
X118110000Y-102870000D03*
X115570000Y-100330000D03*
%LPD*%
M02*
