G04 #@! TF.GenerationSoftware,KiCad,Pcbnew,7.0.7*
G04 #@! TF.CreationDate,2025-11-01T14:17:37+08:00*
G04 #@! TF.ProjectId,2164_VCA,32313634-5f56-4434-912e-6b696361645f,rev?*
G04 #@! TF.SameCoordinates,Original*
G04 #@! TF.FileFunction,Legend,Bot*
G04 #@! TF.FilePolarity,Positive*
%FSLAX46Y46*%
G04 Gerber Fmt 4.6, Leading zero omitted, Abs format (unit mm)*
G04 Created by KiCad (PCBNEW 7.0.7) date 2025-11-01 14:17:37*
%MOMM*%
%LPD*%
G01*
G04 APERTURE LIST*
G04 Aperture macros list*
%AMRoundRect*
0 Rectangle with rounded corners*
0 $1 Rounding radius*
0 $2 $3 $4 $5 $6 $7 $8 $9 X,Y pos of 4 corners*
0 Add a 4 corners polygon primitive as box body*
4,1,4,$2,$3,$4,$5,$6,$7,$8,$9,$2,$3,0*
0 Add four circle primitives for the rounded corners*
1,1,$1+$1,$2,$3*
1,1,$1+$1,$4,$5*
1,1,$1+$1,$6,$7*
1,1,$1+$1,$8,$9*
0 Add four rect primitives between the rounded corners*
20,1,$1+$1,$2,$3,$4,$5,0*
20,1,$1+$1,$4,$5,$6,$7,0*
20,1,$1+$1,$6,$7,$8,$9,0*
20,1,$1+$1,$8,$9,$2,$3,0*%
G04 Aperture macros list end*
%ADD10C,0.150000*%
%ADD11C,0.100000*%
%ADD12C,0.120000*%
%ADD13C,3.200000*%
%ADD14R,1.750000X1.750000*%
%ADD15C,1.750000*%
%ADD16C,2.700000*%
%ADD17O,3.100000X2.300000*%
%ADD18RoundRect,0.650000X-0.650000X-0.650000X0.650000X-0.650000X0.650000X0.650000X-0.650000X0.650000X0*%
%ADD19R,1.800000X1.800000*%
%ADD20C,1.800000*%
%ADD21C,1.440000*%
%ADD22R,1.700000X1.700000*%
%ADD23C,1.700000*%
%ADD24RoundRect,0.250000X0.600000X0.600000X-0.600000X0.600000X-0.600000X-0.600000X0.600000X-0.600000X0*%
G04 APERTURE END LIST*
D10*
X76419030Y-85213938D02*
X76514268Y-85166319D01*
X76514268Y-85166319D02*
X76657125Y-85166319D01*
X76657125Y-85166319D02*
X76799982Y-85213938D01*
X76799982Y-85213938D02*
X76895220Y-85309176D01*
X76895220Y-85309176D02*
X76942839Y-85404414D01*
X76942839Y-85404414D02*
X76990458Y-85594890D01*
X76990458Y-85594890D02*
X76990458Y-85737747D01*
X76990458Y-85737747D02*
X76942839Y-85928223D01*
X76942839Y-85928223D02*
X76895220Y-86023461D01*
X76895220Y-86023461D02*
X76799982Y-86118700D01*
X76799982Y-86118700D02*
X76657125Y-86166319D01*
X76657125Y-86166319D02*
X76561887Y-86166319D01*
X76561887Y-86166319D02*
X76419030Y-86118700D01*
X76419030Y-86118700D02*
X76371411Y-86071080D01*
X76371411Y-86071080D02*
X76371411Y-85737747D01*
X76371411Y-85737747D02*
X76561887Y-85737747D01*
X75942839Y-86166319D02*
X75942839Y-85166319D01*
X75942839Y-85166319D02*
X75371411Y-86166319D01*
X75371411Y-86166319D02*
X75371411Y-85166319D01*
X74895220Y-86166319D02*
X74895220Y-85166319D01*
X74895220Y-85166319D02*
X74657125Y-85166319D01*
X74657125Y-85166319D02*
X74514268Y-85213938D01*
X74514268Y-85213938D02*
X74419030Y-85309176D01*
X74419030Y-85309176D02*
X74371411Y-85404414D01*
X74371411Y-85404414D02*
X74323792Y-85594890D01*
X74323792Y-85594890D02*
X74323792Y-85737747D01*
X74323792Y-85737747D02*
X74371411Y-85928223D01*
X74371411Y-85928223D02*
X74419030Y-86023461D01*
X74419030Y-86023461D02*
X74514268Y-86118700D01*
X74514268Y-86118700D02*
X74657125Y-86166319D01*
X74657125Y-86166319D02*
X74895220Y-86166319D01*
X77895220Y-88388866D02*
X77133316Y-88388866D01*
X76133316Y-88769819D02*
X76704744Y-88769819D01*
X76419030Y-88769819D02*
X76419030Y-87769819D01*
X76419030Y-87769819D02*
X76514268Y-87912676D01*
X76514268Y-87912676D02*
X76609506Y-88007914D01*
X76609506Y-88007914D02*
X76704744Y-88055533D01*
X75752363Y-87865057D02*
X75704744Y-87817438D01*
X75704744Y-87817438D02*
X75609506Y-87769819D01*
X75609506Y-87769819D02*
X75371411Y-87769819D01*
X75371411Y-87769819D02*
X75276173Y-87817438D01*
X75276173Y-87817438D02*
X75228554Y-87865057D01*
X75228554Y-87865057D02*
X75180935Y-87960295D01*
X75180935Y-87960295D02*
X75180935Y-88055533D01*
X75180935Y-88055533D02*
X75228554Y-88198390D01*
X75228554Y-88198390D02*
X75799982Y-88769819D01*
X75799982Y-88769819D02*
X75180935Y-88769819D01*
X74895220Y-87769819D02*
X74561887Y-88769819D01*
X74561887Y-88769819D02*
X74228554Y-87769819D01*
X77895220Y-77974866D02*
X77133316Y-77974866D01*
X77514268Y-78355819D02*
X77514268Y-77593914D01*
X76133316Y-78355819D02*
X76704744Y-78355819D01*
X76419030Y-78355819D02*
X76419030Y-77355819D01*
X76419030Y-77355819D02*
X76514268Y-77498676D01*
X76514268Y-77498676D02*
X76609506Y-77593914D01*
X76609506Y-77593914D02*
X76704744Y-77641533D01*
X75752363Y-77451057D02*
X75704744Y-77403438D01*
X75704744Y-77403438D02*
X75609506Y-77355819D01*
X75609506Y-77355819D02*
X75371411Y-77355819D01*
X75371411Y-77355819D02*
X75276173Y-77403438D01*
X75276173Y-77403438D02*
X75228554Y-77451057D01*
X75228554Y-77451057D02*
X75180935Y-77546295D01*
X75180935Y-77546295D02*
X75180935Y-77641533D01*
X75180935Y-77641533D02*
X75228554Y-77784390D01*
X75228554Y-77784390D02*
X75799982Y-78355819D01*
X75799982Y-78355819D02*
X75180935Y-78355819D01*
X74895220Y-77355819D02*
X74561887Y-78355819D01*
X74561887Y-78355819D02*
X74228554Y-77355819D01*
X76419030Y-80006938D02*
X76514268Y-79959319D01*
X76514268Y-79959319D02*
X76657125Y-79959319D01*
X76657125Y-79959319D02*
X76799982Y-80006938D01*
X76799982Y-80006938D02*
X76895220Y-80102176D01*
X76895220Y-80102176D02*
X76942839Y-80197414D01*
X76942839Y-80197414D02*
X76990458Y-80387890D01*
X76990458Y-80387890D02*
X76990458Y-80530747D01*
X76990458Y-80530747D02*
X76942839Y-80721223D01*
X76942839Y-80721223D02*
X76895220Y-80816461D01*
X76895220Y-80816461D02*
X76799982Y-80911700D01*
X76799982Y-80911700D02*
X76657125Y-80959319D01*
X76657125Y-80959319D02*
X76561887Y-80959319D01*
X76561887Y-80959319D02*
X76419030Y-80911700D01*
X76419030Y-80911700D02*
X76371411Y-80864080D01*
X76371411Y-80864080D02*
X76371411Y-80530747D01*
X76371411Y-80530747D02*
X76561887Y-80530747D01*
X75942839Y-80959319D02*
X75942839Y-79959319D01*
X75942839Y-79959319D02*
X75371411Y-80959319D01*
X75371411Y-80959319D02*
X75371411Y-79959319D01*
X74895220Y-80959319D02*
X74895220Y-79959319D01*
X74895220Y-79959319D02*
X74657125Y-79959319D01*
X74657125Y-79959319D02*
X74514268Y-80006938D01*
X74514268Y-80006938D02*
X74419030Y-80102176D01*
X74419030Y-80102176D02*
X74371411Y-80197414D01*
X74371411Y-80197414D02*
X74323792Y-80387890D01*
X74323792Y-80387890D02*
X74323792Y-80530747D01*
X74323792Y-80530747D02*
X74371411Y-80721223D01*
X74371411Y-80721223D02*
X74419030Y-80816461D01*
X74419030Y-80816461D02*
X74514268Y-80911700D01*
X74514268Y-80911700D02*
X74657125Y-80959319D01*
X74657125Y-80959319D02*
X74895220Y-80959319D01*
X112153506Y-146697819D02*
X112153506Y-147412104D01*
X112153506Y-147412104D02*
X112201125Y-147554961D01*
X112201125Y-147554961D02*
X112296363Y-147650200D01*
X112296363Y-147650200D02*
X112439220Y-147697819D01*
X112439220Y-147697819D02*
X112534458Y-147697819D01*
X111201125Y-147697819D02*
X111677315Y-147697819D01*
X111677315Y-147697819D02*
X111677315Y-146697819D01*
X110296363Y-147602580D02*
X110343982Y-147650200D01*
X110343982Y-147650200D02*
X110486839Y-147697819D01*
X110486839Y-147697819D02*
X110582077Y-147697819D01*
X110582077Y-147697819D02*
X110724934Y-147650200D01*
X110724934Y-147650200D02*
X110820172Y-147554961D01*
X110820172Y-147554961D02*
X110867791Y-147459723D01*
X110867791Y-147459723D02*
X110915410Y-147269247D01*
X110915410Y-147269247D02*
X110915410Y-147126390D01*
X110915410Y-147126390D02*
X110867791Y-146935914D01*
X110867791Y-146935914D02*
X110820172Y-146840676D01*
X110820172Y-146840676D02*
X110724934Y-146745438D01*
X110724934Y-146745438D02*
X110582077Y-146697819D01*
X110582077Y-146697819D02*
X110486839Y-146697819D01*
X110486839Y-146697819D02*
X110343982Y-146745438D01*
X110343982Y-146745438D02*
X110296363Y-146793057D01*
X109582077Y-146697819D02*
X109582077Y-147412104D01*
X109582077Y-147412104D02*
X109629696Y-147554961D01*
X109629696Y-147554961D02*
X109724934Y-147650200D01*
X109724934Y-147650200D02*
X109867791Y-147697819D01*
X109867791Y-147697819D02*
X109963029Y-147697819D01*
X108629696Y-147697819D02*
X109105886Y-147697819D01*
X109105886Y-147697819D02*
X109105886Y-146697819D01*
X107724934Y-147602580D02*
X107772553Y-147650200D01*
X107772553Y-147650200D02*
X107915410Y-147697819D01*
X107915410Y-147697819D02*
X108010648Y-147697819D01*
X108010648Y-147697819D02*
X108153505Y-147650200D01*
X108153505Y-147650200D02*
X108248743Y-147554961D01*
X108248743Y-147554961D02*
X108296362Y-147459723D01*
X108296362Y-147459723D02*
X108343981Y-147269247D01*
X108343981Y-147269247D02*
X108343981Y-147126390D01*
X108343981Y-147126390D02*
X108296362Y-146935914D01*
X108296362Y-146935914D02*
X108248743Y-146840676D01*
X108248743Y-146840676D02*
X108153505Y-146745438D01*
X108153505Y-146745438D02*
X108010648Y-146697819D01*
X108010648Y-146697819D02*
X107915410Y-146697819D01*
X107915410Y-146697819D02*
X107772553Y-146745438D01*
X107772553Y-146745438D02*
X107724934Y-146793057D01*
X107010648Y-146697819D02*
X107010648Y-147412104D01*
X107010648Y-147412104D02*
X107058267Y-147554961D01*
X107058267Y-147554961D02*
X107153505Y-147650200D01*
X107153505Y-147650200D02*
X107296362Y-147697819D01*
X107296362Y-147697819D02*
X107391600Y-147697819D01*
X106058267Y-147697819D02*
X106534457Y-147697819D01*
X106534457Y-147697819D02*
X106534457Y-146697819D01*
X105153505Y-147602580D02*
X105201124Y-147650200D01*
X105201124Y-147650200D02*
X105343981Y-147697819D01*
X105343981Y-147697819D02*
X105439219Y-147697819D01*
X105439219Y-147697819D02*
X105582076Y-147650200D01*
X105582076Y-147650200D02*
X105677314Y-147554961D01*
X105677314Y-147554961D02*
X105724933Y-147459723D01*
X105724933Y-147459723D02*
X105772552Y-147269247D01*
X105772552Y-147269247D02*
X105772552Y-147126390D01*
X105772552Y-147126390D02*
X105724933Y-146935914D01*
X105724933Y-146935914D02*
X105677314Y-146840676D01*
X105677314Y-146840676D02*
X105582076Y-146745438D01*
X105582076Y-146745438D02*
X105439219Y-146697819D01*
X105439219Y-146697819D02*
X105343981Y-146697819D01*
X105343981Y-146697819D02*
X105201124Y-146745438D01*
X105201124Y-146745438D02*
X105153505Y-146793057D01*
X104439219Y-146697819D02*
X104439219Y-147412104D01*
X104439219Y-147412104D02*
X104486838Y-147554961D01*
X104486838Y-147554961D02*
X104582076Y-147650200D01*
X104582076Y-147650200D02*
X104724933Y-147697819D01*
X104724933Y-147697819D02*
X104820171Y-147697819D01*
X103486838Y-147697819D02*
X103963028Y-147697819D01*
X103963028Y-147697819D02*
X103963028Y-146697819D01*
X102582076Y-147602580D02*
X102629695Y-147650200D01*
X102629695Y-147650200D02*
X102772552Y-147697819D01*
X102772552Y-147697819D02*
X102867790Y-147697819D01*
X102867790Y-147697819D02*
X103010647Y-147650200D01*
X103010647Y-147650200D02*
X103105885Y-147554961D01*
X103105885Y-147554961D02*
X103153504Y-147459723D01*
X103153504Y-147459723D02*
X103201123Y-147269247D01*
X103201123Y-147269247D02*
X103201123Y-147126390D01*
X103201123Y-147126390D02*
X103153504Y-146935914D01*
X103153504Y-146935914D02*
X103105885Y-146840676D01*
X103105885Y-146840676D02*
X103010647Y-146745438D01*
X103010647Y-146745438D02*
X102867790Y-146697819D01*
X102867790Y-146697819D02*
X102772552Y-146697819D01*
X102772552Y-146697819D02*
X102629695Y-146745438D01*
X102629695Y-146745438D02*
X102582076Y-146793057D01*
X76419030Y-82610438D02*
X76514268Y-82562819D01*
X76514268Y-82562819D02*
X76657125Y-82562819D01*
X76657125Y-82562819D02*
X76799982Y-82610438D01*
X76799982Y-82610438D02*
X76895220Y-82705676D01*
X76895220Y-82705676D02*
X76942839Y-82800914D01*
X76942839Y-82800914D02*
X76990458Y-82991390D01*
X76990458Y-82991390D02*
X76990458Y-83134247D01*
X76990458Y-83134247D02*
X76942839Y-83324723D01*
X76942839Y-83324723D02*
X76895220Y-83419961D01*
X76895220Y-83419961D02*
X76799982Y-83515200D01*
X76799982Y-83515200D02*
X76657125Y-83562819D01*
X76657125Y-83562819D02*
X76561887Y-83562819D01*
X76561887Y-83562819D02*
X76419030Y-83515200D01*
X76419030Y-83515200D02*
X76371411Y-83467580D01*
X76371411Y-83467580D02*
X76371411Y-83134247D01*
X76371411Y-83134247D02*
X76561887Y-83134247D01*
X75942839Y-83562819D02*
X75942839Y-82562819D01*
X75942839Y-82562819D02*
X75371411Y-83562819D01*
X75371411Y-83562819D02*
X75371411Y-82562819D01*
X74895220Y-83562819D02*
X74895220Y-82562819D01*
X74895220Y-82562819D02*
X74657125Y-82562819D01*
X74657125Y-82562819D02*
X74514268Y-82610438D01*
X74514268Y-82610438D02*
X74419030Y-82705676D01*
X74419030Y-82705676D02*
X74371411Y-82800914D01*
X74371411Y-82800914D02*
X74323792Y-82991390D01*
X74323792Y-82991390D02*
X74323792Y-83134247D01*
X74323792Y-83134247D02*
X74371411Y-83324723D01*
X74371411Y-83324723D02*
X74419030Y-83419961D01*
X74419030Y-83419961D02*
X74514268Y-83515200D01*
X74514268Y-83515200D02*
X74657125Y-83562819D01*
X74657125Y-83562819D02*
X74895220Y-83562819D01*
X80210819Y-102538761D02*
X79734628Y-102205428D01*
X80210819Y-101967333D02*
X79210819Y-101967333D01*
X79210819Y-101967333D02*
X79210819Y-102348285D01*
X79210819Y-102348285D02*
X79258438Y-102443523D01*
X79258438Y-102443523D02*
X79306057Y-102491142D01*
X79306057Y-102491142D02*
X79401295Y-102538761D01*
X79401295Y-102538761D02*
X79544152Y-102538761D01*
X79544152Y-102538761D02*
X79639390Y-102491142D01*
X79639390Y-102491142D02*
X79687009Y-102443523D01*
X79687009Y-102443523D02*
X79734628Y-102348285D01*
X79734628Y-102348285D02*
X79734628Y-101967333D01*
X79210819Y-102824476D02*
X80210819Y-103157809D01*
X80210819Y-103157809D02*
X79210819Y-103491142D01*
X79210819Y-104300666D02*
X79210819Y-103824476D01*
X79210819Y-103824476D02*
X79687009Y-103776857D01*
X79687009Y-103776857D02*
X79639390Y-103824476D01*
X79639390Y-103824476D02*
X79591771Y-103919714D01*
X79591771Y-103919714D02*
X79591771Y-104157809D01*
X79591771Y-104157809D02*
X79639390Y-104253047D01*
X79639390Y-104253047D02*
X79687009Y-104300666D01*
X79687009Y-104300666D02*
X79782247Y-104348285D01*
X79782247Y-104348285D02*
X80020342Y-104348285D01*
X80020342Y-104348285D02*
X80115580Y-104300666D01*
X80115580Y-104300666D02*
X80163200Y-104253047D01*
X80163200Y-104253047D02*
X80210819Y-104157809D01*
X80210819Y-104157809D02*
X80210819Y-103919714D01*
X80210819Y-103919714D02*
X80163200Y-103824476D01*
X80163200Y-103824476D02*
X80115580Y-103776857D01*
D11*
X107950095Y-92744580D02*
X107950095Y-91935057D01*
X107950095Y-91935057D02*
X107997714Y-91839819D01*
X107997714Y-91839819D02*
X108045333Y-91792200D01*
X108045333Y-91792200D02*
X108140571Y-91744580D01*
X108140571Y-91744580D02*
X108331047Y-91744580D01*
X108331047Y-91744580D02*
X108426285Y-91792200D01*
X108426285Y-91792200D02*
X108473904Y-91839819D01*
X108473904Y-91839819D02*
X108521523Y-91935057D01*
X108521523Y-91935057D02*
X108521523Y-92744580D01*
X109521523Y-91744580D02*
X108950095Y-91744580D01*
X109235809Y-91744580D02*
X109235809Y-92744580D01*
X109235809Y-92744580D02*
X109140571Y-92601723D01*
X109140571Y-92601723D02*
X109045333Y-92506485D01*
X109045333Y-92506485D02*
X108950095Y-92458866D01*
D10*
X83553333Y-71354819D02*
X83553333Y-72069104D01*
X83553333Y-72069104D02*
X83600952Y-72211961D01*
X83600952Y-72211961D02*
X83696190Y-72307200D01*
X83696190Y-72307200D02*
X83839047Y-72354819D01*
X83839047Y-72354819D02*
X83934285Y-72354819D01*
X82648571Y-71354819D02*
X82839047Y-71354819D01*
X82839047Y-71354819D02*
X82934285Y-71402438D01*
X82934285Y-71402438D02*
X82981904Y-71450057D01*
X82981904Y-71450057D02*
X83077142Y-71592914D01*
X83077142Y-71592914D02*
X83124761Y-71783390D01*
X83124761Y-71783390D02*
X83124761Y-72164342D01*
X83124761Y-72164342D02*
X83077142Y-72259580D01*
X83077142Y-72259580D02*
X83029523Y-72307200D01*
X83029523Y-72307200D02*
X82934285Y-72354819D01*
X82934285Y-72354819D02*
X82743809Y-72354819D01*
X82743809Y-72354819D02*
X82648571Y-72307200D01*
X82648571Y-72307200D02*
X82600952Y-72259580D01*
X82600952Y-72259580D02*
X82553333Y-72164342D01*
X82553333Y-72164342D02*
X82553333Y-71926247D01*
X82553333Y-71926247D02*
X82600952Y-71831009D01*
X82600952Y-71831009D02*
X82648571Y-71783390D01*
X82648571Y-71783390D02*
X82743809Y-71735771D01*
X82743809Y-71735771D02*
X82934285Y-71735771D01*
X82934285Y-71735771D02*
X83029523Y-71783390D01*
X83029523Y-71783390D02*
X83077142Y-71831009D01*
X83077142Y-71831009D02*
X83124761Y-71926247D01*
X120855819Y-102274761D02*
X120379628Y-101941428D01*
X120855819Y-101703333D02*
X119855819Y-101703333D01*
X119855819Y-101703333D02*
X119855819Y-102084285D01*
X119855819Y-102084285D02*
X119903438Y-102179523D01*
X119903438Y-102179523D02*
X119951057Y-102227142D01*
X119951057Y-102227142D02*
X120046295Y-102274761D01*
X120046295Y-102274761D02*
X120189152Y-102274761D01*
X120189152Y-102274761D02*
X120284390Y-102227142D01*
X120284390Y-102227142D02*
X120332009Y-102179523D01*
X120332009Y-102179523D02*
X120379628Y-102084285D01*
X120379628Y-102084285D02*
X120379628Y-101703333D01*
X119855819Y-102560476D02*
X120855819Y-102893809D01*
X120855819Y-102893809D02*
X119855819Y-103227142D01*
X119855819Y-103989047D02*
X119855819Y-103798571D01*
X119855819Y-103798571D02*
X119903438Y-103703333D01*
X119903438Y-103703333D02*
X119951057Y-103655714D01*
X119951057Y-103655714D02*
X120093914Y-103560476D01*
X120093914Y-103560476D02*
X120284390Y-103512857D01*
X120284390Y-103512857D02*
X120665342Y-103512857D01*
X120665342Y-103512857D02*
X120760580Y-103560476D01*
X120760580Y-103560476D02*
X120808200Y-103608095D01*
X120808200Y-103608095D02*
X120855819Y-103703333D01*
X120855819Y-103703333D02*
X120855819Y-103893809D01*
X120855819Y-103893809D02*
X120808200Y-103989047D01*
X120808200Y-103989047D02*
X120760580Y-104036666D01*
X120760580Y-104036666D02*
X120665342Y-104084285D01*
X120665342Y-104084285D02*
X120427247Y-104084285D01*
X120427247Y-104084285D02*
X120332009Y-104036666D01*
X120332009Y-104036666D02*
X120284390Y-103989047D01*
X120284390Y-103989047D02*
X120236771Y-103893809D01*
X120236771Y-103893809D02*
X120236771Y-103703333D01*
X120236771Y-103703333D02*
X120284390Y-103608095D01*
X120284390Y-103608095D02*
X120332009Y-103560476D01*
X120332009Y-103560476D02*
X120427247Y-103512857D01*
D12*
X80772000Y-108009000D02*
X80772000Y-98239000D01*
X85842000Y-108009000D02*
X80772000Y-108009000D01*
X85842000Y-108009000D02*
X85842000Y-98239000D01*
X85842000Y-98239000D02*
X80772000Y-98239000D01*
D11*
X99822000Y-93726000D02*
X117094000Y-93726000D01*
X117094000Y-93726000D02*
X117094000Y-60706000D01*
X117094000Y-60706000D02*
X99822000Y-60706000D01*
X99822000Y-60706000D02*
X99822000Y-93726000D01*
D12*
X89170000Y-78500000D02*
X88170000Y-78000000D01*
X89170000Y-77500000D02*
X89170000Y-78500000D01*
X88170000Y-78000000D02*
X89170000Y-77500000D01*
X87780000Y-93370000D02*
X87780000Y-72790000D01*
X87780000Y-81030000D02*
X86470000Y-81030000D01*
X87780000Y-72790000D02*
X78660000Y-72790000D01*
X86470000Y-92070000D02*
X86470000Y-85130000D01*
X86470000Y-85130000D02*
X87780000Y-85130000D01*
X86470000Y-85130000D02*
X86470000Y-85130000D01*
X86470000Y-81030000D02*
X86470000Y-74090000D01*
X86470000Y-74090000D02*
X79970000Y-74090000D01*
X79970000Y-92070000D02*
X86470000Y-92070000D01*
X79970000Y-74090000D02*
X79970000Y-92070000D01*
X78660000Y-93370000D02*
X87780000Y-93370000D01*
X78660000Y-72790000D02*
X78660000Y-93370000D01*
X119380000Y-97985000D02*
X119380000Y-107755000D01*
X114310000Y-97985000D02*
X119380000Y-97985000D01*
X114310000Y-97985000D02*
X114310000Y-107755000D01*
X114310000Y-107755000D02*
X119380000Y-107755000D01*
%LPC*%
D13*
X116780000Y-49500000D03*
D14*
X126920000Y-59500000D03*
D15*
X123420000Y-59500000D03*
X126920000Y-118000000D03*
D16*
X120970000Y-63650000D03*
X129370000Y-64850000D03*
X129370000Y-112650000D03*
X120970000Y-113850000D03*
D17*
X125170000Y-134480000D03*
D18*
X125170000Y-123080000D03*
X125170000Y-131380000D03*
D14*
X76580000Y-59500000D03*
D15*
X73080000Y-59500000D03*
X76580000Y-118000000D03*
D16*
X70630000Y-63650000D03*
X79030000Y-64850000D03*
X79030000Y-112650000D03*
X70630000Y-113850000D03*
D19*
X81950000Y-120000000D03*
D20*
X84490000Y-120000000D03*
D13*
X83220000Y-49500000D03*
D19*
X118010000Y-120000000D03*
D20*
X115470000Y-120000000D03*
D17*
X91610000Y-150480000D03*
D18*
X91610000Y-139080000D03*
X91610000Y-147380000D03*
D17*
X125170000Y-150480000D03*
D18*
X125170000Y-139080000D03*
X125170000Y-147380000D03*
D14*
X93360000Y-59500000D03*
D15*
X89860000Y-59500000D03*
X93360000Y-118000000D03*
D16*
X87410000Y-63650000D03*
X95810000Y-64850000D03*
X95810000Y-112650000D03*
X87410000Y-113850000D03*
D14*
X110140000Y-59500000D03*
D15*
X106640000Y-59500000D03*
X110140000Y-118000000D03*
D16*
X104190000Y-63650000D03*
X112590000Y-64850000D03*
X112590000Y-112650000D03*
X104190000Y-113850000D03*
D17*
X108390000Y-134480000D03*
D18*
X108390000Y-123080000D03*
X108390000Y-131380000D03*
D17*
X74830000Y-134480000D03*
D18*
X74830000Y-123080000D03*
X74830000Y-131380000D03*
D17*
X91610000Y-134480000D03*
D18*
X91610000Y-123080000D03*
X91610000Y-131380000D03*
D21*
X84582000Y-100584000D03*
X82042000Y-103124000D03*
X84582000Y-105664000D03*
D22*
X100838000Y-92710000D03*
D23*
X100838000Y-90170000D03*
X100838000Y-87630000D03*
X100838000Y-85090000D03*
X100838000Y-82550000D03*
X100838000Y-80010000D03*
X100838000Y-77470000D03*
X100838000Y-74930000D03*
X116078000Y-74930000D03*
X116078000Y-77470000D03*
X116078000Y-80010000D03*
X116078000Y-82550000D03*
X116078000Y-85090000D03*
X116078000Y-87630000D03*
X116078000Y-90170000D03*
X116078000Y-92710000D03*
D24*
X84490000Y-78000000D03*
D23*
X81950000Y-78000000D03*
X84490000Y-80540000D03*
X81950000Y-80540000D03*
X84490000Y-83080000D03*
X81950000Y-83080000D03*
X84490000Y-85620000D03*
X81950000Y-85620000D03*
X84490000Y-88160000D03*
X81950000Y-88160000D03*
D21*
X115570000Y-105410000D03*
X118110000Y-102870000D03*
X115570000Y-100330000D03*
%LPD*%
M02*
