M48
; DRILL file {KiCad 7.0.7} date Sat Nov  1 14:17:40 2025
; FORMAT={-:-/ absolute / metric / decimal}
; #@! TF.CreationDate,2025-11-01T14:17:40+08:00
; #@! TF.GenerationSoftware,Kicad,Pcbnew,7.0.7
; #@! TF.FileFunction,Plated,1,2,PTH
FMAT,2
METRIC
; #@! TA.AperFunction,Plated,PTH,ViaDrill
T1C0.400
; #@! TA.AperFunction,Plated,PTH,ComponentDrill
T2C0.600
; #@! TA.AperFunction,Plated,PTH,ComponentDrill
T3C0.800
; #@! TA.AperFunction,Plated,PTH,ComponentDrill
T4C0.900
; #@! TA.AperFunction,Plated,PTH,ComponentDrill
T5C1.000
; #@! TA.AperFunction,Plated,PTH,ComponentDrill
T6C1.200
; #@! TA.AperFunction,Plated,PTH,ComponentDrill
T7C1.700
%
G90
G05
T1
X68.94Y-48.5
X68.94Y-59.944
X68.94Y-71.389
X68.94Y-82.833
X68.94Y-94.278
X68.94Y-105.722
X68.94Y-117.167
X68.94Y-140.056
X68.94Y-151.5
X74.041Y-68.199
X75.438Y-54.102
X77.216Y-143.51
X77.47Y-107.95
X80.01Y-127.635
X80.772Y-95.504
X81.364Y-151.5
X83.439Y-65.913
X90.551Y-108.966
X92.583Y-99.949
X93.599Y-68.453
X93.788Y-48.5
X97.028Y-136.398
X97.536Y-120.142
X98.171Y-96.52
X100.33Y-142.24
X100.838Y-136.398
X101.092Y-120.142
X104.14Y-70.104
X104.14Y-73.66
X105.156Y-101.6
X106.212Y-48.5
X106.212Y-151.5
X106.68Y-70.104
X106.68Y-73.66
X106.68Y-90.043
X110.236Y-75.819
X112.268Y-90.932
X112.268Y-94.234
X113.792Y-144.272
X116.586Y-127.762
X118.636Y-151.5
X122.428Y-94.996
X122.682Y-105.283
X123.063Y-54.483
X124.206Y-85.09
X129.032Y-80.01
X131.06Y-48.5
X131.06Y-59.944
X131.06Y-71.389
X131.06Y-82.833
X131.06Y-94.278
X131.06Y-105.722
X131.06Y-140.056
X131.06Y-151.5
T3
X82.042Y-103.124
X84.582Y-100.584
X84.582Y-105.664
X115.57Y-100.33
X115.57Y-105.41
X118.11Y-102.87
T4
X81.95Y-120.0
X84.49Y-120.0
X115.47Y-120.0
X118.01Y-120.0
T5
X81.95Y-78.0
X81.95Y-80.54
X81.95Y-83.08
X81.95Y-85.62
X81.95Y-88.16
X84.49Y-78.0
X84.49Y-80.54
X84.49Y-83.08
X84.49Y-85.62
X84.49Y-88.16
X100.838Y-74.93
X100.838Y-77.47
X100.838Y-80.01
X100.838Y-82.55
X100.838Y-85.09
X100.838Y-87.63
X100.838Y-90.17
X100.838Y-92.71
X116.078Y-74.93
X116.078Y-77.47
X116.078Y-80.01
X116.078Y-82.55
X116.078Y-85.09
X116.078Y-87.63
X116.078Y-90.17
X116.078Y-92.71
T6
X73.08Y-59.5
X76.58Y-59.5
X76.58Y-118.0
X89.86Y-59.5
X93.36Y-59.5
X93.36Y-118.0
X106.64Y-59.5
X110.14Y-59.5
X110.14Y-118.0
X123.42Y-59.5
X126.92Y-59.5
X126.92Y-118.0
T7
X70.63Y-63.65
X70.63Y-113.85
X79.03Y-64.85
X79.03Y-112.65
X87.41Y-63.65
X87.41Y-113.85
X95.81Y-64.85
X95.81Y-112.65
X104.19Y-63.65
X104.19Y-113.85
X112.59Y-64.85
X112.59Y-112.65
X120.97Y-63.65
X120.97Y-113.85
X129.37Y-64.85
X129.37Y-112.65
T2
X74.33Y-123.08G85X75.33Y-123.08
G05
X74.33Y-131.38G85X75.33Y-131.38
G05
X74.33Y-134.48G85X75.33Y-134.48
G05
X91.11Y-123.08G85X92.11Y-123.08
G05
X91.11Y-131.38G85X92.11Y-131.38
G05
X91.11Y-134.48G85X92.11Y-134.48
G05
X91.11Y-139.08G85X92.11Y-139.08
G05
X91.11Y-147.38G85X92.11Y-147.38
G05
X91.11Y-150.48G85X92.11Y-150.48
G05
X107.89Y-123.08G85X108.89Y-123.08
G05
X107.89Y-131.38G85X108.89Y-131.38
G05
X107.89Y-134.48G85X108.89Y-134.48
G05
X124.67Y-123.08G85X125.67Y-123.08
G05
X124.67Y-131.38G85X125.67Y-131.38
G05
X124.67Y-134.48G85X125.67Y-134.48
G05
X124.67Y-139.08G85X125.67Y-139.08
G05
X124.67Y-147.38G85X125.67Y-147.38
G05
X124.67Y-150.48G85X125.67Y-150.48
G05
T0
M30
