G04 #@! TF.GenerationSoftware,KiCad,Pcbnew,7.0.7*
G04 #@! TF.CreationDate,2025-10-31T21:12:30+08:00*
G04 #@! TF.ProjectId,3340_VCO,33333430-5f56-4434-9f2e-6b696361645f,rev?*
G04 #@! TF.SameCoordinates,Original*
G04 #@! TF.FileFunction,Legend,Bot*
G04 #@! TF.FilePolarity,Positive*
%FSLAX46Y46*%
G04 Gerber Fmt 4.6, Leading zero omitted, Abs format (unit mm)*
G04 Created by KiCad (PCBNEW 7.0.7) date 2025-10-31 21:12:30*
%MOMM*%
%LPD*%
G01*
G04 APERTURE LIST*
G04 Aperture macros list*
%AMRoundRect*
0 Rectangle with rounded corners*
0 $1 Rounding radius*
0 $2 $3 $4 $5 $6 $7 $8 $9 X,Y pos of 4 corners*
0 Add a 4 corners polygon primitive as box body*
4,1,4,$2,$3,$4,$5,$6,$7,$8,$9,$2,$3,0*
0 Add four circle primitives for the rounded corners*
1,1,$1+$1,$2,$3*
1,1,$1+$1,$4,$5*
1,1,$1+$1,$6,$7*
1,1,$1+$1,$8,$9*
0 Add four rect primitives between the rounded corners*
20,1,$1+$1,$2,$3,$4,$5,0*
20,1,$1+$1,$4,$5,$6,$7,0*
20,1,$1+$1,$6,$7,$8,$9,0*
20,1,$1+$1,$8,$9,$2,$3,0*%
G04 Aperture macros list end*
%ADD10C,0.150000*%
%ADD11C,0.100000*%
%ADD12C,0.120000*%
%ADD13O,3.100000X2.300000*%
%ADD14RoundRect,0.650000X-0.650000X-0.650000X0.650000X-0.650000X0.650000X0.650000X-0.650000X0.650000X0*%
%ADD15C,2.600000*%
%ADD16R,1.750000X1.750000*%
%ADD17C,1.750000*%
%ADD18C,2.700000*%
%ADD19C,1.440000*%
%ADD20R,1.700000X1.700000*%
%ADD21C,1.700000*%
%ADD22RoundRect,0.250000X0.600000X0.600000X-0.600000X0.600000X-0.600000X-0.600000X0.600000X-0.600000X0*%
G04 APERTURE END LIST*
D10*
X76673030Y-80006938D02*
X76768268Y-79959319D01*
X76768268Y-79959319D02*
X76911125Y-79959319D01*
X76911125Y-79959319D02*
X77053982Y-80006938D01*
X77053982Y-80006938D02*
X77149220Y-80102176D01*
X77149220Y-80102176D02*
X77196839Y-80197414D01*
X77196839Y-80197414D02*
X77244458Y-80387890D01*
X77244458Y-80387890D02*
X77244458Y-80530747D01*
X77244458Y-80530747D02*
X77196839Y-80721223D01*
X77196839Y-80721223D02*
X77149220Y-80816461D01*
X77149220Y-80816461D02*
X77053982Y-80911700D01*
X77053982Y-80911700D02*
X76911125Y-80959319D01*
X76911125Y-80959319D02*
X76815887Y-80959319D01*
X76815887Y-80959319D02*
X76673030Y-80911700D01*
X76673030Y-80911700D02*
X76625411Y-80864080D01*
X76625411Y-80864080D02*
X76625411Y-80530747D01*
X76625411Y-80530747D02*
X76815887Y-80530747D01*
X76196839Y-80959319D02*
X76196839Y-79959319D01*
X76196839Y-79959319D02*
X75625411Y-80959319D01*
X75625411Y-80959319D02*
X75625411Y-79959319D01*
X75149220Y-80959319D02*
X75149220Y-79959319D01*
X75149220Y-79959319D02*
X74911125Y-79959319D01*
X74911125Y-79959319D02*
X74768268Y-80006938D01*
X74768268Y-80006938D02*
X74673030Y-80102176D01*
X74673030Y-80102176D02*
X74625411Y-80197414D01*
X74625411Y-80197414D02*
X74577792Y-80387890D01*
X74577792Y-80387890D02*
X74577792Y-80530747D01*
X74577792Y-80530747D02*
X74625411Y-80721223D01*
X74625411Y-80721223D02*
X74673030Y-80816461D01*
X74673030Y-80816461D02*
X74768268Y-80911700D01*
X74768268Y-80911700D02*
X74911125Y-80959319D01*
X74911125Y-80959319D02*
X75149220Y-80959319D01*
X78149220Y-88388866D02*
X77387316Y-88388866D01*
X76387316Y-88769819D02*
X76958744Y-88769819D01*
X76673030Y-88769819D02*
X76673030Y-87769819D01*
X76673030Y-87769819D02*
X76768268Y-87912676D01*
X76768268Y-87912676D02*
X76863506Y-88007914D01*
X76863506Y-88007914D02*
X76958744Y-88055533D01*
X76006363Y-87865057D02*
X75958744Y-87817438D01*
X75958744Y-87817438D02*
X75863506Y-87769819D01*
X75863506Y-87769819D02*
X75625411Y-87769819D01*
X75625411Y-87769819D02*
X75530173Y-87817438D01*
X75530173Y-87817438D02*
X75482554Y-87865057D01*
X75482554Y-87865057D02*
X75434935Y-87960295D01*
X75434935Y-87960295D02*
X75434935Y-88055533D01*
X75434935Y-88055533D02*
X75482554Y-88198390D01*
X75482554Y-88198390D02*
X76053982Y-88769819D01*
X76053982Y-88769819D02*
X75434935Y-88769819D01*
X75149220Y-87769819D02*
X74815887Y-88769819D01*
X74815887Y-88769819D02*
X74482554Y-87769819D01*
X78149220Y-77974866D02*
X77387316Y-77974866D01*
X77768268Y-78355819D02*
X77768268Y-77593914D01*
X76387316Y-78355819D02*
X76958744Y-78355819D01*
X76673030Y-78355819D02*
X76673030Y-77355819D01*
X76673030Y-77355819D02*
X76768268Y-77498676D01*
X76768268Y-77498676D02*
X76863506Y-77593914D01*
X76863506Y-77593914D02*
X76958744Y-77641533D01*
X76006363Y-77451057D02*
X75958744Y-77403438D01*
X75958744Y-77403438D02*
X75863506Y-77355819D01*
X75863506Y-77355819D02*
X75625411Y-77355819D01*
X75625411Y-77355819D02*
X75530173Y-77403438D01*
X75530173Y-77403438D02*
X75482554Y-77451057D01*
X75482554Y-77451057D02*
X75434935Y-77546295D01*
X75434935Y-77546295D02*
X75434935Y-77641533D01*
X75434935Y-77641533D02*
X75482554Y-77784390D01*
X75482554Y-77784390D02*
X76053982Y-78355819D01*
X76053982Y-78355819D02*
X75434935Y-78355819D01*
X75149220Y-77355819D02*
X74815887Y-78355819D01*
X74815887Y-78355819D02*
X74482554Y-77355819D01*
X76673030Y-85213938D02*
X76768268Y-85166319D01*
X76768268Y-85166319D02*
X76911125Y-85166319D01*
X76911125Y-85166319D02*
X77053982Y-85213938D01*
X77053982Y-85213938D02*
X77149220Y-85309176D01*
X77149220Y-85309176D02*
X77196839Y-85404414D01*
X77196839Y-85404414D02*
X77244458Y-85594890D01*
X77244458Y-85594890D02*
X77244458Y-85737747D01*
X77244458Y-85737747D02*
X77196839Y-85928223D01*
X77196839Y-85928223D02*
X77149220Y-86023461D01*
X77149220Y-86023461D02*
X77053982Y-86118700D01*
X77053982Y-86118700D02*
X76911125Y-86166319D01*
X76911125Y-86166319D02*
X76815887Y-86166319D01*
X76815887Y-86166319D02*
X76673030Y-86118700D01*
X76673030Y-86118700D02*
X76625411Y-86071080D01*
X76625411Y-86071080D02*
X76625411Y-85737747D01*
X76625411Y-85737747D02*
X76815887Y-85737747D01*
X76196839Y-86166319D02*
X76196839Y-85166319D01*
X76196839Y-85166319D02*
X75625411Y-86166319D01*
X75625411Y-86166319D02*
X75625411Y-85166319D01*
X75149220Y-86166319D02*
X75149220Y-85166319D01*
X75149220Y-85166319D02*
X74911125Y-85166319D01*
X74911125Y-85166319D02*
X74768268Y-85213938D01*
X74768268Y-85213938D02*
X74673030Y-85309176D01*
X74673030Y-85309176D02*
X74625411Y-85404414D01*
X74625411Y-85404414D02*
X74577792Y-85594890D01*
X74577792Y-85594890D02*
X74577792Y-85737747D01*
X74577792Y-85737747D02*
X74625411Y-85928223D01*
X74625411Y-85928223D02*
X74673030Y-86023461D01*
X74673030Y-86023461D02*
X74768268Y-86118700D01*
X74768268Y-86118700D02*
X74911125Y-86166319D01*
X74911125Y-86166319D02*
X75149220Y-86166319D01*
X104533506Y-113677819D02*
X104533506Y-114392104D01*
X104533506Y-114392104D02*
X104581125Y-114534961D01*
X104581125Y-114534961D02*
X104676363Y-114630200D01*
X104676363Y-114630200D02*
X104819220Y-114677819D01*
X104819220Y-114677819D02*
X104914458Y-114677819D01*
X103581125Y-114677819D02*
X104057315Y-114677819D01*
X104057315Y-114677819D02*
X104057315Y-113677819D01*
X102676363Y-114582580D02*
X102723982Y-114630200D01*
X102723982Y-114630200D02*
X102866839Y-114677819D01*
X102866839Y-114677819D02*
X102962077Y-114677819D01*
X102962077Y-114677819D02*
X103104934Y-114630200D01*
X103104934Y-114630200D02*
X103200172Y-114534961D01*
X103200172Y-114534961D02*
X103247791Y-114439723D01*
X103247791Y-114439723D02*
X103295410Y-114249247D01*
X103295410Y-114249247D02*
X103295410Y-114106390D01*
X103295410Y-114106390D02*
X103247791Y-113915914D01*
X103247791Y-113915914D02*
X103200172Y-113820676D01*
X103200172Y-113820676D02*
X103104934Y-113725438D01*
X103104934Y-113725438D02*
X102962077Y-113677819D01*
X102962077Y-113677819D02*
X102866839Y-113677819D01*
X102866839Y-113677819D02*
X102723982Y-113725438D01*
X102723982Y-113725438D02*
X102676363Y-113773057D01*
X101962077Y-113677819D02*
X101962077Y-114392104D01*
X101962077Y-114392104D02*
X102009696Y-114534961D01*
X102009696Y-114534961D02*
X102104934Y-114630200D01*
X102104934Y-114630200D02*
X102247791Y-114677819D01*
X102247791Y-114677819D02*
X102343029Y-114677819D01*
X101009696Y-114677819D02*
X101485886Y-114677819D01*
X101485886Y-114677819D02*
X101485886Y-113677819D01*
X100104934Y-114582580D02*
X100152553Y-114630200D01*
X100152553Y-114630200D02*
X100295410Y-114677819D01*
X100295410Y-114677819D02*
X100390648Y-114677819D01*
X100390648Y-114677819D02*
X100533505Y-114630200D01*
X100533505Y-114630200D02*
X100628743Y-114534961D01*
X100628743Y-114534961D02*
X100676362Y-114439723D01*
X100676362Y-114439723D02*
X100723981Y-114249247D01*
X100723981Y-114249247D02*
X100723981Y-114106390D01*
X100723981Y-114106390D02*
X100676362Y-113915914D01*
X100676362Y-113915914D02*
X100628743Y-113820676D01*
X100628743Y-113820676D02*
X100533505Y-113725438D01*
X100533505Y-113725438D02*
X100390648Y-113677819D01*
X100390648Y-113677819D02*
X100295410Y-113677819D01*
X100295410Y-113677819D02*
X100152553Y-113725438D01*
X100152553Y-113725438D02*
X100104934Y-113773057D01*
X99390648Y-113677819D02*
X99390648Y-114392104D01*
X99390648Y-114392104D02*
X99438267Y-114534961D01*
X99438267Y-114534961D02*
X99533505Y-114630200D01*
X99533505Y-114630200D02*
X99676362Y-114677819D01*
X99676362Y-114677819D02*
X99771600Y-114677819D01*
X98438267Y-114677819D02*
X98914457Y-114677819D01*
X98914457Y-114677819D02*
X98914457Y-113677819D01*
X97533505Y-114582580D02*
X97581124Y-114630200D01*
X97581124Y-114630200D02*
X97723981Y-114677819D01*
X97723981Y-114677819D02*
X97819219Y-114677819D01*
X97819219Y-114677819D02*
X97962076Y-114630200D01*
X97962076Y-114630200D02*
X98057314Y-114534961D01*
X98057314Y-114534961D02*
X98104933Y-114439723D01*
X98104933Y-114439723D02*
X98152552Y-114249247D01*
X98152552Y-114249247D02*
X98152552Y-114106390D01*
X98152552Y-114106390D02*
X98104933Y-113915914D01*
X98104933Y-113915914D02*
X98057314Y-113820676D01*
X98057314Y-113820676D02*
X97962076Y-113725438D01*
X97962076Y-113725438D02*
X97819219Y-113677819D01*
X97819219Y-113677819D02*
X97723981Y-113677819D01*
X97723981Y-113677819D02*
X97581124Y-113725438D01*
X97581124Y-113725438D02*
X97533505Y-113773057D01*
X96819219Y-113677819D02*
X96819219Y-114392104D01*
X96819219Y-114392104D02*
X96866838Y-114534961D01*
X96866838Y-114534961D02*
X96962076Y-114630200D01*
X96962076Y-114630200D02*
X97104933Y-114677819D01*
X97104933Y-114677819D02*
X97200171Y-114677819D01*
X95866838Y-114677819D02*
X96343028Y-114677819D01*
X96343028Y-114677819D02*
X96343028Y-113677819D01*
X94962076Y-114582580D02*
X95009695Y-114630200D01*
X95009695Y-114630200D02*
X95152552Y-114677819D01*
X95152552Y-114677819D02*
X95247790Y-114677819D01*
X95247790Y-114677819D02*
X95390647Y-114630200D01*
X95390647Y-114630200D02*
X95485885Y-114534961D01*
X95485885Y-114534961D02*
X95533504Y-114439723D01*
X95533504Y-114439723D02*
X95581123Y-114249247D01*
X95581123Y-114249247D02*
X95581123Y-114106390D01*
X95581123Y-114106390D02*
X95533504Y-113915914D01*
X95533504Y-113915914D02*
X95485885Y-113820676D01*
X95485885Y-113820676D02*
X95390647Y-113725438D01*
X95390647Y-113725438D02*
X95247790Y-113677819D01*
X95247790Y-113677819D02*
X95152552Y-113677819D01*
X95152552Y-113677819D02*
X95009695Y-113725438D01*
X95009695Y-113725438D02*
X94962076Y-113773057D01*
X76673030Y-82610438D02*
X76768268Y-82562819D01*
X76768268Y-82562819D02*
X76911125Y-82562819D01*
X76911125Y-82562819D02*
X77053982Y-82610438D01*
X77053982Y-82610438D02*
X77149220Y-82705676D01*
X77149220Y-82705676D02*
X77196839Y-82800914D01*
X77196839Y-82800914D02*
X77244458Y-82991390D01*
X77244458Y-82991390D02*
X77244458Y-83134247D01*
X77244458Y-83134247D02*
X77196839Y-83324723D01*
X77196839Y-83324723D02*
X77149220Y-83419961D01*
X77149220Y-83419961D02*
X77053982Y-83515200D01*
X77053982Y-83515200D02*
X76911125Y-83562819D01*
X76911125Y-83562819D02*
X76815887Y-83562819D01*
X76815887Y-83562819D02*
X76673030Y-83515200D01*
X76673030Y-83515200D02*
X76625411Y-83467580D01*
X76625411Y-83467580D02*
X76625411Y-83134247D01*
X76625411Y-83134247D02*
X76815887Y-83134247D01*
X76196839Y-83562819D02*
X76196839Y-82562819D01*
X76196839Y-82562819D02*
X75625411Y-83562819D01*
X75625411Y-83562819D02*
X75625411Y-82562819D01*
X75149220Y-83562819D02*
X75149220Y-82562819D01*
X75149220Y-82562819D02*
X74911125Y-82562819D01*
X74911125Y-82562819D02*
X74768268Y-82610438D01*
X74768268Y-82610438D02*
X74673030Y-82705676D01*
X74673030Y-82705676D02*
X74625411Y-82800914D01*
X74625411Y-82800914D02*
X74577792Y-82991390D01*
X74577792Y-82991390D02*
X74577792Y-83134247D01*
X74577792Y-83134247D02*
X74625411Y-83324723D01*
X74625411Y-83324723D02*
X74673030Y-83419961D01*
X74673030Y-83419961D02*
X74768268Y-83515200D01*
X74768268Y-83515200D02*
X74911125Y-83562819D01*
X74911125Y-83562819D02*
X75149220Y-83562819D01*
X120850819Y-72546761D02*
X120374628Y-72213428D01*
X120850819Y-71975333D02*
X119850819Y-71975333D01*
X119850819Y-71975333D02*
X119850819Y-72356285D01*
X119850819Y-72356285D02*
X119898438Y-72451523D01*
X119898438Y-72451523D02*
X119946057Y-72499142D01*
X119946057Y-72499142D02*
X120041295Y-72546761D01*
X120041295Y-72546761D02*
X120184152Y-72546761D01*
X120184152Y-72546761D02*
X120279390Y-72499142D01*
X120279390Y-72499142D02*
X120327009Y-72451523D01*
X120327009Y-72451523D02*
X120374628Y-72356285D01*
X120374628Y-72356285D02*
X120374628Y-71975333D01*
X119850819Y-72832476D02*
X120850819Y-73165809D01*
X120850819Y-73165809D02*
X119850819Y-73499142D01*
X119850819Y-74308666D02*
X119850819Y-73832476D01*
X119850819Y-73832476D02*
X120327009Y-73784857D01*
X120327009Y-73784857D02*
X120279390Y-73832476D01*
X120279390Y-73832476D02*
X120231771Y-73927714D01*
X120231771Y-73927714D02*
X120231771Y-74165809D01*
X120231771Y-74165809D02*
X120279390Y-74261047D01*
X120279390Y-74261047D02*
X120327009Y-74308666D01*
X120327009Y-74308666D02*
X120422247Y-74356285D01*
X120422247Y-74356285D02*
X120660342Y-74356285D01*
X120660342Y-74356285D02*
X120755580Y-74308666D01*
X120755580Y-74308666D02*
X120803200Y-74261047D01*
X120803200Y-74261047D02*
X120850819Y-74165809D01*
X120850819Y-74165809D02*
X120850819Y-73927714D01*
X120850819Y-73927714D02*
X120803200Y-73832476D01*
X120803200Y-73832476D02*
X120755580Y-73784857D01*
D11*
X108711904Y-81753419D02*
X108711904Y-82562942D01*
X108711904Y-82562942D02*
X108664285Y-82658180D01*
X108664285Y-82658180D02*
X108616666Y-82705800D01*
X108616666Y-82705800D02*
X108521428Y-82753419D01*
X108521428Y-82753419D02*
X108330952Y-82753419D01*
X108330952Y-82753419D02*
X108235714Y-82705800D01*
X108235714Y-82705800D02*
X108188095Y-82658180D01*
X108188095Y-82658180D02*
X108140476Y-82562942D01*
X108140476Y-82562942D02*
X108140476Y-81753419D01*
X107140476Y-82753419D02*
X107711904Y-82753419D01*
X107426190Y-82753419D02*
X107426190Y-81753419D01*
X107426190Y-81753419D02*
X107521428Y-81896276D01*
X107521428Y-81896276D02*
X107616666Y-81991514D01*
X107616666Y-81991514D02*
X107711904Y-82039133D01*
D10*
X87177819Y-126648761D02*
X86701628Y-126315428D01*
X87177819Y-126077333D02*
X86177819Y-126077333D01*
X86177819Y-126077333D02*
X86177819Y-126458285D01*
X86177819Y-126458285D02*
X86225438Y-126553523D01*
X86225438Y-126553523D02*
X86273057Y-126601142D01*
X86273057Y-126601142D02*
X86368295Y-126648761D01*
X86368295Y-126648761D02*
X86511152Y-126648761D01*
X86511152Y-126648761D02*
X86606390Y-126601142D01*
X86606390Y-126601142D02*
X86654009Y-126553523D01*
X86654009Y-126553523D02*
X86701628Y-126458285D01*
X86701628Y-126458285D02*
X86701628Y-126077333D01*
X86177819Y-126934476D02*
X87177819Y-127267809D01*
X87177819Y-127267809D02*
X86177819Y-127601142D01*
X86177819Y-128363047D02*
X86177819Y-128172571D01*
X86177819Y-128172571D02*
X86225438Y-128077333D01*
X86225438Y-128077333D02*
X86273057Y-128029714D01*
X86273057Y-128029714D02*
X86415914Y-127934476D01*
X86415914Y-127934476D02*
X86606390Y-127886857D01*
X86606390Y-127886857D02*
X86987342Y-127886857D01*
X86987342Y-127886857D02*
X87082580Y-127934476D01*
X87082580Y-127934476D02*
X87130200Y-127982095D01*
X87130200Y-127982095D02*
X87177819Y-128077333D01*
X87177819Y-128077333D02*
X87177819Y-128267809D01*
X87177819Y-128267809D02*
X87130200Y-128363047D01*
X87130200Y-128363047D02*
X87082580Y-128410666D01*
X87082580Y-128410666D02*
X86987342Y-128458285D01*
X86987342Y-128458285D02*
X86749247Y-128458285D01*
X86749247Y-128458285D02*
X86654009Y-128410666D01*
X86654009Y-128410666D02*
X86606390Y-128363047D01*
X86606390Y-128363047D02*
X86558771Y-128267809D01*
X86558771Y-128267809D02*
X86558771Y-128077333D01*
X86558771Y-128077333D02*
X86606390Y-127982095D01*
X86606390Y-127982095D02*
X86654009Y-127934476D01*
X86654009Y-127934476D02*
X86749247Y-127886857D01*
X83553333Y-71354819D02*
X83553333Y-72069104D01*
X83553333Y-72069104D02*
X83600952Y-72211961D01*
X83600952Y-72211961D02*
X83696190Y-72307200D01*
X83696190Y-72307200D02*
X83839047Y-72354819D01*
X83839047Y-72354819D02*
X83934285Y-72354819D01*
X82648571Y-71354819D02*
X82839047Y-71354819D01*
X82839047Y-71354819D02*
X82934285Y-71402438D01*
X82934285Y-71402438D02*
X82981904Y-71450057D01*
X82981904Y-71450057D02*
X83077142Y-71592914D01*
X83077142Y-71592914D02*
X83124761Y-71783390D01*
X83124761Y-71783390D02*
X83124761Y-72164342D01*
X83124761Y-72164342D02*
X83077142Y-72259580D01*
X83077142Y-72259580D02*
X83029523Y-72307200D01*
X83029523Y-72307200D02*
X82934285Y-72354819D01*
X82934285Y-72354819D02*
X82743809Y-72354819D01*
X82743809Y-72354819D02*
X82648571Y-72307200D01*
X82648571Y-72307200D02*
X82600952Y-72259580D01*
X82600952Y-72259580D02*
X82553333Y-72164342D01*
X82553333Y-72164342D02*
X82553333Y-71926247D01*
X82553333Y-71926247D02*
X82600952Y-71831009D01*
X82600952Y-71831009D02*
X82648571Y-71783390D01*
X82648571Y-71783390D02*
X82743809Y-71735771D01*
X82743809Y-71735771D02*
X82934285Y-71735771D01*
X82934285Y-71735771D02*
X83029523Y-71783390D01*
X83029523Y-71783390D02*
X83077142Y-71831009D01*
X83077142Y-71831009D02*
X83124761Y-71926247D01*
D12*
X119380000Y-68267000D02*
X119380000Y-78037000D01*
X114310000Y-68267000D02*
X119380000Y-68267000D01*
X114310000Y-68267000D02*
X114310000Y-78037000D01*
X114310000Y-78037000D02*
X119380000Y-78037000D01*
D11*
X116840000Y-80772000D02*
X99568000Y-80772000D01*
X99568000Y-80772000D02*
X99568000Y-128270000D01*
X99568000Y-128270000D02*
X116840000Y-128270000D01*
X116840000Y-128270000D02*
X116840000Y-80772000D01*
D12*
X80523000Y-132129000D02*
X80523000Y-122359000D01*
X85593000Y-132129000D02*
X80523000Y-132129000D01*
X85593000Y-132129000D02*
X85593000Y-122359000D01*
X85593000Y-122359000D02*
X80523000Y-122359000D01*
X89170000Y-78500000D02*
X88170000Y-78000000D01*
X89170000Y-77500000D02*
X89170000Y-78500000D01*
X88170000Y-78000000D02*
X89170000Y-77500000D01*
X87780000Y-93370000D02*
X87780000Y-72790000D01*
X87780000Y-81030000D02*
X86470000Y-81030000D01*
X87780000Y-72790000D02*
X78660000Y-72790000D01*
X86470000Y-92070000D02*
X86470000Y-85130000D01*
X86470000Y-85130000D02*
X87780000Y-85130000D01*
X86470000Y-85130000D02*
X86470000Y-85130000D01*
X86470000Y-81030000D02*
X86470000Y-74090000D01*
X86470000Y-74090000D02*
X79970000Y-74090000D01*
X79970000Y-92070000D02*
X86470000Y-92070000D01*
X79970000Y-74090000D02*
X79970000Y-92070000D01*
X78660000Y-93370000D02*
X87780000Y-93370000D01*
X78660000Y-72790000D02*
X78660000Y-93370000D01*
%LPC*%
D13*
X108390000Y-150480000D03*
D14*
X108390000Y-139080000D03*
X108390000Y-147380000D03*
D13*
X74830000Y-150480000D03*
D14*
X74830000Y-139080000D03*
X74830000Y-147380000D03*
D15*
X112080000Y-49500000D03*
X116780000Y-49500000D03*
X121480000Y-49500000D03*
D16*
X126920000Y-59500000D03*
D17*
X123420000Y-59500000D03*
X126920000Y-118000000D03*
D18*
X120970000Y-63650000D03*
X129370000Y-64850000D03*
X129370000Y-112650000D03*
X120970000Y-113850000D03*
D13*
X125170000Y-134480000D03*
D14*
X125170000Y-123080000D03*
X125170000Y-131380000D03*
D16*
X76580000Y-59500000D03*
D17*
X73080000Y-59500000D03*
X76580000Y-118000000D03*
D18*
X70630000Y-63650000D03*
X79030000Y-64850000D03*
X79030000Y-112650000D03*
X70630000Y-113850000D03*
D15*
X78520000Y-49500000D03*
X83220000Y-49500000D03*
X87920000Y-49500000D03*
D13*
X91610000Y-150480000D03*
D14*
X91610000Y-139080000D03*
X91610000Y-147380000D03*
D13*
X125170000Y-150480000D03*
D14*
X125170000Y-139080000D03*
X125170000Y-147380000D03*
D16*
X93360000Y-59500000D03*
D17*
X89860000Y-59500000D03*
X93360000Y-118000000D03*
D18*
X87410000Y-63650000D03*
X95810000Y-64850000D03*
X95810000Y-112650000D03*
X87410000Y-113850000D03*
D16*
X110140000Y-59500000D03*
D17*
X106640000Y-59500000D03*
X110140000Y-118000000D03*
D18*
X104190000Y-63650000D03*
X112590000Y-64850000D03*
X112590000Y-112650000D03*
X104190000Y-113850000D03*
D13*
X108390000Y-134480000D03*
D14*
X108390000Y-123080000D03*
X108390000Y-131380000D03*
D13*
X74830000Y-134480000D03*
D14*
X74830000Y-123080000D03*
X74830000Y-131380000D03*
D13*
X91610000Y-134480000D03*
D14*
X91610000Y-123080000D03*
X91610000Y-131380000D03*
D19*
X115570000Y-75692000D03*
X118110000Y-73152000D03*
X115570000Y-70612000D03*
D20*
X115824000Y-81788000D03*
D21*
X115824000Y-84328000D03*
X115824000Y-86868000D03*
X115824000Y-89408000D03*
X115824000Y-91948000D03*
X115824000Y-94488000D03*
X115824000Y-97028000D03*
X115824000Y-99568000D03*
X115824000Y-102108000D03*
X115824000Y-104648000D03*
X100584000Y-104648000D03*
X100584000Y-102108000D03*
X100584000Y-99568000D03*
X100584000Y-97028000D03*
X100584000Y-94488000D03*
X100584000Y-91948000D03*
X100584000Y-89408000D03*
X100584000Y-86868000D03*
X100584000Y-84328000D03*
X100584000Y-81788000D03*
D19*
X84333000Y-124704000D03*
X81793000Y-127244000D03*
X84333000Y-129784000D03*
D22*
X84490000Y-78000000D03*
D21*
X81950000Y-78000000D03*
X84490000Y-80540000D03*
X81950000Y-80540000D03*
X84490000Y-83080000D03*
X81950000Y-83080000D03*
X84490000Y-85620000D03*
X81950000Y-85620000D03*
X84490000Y-88160000D03*
X81950000Y-88160000D03*
%LPD*%
M02*
