G04 #@! TF.GenerationSoftware,KiCad,Pcbnew,7.0.7*
G04 #@! TF.CreationDate,2025-10-31T21:12:30+08:00*
G04 #@! TF.ProjectId,3340_VCO,33333430-5f56-4434-9f2e-6b696361645f,rev?*
G04 #@! TF.SameCoordinates,Original*
G04 #@! TF.FileFunction,Soldermask,Bot*
G04 #@! TF.FilePolarity,Negative*
%FSLAX46Y46*%
G04 Gerber Fmt 4.6, Leading zero omitted, Abs format (unit mm)*
G04 Created by KiCad (PCBNEW 7.0.7) date 2025-10-31 21:12:30*
%MOMM*%
%LPD*%
G01*
G04 APERTURE LIST*
G04 Aperture macros list*
%AMRoundRect*
0 Rectangle with rounded corners*
0 $1 Rounding radius*
0 $2 $3 $4 $5 $6 $7 $8 $9 X,Y pos of 4 corners*
0 Add a 4 corners polygon primitive as box body*
4,1,4,$2,$3,$4,$5,$6,$7,$8,$9,$2,$3,0*
0 Add four circle primitives for the rounded corners*
1,1,$1+$1,$2,$3*
1,1,$1+$1,$4,$5*
1,1,$1+$1,$6,$7*
1,1,$1+$1,$8,$9*
0 Add four rect primitives between the rounded corners*
20,1,$1+$1,$2,$3,$4,$5,0*
20,1,$1+$1,$4,$5,$6,$7,0*
20,1,$1+$1,$6,$7,$8,$9,0*
20,1,$1+$1,$8,$9,$2,$3,0*%
G04 Aperture macros list end*
%ADD10O,3.100000X2.300000*%
%ADD11RoundRect,0.650000X-0.650000X-0.650000X0.650000X-0.650000X0.650000X0.650000X-0.650000X0.650000X0*%
%ADD12C,2.600000*%
%ADD13R,1.750000X1.750000*%
%ADD14C,1.750000*%
%ADD15C,2.700000*%
%ADD16C,1.440000*%
%ADD17R,1.700000X1.700000*%
%ADD18C,1.700000*%
%ADD19RoundRect,0.250000X0.600000X0.600000X-0.600000X0.600000X-0.600000X-0.600000X0.600000X-0.600000X0*%
G04 APERTURE END LIST*
D10*
X108390000Y-150480000D03*
D11*
X108390000Y-139080000D03*
X108390000Y-147380000D03*
D10*
X74830000Y-150480000D03*
D11*
X74830000Y-139080000D03*
X74830000Y-147380000D03*
D12*
X112080000Y-49500000D03*
X116780000Y-49500000D03*
X121480000Y-49500000D03*
D13*
X126920000Y-59500000D03*
D14*
X123420000Y-59500000D03*
X126920000Y-118000000D03*
D15*
X120970000Y-63650000D03*
X129370000Y-64850000D03*
X129370000Y-112650000D03*
X120970000Y-113850000D03*
D10*
X125170000Y-134480000D03*
D11*
X125170000Y-123080000D03*
X125170000Y-131380000D03*
D13*
X76580000Y-59500000D03*
D14*
X73080000Y-59500000D03*
X76580000Y-118000000D03*
D15*
X70630000Y-63650000D03*
X79030000Y-64850000D03*
X79030000Y-112650000D03*
X70630000Y-113850000D03*
D12*
X78520000Y-49500000D03*
X83220000Y-49500000D03*
X87920000Y-49500000D03*
D10*
X91610000Y-150480000D03*
D11*
X91610000Y-139080000D03*
X91610000Y-147380000D03*
D10*
X125170000Y-150480000D03*
D11*
X125170000Y-139080000D03*
X125170000Y-147380000D03*
D13*
X93360000Y-59500000D03*
D14*
X89860000Y-59500000D03*
X93360000Y-118000000D03*
D15*
X87410000Y-63650000D03*
X95810000Y-64850000D03*
X95810000Y-112650000D03*
X87410000Y-113850000D03*
D13*
X110140000Y-59500000D03*
D14*
X106640000Y-59500000D03*
X110140000Y-118000000D03*
D15*
X104190000Y-63650000D03*
X112590000Y-64850000D03*
X112590000Y-112650000D03*
X104190000Y-113850000D03*
D10*
X108390000Y-134480000D03*
D11*
X108390000Y-123080000D03*
X108390000Y-131380000D03*
D10*
X74830000Y-134480000D03*
D11*
X74830000Y-123080000D03*
X74830000Y-131380000D03*
D10*
X91610000Y-134480000D03*
D11*
X91610000Y-123080000D03*
X91610000Y-131380000D03*
D16*
X115570000Y-75692000D03*
X118110000Y-73152000D03*
X115570000Y-70612000D03*
D17*
X115824000Y-81788000D03*
D18*
X115824000Y-84328000D03*
X115824000Y-86868000D03*
X115824000Y-89408000D03*
X115824000Y-91948000D03*
X115824000Y-94488000D03*
X115824000Y-97028000D03*
X115824000Y-99568000D03*
X115824000Y-102108000D03*
X115824000Y-104648000D03*
X100584000Y-104648000D03*
X100584000Y-102108000D03*
X100584000Y-99568000D03*
X100584000Y-97028000D03*
X100584000Y-94488000D03*
X100584000Y-91948000D03*
X100584000Y-89408000D03*
X100584000Y-86868000D03*
X100584000Y-84328000D03*
X100584000Y-81788000D03*
D16*
X84333000Y-124704000D03*
X81793000Y-127244000D03*
X84333000Y-129784000D03*
D19*
X84490000Y-78000000D03*
D18*
X81950000Y-78000000D03*
X84490000Y-80540000D03*
X81950000Y-80540000D03*
X84490000Y-83080000D03*
X81950000Y-83080000D03*
X84490000Y-85620000D03*
X81950000Y-85620000D03*
X84490000Y-88160000D03*
X81950000Y-88160000D03*
M02*
