G04 #@! TF.GenerationSoftware,KiCad,Pcbnew,7.0.7*
G04 #@! TF.CreationDate,2025-10-31T21:12:30+08:00*
G04 #@! TF.ProjectId,3340_VCO,33333430-5f56-4434-9f2e-6b696361645f,rev?*
G04 #@! TF.SameCoordinates,Original*
G04 #@! TF.FileFunction,Copper,L2,Bot*
G04 #@! TF.FilePolarity,Positive*
%FSLAX46Y46*%
G04 Gerber Fmt 4.6, Leading zero omitted, Abs format (unit mm)*
G04 Created by KiCad (PCBNEW 7.0.7) date 2025-10-31 21:12:30*
%MOMM*%
%LPD*%
G01*
G04 APERTURE LIST*
G04 Aperture macros list*
%AMRoundRect*
0 Rectangle with rounded corners*
0 $1 Rounding radius*
0 $2 $3 $4 $5 $6 $7 $8 $9 X,Y pos of 4 corners*
0 Add a 4 corners polygon primitive as box body*
4,1,4,$2,$3,$4,$5,$6,$7,$8,$9,$2,$3,0*
0 Add four circle primitives for the rounded corners*
1,1,$1+$1,$2,$3*
1,1,$1+$1,$4,$5*
1,1,$1+$1,$6,$7*
1,1,$1+$1,$8,$9*
0 Add four rect primitives between the rounded corners*
20,1,$1+$1,$2,$3,$4,$5,0*
20,1,$1+$1,$4,$5,$6,$7,0*
20,1,$1+$1,$6,$7,$8,$9,0*
20,1,$1+$1,$8,$9,$2,$3,0*%
G04 Aperture macros list end*
G04 #@! TA.AperFunction,ComponentPad*
%ADD10O,3.100000X2.300000*%
G04 #@! TD*
G04 #@! TA.AperFunction,ComponentPad*
%ADD11RoundRect,0.650000X-0.650000X-0.650000X0.650000X-0.650000X0.650000X0.650000X-0.650000X0.650000X0*%
G04 #@! TD*
G04 #@! TA.AperFunction,ComponentPad*
%ADD12C,2.600000*%
G04 #@! TD*
G04 #@! TA.AperFunction,ComponentPad*
%ADD13R,1.750000X1.750000*%
G04 #@! TD*
G04 #@! TA.AperFunction,ComponentPad*
%ADD14C,1.750000*%
G04 #@! TD*
G04 #@! TA.AperFunction,ComponentPad*
%ADD15C,2.700000*%
G04 #@! TD*
G04 #@! TA.AperFunction,ComponentPad*
%ADD16C,1.440000*%
G04 #@! TD*
G04 #@! TA.AperFunction,ComponentPad*
%ADD17R,1.700000X1.700000*%
G04 #@! TD*
G04 #@! TA.AperFunction,ComponentPad*
%ADD18C,1.700000*%
G04 #@! TD*
G04 #@! TA.AperFunction,ComponentPad*
%ADD19RoundRect,0.250000X0.600000X0.600000X-0.600000X0.600000X-0.600000X-0.600000X0.600000X-0.600000X0*%
G04 #@! TD*
G04 #@! TA.AperFunction,ViaPad*
%ADD20C,0.800000*%
G04 #@! TD*
G04 #@! TA.AperFunction,Conductor*
%ADD21C,0.508000*%
G04 #@! TD*
G04 APERTURE END LIST*
D10*
X108390000Y-150480000D03*
D11*
X108390000Y-139080000D03*
X108390000Y-147380000D03*
D10*
X74830000Y-150480000D03*
D11*
X74830000Y-139080000D03*
X74830000Y-147380000D03*
D12*
X112080000Y-49500000D03*
X116780000Y-49500000D03*
X121480000Y-49500000D03*
D13*
X126920000Y-59500000D03*
D14*
X123420000Y-59500000D03*
X126920000Y-118000000D03*
D15*
X120970000Y-63650000D03*
X129370000Y-64850000D03*
X129370000Y-112650000D03*
X120970000Y-113850000D03*
D10*
X125170000Y-134480000D03*
D11*
X125170000Y-123080000D03*
X125170000Y-131380000D03*
D13*
X76580000Y-59500000D03*
D14*
X73080000Y-59500000D03*
X76580000Y-118000000D03*
D15*
X70630000Y-63650000D03*
X79030000Y-64850000D03*
X79030000Y-112650000D03*
X70630000Y-113850000D03*
D12*
X78520000Y-49500000D03*
X83220000Y-49500000D03*
X87920000Y-49500000D03*
D10*
X91610000Y-150480000D03*
D11*
X91610000Y-139080000D03*
X91610000Y-147380000D03*
D10*
X125170000Y-150480000D03*
D11*
X125170000Y-139080000D03*
X125170000Y-147380000D03*
D13*
X93360000Y-59500000D03*
D14*
X89860000Y-59500000D03*
X93360000Y-118000000D03*
D15*
X87410000Y-63650000D03*
X95810000Y-64850000D03*
X95810000Y-112650000D03*
X87410000Y-113850000D03*
D13*
X110140000Y-59500000D03*
D14*
X106640000Y-59500000D03*
X110140000Y-118000000D03*
D15*
X104190000Y-63650000D03*
X112590000Y-64850000D03*
X112590000Y-112650000D03*
X104190000Y-113850000D03*
D10*
X108390000Y-134480000D03*
D11*
X108390000Y-123080000D03*
X108390000Y-131380000D03*
D10*
X74830000Y-134480000D03*
D11*
X74830000Y-123080000D03*
X74830000Y-131380000D03*
D10*
X91610000Y-134480000D03*
D11*
X91610000Y-123080000D03*
X91610000Y-131380000D03*
D16*
X115570000Y-75692000D03*
X118110000Y-73152000D03*
X115570000Y-70612000D03*
D17*
X115824000Y-81788000D03*
D18*
X115824000Y-84328000D03*
X115824000Y-86868000D03*
X115824000Y-89408000D03*
X115824000Y-91948000D03*
X115824000Y-94488000D03*
X115824000Y-97028000D03*
X115824000Y-99568000D03*
X115824000Y-102108000D03*
X115824000Y-104648000D03*
X100584000Y-104648000D03*
X100584000Y-102108000D03*
X100584000Y-99568000D03*
X100584000Y-97028000D03*
X100584000Y-94488000D03*
X100584000Y-91948000D03*
X100584000Y-89408000D03*
X100584000Y-86868000D03*
X100584000Y-84328000D03*
X100584000Y-81788000D03*
D16*
X84333000Y-124704000D03*
X81793000Y-127244000D03*
X84333000Y-129784000D03*
D19*
X84490000Y-78000000D03*
D18*
X81950000Y-78000000D03*
X84490000Y-80540000D03*
X81950000Y-80540000D03*
X84490000Y-83080000D03*
X81950000Y-83080000D03*
X84490000Y-85620000D03*
X81950000Y-85620000D03*
X84490000Y-88160000D03*
X81950000Y-88160000D03*
D20*
X81534000Y-52578000D03*
X81534000Y-55880000D03*
X77978000Y-80010000D03*
X77978000Y-75946000D03*
X75946000Y-83820000D03*
X115530000Y-151500000D03*
X131060000Y-94277776D03*
X76200000Y-94742000D03*
X126238000Y-53848000D03*
X68940000Y-94277776D03*
X131060000Y-105722220D03*
X117348000Y-143764000D03*
X68940000Y-48500000D03*
X81026000Y-134366000D03*
X99568000Y-74930000D03*
X84470000Y-151500000D03*
X112522000Y-101600000D03*
X131060000Y-117166664D03*
X131060000Y-151500000D03*
X122682000Y-91440000D03*
X68940000Y-117166664D03*
X68940000Y-71388888D03*
X123698000Y-67056000D03*
X131060000Y-48500000D03*
X131060000Y-128611108D03*
X123952000Y-81280000D03*
X68940000Y-59944444D03*
X74168000Y-53848000D03*
X82804000Y-143764000D03*
X68940000Y-151500000D03*
X91186000Y-81534000D03*
X131060000Y-59944444D03*
X92964000Y-49276000D03*
X68940000Y-140055552D03*
X68940000Y-82833332D03*
X77724000Y-105664000D03*
X113284000Y-60960000D03*
X103632000Y-120142000D03*
X68940000Y-128611108D03*
X88138000Y-72136000D03*
X131060000Y-140055552D03*
X112522000Y-91440000D03*
X98298000Y-143764000D03*
X100000000Y-151500000D03*
X68940000Y-105722220D03*
X97790000Y-120142000D03*
X91694000Y-113538000D03*
X131060000Y-71388888D03*
X131060000Y-82833332D03*
X80264000Y-99568000D03*
X89662000Y-99568000D03*
X91948000Y-97028000D03*
X80264000Y-97028000D03*
X96266000Y-85090000D03*
X96266000Y-91186000D03*
X116840000Y-52324000D03*
X116840000Y-55880000D03*
X99822000Y-56134000D03*
X99822000Y-51054000D03*
X96520000Y-49530000D03*
X96520000Y-56134000D03*
X108458000Y-111506000D03*
X108458000Y-104902000D03*
X99060000Y-131318000D03*
X102616000Y-131318000D03*
D21*
X81534000Y-52578000D02*
X81534000Y-55880000D01*
X77978000Y-80010000D02*
X77978000Y-75946000D01*
X80264000Y-99568000D02*
X89662000Y-99568000D01*
X80264000Y-97028000D02*
X91948000Y-97028000D01*
X96266000Y-85090000D02*
X96266000Y-91186000D01*
X116840000Y-52324000D02*
X116840000Y-55880000D01*
X99822000Y-51054000D02*
X99822000Y-56134000D01*
X96520000Y-56134000D02*
X96520000Y-49530000D01*
X108458000Y-104902000D02*
X108458000Y-111506000D01*
X99060000Y-131318000D02*
X102616000Y-131318000D01*
G04 #@! TA.AperFunction,Conductor*
G36*
X82552470Y-85869363D02*
G01*
X82558949Y-85875396D01*
X83064925Y-86381373D01*
X83118424Y-86304970D01*
X83173001Y-86261345D01*
X83242499Y-86254152D01*
X83304854Y-86285674D01*
X83321574Y-86304970D01*
X83375072Y-86381373D01*
X83375073Y-86381373D01*
X83881050Y-85875395D01*
X83942373Y-85841910D01*
X84012064Y-85846894D01*
X84067998Y-85888765D01*
X84073039Y-85896025D01*
X84073048Y-85896039D01*
X84108239Y-85950798D01*
X84223602Y-86050759D01*
X84221293Y-86053422D01*
X84256006Y-86093499D01*
X84265935Y-86162660D01*
X84236898Y-86226210D01*
X84230882Y-86232669D01*
X83728625Y-86734925D01*
X83804594Y-86788119D01*
X83848219Y-86842696D01*
X83855413Y-86912194D01*
X83823890Y-86974549D01*
X83804595Y-86991269D01*
X83618594Y-87121508D01*
X83451505Y-87288597D01*
X83321575Y-87474158D01*
X83266998Y-87517783D01*
X83197500Y-87524977D01*
X83135145Y-87493454D01*
X83118425Y-87474158D01*
X82988494Y-87288597D01*
X82821402Y-87121506D01*
X82821401Y-87121505D01*
X82635405Y-86991269D01*
X82591781Y-86936692D01*
X82584588Y-86867193D01*
X82616110Y-86804839D01*
X82635405Y-86788119D01*
X82711373Y-86734925D01*
X82209116Y-86232669D01*
X82175631Y-86171346D01*
X82180615Y-86101655D01*
X82217640Y-86052193D01*
X82216398Y-86050759D01*
X82223100Y-86044952D01*
X82331761Y-85950798D01*
X82366954Y-85896037D01*
X82419755Y-85850283D01*
X82488914Y-85840339D01*
X82552470Y-85869363D01*
G37*
G04 #@! TD.AperFunction*
G04 #@! TA.AperFunction,Conductor*
G36*
X82552470Y-83329363D02*
G01*
X82558949Y-83335396D01*
X83064925Y-83841373D01*
X83118424Y-83764970D01*
X83173001Y-83721345D01*
X83242499Y-83714152D01*
X83304854Y-83745674D01*
X83321574Y-83764970D01*
X83375072Y-83841373D01*
X83375073Y-83841373D01*
X83881050Y-83335395D01*
X83942373Y-83301910D01*
X84012064Y-83306894D01*
X84067998Y-83348765D01*
X84073039Y-83356025D01*
X84073048Y-83356039D01*
X84108239Y-83410798D01*
X84223602Y-83510759D01*
X84221293Y-83513422D01*
X84256006Y-83553499D01*
X84265935Y-83622660D01*
X84236898Y-83686210D01*
X84230882Y-83692669D01*
X83728625Y-84194925D01*
X83805031Y-84248425D01*
X83848655Y-84303002D01*
X83855848Y-84372501D01*
X83824326Y-84434855D01*
X83805029Y-84451576D01*
X83728625Y-84505072D01*
X84230883Y-85007330D01*
X84264368Y-85068653D01*
X84259384Y-85138345D01*
X84222357Y-85187805D01*
X84223602Y-85189241D01*
X84108238Y-85289202D01*
X84073046Y-85343962D01*
X84020242Y-85389717D01*
X83951083Y-85399660D01*
X83887528Y-85370634D01*
X83881050Y-85364603D01*
X83375072Y-84858625D01*
X83375072Y-84858626D01*
X83321574Y-84935030D01*
X83266998Y-84978655D01*
X83197499Y-84985849D01*
X83135144Y-84954326D01*
X83118424Y-84935030D01*
X83064925Y-84858626D01*
X83064925Y-84858625D01*
X82558949Y-85364602D01*
X82497626Y-85398087D01*
X82427934Y-85393103D01*
X82372001Y-85351231D01*
X82366953Y-85343961D01*
X82331761Y-85289202D01*
X82228125Y-85199402D01*
X82223100Y-85195048D01*
X82223099Y-85195047D01*
X82216398Y-85189241D01*
X82218708Y-85186574D01*
X82184005Y-85146528D01*
X82174058Y-85077370D01*
X82203080Y-85013813D01*
X82209116Y-85007330D01*
X82711373Y-84505073D01*
X82634969Y-84451576D01*
X82591344Y-84396999D01*
X82584150Y-84327501D01*
X82615672Y-84265146D01*
X82634968Y-84248425D01*
X82711373Y-84194925D01*
X82209116Y-83692669D01*
X82175631Y-83631346D01*
X82180615Y-83561655D01*
X82217640Y-83512193D01*
X82216398Y-83510759D01*
X82223100Y-83504952D01*
X82331761Y-83410798D01*
X82366954Y-83356037D01*
X82419755Y-83310283D01*
X82488914Y-83300339D01*
X82552470Y-83329363D01*
G37*
G04 #@! TD.AperFunction*
G04 #@! TA.AperFunction,Conductor*
G36*
X82552470Y-80789363D02*
G01*
X82558949Y-80795396D01*
X83064925Y-81301373D01*
X83118425Y-81224968D01*
X83173002Y-81181344D01*
X83242501Y-81174151D01*
X83304855Y-81205673D01*
X83321576Y-81224969D01*
X83375073Y-81301372D01*
X83881050Y-80795395D01*
X83942373Y-80761910D01*
X84012064Y-80766894D01*
X84067998Y-80808765D01*
X84073039Y-80816025D01*
X84108239Y-80870798D01*
X84130578Y-80890155D01*
X84223602Y-80970759D01*
X84221293Y-80973422D01*
X84256006Y-81013499D01*
X84265935Y-81082660D01*
X84236898Y-81146210D01*
X84230882Y-81152669D01*
X83728625Y-81654925D01*
X83805031Y-81708425D01*
X83848655Y-81763002D01*
X83855848Y-81832501D01*
X83824326Y-81894855D01*
X83805029Y-81911576D01*
X83728625Y-81965072D01*
X84230883Y-82467330D01*
X84264368Y-82528653D01*
X84259384Y-82598345D01*
X84222357Y-82647805D01*
X84223602Y-82649241D01*
X84108238Y-82749202D01*
X84073046Y-82803962D01*
X84020242Y-82849717D01*
X83951083Y-82859660D01*
X83887528Y-82830634D01*
X83881050Y-82824603D01*
X83375072Y-82318625D01*
X83375072Y-82318626D01*
X83321574Y-82395030D01*
X83266998Y-82438655D01*
X83197499Y-82445849D01*
X83135144Y-82414326D01*
X83118424Y-82395030D01*
X83064925Y-82318626D01*
X83064925Y-82318625D01*
X82558949Y-82824602D01*
X82497626Y-82858087D01*
X82427934Y-82853103D01*
X82372001Y-82811231D01*
X82366953Y-82803961D01*
X82331761Y-82749202D01*
X82216398Y-82649241D01*
X82218708Y-82646574D01*
X82184005Y-82606528D01*
X82174058Y-82537370D01*
X82203080Y-82473813D01*
X82209116Y-82467330D01*
X82711373Y-81965073D01*
X82634969Y-81911576D01*
X82591344Y-81856999D01*
X82584150Y-81787501D01*
X82615672Y-81725146D01*
X82634968Y-81708425D01*
X82711373Y-81654925D01*
X82209116Y-81152669D01*
X82175631Y-81091346D01*
X82180615Y-81021655D01*
X82217640Y-80972193D01*
X82216398Y-80970759D01*
X82223100Y-80964952D01*
X82331761Y-80870798D01*
X82366954Y-80816037D01*
X82419755Y-80770283D01*
X82488914Y-80760339D01*
X82552470Y-80789363D01*
G37*
G04 #@! TD.AperFunction*
G04 #@! TA.AperFunction,Conductor*
G36*
X83177038Y-78867053D02*
G01*
X83202335Y-78910733D01*
X83205186Y-78919334D01*
X83297288Y-79068656D01*
X83421344Y-79192712D01*
X83570666Y-79284814D01*
X83643032Y-79308793D01*
X83700476Y-79348566D01*
X83727299Y-79413081D01*
X83727412Y-79423859D01*
X84230883Y-79927330D01*
X84264368Y-79988653D01*
X84259384Y-80058345D01*
X84222357Y-80107805D01*
X84223602Y-80109241D01*
X84108238Y-80209202D01*
X84073046Y-80263962D01*
X84020242Y-80309717D01*
X83951083Y-80319660D01*
X83887528Y-80290634D01*
X83881050Y-80284603D01*
X83375072Y-79778625D01*
X83375072Y-79778626D01*
X83321574Y-79855030D01*
X83266998Y-79898655D01*
X83197499Y-79905849D01*
X83135144Y-79874326D01*
X83118424Y-79855030D01*
X83064925Y-79778626D01*
X83064925Y-79778625D01*
X82558949Y-80284602D01*
X82497626Y-80318087D01*
X82427934Y-80313103D01*
X82372001Y-80271231D01*
X82366953Y-80263961D01*
X82331761Y-80209202D01*
X82216398Y-80109241D01*
X82218708Y-80106574D01*
X82184005Y-80066528D01*
X82174058Y-79997370D01*
X82203080Y-79933813D01*
X82209116Y-79927330D01*
X82711373Y-79425073D01*
X82711373Y-79425072D01*
X82635405Y-79371880D01*
X82591780Y-79317304D01*
X82584586Y-79247805D01*
X82616108Y-79185451D01*
X82635399Y-79168734D01*
X82821401Y-79038495D01*
X82988495Y-78871401D01*
X82988504Y-78871388D01*
X82989636Y-78870040D01*
X82990293Y-78869602D01*
X82992323Y-78867573D01*
X82992730Y-78867980D01*
X83047805Y-78831334D01*
X83117666Y-78830220D01*
X83177038Y-78867053D01*
G37*
G04 #@! TD.AperFunction*
G04 #@! TA.AperFunction,Conductor*
G36*
X132503039Y-47019685D02*
G01*
X132548794Y-47072489D01*
X132560000Y-47124000D01*
X132560000Y-152876000D01*
X132540315Y-152943039D01*
X132487511Y-152988794D01*
X132436000Y-153000000D01*
X67564000Y-153000000D01*
X67496961Y-152980315D01*
X67451206Y-152927511D01*
X67440000Y-152876000D01*
X67440000Y-150730001D01*
X72794572Y-150730001D01*
X72795274Y-150738911D01*
X72795274Y-150738914D01*
X72855901Y-150991445D01*
X72855906Y-150991462D01*
X72955290Y-151231397D01*
X72955292Y-151231400D01*
X73090990Y-151452840D01*
X73090991Y-151452841D01*
X73259666Y-151650333D01*
X73457158Y-151819008D01*
X73457159Y-151819009D01*
X73678599Y-151954707D01*
X73678602Y-151954709D01*
X73918537Y-152054093D01*
X73918554Y-152054098D01*
X74171088Y-152114725D01*
X74171087Y-152114725D01*
X74365171Y-152130000D01*
X74580000Y-152130000D01*
X74580000Y-150904000D01*
X74599685Y-150836961D01*
X74652489Y-150791206D01*
X74704000Y-150780000D01*
X74956000Y-150780000D01*
X75023039Y-150799685D01*
X75068794Y-150852489D01*
X75080000Y-150904000D01*
X75080000Y-152130000D01*
X75294829Y-152130000D01*
X75488911Y-152114725D01*
X75741445Y-152054098D01*
X75741462Y-152054093D01*
X75981397Y-151954709D01*
X75981400Y-151954707D01*
X76202840Y-151819009D01*
X76202841Y-151819008D01*
X76400333Y-151650333D01*
X76569008Y-151452841D01*
X76569009Y-151452840D01*
X76704707Y-151231400D01*
X76704709Y-151231397D01*
X76804093Y-150991462D01*
X76804098Y-150991445D01*
X76864725Y-150738914D01*
X76864725Y-150738911D01*
X76865427Y-150730001D01*
X89574572Y-150730001D01*
X89575274Y-150738911D01*
X89575274Y-150738914D01*
X89635901Y-150991445D01*
X89635906Y-150991462D01*
X89735290Y-151231397D01*
X89735292Y-151231400D01*
X89870990Y-151452840D01*
X89870991Y-151452841D01*
X90039666Y-151650333D01*
X90237158Y-151819008D01*
X90237159Y-151819009D01*
X90458599Y-151954707D01*
X90458602Y-151954709D01*
X90698537Y-152054093D01*
X90698554Y-152054098D01*
X90951088Y-152114725D01*
X90951087Y-152114725D01*
X91145171Y-152130000D01*
X91360000Y-152130000D01*
X91360000Y-150904000D01*
X91379685Y-150836961D01*
X91432489Y-150791206D01*
X91484000Y-150780000D01*
X91736000Y-150780000D01*
X91803039Y-150799685D01*
X91848794Y-150852489D01*
X91860000Y-150904000D01*
X91860000Y-152130000D01*
X92074829Y-152130000D01*
X92268911Y-152114725D01*
X92521445Y-152054098D01*
X92521462Y-152054093D01*
X92761397Y-151954709D01*
X92761400Y-151954707D01*
X92982840Y-151819009D01*
X92982841Y-151819008D01*
X93180333Y-151650333D01*
X93349008Y-151452841D01*
X93349009Y-151452840D01*
X93484707Y-151231400D01*
X93484709Y-151231397D01*
X93584093Y-150991462D01*
X93584098Y-150991445D01*
X93644725Y-150738914D01*
X93644725Y-150738911D01*
X93645427Y-150730001D01*
X106354572Y-150730001D01*
X106355274Y-150738911D01*
X106355274Y-150738914D01*
X106415901Y-150991445D01*
X106415906Y-150991462D01*
X106515290Y-151231397D01*
X106515292Y-151231400D01*
X106650990Y-151452840D01*
X106650991Y-151452841D01*
X106819666Y-151650333D01*
X107017158Y-151819008D01*
X107017159Y-151819009D01*
X107238599Y-151954707D01*
X107238602Y-151954709D01*
X107478537Y-152054093D01*
X107478554Y-152054098D01*
X107731088Y-152114725D01*
X107731087Y-152114725D01*
X107925171Y-152130000D01*
X108140000Y-152130000D01*
X108140000Y-150904000D01*
X108159685Y-150836961D01*
X108212489Y-150791206D01*
X108264000Y-150780000D01*
X108516000Y-150780000D01*
X108583039Y-150799685D01*
X108628794Y-150852489D01*
X108640000Y-150904000D01*
X108639999Y-152130000D01*
X108854829Y-152130000D01*
X109048911Y-152114725D01*
X109301445Y-152054098D01*
X109301462Y-152054093D01*
X109541397Y-151954709D01*
X109541400Y-151954707D01*
X109762840Y-151819009D01*
X109762841Y-151819008D01*
X109960333Y-151650333D01*
X110129008Y-151452841D01*
X110129009Y-151452840D01*
X110264707Y-151231400D01*
X110264709Y-151231397D01*
X110364093Y-150991462D01*
X110364098Y-150991445D01*
X110424725Y-150738914D01*
X110424725Y-150738911D01*
X110425427Y-150730001D01*
X123134572Y-150730001D01*
X123135274Y-150738911D01*
X123135274Y-150738914D01*
X123195901Y-150991445D01*
X123195906Y-150991462D01*
X123295290Y-151231397D01*
X123295292Y-151231400D01*
X123430990Y-151452840D01*
X123430991Y-151452841D01*
X123599666Y-151650333D01*
X123797158Y-151819008D01*
X123797159Y-151819009D01*
X124018599Y-151954707D01*
X124018602Y-151954709D01*
X124258537Y-152054093D01*
X124258554Y-152054098D01*
X124511088Y-152114725D01*
X124511087Y-152114725D01*
X124705171Y-152130000D01*
X124920000Y-152130000D01*
X124920000Y-150904000D01*
X124939685Y-150836961D01*
X124992489Y-150791206D01*
X125044000Y-150780000D01*
X125296000Y-150780000D01*
X125363039Y-150799685D01*
X125408794Y-150852489D01*
X125420000Y-150904000D01*
X125420000Y-152130000D01*
X125634829Y-152130000D01*
X125828911Y-152114725D01*
X126081445Y-152054098D01*
X126081462Y-152054093D01*
X126321397Y-151954709D01*
X126321400Y-151954707D01*
X126542840Y-151819009D01*
X126542841Y-151819008D01*
X126740333Y-151650333D01*
X126909008Y-151452841D01*
X126909009Y-151452840D01*
X127044707Y-151231400D01*
X127044709Y-151231397D01*
X127144093Y-150991462D01*
X127144098Y-150991445D01*
X127204725Y-150738914D01*
X127204725Y-150738911D01*
X127205427Y-150730001D01*
X127205426Y-150730000D01*
X126074979Y-150730000D01*
X126007940Y-150710315D01*
X125962185Y-150657511D01*
X125952241Y-150588353D01*
X125955713Y-150572066D01*
X125973894Y-150508162D01*
X125973895Y-150508160D01*
X125963546Y-150396482D01*
X125963546Y-150396479D01*
X125963544Y-150396475D01*
X125961115Y-150387937D01*
X125961701Y-150318070D01*
X125999966Y-150259610D01*
X126063763Y-150231119D01*
X126080381Y-150230000D01*
X127205426Y-150230000D01*
X127205427Y-150229998D01*
X127204725Y-150221088D01*
X127204725Y-150221085D01*
X127144098Y-149968554D01*
X127144093Y-149968537D01*
X127044709Y-149728602D01*
X127044707Y-149728599D01*
X126909009Y-149507159D01*
X126909008Y-149507158D01*
X126740333Y-149309666D01*
X126542841Y-149140991D01*
X126538898Y-149138126D01*
X126539506Y-149137288D01*
X126496001Y-149089197D01*
X126484582Y-149020267D01*
X126512242Y-148956106D01*
X126537590Y-148932989D01*
X126558142Y-148918911D01*
X126708911Y-148768142D01*
X126829409Y-148592237D01*
X126915532Y-148397185D01*
X126964349Y-148189630D01*
X126970500Y-148101012D01*
X126970500Y-146658988D01*
X126964349Y-146570370D01*
X126964347Y-146570364D01*
X126964347Y-146570359D01*
X126915534Y-146362823D01*
X126915532Y-146362817D01*
X126915532Y-146362815D01*
X126829409Y-146167763D01*
X126708911Y-145991858D01*
X126708906Y-145991852D01*
X126558147Y-145841093D01*
X126558141Y-145841088D01*
X126382238Y-145720592D01*
X126382239Y-145720592D01*
X126382237Y-145720591D01*
X126187185Y-145634468D01*
X126187183Y-145634467D01*
X126187182Y-145634467D01*
X126187176Y-145634465D01*
X125979640Y-145585652D01*
X125979625Y-145585650D01*
X125906546Y-145580578D01*
X125891012Y-145579500D01*
X124448988Y-145579500D01*
X124434705Y-145580491D01*
X124360374Y-145585650D01*
X124360359Y-145585652D01*
X124152823Y-145634465D01*
X124152817Y-145634467D01*
X123957761Y-145720592D01*
X123781858Y-145841088D01*
X123781852Y-145841093D01*
X123631093Y-145991852D01*
X123631088Y-145991858D01*
X123510592Y-146167761D01*
X123424467Y-146362817D01*
X123424465Y-146362823D01*
X123375652Y-146570359D01*
X123375650Y-146570374D01*
X123369500Y-146658990D01*
X123369500Y-148101010D01*
X123375650Y-148189625D01*
X123375652Y-148189640D01*
X123424465Y-148397176D01*
X123424467Y-148397182D01*
X123424468Y-148397185D01*
X123510591Y-148592237D01*
X123510592Y-148592238D01*
X123631088Y-148768141D01*
X123631093Y-148768147D01*
X123781852Y-148918906D01*
X123781856Y-148918909D01*
X123781858Y-148918911D01*
X123802405Y-148932986D01*
X123846589Y-148987112D01*
X123854496Y-149056533D01*
X123823617Y-149119208D01*
X123800926Y-149137884D01*
X123801102Y-149138126D01*
X123797158Y-149140991D01*
X123599666Y-149309666D01*
X123430991Y-149507158D01*
X123430990Y-149507159D01*
X123295292Y-149728599D01*
X123295290Y-149728602D01*
X123195906Y-149968537D01*
X123195901Y-149968554D01*
X123135274Y-150221085D01*
X123135274Y-150221088D01*
X123134572Y-150229998D01*
X123134574Y-150230000D01*
X124265021Y-150230000D01*
X124332060Y-150249685D01*
X124377815Y-150302489D01*
X124387759Y-150371647D01*
X124384287Y-150387934D01*
X124366105Y-150451837D01*
X124366104Y-150451837D01*
X124376453Y-150563517D01*
X124378885Y-150572063D01*
X124378299Y-150641930D01*
X124340034Y-150700390D01*
X124276237Y-150728881D01*
X124259619Y-150730000D01*
X123134574Y-150730000D01*
X123134572Y-150730001D01*
X110425427Y-150730001D01*
X110425426Y-150730000D01*
X109294979Y-150730000D01*
X109227940Y-150710315D01*
X109182185Y-150657511D01*
X109172241Y-150588353D01*
X109175713Y-150572066D01*
X109193894Y-150508162D01*
X109193895Y-150508160D01*
X109183546Y-150396482D01*
X109183546Y-150396479D01*
X109183544Y-150396475D01*
X109181115Y-150387937D01*
X109181701Y-150318070D01*
X109219966Y-150259610D01*
X109283763Y-150231119D01*
X109300381Y-150230000D01*
X110425426Y-150230000D01*
X110425427Y-150229998D01*
X110424725Y-150221088D01*
X110424725Y-150221085D01*
X110364098Y-149968554D01*
X110364093Y-149968537D01*
X110264709Y-149728602D01*
X110264707Y-149728599D01*
X110129009Y-149507159D01*
X110129008Y-149507158D01*
X109960333Y-149309666D01*
X109762841Y-149140991D01*
X109758898Y-149138126D01*
X109759506Y-149137288D01*
X109716001Y-149089197D01*
X109704582Y-149020267D01*
X109732242Y-148956106D01*
X109757590Y-148932989D01*
X109778142Y-148918911D01*
X109928911Y-148768142D01*
X110049409Y-148592237D01*
X110135532Y-148397185D01*
X110184349Y-148189630D01*
X110190500Y-148101012D01*
X110190500Y-146658988D01*
X110184349Y-146570370D01*
X110184347Y-146570364D01*
X110184347Y-146570359D01*
X110135534Y-146362823D01*
X110135532Y-146362817D01*
X110135532Y-146362815D01*
X110049409Y-146167763D01*
X109928911Y-145991858D01*
X109928906Y-145991852D01*
X109778147Y-145841093D01*
X109778141Y-145841088D01*
X109602238Y-145720592D01*
X109602239Y-145720592D01*
X109602237Y-145720591D01*
X109407185Y-145634468D01*
X109407183Y-145634467D01*
X109407182Y-145634467D01*
X109407176Y-145634465D01*
X109199640Y-145585652D01*
X109199625Y-145585650D01*
X109126546Y-145580578D01*
X109111012Y-145579500D01*
X107668988Y-145579500D01*
X107654705Y-145580491D01*
X107580374Y-145585650D01*
X107580359Y-145585652D01*
X107372823Y-145634465D01*
X107372817Y-145634467D01*
X107177761Y-145720592D01*
X107001858Y-145841088D01*
X107001852Y-145841093D01*
X106851093Y-145991852D01*
X106851088Y-145991858D01*
X106730592Y-146167761D01*
X106644467Y-146362817D01*
X106644465Y-146362823D01*
X106595652Y-146570359D01*
X106595650Y-146570374D01*
X106589500Y-146658990D01*
X106589500Y-148101010D01*
X106595650Y-148189625D01*
X106595652Y-148189640D01*
X106644465Y-148397176D01*
X106644467Y-148397182D01*
X106644468Y-148397185D01*
X106730591Y-148592237D01*
X106730592Y-148592238D01*
X106851088Y-148768141D01*
X106851093Y-148768147D01*
X107001852Y-148918906D01*
X107001856Y-148918909D01*
X107001858Y-148918911D01*
X107022405Y-148932986D01*
X107066589Y-148987112D01*
X107074496Y-149056533D01*
X107043617Y-149119208D01*
X107020926Y-149137884D01*
X107021102Y-149138126D01*
X107017158Y-149140991D01*
X106819666Y-149309666D01*
X106650991Y-149507158D01*
X106650990Y-149507159D01*
X106515292Y-149728599D01*
X106515290Y-149728602D01*
X106415906Y-149968537D01*
X106415901Y-149968554D01*
X106355274Y-150221085D01*
X106355274Y-150221088D01*
X106354572Y-150229998D01*
X106354574Y-150230000D01*
X107485021Y-150230000D01*
X107552060Y-150249685D01*
X107597815Y-150302489D01*
X107607759Y-150371647D01*
X107604287Y-150387934D01*
X107586105Y-150451837D01*
X107586104Y-150451837D01*
X107596453Y-150563517D01*
X107598885Y-150572063D01*
X107598299Y-150641930D01*
X107560034Y-150700390D01*
X107496237Y-150728881D01*
X107479619Y-150730000D01*
X106354574Y-150730000D01*
X106354572Y-150730001D01*
X93645427Y-150730001D01*
X93645426Y-150730000D01*
X92514979Y-150730000D01*
X92447940Y-150710315D01*
X92402185Y-150657511D01*
X92392241Y-150588353D01*
X92395713Y-150572066D01*
X92413894Y-150508162D01*
X92413895Y-150508160D01*
X92403546Y-150396482D01*
X92403546Y-150396479D01*
X92403544Y-150396475D01*
X92401115Y-150387937D01*
X92401701Y-150318070D01*
X92439966Y-150259610D01*
X92503763Y-150231119D01*
X92520381Y-150230000D01*
X93645426Y-150230000D01*
X93645427Y-150229998D01*
X93644725Y-150221088D01*
X93644725Y-150221085D01*
X93584098Y-149968554D01*
X93584093Y-149968537D01*
X93484709Y-149728602D01*
X93484707Y-149728599D01*
X93349009Y-149507159D01*
X93349008Y-149507158D01*
X93180333Y-149309666D01*
X92982841Y-149140991D01*
X92978898Y-149138126D01*
X92979506Y-149137288D01*
X92936001Y-149089197D01*
X92924582Y-149020267D01*
X92952242Y-148956106D01*
X92977590Y-148932989D01*
X92998142Y-148918911D01*
X93148911Y-148768142D01*
X93269409Y-148592237D01*
X93355532Y-148397185D01*
X93404349Y-148189630D01*
X93410500Y-148101012D01*
X93410500Y-146658988D01*
X93404349Y-146570370D01*
X93404347Y-146570364D01*
X93404347Y-146570359D01*
X93355534Y-146362823D01*
X93355532Y-146362817D01*
X93355532Y-146362815D01*
X93269409Y-146167763D01*
X93148911Y-145991858D01*
X93148906Y-145991852D01*
X92998147Y-145841093D01*
X92998141Y-145841088D01*
X92822238Y-145720592D01*
X92822239Y-145720592D01*
X92822237Y-145720591D01*
X92627185Y-145634468D01*
X92627183Y-145634467D01*
X92627182Y-145634467D01*
X92627176Y-145634465D01*
X92419640Y-145585652D01*
X92419625Y-145585650D01*
X92346546Y-145580578D01*
X92331012Y-145579500D01*
X90888988Y-145579500D01*
X90874705Y-145580491D01*
X90800374Y-145585650D01*
X90800359Y-145585652D01*
X90592823Y-145634465D01*
X90592817Y-145634467D01*
X90397761Y-145720592D01*
X90221858Y-145841088D01*
X90221852Y-145841093D01*
X90071093Y-145991852D01*
X90071088Y-145991858D01*
X89950592Y-146167761D01*
X89864467Y-146362817D01*
X89864465Y-146362823D01*
X89815652Y-146570359D01*
X89815650Y-146570374D01*
X89809500Y-146658990D01*
X89809500Y-148101010D01*
X89815650Y-148189625D01*
X89815652Y-148189640D01*
X89864465Y-148397176D01*
X89864467Y-148397182D01*
X89864468Y-148397185D01*
X89950591Y-148592237D01*
X89950592Y-148592238D01*
X90071088Y-148768141D01*
X90071093Y-148768147D01*
X90221852Y-148918906D01*
X90221856Y-148918909D01*
X90221858Y-148918911D01*
X90242405Y-148932986D01*
X90286589Y-148987112D01*
X90294496Y-149056533D01*
X90263617Y-149119208D01*
X90240926Y-149137884D01*
X90241102Y-149138126D01*
X90237158Y-149140991D01*
X90039666Y-149309666D01*
X89870991Y-149507158D01*
X89870990Y-149507159D01*
X89735292Y-149728599D01*
X89735290Y-149728602D01*
X89635906Y-149968537D01*
X89635901Y-149968554D01*
X89575274Y-150221085D01*
X89575274Y-150221088D01*
X89574572Y-150229998D01*
X89574574Y-150230000D01*
X90705021Y-150230000D01*
X90772060Y-150249685D01*
X90817815Y-150302489D01*
X90827759Y-150371647D01*
X90824287Y-150387934D01*
X90806105Y-150451837D01*
X90806104Y-150451837D01*
X90816453Y-150563517D01*
X90818885Y-150572063D01*
X90818299Y-150641930D01*
X90780034Y-150700390D01*
X90716237Y-150728881D01*
X90699619Y-150730000D01*
X89574574Y-150730000D01*
X89574572Y-150730001D01*
X76865427Y-150730001D01*
X76865426Y-150730000D01*
X75734979Y-150730000D01*
X75667940Y-150710315D01*
X75622185Y-150657511D01*
X75612241Y-150588353D01*
X75615713Y-150572066D01*
X75633894Y-150508162D01*
X75633895Y-150508160D01*
X75623546Y-150396482D01*
X75623546Y-150396479D01*
X75623544Y-150396475D01*
X75621115Y-150387937D01*
X75621701Y-150318070D01*
X75659966Y-150259610D01*
X75723763Y-150231119D01*
X75740381Y-150230000D01*
X76865426Y-150230000D01*
X76865427Y-150229998D01*
X76864725Y-150221088D01*
X76864725Y-150221085D01*
X76804098Y-149968554D01*
X76804093Y-149968537D01*
X76704709Y-149728602D01*
X76704707Y-149728599D01*
X76569009Y-149507159D01*
X76569008Y-149507158D01*
X76400333Y-149309666D01*
X76202841Y-149140991D01*
X76198898Y-149138126D01*
X76199506Y-149137288D01*
X76156001Y-149089197D01*
X76144582Y-149020267D01*
X76172242Y-148956106D01*
X76197590Y-148932989D01*
X76218142Y-148918911D01*
X76368911Y-148768142D01*
X76489409Y-148592237D01*
X76575532Y-148397185D01*
X76624349Y-148189630D01*
X76630500Y-148101012D01*
X76630500Y-146658988D01*
X76624349Y-146570370D01*
X76624347Y-146570364D01*
X76624347Y-146570359D01*
X76575534Y-146362823D01*
X76575532Y-146362817D01*
X76575532Y-146362815D01*
X76489409Y-146167763D01*
X76368911Y-145991858D01*
X76368906Y-145991852D01*
X76218147Y-145841093D01*
X76218141Y-145841088D01*
X76042238Y-145720592D01*
X76042239Y-145720592D01*
X76042237Y-145720591D01*
X75847185Y-145634468D01*
X75847183Y-145634467D01*
X75847182Y-145634467D01*
X75847176Y-145634465D01*
X75639640Y-145585652D01*
X75639625Y-145585650D01*
X75566546Y-145580578D01*
X75551012Y-145579500D01*
X74108988Y-145579500D01*
X74094705Y-145580491D01*
X74020374Y-145585650D01*
X74020359Y-145585652D01*
X73812823Y-145634465D01*
X73812817Y-145634467D01*
X73617761Y-145720592D01*
X73441858Y-145841088D01*
X73441852Y-145841093D01*
X73291093Y-145991852D01*
X73291088Y-145991858D01*
X73170592Y-146167761D01*
X73084467Y-146362817D01*
X73084465Y-146362823D01*
X73035652Y-146570359D01*
X73035650Y-146570374D01*
X73029500Y-146658990D01*
X73029500Y-148101010D01*
X73035650Y-148189625D01*
X73035652Y-148189640D01*
X73084465Y-148397176D01*
X73084467Y-148397182D01*
X73084468Y-148397185D01*
X73170591Y-148592237D01*
X73170592Y-148592238D01*
X73291088Y-148768141D01*
X73291093Y-148768147D01*
X73441852Y-148918906D01*
X73441856Y-148918909D01*
X73441858Y-148918911D01*
X73462405Y-148932986D01*
X73506589Y-148987112D01*
X73514496Y-149056533D01*
X73483617Y-149119208D01*
X73460926Y-149137884D01*
X73461102Y-149138126D01*
X73457158Y-149140991D01*
X73259666Y-149309666D01*
X73090991Y-149507158D01*
X73090990Y-149507159D01*
X72955292Y-149728599D01*
X72955290Y-149728602D01*
X72855906Y-149968537D01*
X72855901Y-149968554D01*
X72795274Y-150221085D01*
X72795274Y-150221088D01*
X72794572Y-150229998D01*
X72794574Y-150230000D01*
X73925021Y-150230000D01*
X73992060Y-150249685D01*
X74037815Y-150302489D01*
X74047759Y-150371647D01*
X74044287Y-150387934D01*
X74026105Y-150451837D01*
X74026104Y-150451837D01*
X74036453Y-150563517D01*
X74038885Y-150572063D01*
X74038299Y-150641930D01*
X74000034Y-150700390D01*
X73936237Y-150728881D01*
X73919619Y-150730000D01*
X72794574Y-150730000D01*
X72794572Y-150730001D01*
X67440000Y-150730001D01*
X67440000Y-139801010D01*
X73029500Y-139801010D01*
X73035650Y-139889625D01*
X73035652Y-139889640D01*
X73084465Y-140097176D01*
X73084467Y-140097182D01*
X73084468Y-140097185D01*
X73170591Y-140292237D01*
X73170592Y-140292238D01*
X73291088Y-140468141D01*
X73291093Y-140468147D01*
X73441852Y-140618906D01*
X73441858Y-140618911D01*
X73617763Y-140739409D01*
X73812815Y-140825532D01*
X73812821Y-140825533D01*
X73812823Y-140825534D01*
X74020359Y-140874347D01*
X74020364Y-140874347D01*
X74020370Y-140874349D01*
X74108988Y-140880500D01*
X74108990Y-140880500D01*
X75551010Y-140880500D01*
X75551012Y-140880500D01*
X75639630Y-140874349D01*
X75639636Y-140874347D01*
X75639640Y-140874347D01*
X75847176Y-140825534D01*
X75847174Y-140825534D01*
X75847185Y-140825532D01*
X76042237Y-140739409D01*
X76218142Y-140618911D01*
X76368911Y-140468142D01*
X76489409Y-140292237D01*
X76575532Y-140097185D01*
X76624349Y-139889630D01*
X76630500Y-139801012D01*
X76630500Y-139801010D01*
X89809500Y-139801010D01*
X89815650Y-139889625D01*
X89815652Y-139889640D01*
X89864465Y-140097176D01*
X89864467Y-140097182D01*
X89864468Y-140097185D01*
X89950591Y-140292237D01*
X89950592Y-140292238D01*
X90071088Y-140468141D01*
X90071093Y-140468147D01*
X90221852Y-140618906D01*
X90221858Y-140618911D01*
X90397763Y-140739409D01*
X90592815Y-140825532D01*
X90592821Y-140825533D01*
X90592823Y-140825534D01*
X90800359Y-140874347D01*
X90800364Y-140874347D01*
X90800370Y-140874349D01*
X90888988Y-140880500D01*
X90888990Y-140880500D01*
X92331010Y-140880500D01*
X92331012Y-140880500D01*
X92419630Y-140874349D01*
X92419636Y-140874347D01*
X92419640Y-140874347D01*
X92627176Y-140825534D01*
X92627174Y-140825534D01*
X92627185Y-140825532D01*
X92822237Y-140739409D01*
X92998142Y-140618911D01*
X93148911Y-140468142D01*
X93269409Y-140292237D01*
X93355532Y-140097185D01*
X93404349Y-139889630D01*
X93410500Y-139801012D01*
X93410500Y-139801010D01*
X106589500Y-139801010D01*
X106595650Y-139889625D01*
X106595652Y-139889640D01*
X106644465Y-140097176D01*
X106644467Y-140097182D01*
X106644468Y-140097185D01*
X106730591Y-140292237D01*
X106730592Y-140292238D01*
X106851088Y-140468141D01*
X106851093Y-140468147D01*
X107001852Y-140618906D01*
X107001858Y-140618911D01*
X107177763Y-140739409D01*
X107372815Y-140825532D01*
X107372821Y-140825533D01*
X107372823Y-140825534D01*
X107580359Y-140874347D01*
X107580364Y-140874347D01*
X107580370Y-140874349D01*
X107668988Y-140880500D01*
X107668990Y-140880500D01*
X109111010Y-140880500D01*
X109111012Y-140880500D01*
X109199630Y-140874349D01*
X109199636Y-140874347D01*
X109199640Y-140874347D01*
X109407176Y-140825534D01*
X109407174Y-140825534D01*
X109407185Y-140825532D01*
X109602237Y-140739409D01*
X109778142Y-140618911D01*
X109928911Y-140468142D01*
X110049409Y-140292237D01*
X110135532Y-140097185D01*
X110184349Y-139889630D01*
X110190500Y-139801012D01*
X110190500Y-139801010D01*
X123369500Y-139801010D01*
X123375650Y-139889625D01*
X123375652Y-139889640D01*
X123424465Y-140097176D01*
X123424467Y-140097182D01*
X123424468Y-140097185D01*
X123510591Y-140292237D01*
X123510592Y-140292238D01*
X123631088Y-140468141D01*
X123631093Y-140468147D01*
X123781852Y-140618906D01*
X123781858Y-140618911D01*
X123957763Y-140739409D01*
X124152815Y-140825532D01*
X124152821Y-140825533D01*
X124152823Y-140825534D01*
X124360359Y-140874347D01*
X124360364Y-140874347D01*
X124360370Y-140874349D01*
X124448988Y-140880500D01*
X124448990Y-140880500D01*
X125891010Y-140880500D01*
X125891012Y-140880500D01*
X125979630Y-140874349D01*
X125979636Y-140874347D01*
X125979640Y-140874347D01*
X126187176Y-140825534D01*
X126187174Y-140825534D01*
X126187185Y-140825532D01*
X126382237Y-140739409D01*
X126558142Y-140618911D01*
X126708911Y-140468142D01*
X126829409Y-140292237D01*
X126915532Y-140097185D01*
X126964349Y-139889630D01*
X126970500Y-139801012D01*
X126970500Y-138358988D01*
X126964349Y-138270370D01*
X126964347Y-138270364D01*
X126964347Y-138270359D01*
X126915534Y-138062823D01*
X126915532Y-138062817D01*
X126915532Y-138062815D01*
X126829409Y-137867763D01*
X126708911Y-137691858D01*
X126708906Y-137691852D01*
X126558147Y-137541093D01*
X126558141Y-137541088D01*
X126382238Y-137420592D01*
X126382239Y-137420592D01*
X126382237Y-137420591D01*
X126187185Y-137334468D01*
X126187183Y-137334467D01*
X126187182Y-137334467D01*
X126187176Y-137334465D01*
X125979640Y-137285652D01*
X125979625Y-137285650D01*
X125906546Y-137280578D01*
X125891012Y-137279500D01*
X124448988Y-137279500D01*
X124434705Y-137280491D01*
X124360374Y-137285650D01*
X124360359Y-137285652D01*
X124152823Y-137334465D01*
X124152817Y-137334467D01*
X123957761Y-137420592D01*
X123781858Y-137541088D01*
X123781852Y-137541093D01*
X123631093Y-137691852D01*
X123631088Y-137691858D01*
X123510592Y-137867761D01*
X123424467Y-138062817D01*
X123424465Y-138062823D01*
X123375652Y-138270359D01*
X123375650Y-138270374D01*
X123369500Y-138358990D01*
X123369500Y-139801010D01*
X110190500Y-139801010D01*
X110190500Y-138358988D01*
X110184349Y-138270370D01*
X110184347Y-138270364D01*
X110184347Y-138270359D01*
X110135534Y-138062823D01*
X110135532Y-138062817D01*
X110135532Y-138062815D01*
X110049409Y-137867763D01*
X109928911Y-137691858D01*
X109928906Y-137691852D01*
X109778147Y-137541093D01*
X109778141Y-137541088D01*
X109602238Y-137420592D01*
X109602239Y-137420592D01*
X109602237Y-137420591D01*
X109407185Y-137334468D01*
X109407183Y-137334467D01*
X109407182Y-137334467D01*
X109407176Y-137334465D01*
X109199640Y-137285652D01*
X109199625Y-137285650D01*
X109126546Y-137280578D01*
X109111012Y-137279500D01*
X107668988Y-137279500D01*
X107654705Y-137280491D01*
X107580374Y-137285650D01*
X107580359Y-137285652D01*
X107372823Y-137334465D01*
X107372817Y-137334467D01*
X107177761Y-137420592D01*
X107001858Y-137541088D01*
X107001852Y-137541093D01*
X106851093Y-137691852D01*
X106851088Y-137691858D01*
X106730592Y-137867761D01*
X106644467Y-138062817D01*
X106644465Y-138062823D01*
X106595652Y-138270359D01*
X106595650Y-138270374D01*
X106589500Y-138358990D01*
X106589500Y-139801010D01*
X93410500Y-139801010D01*
X93410500Y-138358988D01*
X93404349Y-138270370D01*
X93404347Y-138270364D01*
X93404347Y-138270359D01*
X93355534Y-138062823D01*
X93355532Y-138062817D01*
X93355532Y-138062815D01*
X93269409Y-137867763D01*
X93148911Y-137691858D01*
X93148906Y-137691852D01*
X92998147Y-137541093D01*
X92998141Y-137541088D01*
X92822238Y-137420592D01*
X92822239Y-137420592D01*
X92822237Y-137420591D01*
X92627185Y-137334468D01*
X92627183Y-137334467D01*
X92627182Y-137334467D01*
X92627176Y-137334465D01*
X92419640Y-137285652D01*
X92419625Y-137285650D01*
X92346546Y-137280578D01*
X92331012Y-137279500D01*
X90888988Y-137279500D01*
X90874705Y-137280491D01*
X90800374Y-137285650D01*
X90800359Y-137285652D01*
X90592823Y-137334465D01*
X90592817Y-137334467D01*
X90397761Y-137420592D01*
X90221858Y-137541088D01*
X90221852Y-137541093D01*
X90071093Y-137691852D01*
X90071088Y-137691858D01*
X89950592Y-137867761D01*
X89864467Y-138062817D01*
X89864465Y-138062823D01*
X89815652Y-138270359D01*
X89815650Y-138270374D01*
X89809500Y-138358990D01*
X89809500Y-139801010D01*
X76630500Y-139801010D01*
X76630500Y-138358988D01*
X76624349Y-138270370D01*
X76624347Y-138270364D01*
X76624347Y-138270359D01*
X76575534Y-138062823D01*
X76575532Y-138062817D01*
X76575532Y-138062815D01*
X76489409Y-137867763D01*
X76368911Y-137691858D01*
X76368906Y-137691852D01*
X76218147Y-137541093D01*
X76218141Y-137541088D01*
X76042238Y-137420592D01*
X76042239Y-137420592D01*
X76042237Y-137420591D01*
X75847185Y-137334468D01*
X75847183Y-137334467D01*
X75847182Y-137334467D01*
X75847176Y-137334465D01*
X75639640Y-137285652D01*
X75639625Y-137285650D01*
X75566546Y-137280578D01*
X75551012Y-137279500D01*
X74108988Y-137279500D01*
X74094705Y-137280491D01*
X74020374Y-137285650D01*
X74020359Y-137285652D01*
X73812823Y-137334465D01*
X73812817Y-137334467D01*
X73617761Y-137420592D01*
X73441858Y-137541088D01*
X73441852Y-137541093D01*
X73291093Y-137691852D01*
X73291088Y-137691858D01*
X73170592Y-137867761D01*
X73084467Y-138062817D01*
X73084465Y-138062823D01*
X73035652Y-138270359D01*
X73035650Y-138270374D01*
X73029500Y-138358990D01*
X73029500Y-139801010D01*
X67440000Y-139801010D01*
X67440000Y-134730001D01*
X72794572Y-134730001D01*
X72795274Y-134738911D01*
X72795274Y-134738914D01*
X72855901Y-134991445D01*
X72855906Y-134991462D01*
X72955290Y-135231397D01*
X72955292Y-135231400D01*
X73090990Y-135452840D01*
X73090991Y-135452841D01*
X73259666Y-135650333D01*
X73457158Y-135819008D01*
X73457159Y-135819009D01*
X73678599Y-135954707D01*
X73678602Y-135954709D01*
X73918537Y-136054093D01*
X73918554Y-136054098D01*
X74171088Y-136114725D01*
X74171087Y-136114725D01*
X74365171Y-136130000D01*
X74580000Y-136130000D01*
X74580000Y-134904000D01*
X74599685Y-134836961D01*
X74652489Y-134791206D01*
X74704000Y-134780000D01*
X74956000Y-134780000D01*
X75023039Y-134799685D01*
X75068794Y-134852489D01*
X75080000Y-134904000D01*
X75080000Y-136130000D01*
X75294829Y-136130000D01*
X75488911Y-136114725D01*
X75741445Y-136054098D01*
X75741462Y-136054093D01*
X75981397Y-135954709D01*
X75981400Y-135954707D01*
X76202840Y-135819009D01*
X76202841Y-135819008D01*
X76400333Y-135650333D01*
X76569008Y-135452841D01*
X76569009Y-135452840D01*
X76704707Y-135231400D01*
X76704709Y-135231397D01*
X76804093Y-134991462D01*
X76804098Y-134991445D01*
X76864725Y-134738914D01*
X76864725Y-134738911D01*
X76865427Y-134730001D01*
X89574572Y-134730001D01*
X89575274Y-134738911D01*
X89575274Y-134738914D01*
X89635901Y-134991445D01*
X89635906Y-134991462D01*
X89735290Y-135231397D01*
X89735292Y-135231400D01*
X89870990Y-135452840D01*
X89870991Y-135452841D01*
X90039666Y-135650333D01*
X90237158Y-135819008D01*
X90237159Y-135819009D01*
X90458599Y-135954707D01*
X90458602Y-135954709D01*
X90698537Y-136054093D01*
X90698554Y-136054098D01*
X90951088Y-136114725D01*
X90951087Y-136114725D01*
X91145171Y-136130000D01*
X91360000Y-136130000D01*
X91360000Y-134904000D01*
X91379685Y-134836961D01*
X91432489Y-134791206D01*
X91484000Y-134780000D01*
X91736000Y-134780000D01*
X91803039Y-134799685D01*
X91848794Y-134852489D01*
X91860000Y-134904000D01*
X91860000Y-136130000D01*
X92074829Y-136130000D01*
X92268911Y-136114725D01*
X92521445Y-136054098D01*
X92521462Y-136054093D01*
X92761397Y-135954709D01*
X92761400Y-135954707D01*
X92982840Y-135819009D01*
X92982841Y-135819008D01*
X93180333Y-135650333D01*
X93349008Y-135452841D01*
X93349009Y-135452840D01*
X93484707Y-135231400D01*
X93484709Y-135231397D01*
X93584093Y-134991462D01*
X93584098Y-134991445D01*
X93644725Y-134738914D01*
X93644725Y-134738911D01*
X93645427Y-134730001D01*
X106354572Y-134730001D01*
X106355274Y-134738911D01*
X106355274Y-134738914D01*
X106415901Y-134991445D01*
X106415906Y-134991462D01*
X106515290Y-135231397D01*
X106515292Y-135231400D01*
X106650990Y-135452840D01*
X106650991Y-135452841D01*
X106819666Y-135650333D01*
X107017158Y-135819008D01*
X107017159Y-135819009D01*
X107238599Y-135954707D01*
X107238602Y-135954709D01*
X107478537Y-136054093D01*
X107478554Y-136054098D01*
X107731088Y-136114725D01*
X107731087Y-136114725D01*
X107925171Y-136130000D01*
X108140000Y-136130000D01*
X108140000Y-134904000D01*
X108159685Y-134836961D01*
X108212489Y-134791206D01*
X108264000Y-134780000D01*
X108516000Y-134780000D01*
X108583039Y-134799685D01*
X108628794Y-134852489D01*
X108640000Y-134904000D01*
X108639999Y-136130000D01*
X108854829Y-136130000D01*
X109048911Y-136114725D01*
X109301445Y-136054098D01*
X109301462Y-136054093D01*
X109541397Y-135954709D01*
X109541400Y-135954707D01*
X109762840Y-135819009D01*
X109762841Y-135819008D01*
X109960333Y-135650333D01*
X110129008Y-135452841D01*
X110129009Y-135452840D01*
X110264707Y-135231400D01*
X110264709Y-135231397D01*
X110364093Y-134991462D01*
X110364098Y-134991445D01*
X110424725Y-134738914D01*
X110424725Y-134738911D01*
X110425427Y-134730001D01*
X123134572Y-134730001D01*
X123135274Y-134738911D01*
X123135274Y-134738914D01*
X123195901Y-134991445D01*
X123195906Y-134991462D01*
X123295290Y-135231397D01*
X123295292Y-135231400D01*
X123430990Y-135452840D01*
X123430991Y-135452841D01*
X123599666Y-135650333D01*
X123797158Y-135819008D01*
X123797159Y-135819009D01*
X124018599Y-135954707D01*
X124018602Y-135954709D01*
X124258537Y-136054093D01*
X124258554Y-136054098D01*
X124511088Y-136114725D01*
X124511087Y-136114725D01*
X124705171Y-136130000D01*
X124920000Y-136130000D01*
X124920000Y-134904000D01*
X124939685Y-134836961D01*
X124992489Y-134791206D01*
X125044000Y-134780000D01*
X125296000Y-134780000D01*
X125363039Y-134799685D01*
X125408794Y-134852489D01*
X125420000Y-134904000D01*
X125420000Y-136130000D01*
X125634829Y-136130000D01*
X125828911Y-136114725D01*
X126081445Y-136054098D01*
X126081462Y-136054093D01*
X126321397Y-135954709D01*
X126321400Y-135954707D01*
X126542840Y-135819009D01*
X126542841Y-135819008D01*
X126740333Y-135650333D01*
X126909008Y-135452841D01*
X126909009Y-135452840D01*
X127044707Y-135231400D01*
X127044709Y-135231397D01*
X127144093Y-134991462D01*
X127144098Y-134991445D01*
X127204725Y-134738914D01*
X127204725Y-134738911D01*
X127205427Y-134730001D01*
X127205426Y-134730000D01*
X126074979Y-134730000D01*
X126007940Y-134710315D01*
X125962185Y-134657511D01*
X125952241Y-134588353D01*
X125955713Y-134572066D01*
X125973894Y-134508162D01*
X125973895Y-134508160D01*
X125963546Y-134396482D01*
X125963546Y-134396479D01*
X125963544Y-134396475D01*
X125961115Y-134387937D01*
X125961701Y-134318070D01*
X125999966Y-134259610D01*
X126063763Y-134231119D01*
X126080381Y-134230000D01*
X127205426Y-134230000D01*
X127205427Y-134229998D01*
X127204725Y-134221088D01*
X127204725Y-134221085D01*
X127144098Y-133968554D01*
X127144093Y-133968537D01*
X127044709Y-133728602D01*
X127044707Y-133728599D01*
X126909009Y-133507159D01*
X126909008Y-133507158D01*
X126740333Y-133309666D01*
X126542841Y-133140991D01*
X126538898Y-133138126D01*
X126539506Y-133137288D01*
X126496001Y-133089197D01*
X126484582Y-133020267D01*
X126512242Y-132956106D01*
X126537590Y-132932989D01*
X126558142Y-132918911D01*
X126708911Y-132768142D01*
X126829409Y-132592237D01*
X126915532Y-132397185D01*
X126964349Y-132189630D01*
X126970500Y-132101012D01*
X126970500Y-130658988D01*
X126964349Y-130570370D01*
X126964347Y-130570364D01*
X126964347Y-130570359D01*
X126915534Y-130362823D01*
X126915532Y-130362817D01*
X126915532Y-130362815D01*
X126829409Y-130167763D01*
X126708911Y-129991858D01*
X126708906Y-129991852D01*
X126558147Y-129841093D01*
X126558141Y-129841088D01*
X126382238Y-129720592D01*
X126382239Y-129720592D01*
X126382237Y-129720591D01*
X126187185Y-129634468D01*
X126187183Y-129634467D01*
X126187182Y-129634467D01*
X126187176Y-129634465D01*
X125979640Y-129585652D01*
X125979625Y-129585650D01*
X125906546Y-129580578D01*
X125891012Y-129579500D01*
X124448988Y-129579500D01*
X124434705Y-129580491D01*
X124360374Y-129585650D01*
X124360359Y-129585652D01*
X124152823Y-129634465D01*
X124152817Y-129634467D01*
X123957761Y-129720592D01*
X123781858Y-129841088D01*
X123781852Y-129841093D01*
X123631093Y-129991852D01*
X123631088Y-129991858D01*
X123510592Y-130167761D01*
X123510591Y-130167763D01*
X123469822Y-130260096D01*
X123424467Y-130362817D01*
X123424465Y-130362823D01*
X123375652Y-130570359D01*
X123375650Y-130570374D01*
X123369500Y-130658990D01*
X123369500Y-132101010D01*
X123375650Y-132189625D01*
X123375652Y-132189640D01*
X123424465Y-132397176D01*
X123424467Y-132397182D01*
X123424468Y-132397185D01*
X123510591Y-132592237D01*
X123510592Y-132592238D01*
X123631088Y-132768141D01*
X123631093Y-132768147D01*
X123781852Y-132918906D01*
X123781856Y-132918909D01*
X123781858Y-132918911D01*
X123802405Y-132932986D01*
X123846589Y-132987112D01*
X123854496Y-133056533D01*
X123823617Y-133119208D01*
X123800926Y-133137884D01*
X123801102Y-133138126D01*
X123797158Y-133140991D01*
X123599666Y-133309666D01*
X123430991Y-133507158D01*
X123430990Y-133507159D01*
X123295292Y-133728599D01*
X123295290Y-133728602D01*
X123195906Y-133968537D01*
X123195901Y-133968554D01*
X123135274Y-134221085D01*
X123135274Y-134221088D01*
X123134572Y-134229998D01*
X123134574Y-134230000D01*
X124265021Y-134230000D01*
X124332060Y-134249685D01*
X124377815Y-134302489D01*
X124387759Y-134371647D01*
X124384287Y-134387934D01*
X124366105Y-134451837D01*
X124366104Y-134451837D01*
X124376453Y-134563517D01*
X124378885Y-134572063D01*
X124378299Y-134641930D01*
X124340034Y-134700390D01*
X124276237Y-134728881D01*
X124259619Y-134730000D01*
X123134574Y-134730000D01*
X123134572Y-134730001D01*
X110425427Y-134730001D01*
X110425426Y-134730000D01*
X109294979Y-134730000D01*
X109227940Y-134710315D01*
X109182185Y-134657511D01*
X109172241Y-134588353D01*
X109175713Y-134572066D01*
X109193894Y-134508162D01*
X109193895Y-134508160D01*
X109183546Y-134396482D01*
X109183546Y-134396479D01*
X109183544Y-134396475D01*
X109181115Y-134387937D01*
X109181701Y-134318070D01*
X109219966Y-134259610D01*
X109283763Y-134231119D01*
X109300381Y-134230000D01*
X110425426Y-134230000D01*
X110425427Y-134229998D01*
X110424725Y-134221088D01*
X110424725Y-134221085D01*
X110364098Y-133968554D01*
X110364093Y-133968537D01*
X110264709Y-133728602D01*
X110264707Y-133728599D01*
X110129009Y-133507159D01*
X110129008Y-133507158D01*
X109960333Y-133309666D01*
X109762841Y-133140991D01*
X109758898Y-133138126D01*
X109759506Y-133137288D01*
X109716001Y-133089197D01*
X109704582Y-133020267D01*
X109732242Y-132956106D01*
X109757590Y-132932989D01*
X109778142Y-132918911D01*
X109928911Y-132768142D01*
X110049409Y-132592237D01*
X110135532Y-132397185D01*
X110184349Y-132189630D01*
X110190500Y-132101012D01*
X110190500Y-130658988D01*
X110184349Y-130570370D01*
X110184347Y-130570364D01*
X110184347Y-130570359D01*
X110135534Y-130362823D01*
X110135532Y-130362817D01*
X110135532Y-130362815D01*
X110049409Y-130167763D01*
X109928911Y-129991858D01*
X109928906Y-129991852D01*
X109778147Y-129841093D01*
X109778141Y-129841088D01*
X109602238Y-129720592D01*
X109602239Y-129720592D01*
X109602237Y-129720591D01*
X109407185Y-129634468D01*
X109407183Y-129634467D01*
X109407182Y-129634467D01*
X109407176Y-129634465D01*
X109199640Y-129585652D01*
X109199625Y-129585650D01*
X109126546Y-129580578D01*
X109111012Y-129579500D01*
X107668988Y-129579500D01*
X107654705Y-129580491D01*
X107580374Y-129585650D01*
X107580359Y-129585652D01*
X107372823Y-129634465D01*
X107372817Y-129634467D01*
X107177761Y-129720592D01*
X107001858Y-129841088D01*
X107001852Y-129841093D01*
X106851093Y-129991852D01*
X106851088Y-129991858D01*
X106730592Y-130167761D01*
X106730591Y-130167763D01*
X106689822Y-130260096D01*
X106644467Y-130362817D01*
X106644465Y-130362823D01*
X106595652Y-130570359D01*
X106595650Y-130570374D01*
X106589500Y-130658990D01*
X106589500Y-132101010D01*
X106595650Y-132189625D01*
X106595652Y-132189640D01*
X106644465Y-132397176D01*
X106644467Y-132397182D01*
X106644468Y-132397185D01*
X106730591Y-132592237D01*
X106730592Y-132592238D01*
X106851088Y-132768141D01*
X106851093Y-132768147D01*
X107001852Y-132918906D01*
X107001856Y-132918909D01*
X107001858Y-132918911D01*
X107022405Y-132932986D01*
X107066589Y-132987112D01*
X107074496Y-133056533D01*
X107043617Y-133119208D01*
X107020926Y-133137884D01*
X107021102Y-133138126D01*
X107017158Y-133140991D01*
X106819666Y-133309666D01*
X106650991Y-133507158D01*
X106650990Y-133507159D01*
X106515292Y-133728599D01*
X106515290Y-133728602D01*
X106415906Y-133968537D01*
X106415901Y-133968554D01*
X106355274Y-134221085D01*
X106355274Y-134221088D01*
X106354572Y-134229998D01*
X106354574Y-134230000D01*
X107485021Y-134230000D01*
X107552060Y-134249685D01*
X107597815Y-134302489D01*
X107607759Y-134371647D01*
X107604287Y-134387934D01*
X107586105Y-134451837D01*
X107586104Y-134451837D01*
X107596453Y-134563517D01*
X107598885Y-134572063D01*
X107598299Y-134641930D01*
X107560034Y-134700390D01*
X107496237Y-134728881D01*
X107479619Y-134730000D01*
X106354574Y-134730000D01*
X106354572Y-134730001D01*
X93645427Y-134730001D01*
X93645426Y-134730000D01*
X92514979Y-134730000D01*
X92447940Y-134710315D01*
X92402185Y-134657511D01*
X92392241Y-134588353D01*
X92395713Y-134572066D01*
X92413894Y-134508162D01*
X92413895Y-134508160D01*
X92403546Y-134396482D01*
X92403546Y-134396479D01*
X92403544Y-134396475D01*
X92401115Y-134387937D01*
X92401701Y-134318070D01*
X92439966Y-134259610D01*
X92503763Y-134231119D01*
X92520381Y-134230000D01*
X93645426Y-134230000D01*
X93645427Y-134229998D01*
X93644725Y-134221088D01*
X93644725Y-134221085D01*
X93584098Y-133968554D01*
X93584093Y-133968537D01*
X93484709Y-133728602D01*
X93484707Y-133728599D01*
X93349009Y-133507159D01*
X93349008Y-133507158D01*
X93180333Y-133309666D01*
X92982841Y-133140991D01*
X92978898Y-133138126D01*
X92979506Y-133137288D01*
X92936001Y-133089197D01*
X92924582Y-133020267D01*
X92952242Y-132956106D01*
X92977590Y-132932989D01*
X92998142Y-132918911D01*
X93148911Y-132768142D01*
X93269409Y-132592237D01*
X93355532Y-132397185D01*
X93404349Y-132189630D01*
X93410500Y-132101012D01*
X93410500Y-131318000D01*
X98154540Y-131318000D01*
X98174326Y-131506256D01*
X98174327Y-131506259D01*
X98232818Y-131686277D01*
X98232821Y-131686284D01*
X98327467Y-131850216D01*
X98454128Y-131990888D01*
X98454129Y-131990888D01*
X98607265Y-132102148D01*
X98607270Y-132102151D01*
X98780192Y-132179142D01*
X98780197Y-132179144D01*
X98965354Y-132218500D01*
X98965355Y-132218500D01*
X99154644Y-132218500D01*
X99154646Y-132218500D01*
X99339803Y-132179144D01*
X99512730Y-132102151D01*
X99520944Y-132096182D01*
X99586750Y-132072702D01*
X99593831Y-132072500D01*
X102082169Y-132072500D01*
X102149208Y-132092185D01*
X102155052Y-132096180D01*
X102161702Y-132101012D01*
X102163269Y-132102150D01*
X102163270Y-132102151D01*
X102336192Y-132179142D01*
X102336197Y-132179144D01*
X102521354Y-132218500D01*
X102521355Y-132218500D01*
X102710644Y-132218500D01*
X102710646Y-132218500D01*
X102895803Y-132179144D01*
X103068730Y-132102151D01*
X103221871Y-131990888D01*
X103348533Y-131850216D01*
X103443179Y-131686284D01*
X103501674Y-131506256D01*
X103521460Y-131318000D01*
X103501674Y-131129744D01*
X103443179Y-130949716D01*
X103348533Y-130785784D01*
X103221871Y-130645112D01*
X103221870Y-130645111D01*
X103068734Y-130533851D01*
X103068729Y-130533848D01*
X102895807Y-130456857D01*
X102895802Y-130456855D01*
X102750001Y-130425865D01*
X102710646Y-130417500D01*
X102521354Y-130417500D01*
X102488897Y-130424398D01*
X102336197Y-130456855D01*
X102336192Y-130456857D01*
X102163270Y-130533848D01*
X102163269Y-130533849D01*
X102155056Y-130539817D01*
X102089250Y-130563298D01*
X102082169Y-130563500D01*
X99593831Y-130563500D01*
X99526792Y-130543815D01*
X99520944Y-130539817D01*
X99512730Y-130533849D01*
X99512729Y-130533848D01*
X99339807Y-130456857D01*
X99339802Y-130456855D01*
X99194000Y-130425865D01*
X99154646Y-130417500D01*
X98965354Y-130417500D01*
X98932897Y-130424398D01*
X98780197Y-130456855D01*
X98780192Y-130456857D01*
X98607270Y-130533848D01*
X98607265Y-130533851D01*
X98454129Y-130645111D01*
X98327466Y-130785785D01*
X98232821Y-130949715D01*
X98232818Y-130949722D01*
X98174327Y-131129740D01*
X98174326Y-131129744D01*
X98154540Y-131318000D01*
X93410500Y-131318000D01*
X93410500Y-130658988D01*
X93404349Y-130570370D01*
X93404347Y-130570364D01*
X93404347Y-130570359D01*
X93355534Y-130362823D01*
X93355532Y-130362817D01*
X93355532Y-130362815D01*
X93269409Y-130167763D01*
X93148911Y-129991858D01*
X93148906Y-129991852D01*
X92998147Y-129841093D01*
X92998141Y-129841088D01*
X92822238Y-129720592D01*
X92822239Y-129720592D01*
X92822237Y-129720591D01*
X92627185Y-129634468D01*
X92627183Y-129634467D01*
X92627182Y-129634467D01*
X92627176Y-129634465D01*
X92419640Y-129585652D01*
X92419625Y-129585650D01*
X92346546Y-129580578D01*
X92331012Y-129579500D01*
X90888988Y-129579500D01*
X90874705Y-129580491D01*
X90800374Y-129585650D01*
X90800359Y-129585652D01*
X90592823Y-129634465D01*
X90592817Y-129634467D01*
X90397761Y-129720592D01*
X90221858Y-129841088D01*
X90221852Y-129841093D01*
X90071093Y-129991852D01*
X90071088Y-129991858D01*
X89950592Y-130167761D01*
X89950591Y-130167763D01*
X89909822Y-130260096D01*
X89864467Y-130362817D01*
X89864465Y-130362823D01*
X89815652Y-130570359D01*
X89815650Y-130570374D01*
X89809500Y-130658990D01*
X89809500Y-132101010D01*
X89815650Y-132189625D01*
X89815652Y-132189640D01*
X89864465Y-132397176D01*
X89864467Y-132397182D01*
X89864468Y-132397185D01*
X89950591Y-132592237D01*
X89950592Y-132592238D01*
X90071088Y-132768141D01*
X90071093Y-132768147D01*
X90221852Y-132918906D01*
X90221856Y-132918909D01*
X90221858Y-132918911D01*
X90242405Y-132932986D01*
X90286589Y-132987112D01*
X90294496Y-133056533D01*
X90263617Y-133119208D01*
X90240926Y-133137884D01*
X90241102Y-133138126D01*
X90237158Y-133140991D01*
X90039666Y-133309666D01*
X89870991Y-133507158D01*
X89870990Y-133507159D01*
X89735292Y-133728599D01*
X89735290Y-133728602D01*
X89635906Y-133968537D01*
X89635901Y-133968554D01*
X89575274Y-134221085D01*
X89575274Y-134221088D01*
X89574572Y-134229998D01*
X89574574Y-134230000D01*
X90705021Y-134230000D01*
X90772060Y-134249685D01*
X90817815Y-134302489D01*
X90827759Y-134371647D01*
X90824287Y-134387934D01*
X90806105Y-134451837D01*
X90806104Y-134451837D01*
X90816453Y-134563517D01*
X90818885Y-134572063D01*
X90818299Y-134641930D01*
X90780034Y-134700390D01*
X90716237Y-134728881D01*
X90699619Y-134730000D01*
X89574574Y-134730000D01*
X89574572Y-134730001D01*
X76865427Y-134730001D01*
X76865426Y-134730000D01*
X75734979Y-134730000D01*
X75667940Y-134710315D01*
X75622185Y-134657511D01*
X75612241Y-134588353D01*
X75615713Y-134572066D01*
X75633894Y-134508162D01*
X75633895Y-134508160D01*
X75623546Y-134396482D01*
X75623546Y-134396479D01*
X75623544Y-134396475D01*
X75621115Y-134387937D01*
X75621701Y-134318070D01*
X75659966Y-134259610D01*
X75723763Y-134231119D01*
X75740381Y-134230000D01*
X76865426Y-134230000D01*
X76865427Y-134229998D01*
X76864725Y-134221088D01*
X76864725Y-134221085D01*
X76804098Y-133968554D01*
X76804093Y-133968537D01*
X76704709Y-133728602D01*
X76704707Y-133728599D01*
X76569009Y-133507159D01*
X76569008Y-133507158D01*
X76400333Y-133309666D01*
X76202841Y-133140991D01*
X76198898Y-133138126D01*
X76199506Y-133137288D01*
X76156001Y-133089197D01*
X76144582Y-133020267D01*
X76172242Y-132956106D01*
X76197590Y-132932989D01*
X76218142Y-132918911D01*
X76368911Y-132768142D01*
X76489409Y-132592237D01*
X76575532Y-132397185D01*
X76624349Y-132189630D01*
X76630500Y-132101012D01*
X76630500Y-130658988D01*
X76624349Y-130570370D01*
X76624347Y-130570364D01*
X76624347Y-130570359D01*
X76575534Y-130362823D01*
X76575532Y-130362817D01*
X76575532Y-130362815D01*
X76489409Y-130167763D01*
X76368911Y-129991858D01*
X76368906Y-129991852D01*
X76218147Y-129841093D01*
X76218141Y-129841088D01*
X76134805Y-129784002D01*
X83108340Y-129784002D01*
X83126944Y-129996654D01*
X83126945Y-129996662D01*
X83182194Y-130202853D01*
X83182197Y-130202859D01*
X83272412Y-130396328D01*
X83272413Y-130396330D01*
X83311415Y-130452030D01*
X83311415Y-130452031D01*
X83795580Y-129967866D01*
X83856903Y-129934381D01*
X83926594Y-129939365D01*
X83982528Y-129981236D01*
X83993742Y-129999246D01*
X84005359Y-130022045D01*
X84005361Y-130022047D01*
X84005363Y-130022050D01*
X84094949Y-130111636D01*
X84094951Y-130111637D01*
X84094955Y-130111641D01*
X84117747Y-130123254D01*
X84168542Y-130171228D01*
X84185337Y-130239049D01*
X84162799Y-130305184D01*
X84149132Y-130321419D01*
X83664967Y-130805583D01*
X83720670Y-130844586D01*
X83914140Y-130934802D01*
X83914146Y-130934805D01*
X84120337Y-130990054D01*
X84120345Y-130990055D01*
X84332998Y-131008660D01*
X84333002Y-131008660D01*
X84545654Y-130990055D01*
X84545662Y-130990054D01*
X84751853Y-130934805D01*
X84751859Y-130934802D01*
X84945330Y-130844586D01*
X84945336Y-130844582D01*
X85001031Y-130805584D01*
X84516866Y-130321419D01*
X84483381Y-130260096D01*
X84488365Y-130190404D01*
X84530237Y-130134471D01*
X84548245Y-130123258D01*
X84571045Y-130111641D01*
X84660641Y-130022045D01*
X84672254Y-129999252D01*
X84720225Y-129948458D01*
X84788046Y-129931661D01*
X84854181Y-129954197D01*
X84870419Y-129967866D01*
X85354584Y-130452031D01*
X85393582Y-130396336D01*
X85393586Y-130396330D01*
X85483802Y-130202859D01*
X85483805Y-130202853D01*
X85539054Y-129996662D01*
X85539055Y-129996654D01*
X85557660Y-129784002D01*
X85557660Y-129783997D01*
X85539055Y-129571345D01*
X85539054Y-129571337D01*
X85483805Y-129365146D01*
X85483802Y-129365140D01*
X85393586Y-129171670D01*
X85354583Y-129115967D01*
X84870419Y-129600132D01*
X84809096Y-129633617D01*
X84739404Y-129628633D01*
X84683471Y-129586761D01*
X84672256Y-129568751D01*
X84660641Y-129545955D01*
X84660637Y-129545951D01*
X84660636Y-129545949D01*
X84571050Y-129456363D01*
X84571047Y-129456361D01*
X84571045Y-129456359D01*
X84548250Y-129444744D01*
X84497456Y-129396771D01*
X84480661Y-129328950D01*
X84503198Y-129262815D01*
X84516866Y-129246580D01*
X85001031Y-128762415D01*
X84945330Y-128723413D01*
X84945328Y-128723412D01*
X84751859Y-128633197D01*
X84751853Y-128633194D01*
X84545662Y-128577945D01*
X84545654Y-128577944D01*
X84333002Y-128559340D01*
X84332998Y-128559340D01*
X84120345Y-128577944D01*
X84120337Y-128577945D01*
X83914146Y-128633194D01*
X83914140Y-128633197D01*
X83720667Y-128723414D01*
X83664967Y-128762414D01*
X84149133Y-129246580D01*
X84182618Y-129307903D01*
X84177634Y-129377595D01*
X84135762Y-129433528D01*
X84117748Y-129444745D01*
X84094956Y-129456358D01*
X84094949Y-129456363D01*
X84005363Y-129545949D01*
X84005358Y-129545956D01*
X83993745Y-129568748D01*
X83945770Y-129619544D01*
X83877949Y-129636338D01*
X83811814Y-129613800D01*
X83795580Y-129600133D01*
X83311414Y-129115967D01*
X83272414Y-129171667D01*
X83182197Y-129365140D01*
X83182194Y-129365146D01*
X83126945Y-129571337D01*
X83126944Y-129571345D01*
X83108340Y-129783997D01*
X83108340Y-129784002D01*
X76134805Y-129784002D01*
X76042238Y-129720592D01*
X76042239Y-129720592D01*
X76042237Y-129720591D01*
X75847185Y-129634468D01*
X75847183Y-129634467D01*
X75847182Y-129634467D01*
X75847176Y-129634465D01*
X75639640Y-129585652D01*
X75639625Y-129585650D01*
X75566546Y-129580578D01*
X75551012Y-129579500D01*
X74108988Y-129579500D01*
X74094705Y-129580491D01*
X74020374Y-129585650D01*
X74020359Y-129585652D01*
X73812823Y-129634465D01*
X73812817Y-129634467D01*
X73617761Y-129720592D01*
X73441858Y-129841088D01*
X73441852Y-129841093D01*
X73291093Y-129991852D01*
X73291088Y-129991858D01*
X73170592Y-130167761D01*
X73170591Y-130167763D01*
X73129822Y-130260096D01*
X73084467Y-130362817D01*
X73084465Y-130362823D01*
X73035652Y-130570359D01*
X73035650Y-130570374D01*
X73029500Y-130658990D01*
X73029500Y-132101010D01*
X73035650Y-132189625D01*
X73035652Y-132189640D01*
X73084465Y-132397176D01*
X73084467Y-132397182D01*
X73084468Y-132397185D01*
X73170591Y-132592237D01*
X73170592Y-132592238D01*
X73291088Y-132768141D01*
X73291093Y-132768147D01*
X73441852Y-132918906D01*
X73441856Y-132918909D01*
X73441858Y-132918911D01*
X73462405Y-132932986D01*
X73506589Y-132987112D01*
X73514496Y-133056533D01*
X73483617Y-133119208D01*
X73460926Y-133137884D01*
X73461102Y-133138126D01*
X73457158Y-133140991D01*
X73259666Y-133309666D01*
X73090991Y-133507158D01*
X73090990Y-133507159D01*
X72955292Y-133728599D01*
X72955290Y-133728602D01*
X72855906Y-133968537D01*
X72855901Y-133968554D01*
X72795274Y-134221085D01*
X72795274Y-134221088D01*
X72794572Y-134229998D01*
X72794574Y-134230000D01*
X73925021Y-134230000D01*
X73992060Y-134249685D01*
X74037815Y-134302489D01*
X74047759Y-134371647D01*
X74044287Y-134387934D01*
X74026105Y-134451837D01*
X74026104Y-134451837D01*
X74036453Y-134563517D01*
X74038885Y-134572063D01*
X74038299Y-134641930D01*
X74000034Y-134700390D01*
X73936237Y-134728881D01*
X73919619Y-134730000D01*
X72794574Y-134730000D01*
X72794572Y-134730001D01*
X67440000Y-134730001D01*
X67440000Y-127244001D01*
X80567838Y-127244001D01*
X80586450Y-127456741D01*
X80586452Y-127456752D01*
X80641721Y-127663022D01*
X80641723Y-127663026D01*
X80641724Y-127663030D01*
X80684171Y-127754058D01*
X80731977Y-127856578D01*
X80854472Y-128031521D01*
X81005478Y-128182527D01*
X81005481Y-128182529D01*
X81180419Y-128305021D01*
X81180421Y-128305022D01*
X81180420Y-128305022D01*
X81244936Y-128335106D01*
X81373970Y-128395276D01*
X81580253Y-128450549D01*
X81732215Y-128463844D01*
X81792998Y-128469162D01*
X81793000Y-128469162D01*
X81793002Y-128469162D01*
X81846186Y-128464508D01*
X82005747Y-128450549D01*
X82212030Y-128395276D01*
X82405581Y-128305021D01*
X82580519Y-128182529D01*
X82731529Y-128031519D01*
X82854021Y-127856581D01*
X82944276Y-127663030D01*
X82999549Y-127456747D01*
X83018162Y-127244000D01*
X82999549Y-127031253D01*
X82944276Y-126824970D01*
X82854021Y-126631419D01*
X82731529Y-126456481D01*
X82731527Y-126456478D01*
X82580521Y-126305472D01*
X82405578Y-126182977D01*
X82405579Y-126182977D01*
X82276547Y-126122808D01*
X82212030Y-126092724D01*
X82212026Y-126092723D01*
X82212022Y-126092721D01*
X82005752Y-126037452D01*
X82005748Y-126037451D01*
X82005747Y-126037451D01*
X82005746Y-126037450D01*
X82005741Y-126037450D01*
X81793002Y-126018838D01*
X81792998Y-126018838D01*
X81580258Y-126037450D01*
X81580247Y-126037452D01*
X81373977Y-126092721D01*
X81373968Y-126092725D01*
X81180421Y-126182977D01*
X81005478Y-126305472D01*
X80854472Y-126456478D01*
X80731977Y-126631421D01*
X80641725Y-126824968D01*
X80641721Y-126824977D01*
X80586452Y-127031247D01*
X80586450Y-127031258D01*
X80567838Y-127243998D01*
X80567838Y-127244001D01*
X67440000Y-127244001D01*
X67440000Y-123801010D01*
X73029500Y-123801010D01*
X73035650Y-123889625D01*
X73035652Y-123889640D01*
X73084465Y-124097176D01*
X73084467Y-124097182D01*
X73084468Y-124097185D01*
X73170591Y-124292237D01*
X73170592Y-124292238D01*
X73291088Y-124468141D01*
X73291093Y-124468147D01*
X73441852Y-124618906D01*
X73441858Y-124618911D01*
X73617763Y-124739409D01*
X73812815Y-124825532D01*
X73812821Y-124825533D01*
X73812823Y-124825534D01*
X74020359Y-124874347D01*
X74020364Y-124874347D01*
X74020370Y-124874349D01*
X74108988Y-124880500D01*
X74108990Y-124880500D01*
X75551010Y-124880500D01*
X75551012Y-124880500D01*
X75639630Y-124874349D01*
X75639636Y-124874347D01*
X75639640Y-124874347D01*
X75847176Y-124825534D01*
X75847174Y-124825534D01*
X75847185Y-124825532D01*
X76042237Y-124739409D01*
X76093926Y-124704001D01*
X83107838Y-124704001D01*
X83126450Y-124916741D01*
X83126452Y-124916752D01*
X83181721Y-125123022D01*
X83181723Y-125123026D01*
X83181724Y-125123030D01*
X83224171Y-125214058D01*
X83271977Y-125316578D01*
X83394472Y-125491521D01*
X83545478Y-125642527D01*
X83545481Y-125642529D01*
X83720419Y-125765021D01*
X83720421Y-125765022D01*
X83720420Y-125765022D01*
X83784936Y-125795106D01*
X83913970Y-125855276D01*
X84120253Y-125910549D01*
X84272215Y-125923843D01*
X84332998Y-125929162D01*
X84333000Y-125929162D01*
X84333002Y-125929162D01*
X84386186Y-125924508D01*
X84545747Y-125910549D01*
X84752030Y-125855276D01*
X84945581Y-125765021D01*
X85120519Y-125642529D01*
X85271529Y-125491519D01*
X85394021Y-125316581D01*
X85484276Y-125123030D01*
X85539549Y-124916747D01*
X85558162Y-124704000D01*
X85539549Y-124491253D01*
X85497581Y-124334627D01*
X85484278Y-124284977D01*
X85484277Y-124284976D01*
X85484276Y-124284970D01*
X85394021Y-124091419D01*
X85271529Y-123916481D01*
X85271527Y-123916478D01*
X85156059Y-123801010D01*
X89809500Y-123801010D01*
X89815650Y-123889625D01*
X89815652Y-123889640D01*
X89864465Y-124097176D01*
X89864467Y-124097182D01*
X89864468Y-124097185D01*
X89950591Y-124292237D01*
X89950592Y-124292238D01*
X90071088Y-124468141D01*
X90071093Y-124468147D01*
X90221852Y-124618906D01*
X90221858Y-124618911D01*
X90397763Y-124739409D01*
X90592815Y-124825532D01*
X90592821Y-124825533D01*
X90592823Y-124825534D01*
X90800359Y-124874347D01*
X90800364Y-124874347D01*
X90800370Y-124874349D01*
X90888988Y-124880500D01*
X90888990Y-124880500D01*
X92331010Y-124880500D01*
X92331012Y-124880500D01*
X92419630Y-124874349D01*
X92419636Y-124874347D01*
X92419640Y-124874347D01*
X92627176Y-124825534D01*
X92627174Y-124825534D01*
X92627185Y-124825532D01*
X92822237Y-124739409D01*
X92998142Y-124618911D01*
X93148911Y-124468142D01*
X93269409Y-124292237D01*
X93355532Y-124097185D01*
X93398034Y-123916481D01*
X93404347Y-123889640D01*
X93404347Y-123889636D01*
X93404349Y-123889630D01*
X93410500Y-123801012D01*
X93410500Y-123801010D01*
X106589500Y-123801010D01*
X106595650Y-123889625D01*
X106595652Y-123889640D01*
X106644465Y-124097176D01*
X106644467Y-124097182D01*
X106644468Y-124097185D01*
X106730591Y-124292237D01*
X106730592Y-124292238D01*
X106851088Y-124468141D01*
X106851093Y-124468147D01*
X107001852Y-124618906D01*
X107001858Y-124618911D01*
X107177763Y-124739409D01*
X107372815Y-124825532D01*
X107372821Y-124825533D01*
X107372823Y-124825534D01*
X107580359Y-124874347D01*
X107580364Y-124874347D01*
X107580370Y-124874349D01*
X107668988Y-124880500D01*
X107668990Y-124880500D01*
X109111010Y-124880500D01*
X109111012Y-124880500D01*
X109199630Y-124874349D01*
X109199636Y-124874347D01*
X109199640Y-124874347D01*
X109407176Y-124825534D01*
X109407174Y-124825534D01*
X109407185Y-124825532D01*
X109602237Y-124739409D01*
X109778142Y-124618911D01*
X109928911Y-124468142D01*
X110049409Y-124292237D01*
X110135532Y-124097185D01*
X110178034Y-123916481D01*
X110184347Y-123889640D01*
X110184347Y-123889636D01*
X110184349Y-123889630D01*
X110190500Y-123801012D01*
X110190500Y-123801010D01*
X123369500Y-123801010D01*
X123375650Y-123889625D01*
X123375652Y-123889640D01*
X123424465Y-124097176D01*
X123424467Y-124097182D01*
X123424468Y-124097185D01*
X123510591Y-124292237D01*
X123510592Y-124292238D01*
X123631088Y-124468141D01*
X123631093Y-124468147D01*
X123781852Y-124618906D01*
X123781858Y-124618911D01*
X123957763Y-124739409D01*
X124152815Y-124825532D01*
X124152821Y-124825533D01*
X124152823Y-124825534D01*
X124360359Y-124874347D01*
X124360364Y-124874347D01*
X124360370Y-124874349D01*
X124448988Y-124880500D01*
X124448990Y-124880500D01*
X125891010Y-124880500D01*
X125891012Y-124880500D01*
X125979630Y-124874349D01*
X125979636Y-124874347D01*
X125979640Y-124874347D01*
X126187176Y-124825534D01*
X126187174Y-124825534D01*
X126187185Y-124825532D01*
X126382237Y-124739409D01*
X126558142Y-124618911D01*
X126708911Y-124468142D01*
X126829409Y-124292237D01*
X126915532Y-124097185D01*
X126958034Y-123916481D01*
X126964347Y-123889640D01*
X126964347Y-123889636D01*
X126964349Y-123889630D01*
X126970500Y-123801012D01*
X126970500Y-122358988D01*
X126964349Y-122270370D01*
X126964347Y-122270364D01*
X126964347Y-122270359D01*
X126915534Y-122062823D01*
X126915532Y-122062817D01*
X126915532Y-122062815D01*
X126829409Y-121867763D01*
X126708911Y-121691858D01*
X126708906Y-121691852D01*
X126558147Y-121541093D01*
X126558141Y-121541088D01*
X126382238Y-121420592D01*
X126382239Y-121420592D01*
X126382237Y-121420591D01*
X126187185Y-121334468D01*
X126187183Y-121334467D01*
X126187182Y-121334467D01*
X126187176Y-121334465D01*
X125979640Y-121285652D01*
X125979625Y-121285650D01*
X125906546Y-121280578D01*
X125891012Y-121279500D01*
X124448988Y-121279500D01*
X124434705Y-121280491D01*
X124360374Y-121285650D01*
X124360359Y-121285652D01*
X124152823Y-121334465D01*
X124152817Y-121334467D01*
X123957761Y-121420592D01*
X123781858Y-121541088D01*
X123781852Y-121541093D01*
X123631093Y-121691852D01*
X123631088Y-121691858D01*
X123510592Y-121867761D01*
X123424467Y-122062817D01*
X123424465Y-122062823D01*
X123375652Y-122270359D01*
X123375650Y-122270374D01*
X123369500Y-122358990D01*
X123369500Y-123801010D01*
X110190500Y-123801010D01*
X110190500Y-122358988D01*
X110184349Y-122270370D01*
X110184347Y-122270364D01*
X110184347Y-122270359D01*
X110135534Y-122062823D01*
X110135532Y-122062817D01*
X110135532Y-122062815D01*
X110049409Y-121867763D01*
X109928911Y-121691858D01*
X109928906Y-121691852D01*
X109778147Y-121541093D01*
X109778141Y-121541088D01*
X109602238Y-121420592D01*
X109602239Y-121420592D01*
X109602237Y-121420591D01*
X109407185Y-121334468D01*
X109407183Y-121334467D01*
X109407182Y-121334467D01*
X109407176Y-121334465D01*
X109199640Y-121285652D01*
X109199625Y-121285650D01*
X109126546Y-121280578D01*
X109111012Y-121279500D01*
X107668988Y-121279500D01*
X107654705Y-121280491D01*
X107580374Y-121285650D01*
X107580359Y-121285652D01*
X107372823Y-121334465D01*
X107372817Y-121334467D01*
X107177761Y-121420592D01*
X107001858Y-121541088D01*
X107001852Y-121541093D01*
X106851093Y-121691852D01*
X106851088Y-121691858D01*
X106730592Y-121867761D01*
X106644467Y-122062817D01*
X106644465Y-122062823D01*
X106595652Y-122270359D01*
X106595650Y-122270374D01*
X106589500Y-122358990D01*
X106589500Y-123801010D01*
X93410500Y-123801010D01*
X93410500Y-122358988D01*
X93404349Y-122270370D01*
X93404347Y-122270364D01*
X93404347Y-122270359D01*
X93355534Y-122062823D01*
X93355532Y-122062817D01*
X93355532Y-122062815D01*
X93269409Y-121867763D01*
X93148911Y-121691858D01*
X93148906Y-121691852D01*
X92998147Y-121541093D01*
X92998141Y-121541088D01*
X92822238Y-121420592D01*
X92822239Y-121420592D01*
X92822237Y-121420591D01*
X92627185Y-121334468D01*
X92627183Y-121334467D01*
X92627182Y-121334467D01*
X92627176Y-121334465D01*
X92419640Y-121285652D01*
X92419625Y-121285650D01*
X92346546Y-121280578D01*
X92331012Y-121279500D01*
X90888988Y-121279500D01*
X90874705Y-121280491D01*
X90800374Y-121285650D01*
X90800359Y-121285652D01*
X90592823Y-121334465D01*
X90592817Y-121334467D01*
X90397761Y-121420592D01*
X90221858Y-121541088D01*
X90221852Y-121541093D01*
X90071093Y-121691852D01*
X90071088Y-121691858D01*
X89950592Y-121867761D01*
X89864467Y-122062817D01*
X89864465Y-122062823D01*
X89815652Y-122270359D01*
X89815650Y-122270374D01*
X89809500Y-122358990D01*
X89809500Y-123801010D01*
X85156059Y-123801010D01*
X85120521Y-123765472D01*
X84945578Y-123642977D01*
X84945579Y-123642977D01*
X84816547Y-123582808D01*
X84752030Y-123552724D01*
X84752026Y-123552723D01*
X84752022Y-123552721D01*
X84545752Y-123497452D01*
X84545748Y-123497451D01*
X84545747Y-123497451D01*
X84545746Y-123497450D01*
X84545741Y-123497450D01*
X84333002Y-123478838D01*
X84332998Y-123478838D01*
X84120258Y-123497450D01*
X84120247Y-123497452D01*
X83913977Y-123552721D01*
X83913968Y-123552725D01*
X83720421Y-123642977D01*
X83545478Y-123765472D01*
X83394472Y-123916478D01*
X83271977Y-124091421D01*
X83181725Y-124284968D01*
X83181721Y-124284977D01*
X83126452Y-124491247D01*
X83126450Y-124491258D01*
X83107838Y-124703998D01*
X83107838Y-124704001D01*
X76093926Y-124704001D01*
X76218142Y-124618911D01*
X76368911Y-124468142D01*
X76489409Y-124292237D01*
X76575532Y-124097185D01*
X76618034Y-123916481D01*
X76624347Y-123889640D01*
X76624347Y-123889636D01*
X76624349Y-123889630D01*
X76630500Y-123801012D01*
X76630500Y-122358988D01*
X76624349Y-122270370D01*
X76624347Y-122270364D01*
X76624347Y-122270359D01*
X76575534Y-122062823D01*
X76575532Y-122062817D01*
X76575532Y-122062815D01*
X76489409Y-121867763D01*
X76368911Y-121691858D01*
X76368906Y-121691852D01*
X76218147Y-121541093D01*
X76218141Y-121541088D01*
X76042238Y-121420592D01*
X76042239Y-121420592D01*
X76042237Y-121420591D01*
X75847185Y-121334468D01*
X75847183Y-121334467D01*
X75847182Y-121334467D01*
X75847176Y-121334465D01*
X75639640Y-121285652D01*
X75639625Y-121285650D01*
X75566546Y-121280578D01*
X75551012Y-121279500D01*
X74108988Y-121279500D01*
X74094705Y-121280491D01*
X74020374Y-121285650D01*
X74020359Y-121285652D01*
X73812823Y-121334465D01*
X73812817Y-121334467D01*
X73617761Y-121420592D01*
X73441858Y-121541088D01*
X73441852Y-121541093D01*
X73291093Y-121691852D01*
X73291088Y-121691858D01*
X73170592Y-121867761D01*
X73084467Y-122062817D01*
X73084465Y-122062823D01*
X73035652Y-122270359D01*
X73035650Y-122270374D01*
X73029500Y-122358990D01*
X73029500Y-123801010D01*
X67440000Y-123801010D01*
X67440000Y-118000006D01*
X75200288Y-118000006D01*
X75219103Y-118227085D01*
X75219105Y-118227093D01*
X75275045Y-118447993D01*
X75366577Y-118656664D01*
X75366579Y-118656668D01*
X75446874Y-118779570D01*
X75898589Y-118327855D01*
X75959912Y-118294370D01*
X76029603Y-118299354D01*
X76084645Y-118340048D01*
X76152075Y-118427925D01*
X76152076Y-118427926D01*
X76239948Y-118495352D01*
X76281151Y-118551780D01*
X76285306Y-118621526D01*
X76252143Y-118681409D01*
X75799015Y-119134536D01*
X75799016Y-119134537D01*
X75825366Y-119155046D01*
X75825372Y-119155050D01*
X76025769Y-119263499D01*
X76025780Y-119263504D01*
X76241298Y-119337492D01*
X76466065Y-119375000D01*
X76693935Y-119375000D01*
X76918701Y-119337492D01*
X77134219Y-119263504D01*
X77134230Y-119263499D01*
X77334633Y-119155047D01*
X77360982Y-119134537D01*
X77360982Y-119134536D01*
X76907855Y-118681409D01*
X76874370Y-118620086D01*
X76879354Y-118550394D01*
X76920047Y-118495355D01*
X77007925Y-118427925D01*
X77075355Y-118340048D01*
X77131781Y-118298848D01*
X77201527Y-118294693D01*
X77261410Y-118327856D01*
X77713124Y-118779571D01*
X77793420Y-118656669D01*
X77884954Y-118447993D01*
X77940894Y-118227093D01*
X77940896Y-118227085D01*
X77959712Y-118000006D01*
X91980288Y-118000006D01*
X91999103Y-118227085D01*
X91999105Y-118227093D01*
X92055045Y-118447993D01*
X92146577Y-118656664D01*
X92146579Y-118656668D01*
X92226874Y-118779570D01*
X92678589Y-118327855D01*
X92739912Y-118294370D01*
X92809603Y-118299354D01*
X92864645Y-118340048D01*
X92932075Y-118427925D01*
X92932076Y-118427926D01*
X93019948Y-118495352D01*
X93061151Y-118551780D01*
X93065306Y-118621526D01*
X93032143Y-118681409D01*
X92579015Y-119134536D01*
X92579016Y-119134537D01*
X92605366Y-119155046D01*
X92605372Y-119155050D01*
X92805769Y-119263499D01*
X92805780Y-119263504D01*
X93021298Y-119337492D01*
X93246065Y-119375000D01*
X93473935Y-119375000D01*
X93698701Y-119337492D01*
X93914219Y-119263504D01*
X93914230Y-119263499D01*
X94114633Y-119155047D01*
X94140982Y-119134537D01*
X94140982Y-119134536D01*
X93687855Y-118681409D01*
X93654370Y-118620086D01*
X93659354Y-118550394D01*
X93700047Y-118495355D01*
X93787925Y-118427925D01*
X93855355Y-118340048D01*
X93911781Y-118298848D01*
X93981527Y-118294693D01*
X94041410Y-118327856D01*
X94493124Y-118779571D01*
X94573420Y-118656669D01*
X94664954Y-118447993D01*
X94720894Y-118227093D01*
X94720896Y-118227085D01*
X94739712Y-118000006D01*
X108760288Y-118000006D01*
X108779103Y-118227085D01*
X108779105Y-118227093D01*
X108835045Y-118447993D01*
X108926577Y-118656664D01*
X108926579Y-118656668D01*
X109006874Y-118779570D01*
X109458589Y-118327855D01*
X109519912Y-118294370D01*
X109589603Y-118299354D01*
X109644645Y-118340048D01*
X109712075Y-118427925D01*
X109712076Y-118427926D01*
X109799948Y-118495352D01*
X109841151Y-118551780D01*
X109845306Y-118621526D01*
X109812143Y-118681409D01*
X109359015Y-119134536D01*
X109359016Y-119134537D01*
X109385366Y-119155046D01*
X109385372Y-119155050D01*
X109585769Y-119263499D01*
X109585780Y-119263504D01*
X109801298Y-119337492D01*
X110026065Y-119375000D01*
X110253935Y-119375000D01*
X110478701Y-119337492D01*
X110694219Y-119263504D01*
X110694230Y-119263499D01*
X110894633Y-119155047D01*
X110920982Y-119134537D01*
X110920982Y-119134536D01*
X110467855Y-118681409D01*
X110434370Y-118620086D01*
X110439354Y-118550394D01*
X110480047Y-118495355D01*
X110567925Y-118427925D01*
X110635355Y-118340048D01*
X110691781Y-118298848D01*
X110761527Y-118294693D01*
X110821410Y-118327856D01*
X111273124Y-118779571D01*
X111353420Y-118656669D01*
X111444954Y-118447993D01*
X111500894Y-118227093D01*
X111500896Y-118227085D01*
X111519712Y-118000006D01*
X125540288Y-118000006D01*
X125559103Y-118227085D01*
X125559105Y-118227093D01*
X125615045Y-118447993D01*
X125706577Y-118656664D01*
X125706579Y-118656668D01*
X125786874Y-118779570D01*
X126238589Y-118327855D01*
X126299912Y-118294370D01*
X126369603Y-118299354D01*
X126424645Y-118340048D01*
X126492075Y-118427925D01*
X126492076Y-118427926D01*
X126579948Y-118495352D01*
X126621151Y-118551780D01*
X126625306Y-118621526D01*
X126592143Y-118681409D01*
X126139015Y-119134536D01*
X126139016Y-119134537D01*
X126165366Y-119155046D01*
X126165372Y-119155050D01*
X126365769Y-119263499D01*
X126365780Y-119263504D01*
X126581298Y-119337492D01*
X126806065Y-119375000D01*
X127033935Y-119375000D01*
X127258701Y-119337492D01*
X127474219Y-119263504D01*
X127474230Y-119263499D01*
X127674633Y-119155047D01*
X127700982Y-119134537D01*
X127700982Y-119134536D01*
X127247855Y-118681409D01*
X127214370Y-118620086D01*
X127219354Y-118550394D01*
X127260047Y-118495355D01*
X127347925Y-118427925D01*
X127415355Y-118340048D01*
X127471781Y-118298848D01*
X127541527Y-118294693D01*
X127601410Y-118327856D01*
X128053124Y-118779571D01*
X128133420Y-118656669D01*
X128224954Y-118447993D01*
X128280894Y-118227093D01*
X128280896Y-118227085D01*
X128299712Y-118000006D01*
X128299712Y-117999993D01*
X128280896Y-117772914D01*
X128280894Y-117772906D01*
X128224954Y-117552006D01*
X128133420Y-117343330D01*
X128053124Y-117220427D01*
X127601409Y-117672143D01*
X127540086Y-117705628D01*
X127470394Y-117700644D01*
X127415352Y-117659948D01*
X127347926Y-117572076D01*
X127321770Y-117552006D01*
X127260048Y-117504645D01*
X127218847Y-117448218D01*
X127214692Y-117378472D01*
X127247855Y-117318589D01*
X127700983Y-116865462D01*
X127700982Y-116865461D01*
X127674632Y-116844952D01*
X127674627Y-116844949D01*
X127474230Y-116736500D01*
X127474219Y-116736495D01*
X127258701Y-116662507D01*
X127033935Y-116625000D01*
X126806065Y-116625000D01*
X126581298Y-116662507D01*
X126365780Y-116736495D01*
X126365769Y-116736500D01*
X126165373Y-116844948D01*
X126139016Y-116865462D01*
X126592144Y-117318590D01*
X126625629Y-117379913D01*
X126620645Y-117449605D01*
X126579950Y-117504645D01*
X126518230Y-117552006D01*
X126492074Y-117572076D01*
X126424645Y-117659950D01*
X126368216Y-117701152D01*
X126298470Y-117705306D01*
X126238589Y-117672143D01*
X125786874Y-117220428D01*
X125706578Y-117343333D01*
X125706577Y-117343335D01*
X125615045Y-117552006D01*
X125559105Y-117772906D01*
X125559103Y-117772914D01*
X125540288Y-117999993D01*
X125540288Y-118000006D01*
X111519712Y-118000006D01*
X111519712Y-117999993D01*
X111500896Y-117772914D01*
X111500894Y-117772906D01*
X111444954Y-117552006D01*
X111353420Y-117343330D01*
X111273124Y-117220427D01*
X110821409Y-117672143D01*
X110760086Y-117705628D01*
X110690394Y-117700644D01*
X110635352Y-117659948D01*
X110567926Y-117572076D01*
X110541770Y-117552006D01*
X110480048Y-117504645D01*
X110438847Y-117448218D01*
X110434692Y-117378472D01*
X110467855Y-117318589D01*
X110920983Y-116865462D01*
X110920982Y-116865461D01*
X110894632Y-116844952D01*
X110894627Y-116844949D01*
X110694230Y-116736500D01*
X110694219Y-116736495D01*
X110478701Y-116662507D01*
X110253935Y-116625000D01*
X110026065Y-116625000D01*
X109801298Y-116662507D01*
X109585780Y-116736495D01*
X109585769Y-116736500D01*
X109385373Y-116844948D01*
X109359016Y-116865462D01*
X109812144Y-117318590D01*
X109845629Y-117379913D01*
X109840645Y-117449605D01*
X109799950Y-117504645D01*
X109738230Y-117552006D01*
X109712074Y-117572076D01*
X109644645Y-117659950D01*
X109588216Y-117701152D01*
X109518470Y-117705306D01*
X109458589Y-117672143D01*
X109006874Y-117220428D01*
X108926578Y-117343333D01*
X108926577Y-117343335D01*
X108835045Y-117552006D01*
X108779105Y-117772906D01*
X108779103Y-117772914D01*
X108760288Y-117999993D01*
X108760288Y-118000006D01*
X94739712Y-118000006D01*
X94739712Y-117999993D01*
X94720896Y-117772914D01*
X94720894Y-117772906D01*
X94664954Y-117552006D01*
X94573420Y-117343330D01*
X94493124Y-117220427D01*
X94041409Y-117672143D01*
X93980086Y-117705628D01*
X93910394Y-117700644D01*
X93855352Y-117659948D01*
X93787926Y-117572076D01*
X93761770Y-117552006D01*
X93700048Y-117504645D01*
X93658847Y-117448218D01*
X93654692Y-117378472D01*
X93687855Y-117318589D01*
X94140983Y-116865462D01*
X94140982Y-116865461D01*
X94114632Y-116844952D01*
X94114627Y-116844949D01*
X93914230Y-116736500D01*
X93914219Y-116736495D01*
X93698701Y-116662507D01*
X93473935Y-116625000D01*
X93246065Y-116625000D01*
X93021298Y-116662507D01*
X92805780Y-116736495D01*
X92805769Y-116736500D01*
X92605373Y-116844948D01*
X92579016Y-116865462D01*
X93032144Y-117318590D01*
X93065629Y-117379913D01*
X93060645Y-117449605D01*
X93019950Y-117504645D01*
X92958230Y-117552006D01*
X92932074Y-117572076D01*
X92864645Y-117659950D01*
X92808216Y-117701152D01*
X92738470Y-117705306D01*
X92678589Y-117672143D01*
X92226874Y-117220428D01*
X92146578Y-117343333D01*
X92146577Y-117343335D01*
X92055045Y-117552006D01*
X91999105Y-117772906D01*
X91999103Y-117772914D01*
X91980288Y-117999993D01*
X91980288Y-118000006D01*
X77959712Y-118000006D01*
X77959712Y-117999993D01*
X77940896Y-117772914D01*
X77940894Y-117772906D01*
X77884954Y-117552006D01*
X77793420Y-117343330D01*
X77713124Y-117220427D01*
X77261409Y-117672143D01*
X77200086Y-117705628D01*
X77130394Y-117700644D01*
X77075352Y-117659948D01*
X77007926Y-117572076D01*
X76981770Y-117552006D01*
X76920048Y-117504645D01*
X76878847Y-117448218D01*
X76874692Y-117378472D01*
X76907855Y-117318589D01*
X77360983Y-116865462D01*
X77360982Y-116865461D01*
X77334632Y-116844952D01*
X77334627Y-116844949D01*
X77134230Y-116736500D01*
X77134219Y-116736495D01*
X76918701Y-116662507D01*
X76693935Y-116625000D01*
X76466065Y-116625000D01*
X76241298Y-116662507D01*
X76025780Y-116736495D01*
X76025769Y-116736500D01*
X75825373Y-116844948D01*
X75799016Y-116865462D01*
X76252144Y-117318590D01*
X76285629Y-117379913D01*
X76280645Y-117449605D01*
X76239950Y-117504645D01*
X76178230Y-117552006D01*
X76152074Y-117572076D01*
X76084645Y-117659950D01*
X76028216Y-117701152D01*
X75958470Y-117705306D01*
X75898589Y-117672143D01*
X75446874Y-117220428D01*
X75366578Y-117343333D01*
X75366577Y-117343335D01*
X75275045Y-117552006D01*
X75219105Y-117772906D01*
X75219103Y-117772914D01*
X75200288Y-117999993D01*
X75200288Y-118000006D01*
X67440000Y-118000006D01*
X67440000Y-113850001D01*
X68774773Y-113850001D01*
X68793657Y-114114027D01*
X68793658Y-114114034D01*
X68849921Y-114372673D01*
X68942426Y-114620690D01*
X68942428Y-114620694D01*
X69069280Y-114853005D01*
X69069285Y-114853013D01*
X69227906Y-115064907D01*
X69227922Y-115064925D01*
X69415074Y-115252077D01*
X69415092Y-115252093D01*
X69626986Y-115410714D01*
X69626994Y-115410719D01*
X69859305Y-115537571D01*
X69859309Y-115537573D01*
X69859311Y-115537574D01*
X70107322Y-115630077D01*
X70107325Y-115630077D01*
X70107326Y-115630078D01*
X70302552Y-115672546D01*
X70365974Y-115686343D01*
X70609660Y-115703772D01*
X70629999Y-115705227D01*
X70630000Y-115705227D01*
X70630001Y-115705227D01*
X70648884Y-115703876D01*
X70894026Y-115686343D01*
X71152678Y-115630077D01*
X71400689Y-115537574D01*
X71633011Y-115410716D01*
X71844915Y-115252087D01*
X72032087Y-115064915D01*
X72190716Y-114853011D01*
X72317574Y-114620689D01*
X72410077Y-114372678D01*
X72466343Y-114114026D01*
X72485227Y-113850000D01*
X72466343Y-113585974D01*
X72410077Y-113327322D01*
X72317574Y-113079311D01*
X72190716Y-112846989D01*
X72190714Y-112846986D01*
X72043254Y-112650001D01*
X77174773Y-112650001D01*
X77193657Y-112914027D01*
X77193658Y-112914034D01*
X77249921Y-113172673D01*
X77342426Y-113420690D01*
X77342428Y-113420694D01*
X77469280Y-113653005D01*
X77469285Y-113653013D01*
X77627906Y-113864907D01*
X77627922Y-113864925D01*
X77815074Y-114052077D01*
X77815092Y-114052093D01*
X78026986Y-114210714D01*
X78026994Y-114210719D01*
X78259305Y-114337571D01*
X78259309Y-114337573D01*
X78259311Y-114337574D01*
X78507322Y-114430077D01*
X78507325Y-114430077D01*
X78507326Y-114430078D01*
X78702552Y-114472546D01*
X78765974Y-114486343D01*
X79009660Y-114503772D01*
X79029999Y-114505227D01*
X79030000Y-114505227D01*
X79030001Y-114505227D01*
X79048885Y-114503876D01*
X79294026Y-114486343D01*
X79552678Y-114430077D01*
X79800689Y-114337574D01*
X80033011Y-114210716D01*
X80244915Y-114052087D01*
X80432087Y-113864915D01*
X80443251Y-113850001D01*
X85554773Y-113850001D01*
X85573657Y-114114027D01*
X85573658Y-114114034D01*
X85629921Y-114372673D01*
X85722426Y-114620690D01*
X85722428Y-114620694D01*
X85849280Y-114853005D01*
X85849285Y-114853013D01*
X86007906Y-115064907D01*
X86007922Y-115064925D01*
X86195074Y-115252077D01*
X86195092Y-115252093D01*
X86406986Y-115410714D01*
X86406994Y-115410719D01*
X86639305Y-115537571D01*
X86639309Y-115537573D01*
X86639311Y-115537574D01*
X86887322Y-115630077D01*
X86887325Y-115630077D01*
X86887326Y-115630078D01*
X87082552Y-115672546D01*
X87145974Y-115686343D01*
X87389660Y-115703772D01*
X87409999Y-115705227D01*
X87410000Y-115705227D01*
X87410001Y-115705227D01*
X87428884Y-115703876D01*
X87674026Y-115686343D01*
X87932678Y-115630077D01*
X88180689Y-115537574D01*
X88413011Y-115410716D01*
X88624915Y-115252087D01*
X88812087Y-115064915D01*
X88970716Y-114853011D01*
X89097574Y-114620689D01*
X89190077Y-114372678D01*
X89246343Y-114114026D01*
X89265227Y-113850000D01*
X89246343Y-113585974D01*
X89190077Y-113327322D01*
X89097574Y-113079311D01*
X88970716Y-112846989D01*
X88970714Y-112846986D01*
X88823254Y-112650001D01*
X93954773Y-112650001D01*
X93973657Y-112914027D01*
X93973658Y-112914034D01*
X94029921Y-113172673D01*
X94122426Y-113420690D01*
X94122428Y-113420694D01*
X94249280Y-113653005D01*
X94249285Y-113653013D01*
X94407906Y-113864907D01*
X94407922Y-113864925D01*
X94595074Y-114052077D01*
X94595092Y-114052093D01*
X94806986Y-114210714D01*
X94806994Y-114210719D01*
X95039305Y-114337571D01*
X95039309Y-114337573D01*
X95039311Y-114337574D01*
X95287322Y-114430077D01*
X95287325Y-114430077D01*
X95287326Y-114430078D01*
X95482552Y-114472546D01*
X95545974Y-114486343D01*
X95789660Y-114503772D01*
X95809999Y-114505227D01*
X95810000Y-114505227D01*
X95810001Y-114505227D01*
X95828884Y-114503876D01*
X96074026Y-114486343D01*
X96332678Y-114430077D01*
X96580689Y-114337574D01*
X96813011Y-114210716D01*
X97024915Y-114052087D01*
X97212087Y-113864915D01*
X97223251Y-113850001D01*
X102334773Y-113850001D01*
X102353657Y-114114027D01*
X102353658Y-114114034D01*
X102409921Y-114372673D01*
X102502426Y-114620690D01*
X102502428Y-114620694D01*
X102629280Y-114853005D01*
X102629285Y-114853013D01*
X102787906Y-115064907D01*
X102787922Y-115064925D01*
X102975074Y-115252077D01*
X102975092Y-115252093D01*
X103186986Y-115410714D01*
X103186994Y-115410719D01*
X103419305Y-115537571D01*
X103419309Y-115537573D01*
X103419311Y-115537574D01*
X103667322Y-115630077D01*
X103667325Y-115630077D01*
X103667326Y-115630078D01*
X103862552Y-115672546D01*
X103925974Y-115686343D01*
X104169660Y-115703772D01*
X104189999Y-115705227D01*
X104190000Y-115705227D01*
X104190001Y-115705227D01*
X104208885Y-115703876D01*
X104454026Y-115686343D01*
X104712678Y-115630077D01*
X104960689Y-115537574D01*
X105193011Y-115410716D01*
X105404915Y-115252087D01*
X105592087Y-115064915D01*
X105750716Y-114853011D01*
X105877574Y-114620689D01*
X105970077Y-114372678D01*
X106026343Y-114114026D01*
X106045227Y-113850000D01*
X106026343Y-113585974D01*
X105970077Y-113327322D01*
X105877574Y-113079311D01*
X105750716Y-112846989D01*
X105750714Y-112846986D01*
X105603254Y-112650001D01*
X110734773Y-112650001D01*
X110753657Y-112914027D01*
X110753658Y-112914034D01*
X110809921Y-113172673D01*
X110902426Y-113420690D01*
X110902428Y-113420694D01*
X111029280Y-113653005D01*
X111029285Y-113653013D01*
X111187906Y-113864907D01*
X111187922Y-113864925D01*
X111375074Y-114052077D01*
X111375092Y-114052093D01*
X111586986Y-114210714D01*
X111586994Y-114210719D01*
X111819305Y-114337571D01*
X111819309Y-114337573D01*
X111819311Y-114337574D01*
X112067322Y-114430077D01*
X112067325Y-114430077D01*
X112067326Y-114430078D01*
X112262552Y-114472546D01*
X112325974Y-114486343D01*
X112569660Y-114503772D01*
X112589999Y-114505227D01*
X112590000Y-114505227D01*
X112590001Y-114505227D01*
X112608884Y-114503876D01*
X112854026Y-114486343D01*
X113112678Y-114430077D01*
X113360689Y-114337574D01*
X113593011Y-114210716D01*
X113804915Y-114052087D01*
X113992087Y-113864915D01*
X114003251Y-113850001D01*
X119114773Y-113850001D01*
X119133657Y-114114027D01*
X119133658Y-114114034D01*
X119189921Y-114372673D01*
X119282426Y-114620690D01*
X119282428Y-114620694D01*
X119409280Y-114853005D01*
X119409285Y-114853013D01*
X119567906Y-115064907D01*
X119567922Y-115064925D01*
X119755074Y-115252077D01*
X119755092Y-115252093D01*
X119966986Y-115410714D01*
X119966994Y-115410719D01*
X120199305Y-115537571D01*
X120199309Y-115537573D01*
X120199311Y-115537574D01*
X120447322Y-115630077D01*
X120447325Y-115630077D01*
X120447326Y-115630078D01*
X120642551Y-115672546D01*
X120705974Y-115686343D01*
X120949660Y-115703772D01*
X120969999Y-115705227D01*
X120970000Y-115705227D01*
X120970001Y-115705227D01*
X120988885Y-115703876D01*
X121234026Y-115686343D01*
X121492678Y-115630077D01*
X121740689Y-115537574D01*
X121973011Y-115410716D01*
X122184915Y-115252087D01*
X122372087Y-115064915D01*
X122530716Y-114853011D01*
X122657574Y-114620689D01*
X122750077Y-114372678D01*
X122806343Y-114114026D01*
X122825227Y-113850000D01*
X122806343Y-113585974D01*
X122750077Y-113327322D01*
X122657574Y-113079311D01*
X122530716Y-112846989D01*
X122530714Y-112846986D01*
X122383254Y-112650001D01*
X127514773Y-112650001D01*
X127533657Y-112914027D01*
X127533658Y-112914034D01*
X127589921Y-113172673D01*
X127682426Y-113420690D01*
X127682428Y-113420694D01*
X127809280Y-113653005D01*
X127809285Y-113653013D01*
X127967906Y-113864907D01*
X127967922Y-113864925D01*
X128155074Y-114052077D01*
X128155092Y-114052093D01*
X128366986Y-114210714D01*
X128366994Y-114210719D01*
X128599305Y-114337571D01*
X128599309Y-114337573D01*
X128599311Y-114337574D01*
X128847322Y-114430077D01*
X128847325Y-114430077D01*
X128847326Y-114430078D01*
X129042552Y-114472546D01*
X129105974Y-114486343D01*
X129349660Y-114503772D01*
X129369999Y-114505227D01*
X129370000Y-114505227D01*
X129370001Y-114505227D01*
X129388884Y-114503876D01*
X129634026Y-114486343D01*
X129892678Y-114430077D01*
X130140689Y-114337574D01*
X130373011Y-114210716D01*
X130584915Y-114052087D01*
X130772087Y-113864915D01*
X130930716Y-113653011D01*
X131057574Y-113420689D01*
X131150077Y-113172678D01*
X131206343Y-112914026D01*
X131225227Y-112650000D01*
X131224159Y-112635074D01*
X131222525Y-112612230D01*
X131206343Y-112385974D01*
X131185310Y-112289285D01*
X131150078Y-112127326D01*
X131128667Y-112069921D01*
X131057574Y-111879311D01*
X130956527Y-111694259D01*
X130930719Y-111646994D01*
X130930714Y-111646986D01*
X130772093Y-111435092D01*
X130772077Y-111435074D01*
X130584925Y-111247922D01*
X130584907Y-111247906D01*
X130373013Y-111089285D01*
X130373005Y-111089280D01*
X130140694Y-110962428D01*
X130140690Y-110962426D01*
X129892673Y-110869921D01*
X129634034Y-110813658D01*
X129634027Y-110813657D01*
X129370001Y-110794773D01*
X129369999Y-110794773D01*
X129105972Y-110813657D01*
X129105965Y-110813658D01*
X128847326Y-110869921D01*
X128599309Y-110962426D01*
X128599305Y-110962428D01*
X128366994Y-111089280D01*
X128366986Y-111089285D01*
X128155092Y-111247906D01*
X128155074Y-111247922D01*
X127967922Y-111435074D01*
X127967906Y-111435092D01*
X127809285Y-111646986D01*
X127809280Y-111646994D01*
X127682428Y-111879305D01*
X127682426Y-111879309D01*
X127589921Y-112127326D01*
X127533658Y-112385965D01*
X127533657Y-112385972D01*
X127514773Y-112649998D01*
X127514773Y-112650001D01*
X122383254Y-112650001D01*
X122372093Y-112635092D01*
X122372077Y-112635074D01*
X122184925Y-112447922D01*
X122184907Y-112447906D01*
X121973013Y-112289285D01*
X121973005Y-112289280D01*
X121740694Y-112162428D01*
X121740690Y-112162426D01*
X121492673Y-112069921D01*
X121234034Y-112013658D01*
X121234027Y-112013657D01*
X120970001Y-111994773D01*
X120969999Y-111994773D01*
X120705972Y-112013657D01*
X120705965Y-112013658D01*
X120447326Y-112069921D01*
X120199309Y-112162426D01*
X120199305Y-112162428D01*
X119966994Y-112289280D01*
X119966986Y-112289285D01*
X119755092Y-112447906D01*
X119755074Y-112447922D01*
X119567922Y-112635074D01*
X119567906Y-112635092D01*
X119409285Y-112846986D01*
X119409280Y-112846994D01*
X119282428Y-113079305D01*
X119282426Y-113079309D01*
X119189921Y-113327326D01*
X119133658Y-113585965D01*
X119133657Y-113585972D01*
X119114773Y-113849998D01*
X119114773Y-113850001D01*
X114003251Y-113850001D01*
X114150716Y-113653011D01*
X114277574Y-113420689D01*
X114370077Y-113172678D01*
X114426343Y-112914026D01*
X114445227Y-112650000D01*
X114444159Y-112635074D01*
X114442525Y-112612230D01*
X114426343Y-112385974D01*
X114405310Y-112289285D01*
X114370078Y-112127326D01*
X114348667Y-112069921D01*
X114277574Y-111879311D01*
X114176527Y-111694259D01*
X114150719Y-111646994D01*
X114150714Y-111646986D01*
X113992093Y-111435092D01*
X113992077Y-111435074D01*
X113804925Y-111247922D01*
X113804907Y-111247906D01*
X113593013Y-111089285D01*
X113593005Y-111089280D01*
X113360694Y-110962428D01*
X113360690Y-110962426D01*
X113112673Y-110869921D01*
X112854034Y-110813658D01*
X112854027Y-110813657D01*
X112590001Y-110794773D01*
X112589999Y-110794773D01*
X112325972Y-110813657D01*
X112325965Y-110813658D01*
X112067326Y-110869921D01*
X111819309Y-110962426D01*
X111819305Y-110962428D01*
X111586994Y-111089280D01*
X111586986Y-111089285D01*
X111375092Y-111247906D01*
X111375074Y-111247922D01*
X111187922Y-111435074D01*
X111187906Y-111435092D01*
X111029285Y-111646986D01*
X111029280Y-111646994D01*
X110902428Y-111879305D01*
X110902426Y-111879309D01*
X110809921Y-112127326D01*
X110753658Y-112385965D01*
X110753657Y-112385972D01*
X110734773Y-112649998D01*
X110734773Y-112650001D01*
X105603254Y-112650001D01*
X105592093Y-112635092D01*
X105592077Y-112635074D01*
X105404925Y-112447922D01*
X105404907Y-112447906D01*
X105193013Y-112289285D01*
X105193005Y-112289280D01*
X104960694Y-112162428D01*
X104960690Y-112162426D01*
X104712673Y-112069921D01*
X104454034Y-112013658D01*
X104454027Y-112013657D01*
X104190001Y-111994773D01*
X104189999Y-111994773D01*
X103925972Y-112013657D01*
X103925965Y-112013658D01*
X103667326Y-112069921D01*
X103419309Y-112162426D01*
X103419305Y-112162428D01*
X103186994Y-112289280D01*
X103186986Y-112289285D01*
X102975092Y-112447906D01*
X102975074Y-112447922D01*
X102787922Y-112635074D01*
X102787906Y-112635092D01*
X102629285Y-112846986D01*
X102629280Y-112846994D01*
X102502428Y-113079305D01*
X102502426Y-113079309D01*
X102409921Y-113327326D01*
X102353658Y-113585965D01*
X102353657Y-113585972D01*
X102334773Y-113849998D01*
X102334773Y-113850001D01*
X97223251Y-113850001D01*
X97370716Y-113653011D01*
X97497574Y-113420689D01*
X97590077Y-113172678D01*
X97646343Y-112914026D01*
X97665227Y-112650000D01*
X97664159Y-112635074D01*
X97662525Y-112612230D01*
X97646343Y-112385974D01*
X97625310Y-112289285D01*
X97590078Y-112127326D01*
X97568667Y-112069921D01*
X97497574Y-111879311D01*
X97396527Y-111694259D01*
X97370719Y-111646994D01*
X97370714Y-111646986D01*
X97265174Y-111506000D01*
X107552540Y-111506000D01*
X107572326Y-111694256D01*
X107572327Y-111694259D01*
X107630818Y-111874277D01*
X107630821Y-111874284D01*
X107725467Y-112038216D01*
X107837307Y-112162426D01*
X107852129Y-112178888D01*
X108005265Y-112290148D01*
X108005270Y-112290151D01*
X108178192Y-112367142D01*
X108178197Y-112367144D01*
X108363354Y-112406500D01*
X108363355Y-112406500D01*
X108552644Y-112406500D01*
X108552646Y-112406500D01*
X108737803Y-112367144D01*
X108910730Y-112290151D01*
X109063871Y-112178888D01*
X109190533Y-112038216D01*
X109285179Y-111874284D01*
X109343674Y-111694256D01*
X109363460Y-111506000D01*
X109343674Y-111317744D01*
X109285179Y-111137716D01*
X109229111Y-111040604D01*
X109212500Y-110978606D01*
X109212500Y-105429392D01*
X109229113Y-105367392D01*
X109285179Y-105270284D01*
X109343674Y-105090256D01*
X109363460Y-104902000D01*
X109343674Y-104713744D01*
X109322312Y-104648000D01*
X114468341Y-104648000D01*
X114488936Y-104883403D01*
X114488938Y-104883413D01*
X114550094Y-105111655D01*
X114550096Y-105111659D01*
X114550097Y-105111663D01*
X114649965Y-105325830D01*
X114649967Y-105325834D01*
X114722480Y-105429392D01*
X114785505Y-105519401D01*
X114952599Y-105686495D01*
X115049384Y-105754265D01*
X115146165Y-105822032D01*
X115146167Y-105822033D01*
X115146170Y-105822035D01*
X115360337Y-105921903D01*
X115588592Y-105983063D01*
X115776918Y-105999539D01*
X115823999Y-106003659D01*
X115824000Y-106003659D01*
X115824001Y-106003659D01*
X115863234Y-106000226D01*
X116059408Y-105983063D01*
X116287663Y-105921903D01*
X116501830Y-105822035D01*
X116695401Y-105686495D01*
X116862495Y-105519401D01*
X116998035Y-105325830D01*
X117097903Y-105111663D01*
X117159063Y-104883408D01*
X117179659Y-104648000D01*
X117159063Y-104412592D01*
X117097903Y-104184337D01*
X116998035Y-103970171D01*
X116862495Y-103776599D01*
X116862494Y-103776597D01*
X116695402Y-103609506D01*
X116695396Y-103609501D01*
X116509842Y-103479575D01*
X116466217Y-103424998D01*
X116459023Y-103355500D01*
X116490546Y-103293145D01*
X116509842Y-103276425D01*
X116532026Y-103260891D01*
X116695401Y-103146495D01*
X116862495Y-102979401D01*
X116998035Y-102785830D01*
X117097903Y-102571663D01*
X117159063Y-102343408D01*
X117179659Y-102108000D01*
X117159063Y-101872592D01*
X117097903Y-101644337D01*
X116998035Y-101430171D01*
X116862495Y-101236599D01*
X116862494Y-101236597D01*
X116695402Y-101069506D01*
X116695401Y-101069505D01*
X116509842Y-100939575D01*
X116509841Y-100939574D01*
X116466216Y-100884997D01*
X116459024Y-100815498D01*
X116490546Y-100753144D01*
X116509836Y-100736428D01*
X116695401Y-100606495D01*
X116862495Y-100439401D01*
X116998035Y-100245830D01*
X117097903Y-100031663D01*
X117159063Y-99803408D01*
X117179659Y-99568000D01*
X117159063Y-99332592D01*
X117097903Y-99104337D01*
X116998035Y-98890171D01*
X116944209Y-98813298D01*
X116862494Y-98696597D01*
X116695402Y-98529506D01*
X116695396Y-98529501D01*
X116509842Y-98399575D01*
X116466217Y-98344998D01*
X116459023Y-98275500D01*
X116490546Y-98213145D01*
X116509842Y-98196425D01*
X116532026Y-98180891D01*
X116695401Y-98066495D01*
X116862495Y-97899401D01*
X116998035Y-97705830D01*
X117097903Y-97491663D01*
X117159063Y-97263408D01*
X117179659Y-97028000D01*
X117159063Y-96792592D01*
X117097903Y-96564337D01*
X116998035Y-96350171D01*
X116944209Y-96273298D01*
X116862494Y-96156597D01*
X116695402Y-95989506D01*
X116695401Y-95989505D01*
X116509842Y-95859575D01*
X116509841Y-95859574D01*
X116466216Y-95804997D01*
X116459024Y-95735498D01*
X116490546Y-95673144D01*
X116509836Y-95656428D01*
X116695401Y-95526495D01*
X116862495Y-95359401D01*
X116998035Y-95165830D01*
X117097903Y-94951663D01*
X117159063Y-94723408D01*
X117179659Y-94488000D01*
X117159063Y-94252592D01*
X117097903Y-94024337D01*
X116998035Y-93810171D01*
X116862495Y-93616599D01*
X116862494Y-93616597D01*
X116695402Y-93449506D01*
X116695396Y-93449501D01*
X116509842Y-93319575D01*
X116466217Y-93264998D01*
X116459023Y-93195500D01*
X116490546Y-93133145D01*
X116509842Y-93116425D01*
X116532026Y-93100891D01*
X116695401Y-92986495D01*
X116862495Y-92819401D01*
X116998035Y-92625830D01*
X117097903Y-92411663D01*
X117159063Y-92183408D01*
X117179659Y-91948000D01*
X117159063Y-91712592D01*
X117097903Y-91484337D01*
X116998035Y-91270171D01*
X116939098Y-91185999D01*
X116862494Y-91076597D01*
X116695402Y-90909506D01*
X116695401Y-90909505D01*
X116509842Y-90779575D01*
X116509841Y-90779574D01*
X116466216Y-90724997D01*
X116459024Y-90655498D01*
X116490546Y-90593144D01*
X116509836Y-90576428D01*
X116695401Y-90446495D01*
X116862495Y-90279401D01*
X116998035Y-90085830D01*
X117097903Y-89871663D01*
X117159063Y-89643408D01*
X117179659Y-89408000D01*
X117159063Y-89172592D01*
X117097903Y-88944337D01*
X116998035Y-88730171D01*
X116923459Y-88623664D01*
X116862494Y-88536597D01*
X116695402Y-88369506D01*
X116695396Y-88369501D01*
X116509842Y-88239575D01*
X116466217Y-88184998D01*
X116459023Y-88115500D01*
X116490546Y-88053145D01*
X116509842Y-88036425D01*
X116669550Y-87924596D01*
X116695401Y-87906495D01*
X116862495Y-87739401D01*
X116998035Y-87545830D01*
X117097903Y-87331663D01*
X117159063Y-87103408D01*
X117179659Y-86868000D01*
X117159063Y-86632592D01*
X117097903Y-86404337D01*
X116998035Y-86190171D01*
X116901423Y-86052193D01*
X116862494Y-85996597D01*
X116695402Y-85829506D01*
X116695401Y-85829505D01*
X116509842Y-85699575D01*
X116509841Y-85699574D01*
X116466216Y-85644997D01*
X116459024Y-85575498D01*
X116490546Y-85513144D01*
X116509836Y-85496428D01*
X116695401Y-85366495D01*
X116862495Y-85199401D01*
X116998035Y-85005830D01*
X117097903Y-84791663D01*
X117159063Y-84563408D01*
X117179659Y-84328000D01*
X117159063Y-84092592D01*
X117097903Y-83864337D01*
X116998035Y-83650171D01*
X116901422Y-83512193D01*
X116862496Y-83456600D01*
X116816693Y-83410797D01*
X116740179Y-83334283D01*
X116706696Y-83272963D01*
X116711680Y-83203271D01*
X116753551Y-83147337D01*
X116784529Y-83130422D01*
X116916086Y-83081354D01*
X116916093Y-83081350D01*
X117031187Y-82995190D01*
X117031190Y-82995187D01*
X117117350Y-82880093D01*
X117117354Y-82880086D01*
X117167596Y-82745379D01*
X117167598Y-82745372D01*
X117173999Y-82685844D01*
X117174000Y-82685827D01*
X117174000Y-82038000D01*
X116437347Y-82038000D01*
X116370308Y-82018315D01*
X116324553Y-81965511D01*
X116314609Y-81896353D01*
X116318369Y-81879067D01*
X116324000Y-81859888D01*
X116324000Y-81716111D01*
X116318369Y-81696933D01*
X116318370Y-81627064D01*
X116356145Y-81568286D01*
X116419701Y-81539262D01*
X116437347Y-81538000D01*
X117174000Y-81538000D01*
X117174000Y-80890172D01*
X117173999Y-80890155D01*
X117167598Y-80830627D01*
X117167596Y-80830620D01*
X117117354Y-80695913D01*
X117117350Y-80695906D01*
X117031190Y-80580812D01*
X117031187Y-80580809D01*
X116916093Y-80494649D01*
X116916086Y-80494645D01*
X116781379Y-80444403D01*
X116781372Y-80444401D01*
X116721844Y-80438000D01*
X116074000Y-80438000D01*
X116074000Y-81175698D01*
X116054315Y-81242737D01*
X116001511Y-81288492D01*
X115932355Y-81298436D01*
X115859766Y-81288000D01*
X115859763Y-81288000D01*
X115788237Y-81288000D01*
X115788233Y-81288000D01*
X115715645Y-81298436D01*
X115646487Y-81288492D01*
X115593684Y-81242736D01*
X115574000Y-81175698D01*
X115574000Y-80438000D01*
X114926155Y-80438000D01*
X114866627Y-80444401D01*
X114866620Y-80444403D01*
X114731913Y-80494645D01*
X114731906Y-80494649D01*
X114616812Y-80580809D01*
X114616809Y-80580812D01*
X114530649Y-80695906D01*
X114530645Y-80695913D01*
X114480403Y-80830620D01*
X114480401Y-80830627D01*
X114474000Y-80890155D01*
X114474000Y-81538000D01*
X115210653Y-81538000D01*
X115277692Y-81557685D01*
X115323447Y-81610489D01*
X115333391Y-81679647D01*
X115329631Y-81696933D01*
X115324000Y-81716111D01*
X115324000Y-81859888D01*
X115329631Y-81879067D01*
X115329630Y-81948936D01*
X115291855Y-82007714D01*
X115228299Y-82036738D01*
X115210653Y-82038000D01*
X114474000Y-82038000D01*
X114474000Y-82685844D01*
X114480401Y-82745372D01*
X114480403Y-82745379D01*
X114530645Y-82880086D01*
X114530649Y-82880093D01*
X114616809Y-82995187D01*
X114616812Y-82995190D01*
X114731906Y-83081350D01*
X114731913Y-83081354D01*
X114863470Y-83130421D01*
X114919403Y-83172292D01*
X114943821Y-83237756D01*
X114928970Y-83306029D01*
X114907819Y-83334284D01*
X114785503Y-83456600D01*
X114649965Y-83650169D01*
X114649964Y-83650171D01*
X114550098Y-83864335D01*
X114550094Y-83864344D01*
X114488938Y-84092586D01*
X114488936Y-84092596D01*
X114468341Y-84327999D01*
X114468341Y-84328000D01*
X114488936Y-84563403D01*
X114488938Y-84563413D01*
X114550094Y-84791655D01*
X114550096Y-84791659D01*
X114550097Y-84791663D01*
X114601427Y-84901740D01*
X114649965Y-85005830D01*
X114649967Y-85005834D01*
X114729908Y-85120000D01*
X114777385Y-85187805D01*
X114785501Y-85199395D01*
X114785506Y-85199402D01*
X114952597Y-85366493D01*
X114952603Y-85366498D01*
X115138158Y-85496425D01*
X115181783Y-85551002D01*
X115188977Y-85620500D01*
X115157454Y-85682855D01*
X115138158Y-85699575D01*
X114952597Y-85829505D01*
X114785505Y-85996597D01*
X114649965Y-86190169D01*
X114649964Y-86190171D01*
X114550098Y-86404335D01*
X114550094Y-86404344D01*
X114488938Y-86632586D01*
X114488936Y-86632596D01*
X114468341Y-86867999D01*
X114468341Y-86868000D01*
X114488936Y-87103403D01*
X114488938Y-87103413D01*
X114550094Y-87331655D01*
X114550096Y-87331659D01*
X114550097Y-87331663D01*
X114640241Y-87524977D01*
X114649965Y-87545830D01*
X114649967Y-87545834D01*
X114785501Y-87739395D01*
X114785506Y-87739402D01*
X114952597Y-87906493D01*
X114952603Y-87906498D01*
X115138158Y-88036425D01*
X115181783Y-88091002D01*
X115188977Y-88160500D01*
X115157454Y-88222855D01*
X115138158Y-88239575D01*
X114952597Y-88369505D01*
X114785505Y-88536597D01*
X114649965Y-88730169D01*
X114649964Y-88730171D01*
X114550098Y-88944335D01*
X114550094Y-88944344D01*
X114488938Y-89172586D01*
X114488936Y-89172596D01*
X114468341Y-89407999D01*
X114468341Y-89408000D01*
X114488936Y-89643403D01*
X114488938Y-89643413D01*
X114550094Y-89871655D01*
X114550096Y-89871659D01*
X114550097Y-89871663D01*
X114649965Y-90085829D01*
X114649965Y-90085830D01*
X114649967Y-90085834D01*
X114785501Y-90279395D01*
X114785506Y-90279402D01*
X114952597Y-90446493D01*
X114952603Y-90446498D01*
X115138158Y-90576425D01*
X115181783Y-90631002D01*
X115188977Y-90700500D01*
X115157454Y-90762855D01*
X115138158Y-90779575D01*
X114952597Y-90909505D01*
X114785505Y-91076597D01*
X114649965Y-91270169D01*
X114649964Y-91270171D01*
X114550098Y-91484335D01*
X114550094Y-91484344D01*
X114488938Y-91712586D01*
X114488936Y-91712596D01*
X114468341Y-91947999D01*
X114468341Y-91948000D01*
X114488936Y-92183403D01*
X114488938Y-92183413D01*
X114550094Y-92411655D01*
X114550096Y-92411659D01*
X114550097Y-92411663D01*
X114649964Y-92625830D01*
X114649965Y-92625830D01*
X114649967Y-92625834D01*
X114785501Y-92819395D01*
X114785506Y-92819402D01*
X114952597Y-92986493D01*
X114952603Y-92986498D01*
X115138158Y-93116425D01*
X115181783Y-93171002D01*
X115188977Y-93240500D01*
X115157454Y-93302855D01*
X115138158Y-93319575D01*
X114952597Y-93449505D01*
X114785505Y-93616597D01*
X114649965Y-93810169D01*
X114649964Y-93810171D01*
X114550098Y-94024335D01*
X114550094Y-94024344D01*
X114488938Y-94252586D01*
X114488936Y-94252596D01*
X114468341Y-94487999D01*
X114468341Y-94488000D01*
X114488936Y-94723403D01*
X114488938Y-94723413D01*
X114550094Y-94951655D01*
X114550096Y-94951659D01*
X114550097Y-94951663D01*
X114649965Y-95165829D01*
X114649965Y-95165830D01*
X114649967Y-95165834D01*
X114785501Y-95359395D01*
X114785506Y-95359402D01*
X114952597Y-95526493D01*
X114952603Y-95526498D01*
X115138158Y-95656425D01*
X115181783Y-95711002D01*
X115188977Y-95780500D01*
X115157454Y-95842855D01*
X115138158Y-95859575D01*
X114952597Y-95989505D01*
X114785505Y-96156597D01*
X114649965Y-96350169D01*
X114649964Y-96350171D01*
X114550098Y-96564335D01*
X114550094Y-96564344D01*
X114488938Y-96792586D01*
X114488936Y-96792596D01*
X114468341Y-97027999D01*
X114468341Y-97028000D01*
X114488936Y-97263403D01*
X114488938Y-97263413D01*
X114550094Y-97491655D01*
X114550096Y-97491659D01*
X114550097Y-97491663D01*
X114582063Y-97560214D01*
X114649965Y-97705830D01*
X114649967Y-97705834D01*
X114785501Y-97899395D01*
X114785506Y-97899402D01*
X114952597Y-98066493D01*
X114952603Y-98066498D01*
X115138158Y-98196425D01*
X115181783Y-98251002D01*
X115188977Y-98320500D01*
X115157454Y-98382855D01*
X115138158Y-98399575D01*
X114952597Y-98529505D01*
X114785505Y-98696597D01*
X114649965Y-98890169D01*
X114649964Y-98890171D01*
X114550098Y-99104335D01*
X114550094Y-99104344D01*
X114488938Y-99332586D01*
X114488936Y-99332596D01*
X114468341Y-99567999D01*
X114468341Y-99568000D01*
X114488936Y-99803403D01*
X114488938Y-99803413D01*
X114550094Y-100031655D01*
X114550096Y-100031659D01*
X114550097Y-100031663D01*
X114582063Y-100100214D01*
X114649965Y-100245830D01*
X114649967Y-100245834D01*
X114785501Y-100439395D01*
X114785506Y-100439402D01*
X114952597Y-100606493D01*
X114952603Y-100606498D01*
X115138158Y-100736425D01*
X115181783Y-100791002D01*
X115188977Y-100860500D01*
X115157454Y-100922855D01*
X115138158Y-100939575D01*
X114952597Y-101069505D01*
X114785505Y-101236597D01*
X114649965Y-101430169D01*
X114649964Y-101430171D01*
X114550098Y-101644335D01*
X114550094Y-101644344D01*
X114488938Y-101872586D01*
X114488936Y-101872596D01*
X114468341Y-102107999D01*
X114468341Y-102108000D01*
X114488936Y-102343403D01*
X114488938Y-102343413D01*
X114550094Y-102571655D01*
X114550096Y-102571659D01*
X114550097Y-102571663D01*
X114649964Y-102785830D01*
X114649965Y-102785830D01*
X114649967Y-102785834D01*
X114785501Y-102979395D01*
X114785506Y-102979402D01*
X114952597Y-103146493D01*
X114952603Y-103146498D01*
X115138158Y-103276425D01*
X115181783Y-103331002D01*
X115188977Y-103400500D01*
X115157454Y-103462855D01*
X115138158Y-103479575D01*
X114952597Y-103609505D01*
X114785505Y-103776597D01*
X114649965Y-103970169D01*
X114649964Y-103970171D01*
X114550098Y-104184335D01*
X114550094Y-104184344D01*
X114488938Y-104412586D01*
X114488936Y-104412596D01*
X114468341Y-104647999D01*
X114468341Y-104648000D01*
X109322312Y-104648000D01*
X109285179Y-104533716D01*
X109190533Y-104369784D01*
X109063871Y-104229112D01*
X109063870Y-104229111D01*
X108910734Y-104117851D01*
X108910729Y-104117848D01*
X108737807Y-104040857D01*
X108737802Y-104040855D01*
X108592000Y-104009865D01*
X108552646Y-104001500D01*
X108363354Y-104001500D01*
X108330897Y-104008398D01*
X108178197Y-104040855D01*
X108178192Y-104040857D01*
X108005270Y-104117848D01*
X108005265Y-104117851D01*
X107852129Y-104229111D01*
X107725466Y-104369785D01*
X107630821Y-104533715D01*
X107630818Y-104533722D01*
X107572327Y-104713740D01*
X107572326Y-104713744D01*
X107552540Y-104902000D01*
X107572326Y-105090256D01*
X107572327Y-105090259D01*
X107630818Y-105270277D01*
X107630821Y-105270284D01*
X107686887Y-105367392D01*
X107703500Y-105429392D01*
X107703500Y-110978606D01*
X107686888Y-111040604D01*
X107658786Y-111089280D01*
X107630820Y-111137718D01*
X107630818Y-111137722D01*
X107572327Y-111317740D01*
X107572326Y-111317744D01*
X107552540Y-111506000D01*
X97265174Y-111506000D01*
X97212093Y-111435092D01*
X97212077Y-111435074D01*
X97024925Y-111247922D01*
X97024907Y-111247906D01*
X96813013Y-111089285D01*
X96813005Y-111089280D01*
X96580694Y-110962428D01*
X96580690Y-110962426D01*
X96332673Y-110869921D01*
X96074034Y-110813658D01*
X96074027Y-110813657D01*
X95810001Y-110794773D01*
X95809999Y-110794773D01*
X95545972Y-110813657D01*
X95545965Y-110813658D01*
X95287326Y-110869921D01*
X95039309Y-110962426D01*
X95039305Y-110962428D01*
X94806994Y-111089280D01*
X94806986Y-111089285D01*
X94595092Y-111247906D01*
X94595074Y-111247922D01*
X94407922Y-111435074D01*
X94407906Y-111435092D01*
X94249285Y-111646986D01*
X94249280Y-111646994D01*
X94122428Y-111879305D01*
X94122426Y-111879309D01*
X94029921Y-112127326D01*
X93973658Y-112385965D01*
X93973657Y-112385972D01*
X93954773Y-112649998D01*
X93954773Y-112650001D01*
X88823254Y-112650001D01*
X88812093Y-112635092D01*
X88812077Y-112635074D01*
X88624925Y-112447922D01*
X88624907Y-112447906D01*
X88413013Y-112289285D01*
X88413005Y-112289280D01*
X88180694Y-112162428D01*
X88180690Y-112162426D01*
X87932673Y-112069921D01*
X87674034Y-112013658D01*
X87674027Y-112013657D01*
X87410001Y-111994773D01*
X87409999Y-111994773D01*
X87145972Y-112013657D01*
X87145965Y-112013658D01*
X86887326Y-112069921D01*
X86639309Y-112162426D01*
X86639305Y-112162428D01*
X86406994Y-112289280D01*
X86406986Y-112289285D01*
X86195092Y-112447906D01*
X86195074Y-112447922D01*
X86007922Y-112635074D01*
X86007906Y-112635092D01*
X85849285Y-112846986D01*
X85849280Y-112846994D01*
X85722428Y-113079305D01*
X85722426Y-113079309D01*
X85629921Y-113327326D01*
X85573658Y-113585965D01*
X85573657Y-113585972D01*
X85554773Y-113849998D01*
X85554773Y-113850001D01*
X80443251Y-113850001D01*
X80590716Y-113653011D01*
X80717574Y-113420689D01*
X80810077Y-113172678D01*
X80866343Y-112914026D01*
X80885227Y-112650000D01*
X80884159Y-112635074D01*
X80882525Y-112612230D01*
X80866343Y-112385974D01*
X80845310Y-112289285D01*
X80810078Y-112127326D01*
X80788667Y-112069921D01*
X80717574Y-111879311D01*
X80616527Y-111694259D01*
X80590719Y-111646994D01*
X80590714Y-111646986D01*
X80432093Y-111435092D01*
X80432077Y-111435074D01*
X80244925Y-111247922D01*
X80244907Y-111247906D01*
X80033013Y-111089285D01*
X80033005Y-111089280D01*
X79800694Y-110962428D01*
X79800690Y-110962426D01*
X79552673Y-110869921D01*
X79294034Y-110813658D01*
X79294027Y-110813657D01*
X79030001Y-110794773D01*
X79029999Y-110794773D01*
X78765972Y-110813657D01*
X78765965Y-110813658D01*
X78507326Y-110869921D01*
X78259309Y-110962426D01*
X78259305Y-110962428D01*
X78026994Y-111089280D01*
X78026986Y-111089285D01*
X77815092Y-111247906D01*
X77815074Y-111247922D01*
X77627922Y-111435074D01*
X77627906Y-111435092D01*
X77469285Y-111646986D01*
X77469280Y-111646994D01*
X77342428Y-111879305D01*
X77342426Y-111879309D01*
X77249921Y-112127326D01*
X77193658Y-112385965D01*
X77193657Y-112385972D01*
X77174773Y-112649998D01*
X77174773Y-112650001D01*
X72043254Y-112650001D01*
X72032093Y-112635092D01*
X72032077Y-112635074D01*
X71844925Y-112447922D01*
X71844907Y-112447906D01*
X71633013Y-112289285D01*
X71633005Y-112289280D01*
X71400694Y-112162428D01*
X71400690Y-112162426D01*
X71152673Y-112069921D01*
X70894034Y-112013658D01*
X70894027Y-112013657D01*
X70630001Y-111994773D01*
X70629999Y-111994773D01*
X70365972Y-112013657D01*
X70365965Y-112013658D01*
X70107326Y-112069921D01*
X69859309Y-112162426D01*
X69859305Y-112162428D01*
X69626994Y-112289280D01*
X69626986Y-112289285D01*
X69415092Y-112447906D01*
X69415074Y-112447922D01*
X69227922Y-112635074D01*
X69227906Y-112635092D01*
X69069285Y-112846986D01*
X69069280Y-112846994D01*
X68942428Y-113079305D01*
X68942426Y-113079309D01*
X68849921Y-113327326D01*
X68793658Y-113585965D01*
X68793657Y-113585972D01*
X68774773Y-113849998D01*
X68774773Y-113850001D01*
X67440000Y-113850001D01*
X67440000Y-104648000D01*
X99228341Y-104648000D01*
X99248936Y-104883403D01*
X99248938Y-104883413D01*
X99310094Y-105111655D01*
X99310096Y-105111659D01*
X99310097Y-105111663D01*
X99409964Y-105325829D01*
X99409965Y-105325830D01*
X99409967Y-105325834D01*
X99482480Y-105429392D01*
X99545505Y-105519401D01*
X99712599Y-105686495D01*
X99809384Y-105754265D01*
X99906165Y-105822032D01*
X99906167Y-105822033D01*
X99906170Y-105822035D01*
X100120337Y-105921903D01*
X100348592Y-105983063D01*
X100536918Y-105999539D01*
X100583999Y-106003659D01*
X100584000Y-106003659D01*
X100584001Y-106003659D01*
X100623234Y-106000226D01*
X100819408Y-105983063D01*
X101047663Y-105921903D01*
X101261830Y-105822035D01*
X101455401Y-105686495D01*
X101622495Y-105519401D01*
X101758035Y-105325830D01*
X101857903Y-105111663D01*
X101919063Y-104883408D01*
X101939659Y-104648000D01*
X101919063Y-104412592D01*
X101857903Y-104184337D01*
X101758035Y-103970171D01*
X101622495Y-103776599D01*
X101622494Y-103776597D01*
X101455402Y-103609506D01*
X101455396Y-103609501D01*
X101269842Y-103479575D01*
X101226217Y-103424998D01*
X101219023Y-103355500D01*
X101250546Y-103293145D01*
X101269842Y-103276425D01*
X101292026Y-103260891D01*
X101455401Y-103146495D01*
X101622495Y-102979401D01*
X101758035Y-102785830D01*
X101857903Y-102571663D01*
X101919063Y-102343408D01*
X101939659Y-102108000D01*
X101919063Y-101872592D01*
X101857903Y-101644337D01*
X101758035Y-101430171D01*
X101622495Y-101236599D01*
X101622494Y-101236597D01*
X101455402Y-101069506D01*
X101455401Y-101069505D01*
X101269842Y-100939575D01*
X101269841Y-100939574D01*
X101226216Y-100884997D01*
X101219024Y-100815498D01*
X101250546Y-100753144D01*
X101269836Y-100736428D01*
X101455401Y-100606495D01*
X101622495Y-100439401D01*
X101758035Y-100245830D01*
X101857903Y-100031663D01*
X101919063Y-99803408D01*
X101939659Y-99568000D01*
X101919063Y-99332592D01*
X101857903Y-99104337D01*
X101758035Y-98890171D01*
X101704209Y-98813298D01*
X101622494Y-98696597D01*
X101455402Y-98529506D01*
X101455396Y-98529501D01*
X101269842Y-98399575D01*
X101226217Y-98344998D01*
X101219023Y-98275500D01*
X101250546Y-98213145D01*
X101269842Y-98196425D01*
X101292026Y-98180891D01*
X101455401Y-98066495D01*
X101622495Y-97899401D01*
X101758035Y-97705830D01*
X101857903Y-97491663D01*
X101919063Y-97263408D01*
X101939659Y-97028000D01*
X101919063Y-96792592D01*
X101857903Y-96564337D01*
X101758035Y-96350171D01*
X101704209Y-96273298D01*
X101622494Y-96156597D01*
X101455402Y-95989506D01*
X101455401Y-95989505D01*
X101269842Y-95859575D01*
X101269841Y-95859574D01*
X101226216Y-95804997D01*
X101219024Y-95735498D01*
X101250546Y-95673144D01*
X101269836Y-95656428D01*
X101455401Y-95526495D01*
X101622495Y-95359401D01*
X101758035Y-95165830D01*
X101857903Y-94951663D01*
X101919063Y-94723408D01*
X101939659Y-94488000D01*
X101919063Y-94252592D01*
X101857903Y-94024337D01*
X101758035Y-93810171D01*
X101622495Y-93616599D01*
X101622494Y-93616597D01*
X101455402Y-93449506D01*
X101455396Y-93449501D01*
X101269842Y-93319575D01*
X101226217Y-93264998D01*
X101219023Y-93195500D01*
X101250546Y-93133145D01*
X101269842Y-93116425D01*
X101292026Y-93100891D01*
X101455401Y-92986495D01*
X101622495Y-92819401D01*
X101758035Y-92625830D01*
X101857903Y-92411663D01*
X101919063Y-92183408D01*
X101939659Y-91948000D01*
X101919063Y-91712592D01*
X101857903Y-91484337D01*
X101758035Y-91270171D01*
X101699098Y-91185999D01*
X101622494Y-91076597D01*
X101455402Y-90909506D01*
X101455401Y-90909505D01*
X101269842Y-90779575D01*
X101269841Y-90779574D01*
X101226216Y-90724997D01*
X101219024Y-90655498D01*
X101250546Y-90593144D01*
X101269836Y-90576428D01*
X101455401Y-90446495D01*
X101622495Y-90279401D01*
X101758035Y-90085830D01*
X101857903Y-89871663D01*
X101919063Y-89643408D01*
X101939659Y-89408000D01*
X101919063Y-89172592D01*
X101857903Y-88944337D01*
X101758035Y-88730171D01*
X101683459Y-88623664D01*
X101622494Y-88536597D01*
X101455402Y-88369506D01*
X101455401Y-88369505D01*
X101269842Y-88239575D01*
X101269841Y-88239574D01*
X101226216Y-88184997D01*
X101219024Y-88115498D01*
X101250546Y-88053144D01*
X101269836Y-88036428D01*
X101455401Y-87906495D01*
X101622495Y-87739401D01*
X101758035Y-87545830D01*
X101857903Y-87331663D01*
X101919063Y-87103408D01*
X101939659Y-86868000D01*
X101919063Y-86632592D01*
X101857903Y-86404337D01*
X101758035Y-86190171D01*
X101661423Y-86052193D01*
X101622494Y-85996597D01*
X101455402Y-85829506D01*
X101455401Y-85829505D01*
X101269842Y-85699575D01*
X101269841Y-85699574D01*
X101226216Y-85644997D01*
X101219024Y-85575498D01*
X101250546Y-85513144D01*
X101269836Y-85496428D01*
X101455401Y-85366495D01*
X101622495Y-85199401D01*
X101758035Y-85005830D01*
X101857903Y-84791663D01*
X101919063Y-84563408D01*
X101939659Y-84328000D01*
X101919063Y-84092592D01*
X101857903Y-83864337D01*
X101758035Y-83650171D01*
X101661423Y-83512193D01*
X101622494Y-83456597D01*
X101455402Y-83289506D01*
X101455401Y-83289505D01*
X101269405Y-83159269D01*
X101225781Y-83104692D01*
X101218588Y-83035193D01*
X101250110Y-82972839D01*
X101269405Y-82956119D01*
X101345373Y-82902925D01*
X100843116Y-82400669D01*
X100809631Y-82339346D01*
X100814615Y-82269655D01*
X100851640Y-82220193D01*
X100850398Y-82218759D01*
X100857100Y-82212952D01*
X100965761Y-82118798D01*
X101000954Y-82064037D01*
X101053755Y-82018283D01*
X101122914Y-82008339D01*
X101186470Y-82037363D01*
X101192949Y-82043396D01*
X101698925Y-82549373D01*
X101698926Y-82549373D01*
X101757598Y-82465582D01*
X101757600Y-82465578D01*
X101857429Y-82251492D01*
X101857433Y-82251483D01*
X101918567Y-82023326D01*
X101918569Y-82023315D01*
X101939157Y-81788001D01*
X101939157Y-81787998D01*
X101918569Y-81552684D01*
X101918567Y-81552673D01*
X101857433Y-81324516D01*
X101857429Y-81324507D01*
X101757600Y-81110423D01*
X101757599Y-81110421D01*
X101698925Y-81026626D01*
X101698925Y-81026625D01*
X101192949Y-81532602D01*
X101131626Y-81566087D01*
X101061934Y-81561103D01*
X101006001Y-81519231D01*
X101000953Y-81511961D01*
X100965761Y-81457202D01*
X100850398Y-81357241D01*
X100852708Y-81354574D01*
X100818005Y-81314528D01*
X100808058Y-81245370D01*
X100837080Y-81181813D01*
X100843116Y-81175330D01*
X101345373Y-80673073D01*
X101345373Y-80673072D01*
X101261583Y-80614402D01*
X101261579Y-80614400D01*
X101047492Y-80514570D01*
X101047483Y-80514566D01*
X100819326Y-80453432D01*
X100819315Y-80453430D01*
X100584002Y-80432843D01*
X100583998Y-80432843D01*
X100348684Y-80453430D01*
X100348673Y-80453432D01*
X100120516Y-80514566D01*
X100120507Y-80514570D01*
X99906419Y-80614401D01*
X99822625Y-80673072D01*
X100324883Y-81175330D01*
X100358368Y-81236653D01*
X100353384Y-81306345D01*
X100316357Y-81355805D01*
X100317602Y-81357241D01*
X100202238Y-81457202D01*
X100167046Y-81511962D01*
X100114242Y-81557717D01*
X100045083Y-81567660D01*
X99981528Y-81538634D01*
X99975050Y-81532603D01*
X99469072Y-81026625D01*
X99410401Y-81110419D01*
X99310570Y-81324507D01*
X99310566Y-81324516D01*
X99249432Y-81552673D01*
X99249430Y-81552684D01*
X99228843Y-81787998D01*
X99228843Y-81788001D01*
X99249430Y-82023315D01*
X99249432Y-82023326D01*
X99310566Y-82251483D01*
X99310570Y-82251492D01*
X99410400Y-82465579D01*
X99410402Y-82465583D01*
X99469072Y-82549373D01*
X99469073Y-82549373D01*
X99975050Y-82043395D01*
X100036373Y-82009910D01*
X100106064Y-82014894D01*
X100161998Y-82056765D01*
X100167039Y-82064025D01*
X100167048Y-82064039D01*
X100202239Y-82118798D01*
X100317602Y-82218759D01*
X100315293Y-82221422D01*
X100350006Y-82261499D01*
X100359935Y-82330660D01*
X100330898Y-82394210D01*
X100324882Y-82400669D01*
X99822625Y-82902925D01*
X99898594Y-82956119D01*
X99942219Y-83010696D01*
X99949413Y-83080194D01*
X99917890Y-83142549D01*
X99898595Y-83159269D01*
X99712594Y-83289508D01*
X99545505Y-83456597D01*
X99409965Y-83650169D01*
X99409964Y-83650171D01*
X99310098Y-83864335D01*
X99310094Y-83864344D01*
X99248938Y-84092586D01*
X99248936Y-84092596D01*
X99228341Y-84327999D01*
X99228341Y-84328000D01*
X99248936Y-84563403D01*
X99248938Y-84563413D01*
X99310094Y-84791655D01*
X99310096Y-84791659D01*
X99310097Y-84791663D01*
X99361427Y-84901740D01*
X99409965Y-85005830D01*
X99409967Y-85005834D01*
X99489908Y-85120000D01*
X99537385Y-85187805D01*
X99545501Y-85199395D01*
X99545506Y-85199402D01*
X99712597Y-85366493D01*
X99712603Y-85366498D01*
X99898158Y-85496425D01*
X99941783Y-85551002D01*
X99948977Y-85620500D01*
X99917454Y-85682855D01*
X99898158Y-85699575D01*
X99712597Y-85829505D01*
X99545505Y-85996597D01*
X99409965Y-86190169D01*
X99409964Y-86190171D01*
X99310098Y-86404335D01*
X99310094Y-86404344D01*
X99248938Y-86632586D01*
X99248936Y-86632596D01*
X99228341Y-86867999D01*
X99228341Y-86868000D01*
X99248936Y-87103403D01*
X99248938Y-87103413D01*
X99310094Y-87331655D01*
X99310096Y-87331659D01*
X99310097Y-87331663D01*
X99400241Y-87524977D01*
X99409965Y-87545830D01*
X99409967Y-87545834D01*
X99545501Y-87739395D01*
X99545506Y-87739402D01*
X99712597Y-87906493D01*
X99712603Y-87906498D01*
X99898158Y-88036425D01*
X99941783Y-88091002D01*
X99948977Y-88160500D01*
X99917454Y-88222855D01*
X99898158Y-88239575D01*
X99712597Y-88369505D01*
X99545505Y-88536597D01*
X99409965Y-88730169D01*
X99409964Y-88730171D01*
X99310098Y-88944335D01*
X99310094Y-88944344D01*
X99248938Y-89172586D01*
X99248936Y-89172596D01*
X99228341Y-89407999D01*
X99228341Y-89408000D01*
X99248936Y-89643403D01*
X99248938Y-89643413D01*
X99310094Y-89871655D01*
X99310096Y-89871659D01*
X99310097Y-89871663D01*
X99409965Y-90085829D01*
X99409965Y-90085830D01*
X99409967Y-90085834D01*
X99545501Y-90279395D01*
X99545506Y-90279402D01*
X99712597Y-90446493D01*
X99712603Y-90446498D01*
X99898158Y-90576425D01*
X99941783Y-90631002D01*
X99948977Y-90700500D01*
X99917454Y-90762855D01*
X99898158Y-90779575D01*
X99712597Y-90909505D01*
X99545505Y-91076597D01*
X99409965Y-91270169D01*
X99409964Y-91270171D01*
X99310098Y-91484335D01*
X99310094Y-91484344D01*
X99248938Y-91712586D01*
X99248936Y-91712596D01*
X99228341Y-91947999D01*
X99228341Y-91948000D01*
X99248936Y-92183403D01*
X99248938Y-92183413D01*
X99310094Y-92411655D01*
X99310096Y-92411659D01*
X99310097Y-92411663D01*
X99409965Y-92625829D01*
X99409965Y-92625830D01*
X99409967Y-92625834D01*
X99545501Y-92819395D01*
X99545506Y-92819402D01*
X99712597Y-92986493D01*
X99712603Y-92986498D01*
X99898158Y-93116425D01*
X99941783Y-93171002D01*
X99948977Y-93240500D01*
X99917454Y-93302855D01*
X99898158Y-93319575D01*
X99712597Y-93449505D01*
X99545505Y-93616597D01*
X99409965Y-93810169D01*
X99409964Y-93810171D01*
X99310098Y-94024335D01*
X99310094Y-94024344D01*
X99248938Y-94252586D01*
X99248936Y-94252596D01*
X99228341Y-94487999D01*
X99228341Y-94488000D01*
X99248936Y-94723403D01*
X99248938Y-94723413D01*
X99310094Y-94951655D01*
X99310096Y-94951659D01*
X99310097Y-94951663D01*
X99409965Y-95165829D01*
X99409965Y-95165830D01*
X99409967Y-95165834D01*
X99545501Y-95359395D01*
X99545506Y-95359402D01*
X99712597Y-95526493D01*
X99712603Y-95526498D01*
X99898158Y-95656425D01*
X99941783Y-95711002D01*
X99948977Y-95780500D01*
X99917454Y-95842855D01*
X99898158Y-95859575D01*
X99712597Y-95989505D01*
X99545505Y-96156597D01*
X99409965Y-96350169D01*
X99409964Y-96350171D01*
X99310098Y-96564335D01*
X99310094Y-96564344D01*
X99248938Y-96792586D01*
X99248936Y-96792596D01*
X99228341Y-97027999D01*
X99228341Y-97028000D01*
X99248936Y-97263403D01*
X99248938Y-97263413D01*
X99310094Y-97491655D01*
X99310096Y-97491659D01*
X99310097Y-97491663D01*
X99342063Y-97560214D01*
X99409965Y-97705830D01*
X99409967Y-97705834D01*
X99545501Y-97899395D01*
X99545506Y-97899402D01*
X99712597Y-98066493D01*
X99712603Y-98066498D01*
X99898158Y-98196425D01*
X99941783Y-98251002D01*
X99948977Y-98320500D01*
X99917454Y-98382855D01*
X99898158Y-98399575D01*
X99712597Y-98529505D01*
X99545505Y-98696597D01*
X99409965Y-98890169D01*
X99409964Y-98890171D01*
X99310098Y-99104335D01*
X99310094Y-99104344D01*
X99248938Y-99332586D01*
X99248936Y-99332596D01*
X99228341Y-99567999D01*
X99228341Y-99568000D01*
X99248936Y-99803403D01*
X99248938Y-99803413D01*
X99310094Y-100031655D01*
X99310096Y-100031659D01*
X99310097Y-100031663D01*
X99342063Y-100100214D01*
X99409965Y-100245830D01*
X99409967Y-100245834D01*
X99545501Y-100439395D01*
X99545506Y-100439402D01*
X99712597Y-100606493D01*
X99712603Y-100606498D01*
X99898158Y-100736425D01*
X99941783Y-100791002D01*
X99948977Y-100860500D01*
X99917454Y-100922855D01*
X99898158Y-100939575D01*
X99712597Y-101069505D01*
X99545505Y-101236597D01*
X99409965Y-101430169D01*
X99409964Y-101430171D01*
X99310098Y-101644335D01*
X99310094Y-101644344D01*
X99248938Y-101872586D01*
X99248936Y-101872596D01*
X99228341Y-102107999D01*
X99228341Y-102108000D01*
X99248936Y-102343403D01*
X99248938Y-102343413D01*
X99310094Y-102571655D01*
X99310096Y-102571659D01*
X99310097Y-102571663D01*
X99409964Y-102785830D01*
X99409965Y-102785830D01*
X99409967Y-102785834D01*
X99545501Y-102979395D01*
X99545506Y-102979402D01*
X99712597Y-103146493D01*
X99712603Y-103146498D01*
X99898158Y-103276425D01*
X99941783Y-103331002D01*
X99948977Y-103400500D01*
X99917454Y-103462855D01*
X99898158Y-103479575D01*
X99712597Y-103609505D01*
X99545505Y-103776597D01*
X99409965Y-103970169D01*
X99409964Y-103970171D01*
X99310098Y-104184335D01*
X99310094Y-104184344D01*
X99248938Y-104412586D01*
X99248936Y-104412596D01*
X99228341Y-104647999D01*
X99228341Y-104648000D01*
X67440000Y-104648000D01*
X67440000Y-99568000D01*
X79358540Y-99568000D01*
X79378326Y-99756256D01*
X79378327Y-99756259D01*
X79436818Y-99936277D01*
X79436821Y-99936284D01*
X79531467Y-100100216D01*
X79658129Y-100240888D01*
X79811265Y-100352148D01*
X79811270Y-100352151D01*
X79984192Y-100429142D01*
X79984197Y-100429144D01*
X80169354Y-100468500D01*
X80169355Y-100468500D01*
X80358644Y-100468500D01*
X80358646Y-100468500D01*
X80543803Y-100429144D01*
X80716730Y-100352151D01*
X80724944Y-100346182D01*
X80790750Y-100322702D01*
X80797831Y-100322500D01*
X89128169Y-100322500D01*
X89195208Y-100342185D01*
X89201056Y-100346183D01*
X89209269Y-100352150D01*
X89209270Y-100352151D01*
X89382192Y-100429142D01*
X89382197Y-100429144D01*
X89567354Y-100468500D01*
X89567355Y-100468500D01*
X89756644Y-100468500D01*
X89756646Y-100468500D01*
X89941803Y-100429144D01*
X90114730Y-100352151D01*
X90267871Y-100240888D01*
X90394533Y-100100216D01*
X90489179Y-99936284D01*
X90547674Y-99756256D01*
X90567460Y-99568000D01*
X90547674Y-99379744D01*
X90489179Y-99199716D01*
X90394533Y-99035784D01*
X90267871Y-98895112D01*
X90267870Y-98895111D01*
X90114734Y-98783851D01*
X90114729Y-98783848D01*
X89941807Y-98706857D01*
X89941802Y-98706855D01*
X89796000Y-98675865D01*
X89756646Y-98667500D01*
X89567354Y-98667500D01*
X89534897Y-98674398D01*
X89382197Y-98706855D01*
X89382192Y-98706857D01*
X89209270Y-98783848D01*
X89209269Y-98783849D01*
X89201056Y-98789817D01*
X89135250Y-98813298D01*
X89128169Y-98813500D01*
X80797831Y-98813500D01*
X80730792Y-98793815D01*
X80724944Y-98789817D01*
X80716730Y-98783849D01*
X80716729Y-98783848D01*
X80543807Y-98706857D01*
X80543802Y-98706855D01*
X80398001Y-98675865D01*
X80358646Y-98667500D01*
X80169354Y-98667500D01*
X80136897Y-98674398D01*
X79984197Y-98706855D01*
X79984192Y-98706857D01*
X79811270Y-98783848D01*
X79811265Y-98783851D01*
X79658129Y-98895111D01*
X79531466Y-99035785D01*
X79436821Y-99199715D01*
X79436818Y-99199722D01*
X79393645Y-99332596D01*
X79378326Y-99379744D01*
X79358540Y-99568000D01*
X67440000Y-99568000D01*
X67440000Y-97028000D01*
X79358540Y-97028000D01*
X79378326Y-97216256D01*
X79378327Y-97216259D01*
X79436818Y-97396277D01*
X79436821Y-97396284D01*
X79531467Y-97560216D01*
X79658129Y-97700888D01*
X79811265Y-97812148D01*
X79811270Y-97812151D01*
X79984192Y-97889142D01*
X79984197Y-97889144D01*
X80169354Y-97928500D01*
X80169355Y-97928500D01*
X80358644Y-97928500D01*
X80358646Y-97928500D01*
X80543803Y-97889144D01*
X80716730Y-97812151D01*
X80724944Y-97806182D01*
X80790750Y-97782702D01*
X80797831Y-97782500D01*
X91414169Y-97782500D01*
X91481208Y-97802185D01*
X91487056Y-97806183D01*
X91495269Y-97812150D01*
X91495270Y-97812151D01*
X91668192Y-97889142D01*
X91668197Y-97889144D01*
X91853354Y-97928500D01*
X91853355Y-97928500D01*
X92042644Y-97928500D01*
X92042646Y-97928500D01*
X92227803Y-97889144D01*
X92400730Y-97812151D01*
X92553871Y-97700888D01*
X92680533Y-97560216D01*
X92775179Y-97396284D01*
X92833674Y-97216256D01*
X92853460Y-97028000D01*
X92833674Y-96839744D01*
X92775179Y-96659716D01*
X92680533Y-96495784D01*
X92553871Y-96355112D01*
X92553870Y-96355111D01*
X92400734Y-96243851D01*
X92400729Y-96243848D01*
X92227807Y-96166857D01*
X92227802Y-96166855D01*
X92082001Y-96135865D01*
X92042646Y-96127500D01*
X91853354Y-96127500D01*
X91820897Y-96134398D01*
X91668197Y-96166855D01*
X91668192Y-96166857D01*
X91495270Y-96243848D01*
X91495269Y-96243849D01*
X91487056Y-96249817D01*
X91421250Y-96273298D01*
X91414169Y-96273500D01*
X80797831Y-96273500D01*
X80730792Y-96253815D01*
X80724944Y-96249817D01*
X80716730Y-96243849D01*
X80716729Y-96243848D01*
X80543807Y-96166857D01*
X80543802Y-96166855D01*
X80398000Y-96135865D01*
X80358646Y-96127500D01*
X80169354Y-96127500D01*
X80136897Y-96134398D01*
X79984197Y-96166855D01*
X79984192Y-96166857D01*
X79811270Y-96243848D01*
X79811265Y-96243851D01*
X79658129Y-96355111D01*
X79531466Y-96495785D01*
X79436821Y-96659715D01*
X79436818Y-96659722D01*
X79393645Y-96792596D01*
X79378326Y-96839744D01*
X79358540Y-97028000D01*
X67440000Y-97028000D01*
X67440000Y-91186000D01*
X95360540Y-91186000D01*
X95380326Y-91374256D01*
X95380327Y-91374259D01*
X95438818Y-91554277D01*
X95438821Y-91554284D01*
X95533467Y-91718216D01*
X95660128Y-91858888D01*
X95660129Y-91858888D01*
X95813265Y-91970148D01*
X95813270Y-91970151D01*
X95986192Y-92047142D01*
X95986197Y-92047144D01*
X96171354Y-92086500D01*
X96171355Y-92086500D01*
X96360644Y-92086500D01*
X96360646Y-92086500D01*
X96545803Y-92047144D01*
X96718730Y-91970151D01*
X96871871Y-91858888D01*
X96998533Y-91718216D01*
X97093179Y-91554284D01*
X97151674Y-91374256D01*
X97171460Y-91186000D01*
X97151674Y-90997744D01*
X97093179Y-90817716D01*
X97037111Y-90720604D01*
X97020500Y-90658606D01*
X97020500Y-85617392D01*
X97037113Y-85555392D01*
X97061505Y-85513144D01*
X97093179Y-85458284D01*
X97151674Y-85278256D01*
X97171460Y-85090000D01*
X97151674Y-84901744D01*
X97093179Y-84721716D01*
X96998533Y-84557784D01*
X96871871Y-84417112D01*
X96844188Y-84396999D01*
X96718734Y-84305851D01*
X96718729Y-84305848D01*
X96545807Y-84228857D01*
X96545802Y-84228855D01*
X96400001Y-84197865D01*
X96360646Y-84189500D01*
X96171354Y-84189500D01*
X96145831Y-84194925D01*
X95986197Y-84228855D01*
X95986192Y-84228857D01*
X95813270Y-84305848D01*
X95813265Y-84305851D01*
X95660129Y-84417111D01*
X95533466Y-84557785D01*
X95438821Y-84721715D01*
X95438818Y-84721722D01*
X95380327Y-84901740D01*
X95380326Y-84901744D01*
X95360540Y-85090000D01*
X95380326Y-85278256D01*
X95380327Y-85278259D01*
X95438818Y-85458277D01*
X95438821Y-85458284D01*
X95494887Y-85555392D01*
X95511500Y-85617392D01*
X95511500Y-90658606D01*
X95494888Y-90720605D01*
X95438820Y-90817718D01*
X95438818Y-90817722D01*
X95408996Y-90909506D01*
X95380326Y-90997744D01*
X95360540Y-91186000D01*
X67440000Y-91186000D01*
X67440000Y-88160000D01*
X80594341Y-88160000D01*
X80614936Y-88395403D01*
X80614938Y-88395413D01*
X80676094Y-88623655D01*
X80676096Y-88623659D01*
X80676097Y-88623663D01*
X80680000Y-88632032D01*
X80775965Y-88837830D01*
X80775967Y-88837834D01*
X80850542Y-88944337D01*
X80911505Y-89031401D01*
X81078599Y-89198495D01*
X81175384Y-89266265D01*
X81272165Y-89334032D01*
X81272167Y-89334033D01*
X81272170Y-89334035D01*
X81486337Y-89433903D01*
X81714592Y-89495063D01*
X81902918Y-89511539D01*
X81949999Y-89515659D01*
X81950000Y-89515659D01*
X81950001Y-89515659D01*
X81989234Y-89512226D01*
X82185408Y-89495063D01*
X82413663Y-89433903D01*
X82627830Y-89334035D01*
X82821401Y-89198495D01*
X82988495Y-89031401D01*
X83118424Y-88845842D01*
X83173002Y-88802217D01*
X83242500Y-88795023D01*
X83304855Y-88826546D01*
X83321575Y-88845842D01*
X83451500Y-89031395D01*
X83451505Y-89031401D01*
X83618599Y-89198495D01*
X83715384Y-89266265D01*
X83812165Y-89334032D01*
X83812167Y-89334033D01*
X83812170Y-89334035D01*
X84026337Y-89433903D01*
X84254592Y-89495063D01*
X84442918Y-89511539D01*
X84489999Y-89515659D01*
X84490000Y-89515659D01*
X84490001Y-89515659D01*
X84529234Y-89512226D01*
X84725408Y-89495063D01*
X84953663Y-89433903D01*
X85167830Y-89334035D01*
X85361401Y-89198495D01*
X85528495Y-89031401D01*
X85664035Y-88837830D01*
X85763903Y-88623663D01*
X85825063Y-88395408D01*
X85845659Y-88160000D01*
X85825063Y-87924592D01*
X85763903Y-87696337D01*
X85664035Y-87482171D01*
X85658425Y-87474158D01*
X85528494Y-87288597D01*
X85361402Y-87121506D01*
X85361401Y-87121505D01*
X85175405Y-86991269D01*
X85131781Y-86936692D01*
X85124588Y-86867193D01*
X85156110Y-86804839D01*
X85175405Y-86788119D01*
X85251373Y-86734925D01*
X84749116Y-86232669D01*
X84715631Y-86171346D01*
X84720615Y-86101655D01*
X84757640Y-86052193D01*
X84756398Y-86050759D01*
X84763100Y-86044952D01*
X84871761Y-85950798D01*
X84906954Y-85896037D01*
X84959755Y-85850283D01*
X85028914Y-85840339D01*
X85092470Y-85869363D01*
X85098949Y-85875396D01*
X85604925Y-86381373D01*
X85604926Y-86381373D01*
X85663598Y-86297582D01*
X85663600Y-86297578D01*
X85763429Y-86083492D01*
X85763433Y-86083483D01*
X85824567Y-85855326D01*
X85824569Y-85855315D01*
X85845157Y-85620001D01*
X85845157Y-85619998D01*
X85824569Y-85384684D01*
X85824567Y-85384673D01*
X85763433Y-85156516D01*
X85763429Y-85156507D01*
X85663600Y-84942423D01*
X85663599Y-84942421D01*
X85604925Y-84858626D01*
X85604925Y-84858625D01*
X85098949Y-85364602D01*
X85037626Y-85398087D01*
X84967934Y-85393103D01*
X84912001Y-85351231D01*
X84906953Y-85343961D01*
X84871761Y-85289202D01*
X84768125Y-85199402D01*
X84763100Y-85195048D01*
X84763099Y-85195047D01*
X84756398Y-85189241D01*
X84758708Y-85186574D01*
X84724005Y-85146528D01*
X84714058Y-85077370D01*
X84743080Y-85013813D01*
X84749116Y-85007330D01*
X85251373Y-84505073D01*
X85174969Y-84451576D01*
X85131344Y-84396999D01*
X85124150Y-84327501D01*
X85155672Y-84265146D01*
X85174968Y-84248425D01*
X85251373Y-84194925D01*
X84749116Y-83692669D01*
X84715631Y-83631346D01*
X84720615Y-83561655D01*
X84757640Y-83512193D01*
X84756398Y-83510759D01*
X84763100Y-83504952D01*
X84871761Y-83410798D01*
X84906954Y-83356037D01*
X84959755Y-83310283D01*
X85028914Y-83300339D01*
X85092470Y-83329363D01*
X85098949Y-83335396D01*
X85604925Y-83841373D01*
X85604926Y-83841373D01*
X85663598Y-83757582D01*
X85663600Y-83757578D01*
X85763429Y-83543492D01*
X85763433Y-83543483D01*
X85824567Y-83315326D01*
X85824569Y-83315315D01*
X85845157Y-83080001D01*
X85845157Y-83079998D01*
X85824569Y-82844684D01*
X85824567Y-82844673D01*
X85763433Y-82616516D01*
X85763429Y-82616507D01*
X85663600Y-82402423D01*
X85663599Y-82402421D01*
X85604925Y-82318626D01*
X85604925Y-82318625D01*
X85098949Y-82824602D01*
X85037626Y-82858087D01*
X84967934Y-82853103D01*
X84912001Y-82811231D01*
X84906953Y-82803961D01*
X84871761Y-82749202D01*
X84756398Y-82649241D01*
X84758708Y-82646574D01*
X84724005Y-82606528D01*
X84714058Y-82537370D01*
X84743080Y-82473813D01*
X84749116Y-82467330D01*
X85251373Y-81965073D01*
X85174969Y-81911576D01*
X85131344Y-81856999D01*
X85124150Y-81787501D01*
X85155672Y-81725146D01*
X85174968Y-81708425D01*
X85251373Y-81654925D01*
X84749116Y-81152669D01*
X84715631Y-81091346D01*
X84720615Y-81021655D01*
X84757640Y-80972193D01*
X84756398Y-80970759D01*
X84763100Y-80964952D01*
X84871761Y-80870798D01*
X84906954Y-80816037D01*
X84959755Y-80770283D01*
X85028914Y-80760339D01*
X85092470Y-80789363D01*
X85098949Y-80795396D01*
X85604925Y-81301373D01*
X85604926Y-81301373D01*
X85663598Y-81217582D01*
X85663600Y-81217578D01*
X85763429Y-81003492D01*
X85763433Y-81003483D01*
X85824567Y-80775326D01*
X85824569Y-80775315D01*
X85845157Y-80540001D01*
X85845157Y-80539998D01*
X85824569Y-80304684D01*
X85824567Y-80304673D01*
X85763433Y-80076516D01*
X85763429Y-80076507D01*
X85663600Y-79862423D01*
X85663599Y-79862421D01*
X85604925Y-79778626D01*
X85604925Y-79778625D01*
X85098949Y-80284602D01*
X85037626Y-80318087D01*
X84967934Y-80313103D01*
X84912001Y-80271231D01*
X84906953Y-80263961D01*
X84871761Y-80209202D01*
X84756398Y-80109241D01*
X84758708Y-80106574D01*
X84724005Y-80066528D01*
X84714058Y-79997370D01*
X84743080Y-79933813D01*
X84749116Y-79927330D01*
X85255789Y-79420657D01*
X85266209Y-79368808D01*
X85314823Y-79318624D01*
X85336961Y-79308796D01*
X85409334Y-79284814D01*
X85558656Y-79192712D01*
X85682712Y-79068656D01*
X85774814Y-78919334D01*
X85829999Y-78752797D01*
X85840500Y-78650009D01*
X85840499Y-77349992D01*
X85829999Y-77247203D01*
X85774814Y-77080666D01*
X85682712Y-76931344D01*
X85558656Y-76807288D01*
X85465888Y-76750068D01*
X85409336Y-76715187D01*
X85409331Y-76715185D01*
X85407862Y-76714698D01*
X85242797Y-76660001D01*
X85242795Y-76660000D01*
X85140010Y-76649500D01*
X83839998Y-76649500D01*
X83839981Y-76649501D01*
X83737203Y-76660000D01*
X83737200Y-76660001D01*
X83570668Y-76715185D01*
X83570663Y-76715187D01*
X83421342Y-76807289D01*
X83297289Y-76931342D01*
X83205187Y-77080663D01*
X83205183Y-77080673D01*
X83202335Y-77089268D01*
X83162560Y-77146711D01*
X83098044Y-77173531D01*
X83029268Y-77161214D01*
X82992517Y-77132233D01*
X82992324Y-77132427D01*
X82990682Y-77130785D01*
X82989642Y-77129965D01*
X82988494Y-77128597D01*
X82821402Y-76961506D01*
X82821395Y-76961501D01*
X82627834Y-76825967D01*
X82627830Y-76825965D01*
X82587777Y-76807288D01*
X82413663Y-76726097D01*
X82413659Y-76726096D01*
X82413655Y-76726094D01*
X82185413Y-76664938D01*
X82185403Y-76664936D01*
X81950001Y-76644341D01*
X81949999Y-76644341D01*
X81714596Y-76664936D01*
X81714586Y-76664938D01*
X81486344Y-76726094D01*
X81486335Y-76726098D01*
X81272171Y-76825964D01*
X81272169Y-76825965D01*
X81078597Y-76961505D01*
X80911505Y-77128597D01*
X80775965Y-77322169D01*
X80775964Y-77322171D01*
X80676098Y-77536335D01*
X80676094Y-77536344D01*
X80614938Y-77764586D01*
X80614936Y-77764596D01*
X80594341Y-77999999D01*
X80594341Y-78000000D01*
X80614936Y-78235403D01*
X80614938Y-78235413D01*
X80676094Y-78463655D01*
X80676096Y-78463659D01*
X80676097Y-78463663D01*
X80760499Y-78644663D01*
X80775965Y-78677830D01*
X80775967Y-78677834D01*
X80882670Y-78830220D01*
X80911505Y-78871401D01*
X81078599Y-79038495D01*
X81264594Y-79168730D01*
X81308218Y-79223307D01*
X81315411Y-79292806D01*
X81283889Y-79355160D01*
X81264593Y-79371880D01*
X81188626Y-79425072D01*
X81188625Y-79425072D01*
X81690883Y-79927330D01*
X81724368Y-79988653D01*
X81719384Y-80058345D01*
X81682357Y-80107805D01*
X81683602Y-80109241D01*
X81568238Y-80209202D01*
X81533046Y-80263962D01*
X81480242Y-80309717D01*
X81411083Y-80319660D01*
X81347528Y-80290634D01*
X81341050Y-80284603D01*
X80835072Y-79778625D01*
X80776401Y-79862419D01*
X80676570Y-80076507D01*
X80676566Y-80076516D01*
X80615432Y-80304673D01*
X80615430Y-80304684D01*
X80594843Y-80539998D01*
X80594843Y-80540001D01*
X80615430Y-80775315D01*
X80615432Y-80775326D01*
X80676566Y-81003483D01*
X80676570Y-81003492D01*
X80776400Y-81217579D01*
X80776402Y-81217583D01*
X80835072Y-81301373D01*
X80835073Y-81301373D01*
X81341050Y-80795395D01*
X81402373Y-80761910D01*
X81472064Y-80766894D01*
X81527998Y-80808765D01*
X81533039Y-80816025D01*
X81568239Y-80870798D01*
X81590578Y-80890155D01*
X81683602Y-80970759D01*
X81681293Y-80973422D01*
X81716006Y-81013499D01*
X81725935Y-81082660D01*
X81696898Y-81146210D01*
X81690882Y-81152669D01*
X81188625Y-81654925D01*
X81265031Y-81708425D01*
X81308655Y-81763002D01*
X81315848Y-81832501D01*
X81284326Y-81894855D01*
X81265029Y-81911576D01*
X81188625Y-81965072D01*
X81690883Y-82467330D01*
X81724368Y-82528653D01*
X81719384Y-82598345D01*
X81682357Y-82647805D01*
X81683602Y-82649241D01*
X81568238Y-82749202D01*
X81533046Y-82803962D01*
X81480242Y-82849717D01*
X81411083Y-82859660D01*
X81347528Y-82830634D01*
X81341050Y-82824603D01*
X80835072Y-82318625D01*
X80776401Y-82402419D01*
X80676570Y-82616507D01*
X80676566Y-82616516D01*
X80615432Y-82844673D01*
X80615430Y-82844684D01*
X80594843Y-83079998D01*
X80594843Y-83080001D01*
X80615430Y-83315315D01*
X80615432Y-83315326D01*
X80676566Y-83543483D01*
X80676570Y-83543492D01*
X80776400Y-83757579D01*
X80776402Y-83757583D01*
X80835072Y-83841373D01*
X80835073Y-83841373D01*
X81341050Y-83335395D01*
X81402373Y-83301910D01*
X81472064Y-83306894D01*
X81527998Y-83348765D01*
X81533039Y-83356025D01*
X81533048Y-83356039D01*
X81568239Y-83410798D01*
X81683602Y-83510759D01*
X81681293Y-83513422D01*
X81716006Y-83553499D01*
X81725935Y-83622660D01*
X81696898Y-83686210D01*
X81690882Y-83692669D01*
X81188625Y-84194925D01*
X81265031Y-84248425D01*
X81308655Y-84303002D01*
X81315848Y-84372501D01*
X81284326Y-84434855D01*
X81265029Y-84451576D01*
X81188625Y-84505072D01*
X81690883Y-85007330D01*
X81724368Y-85068653D01*
X81719384Y-85138345D01*
X81682357Y-85187805D01*
X81683602Y-85189241D01*
X81568238Y-85289202D01*
X81533046Y-85343962D01*
X81480242Y-85389717D01*
X81411083Y-85399660D01*
X81347528Y-85370634D01*
X81341050Y-85364603D01*
X80835072Y-84858625D01*
X80776401Y-84942419D01*
X80676570Y-85156507D01*
X80676566Y-85156516D01*
X80615432Y-85384673D01*
X80615430Y-85384684D01*
X80594843Y-85619998D01*
X80594843Y-85620001D01*
X80615430Y-85855315D01*
X80615432Y-85855326D01*
X80676566Y-86083483D01*
X80676570Y-86083492D01*
X80776400Y-86297579D01*
X80776402Y-86297583D01*
X80835072Y-86381373D01*
X80835073Y-86381373D01*
X81341050Y-85875395D01*
X81402373Y-85841910D01*
X81472064Y-85846894D01*
X81527998Y-85888765D01*
X81533039Y-85896025D01*
X81533048Y-85896039D01*
X81568239Y-85950798D01*
X81683602Y-86050759D01*
X81681293Y-86053422D01*
X81716006Y-86093499D01*
X81725935Y-86162660D01*
X81696898Y-86226210D01*
X81690882Y-86232669D01*
X81188625Y-86734925D01*
X81264594Y-86788119D01*
X81308219Y-86842696D01*
X81315413Y-86912194D01*
X81283890Y-86974549D01*
X81264595Y-86991269D01*
X81078594Y-87121508D01*
X80911505Y-87288597D01*
X80775965Y-87482169D01*
X80775964Y-87482171D01*
X80676098Y-87696335D01*
X80676094Y-87696344D01*
X80614938Y-87924586D01*
X80614936Y-87924596D01*
X80594341Y-88159999D01*
X80594341Y-88160000D01*
X67440000Y-88160000D01*
X67440000Y-80010000D01*
X77072540Y-80010000D01*
X77092326Y-80198256D01*
X77092327Y-80198259D01*
X77150818Y-80378277D01*
X77150821Y-80378284D01*
X77245467Y-80542216D01*
X77308201Y-80611889D01*
X77372129Y-80682888D01*
X77525265Y-80794148D01*
X77525270Y-80794151D01*
X77698192Y-80871142D01*
X77698197Y-80871144D01*
X77883354Y-80910500D01*
X77883355Y-80910500D01*
X78072644Y-80910500D01*
X78072646Y-80910500D01*
X78257803Y-80871144D01*
X78430730Y-80794151D01*
X78583871Y-80682888D01*
X78710533Y-80542216D01*
X78805179Y-80378284D01*
X78863674Y-80198256D01*
X78883460Y-80010000D01*
X78863674Y-79821744D01*
X78805179Y-79641716D01*
X78749111Y-79544604D01*
X78732500Y-79482606D01*
X78732500Y-76473392D01*
X78749113Y-76411392D01*
X78805179Y-76314284D01*
X78863674Y-76134256D01*
X78883460Y-75946000D01*
X78863674Y-75757744D01*
X78842313Y-75692001D01*
X114344838Y-75692001D01*
X114363450Y-75904741D01*
X114363452Y-75904752D01*
X114418721Y-76111022D01*
X114418723Y-76111026D01*
X114418724Y-76111030D01*
X114429555Y-76134256D01*
X114508977Y-76304578D01*
X114631472Y-76479521D01*
X114782478Y-76630527D01*
X114782481Y-76630529D01*
X114957419Y-76753021D01*
X114957421Y-76753022D01*
X114957420Y-76753022D01*
X115021936Y-76783106D01*
X115150970Y-76843276D01*
X115357253Y-76898549D01*
X115509215Y-76911844D01*
X115569998Y-76917162D01*
X115570000Y-76917162D01*
X115570002Y-76917162D01*
X115623186Y-76912508D01*
X115782747Y-76898549D01*
X115989030Y-76843276D01*
X116182581Y-76753021D01*
X116357519Y-76630529D01*
X116508529Y-76479519D01*
X116631021Y-76304581D01*
X116721276Y-76111030D01*
X116776549Y-75904747D01*
X116795162Y-75692000D01*
X116776549Y-75479253D01*
X116721276Y-75272970D01*
X116631021Y-75079419D01*
X116508529Y-74904481D01*
X116508527Y-74904478D01*
X116357521Y-74753472D01*
X116182578Y-74630977D01*
X116182579Y-74630977D01*
X116053547Y-74570809D01*
X115989030Y-74540724D01*
X115989026Y-74540723D01*
X115989022Y-74540721D01*
X115782752Y-74485452D01*
X115782748Y-74485451D01*
X115782747Y-74485451D01*
X115782746Y-74485450D01*
X115782741Y-74485450D01*
X115570002Y-74466838D01*
X115569998Y-74466838D01*
X115357258Y-74485450D01*
X115357247Y-74485452D01*
X115150977Y-74540721D01*
X115150968Y-74540725D01*
X114957421Y-74630977D01*
X114782478Y-74753472D01*
X114631472Y-74904478D01*
X114508977Y-75079421D01*
X114418725Y-75272968D01*
X114418721Y-75272977D01*
X114363452Y-75479247D01*
X114363450Y-75479258D01*
X114344838Y-75691998D01*
X114344838Y-75692001D01*
X78842313Y-75692001D01*
X78805179Y-75577716D01*
X78710533Y-75413784D01*
X78583871Y-75273112D01*
X78583870Y-75273111D01*
X78430734Y-75161851D01*
X78430729Y-75161848D01*
X78257807Y-75084857D01*
X78257802Y-75084855D01*
X78112000Y-75053865D01*
X78072646Y-75045500D01*
X77883354Y-75045500D01*
X77850897Y-75052398D01*
X77698197Y-75084855D01*
X77698192Y-75084857D01*
X77525270Y-75161848D01*
X77525265Y-75161851D01*
X77372129Y-75273111D01*
X77245466Y-75413785D01*
X77150821Y-75577715D01*
X77150818Y-75577722D01*
X77113687Y-75692001D01*
X77092326Y-75757744D01*
X77072540Y-75946000D01*
X77092326Y-76134256D01*
X77092327Y-76134259D01*
X77150818Y-76314277D01*
X77150821Y-76314284D01*
X77206887Y-76411392D01*
X77223500Y-76473392D01*
X77223500Y-79482606D01*
X77206888Y-79544605D01*
X77150820Y-79641718D01*
X77150818Y-79641722D01*
X77092327Y-79821740D01*
X77092326Y-79821744D01*
X77072540Y-80010000D01*
X67440000Y-80010000D01*
X67440000Y-73152001D01*
X116884838Y-73152001D01*
X116903450Y-73364741D01*
X116903452Y-73364752D01*
X116958721Y-73571022D01*
X116958723Y-73571026D01*
X116958724Y-73571030D01*
X117001171Y-73662058D01*
X117048977Y-73764578D01*
X117171472Y-73939521D01*
X117322478Y-74090527D01*
X117322481Y-74090529D01*
X117497419Y-74213021D01*
X117497421Y-74213022D01*
X117497420Y-74213022D01*
X117561936Y-74243106D01*
X117690970Y-74303276D01*
X117897253Y-74358549D01*
X118049215Y-74371844D01*
X118109998Y-74377162D01*
X118110000Y-74377162D01*
X118110002Y-74377162D01*
X118163186Y-74372508D01*
X118322747Y-74358549D01*
X118529030Y-74303276D01*
X118722581Y-74213021D01*
X118897519Y-74090529D01*
X119048529Y-73939519D01*
X119171021Y-73764581D01*
X119261276Y-73571030D01*
X119316549Y-73364747D01*
X119335162Y-73152000D01*
X119316549Y-72939253D01*
X119261276Y-72732970D01*
X119171021Y-72539419D01*
X119048529Y-72364481D01*
X119048527Y-72364478D01*
X118897521Y-72213472D01*
X118722578Y-72090977D01*
X118722579Y-72090977D01*
X118593547Y-72030809D01*
X118529030Y-72000724D01*
X118529026Y-72000723D01*
X118529022Y-72000721D01*
X118322752Y-71945452D01*
X118322748Y-71945451D01*
X118322747Y-71945451D01*
X118322746Y-71945450D01*
X118322741Y-71945450D01*
X118110002Y-71926838D01*
X118109998Y-71926838D01*
X117897258Y-71945450D01*
X117897247Y-71945452D01*
X117690977Y-72000721D01*
X117690968Y-72000725D01*
X117497421Y-72090977D01*
X117322478Y-72213472D01*
X117171472Y-72364478D01*
X117048977Y-72539421D01*
X116958725Y-72732968D01*
X116958721Y-72732977D01*
X116903452Y-72939247D01*
X116903450Y-72939258D01*
X116884838Y-73151998D01*
X116884838Y-73152001D01*
X67440000Y-73152001D01*
X67440000Y-70612002D01*
X114345340Y-70612002D01*
X114363944Y-70824654D01*
X114363945Y-70824662D01*
X114419194Y-71030853D01*
X114419197Y-71030859D01*
X114509412Y-71224328D01*
X114509413Y-71224330D01*
X114548415Y-71280030D01*
X114548415Y-71280031D01*
X115032580Y-70795866D01*
X115093903Y-70762381D01*
X115163594Y-70767365D01*
X115219528Y-70809236D01*
X115230742Y-70827246D01*
X115242359Y-70850045D01*
X115242361Y-70850047D01*
X115242363Y-70850050D01*
X115331949Y-70939636D01*
X115331951Y-70939637D01*
X115331955Y-70939641D01*
X115354747Y-70951254D01*
X115405542Y-70999228D01*
X115422337Y-71067049D01*
X115399799Y-71133184D01*
X115386132Y-71149419D01*
X114901967Y-71633583D01*
X114957670Y-71672586D01*
X115151140Y-71762802D01*
X115151146Y-71762805D01*
X115357337Y-71818054D01*
X115357345Y-71818055D01*
X115569998Y-71836660D01*
X115570002Y-71836660D01*
X115782654Y-71818055D01*
X115782662Y-71818054D01*
X115988853Y-71762805D01*
X115988859Y-71762802D01*
X116182330Y-71672586D01*
X116182336Y-71672582D01*
X116238031Y-71633584D01*
X115753866Y-71149419D01*
X115720381Y-71088096D01*
X115725365Y-71018404D01*
X115767237Y-70962471D01*
X115785245Y-70951258D01*
X115808045Y-70939641D01*
X115897641Y-70850045D01*
X115909254Y-70827252D01*
X115957225Y-70776458D01*
X116025046Y-70759661D01*
X116091181Y-70782197D01*
X116107419Y-70795866D01*
X116591584Y-71280031D01*
X116630582Y-71224336D01*
X116630586Y-71224330D01*
X116720802Y-71030859D01*
X116720805Y-71030853D01*
X116776054Y-70824662D01*
X116776055Y-70824654D01*
X116794660Y-70612002D01*
X116794660Y-70611997D01*
X116776055Y-70399345D01*
X116776054Y-70399337D01*
X116720805Y-70193146D01*
X116720802Y-70193140D01*
X116630586Y-69999670D01*
X116591583Y-69943967D01*
X116107419Y-70428132D01*
X116046096Y-70461617D01*
X115976404Y-70456633D01*
X115920471Y-70414761D01*
X115909256Y-70396751D01*
X115897641Y-70373955D01*
X115897637Y-70373951D01*
X115897636Y-70373949D01*
X115808050Y-70284363D01*
X115808047Y-70284361D01*
X115808045Y-70284359D01*
X115785250Y-70272744D01*
X115734456Y-70224771D01*
X115717661Y-70156950D01*
X115740198Y-70090815D01*
X115753866Y-70074580D01*
X116238031Y-69590415D01*
X116182330Y-69551413D01*
X116182328Y-69551412D01*
X115988859Y-69461197D01*
X115988853Y-69461194D01*
X115782662Y-69405945D01*
X115782654Y-69405944D01*
X115570002Y-69387340D01*
X115569998Y-69387340D01*
X115357345Y-69405944D01*
X115357337Y-69405945D01*
X115151146Y-69461194D01*
X115151140Y-69461197D01*
X114957667Y-69551414D01*
X114901967Y-69590414D01*
X115386133Y-70074580D01*
X115419618Y-70135903D01*
X115414634Y-70205595D01*
X115372762Y-70261528D01*
X115354748Y-70272745D01*
X115331956Y-70284358D01*
X115331949Y-70284363D01*
X115242363Y-70373949D01*
X115242358Y-70373956D01*
X115230745Y-70396748D01*
X115182770Y-70447544D01*
X115114949Y-70464338D01*
X115048814Y-70441800D01*
X115032580Y-70428133D01*
X114548414Y-69943967D01*
X114509414Y-69999667D01*
X114419197Y-70193140D01*
X114419194Y-70193146D01*
X114363945Y-70399337D01*
X114363944Y-70399345D01*
X114345340Y-70611997D01*
X114345340Y-70612002D01*
X67440000Y-70612002D01*
X67440000Y-63650001D01*
X68774773Y-63650001D01*
X68793657Y-63914027D01*
X68793658Y-63914034D01*
X68849921Y-64172673D01*
X68942426Y-64420690D01*
X68942428Y-64420694D01*
X69069280Y-64653005D01*
X69069285Y-64653013D01*
X69227906Y-64864907D01*
X69227922Y-64864925D01*
X69415074Y-65052077D01*
X69415092Y-65052093D01*
X69626986Y-65210714D01*
X69626994Y-65210719D01*
X69859305Y-65337571D01*
X69859309Y-65337573D01*
X69859311Y-65337574D01*
X70107322Y-65430077D01*
X70107325Y-65430077D01*
X70107326Y-65430078D01*
X70302551Y-65472546D01*
X70365974Y-65486343D01*
X70609660Y-65503772D01*
X70629999Y-65505227D01*
X70630000Y-65505227D01*
X70630001Y-65505227D01*
X70648885Y-65503876D01*
X70894026Y-65486343D01*
X71152678Y-65430077D01*
X71400689Y-65337574D01*
X71633011Y-65210716D01*
X71844915Y-65052087D01*
X72032087Y-64864915D01*
X72043251Y-64850001D01*
X77174773Y-64850001D01*
X77193657Y-65114027D01*
X77193658Y-65114034D01*
X77249921Y-65372673D01*
X77342426Y-65620690D01*
X77342428Y-65620694D01*
X77469280Y-65853005D01*
X77469285Y-65853013D01*
X77627906Y-66064907D01*
X77627922Y-66064925D01*
X77815074Y-66252077D01*
X77815092Y-66252093D01*
X78026986Y-66410714D01*
X78026994Y-66410719D01*
X78259305Y-66537571D01*
X78259309Y-66537573D01*
X78259311Y-66537574D01*
X78507322Y-66630077D01*
X78507325Y-66630077D01*
X78507326Y-66630078D01*
X78702552Y-66672546D01*
X78765974Y-66686343D01*
X79009660Y-66703772D01*
X79029999Y-66705227D01*
X79030000Y-66705227D01*
X79030001Y-66705227D01*
X79048884Y-66703876D01*
X79294026Y-66686343D01*
X79552678Y-66630077D01*
X79800689Y-66537574D01*
X80033011Y-66410716D01*
X80244915Y-66252087D01*
X80432087Y-66064915D01*
X80590716Y-65853011D01*
X80717574Y-65620689D01*
X80810077Y-65372678D01*
X80866343Y-65114026D01*
X80885227Y-64850000D01*
X80866343Y-64585974D01*
X80810077Y-64327322D01*
X80717574Y-64079311D01*
X80590716Y-63846989D01*
X80590714Y-63846986D01*
X80443254Y-63650001D01*
X85554773Y-63650001D01*
X85573657Y-63914027D01*
X85573658Y-63914034D01*
X85629921Y-64172673D01*
X85722426Y-64420690D01*
X85722428Y-64420694D01*
X85849280Y-64653005D01*
X85849285Y-64653013D01*
X86007906Y-64864907D01*
X86007922Y-64864925D01*
X86195074Y-65052077D01*
X86195092Y-65052093D01*
X86406986Y-65210714D01*
X86406994Y-65210719D01*
X86639305Y-65337571D01*
X86639309Y-65337573D01*
X86639311Y-65337574D01*
X86887322Y-65430077D01*
X86887325Y-65430077D01*
X86887326Y-65430078D01*
X87082552Y-65472546D01*
X87145974Y-65486343D01*
X87389660Y-65503772D01*
X87409999Y-65505227D01*
X87410000Y-65505227D01*
X87410001Y-65505227D01*
X87428884Y-65503876D01*
X87674026Y-65486343D01*
X87932678Y-65430077D01*
X88180689Y-65337574D01*
X88413011Y-65210716D01*
X88624915Y-65052087D01*
X88812087Y-64864915D01*
X88823251Y-64850001D01*
X93954773Y-64850001D01*
X93973657Y-65114027D01*
X93973658Y-65114034D01*
X94029921Y-65372673D01*
X94122426Y-65620690D01*
X94122428Y-65620694D01*
X94249280Y-65853005D01*
X94249285Y-65853013D01*
X94407906Y-66064907D01*
X94407922Y-66064925D01*
X94595074Y-66252077D01*
X94595092Y-66252093D01*
X94806986Y-66410714D01*
X94806994Y-66410719D01*
X95039305Y-66537571D01*
X95039309Y-66537573D01*
X95039311Y-66537574D01*
X95287322Y-66630077D01*
X95287325Y-66630077D01*
X95287326Y-66630078D01*
X95482551Y-66672546D01*
X95545974Y-66686343D01*
X95789660Y-66703772D01*
X95809999Y-66705227D01*
X95810000Y-66705227D01*
X95810001Y-66705227D01*
X95828885Y-66703876D01*
X96074026Y-66686343D01*
X96332678Y-66630077D01*
X96580689Y-66537574D01*
X96813011Y-66410716D01*
X97024915Y-66252087D01*
X97212087Y-66064915D01*
X97370716Y-65853011D01*
X97497574Y-65620689D01*
X97590077Y-65372678D01*
X97646343Y-65114026D01*
X97665227Y-64850000D01*
X97646343Y-64585974D01*
X97590077Y-64327322D01*
X97497574Y-64079311D01*
X97370716Y-63846989D01*
X97370714Y-63846986D01*
X97223254Y-63650001D01*
X102334773Y-63650001D01*
X102353657Y-63914027D01*
X102353658Y-63914034D01*
X102409921Y-64172673D01*
X102502426Y-64420690D01*
X102502428Y-64420694D01*
X102629280Y-64653005D01*
X102629285Y-64653013D01*
X102787906Y-64864907D01*
X102787922Y-64864925D01*
X102975074Y-65052077D01*
X102975092Y-65052093D01*
X103186986Y-65210714D01*
X103186994Y-65210719D01*
X103419305Y-65337571D01*
X103419309Y-65337573D01*
X103419311Y-65337574D01*
X103667322Y-65430077D01*
X103667325Y-65430077D01*
X103667326Y-65430078D01*
X103862552Y-65472546D01*
X103925974Y-65486343D01*
X104169660Y-65503772D01*
X104189999Y-65505227D01*
X104190000Y-65505227D01*
X104190001Y-65505227D01*
X104208884Y-65503876D01*
X104454026Y-65486343D01*
X104712678Y-65430077D01*
X104960689Y-65337574D01*
X105193011Y-65210716D01*
X105404915Y-65052087D01*
X105592087Y-64864915D01*
X105603251Y-64850001D01*
X110734773Y-64850001D01*
X110753657Y-65114027D01*
X110753658Y-65114034D01*
X110809921Y-65372673D01*
X110902426Y-65620690D01*
X110902428Y-65620694D01*
X111029280Y-65853005D01*
X111029285Y-65853013D01*
X111187906Y-66064907D01*
X111187922Y-66064925D01*
X111375074Y-66252077D01*
X111375092Y-66252093D01*
X111586986Y-66410714D01*
X111586994Y-66410719D01*
X111819305Y-66537571D01*
X111819309Y-66537573D01*
X111819311Y-66537574D01*
X112067322Y-66630077D01*
X112067325Y-66630077D01*
X112067326Y-66630078D01*
X112262552Y-66672546D01*
X112325974Y-66686343D01*
X112569660Y-66703772D01*
X112589999Y-66705227D01*
X112590000Y-66705227D01*
X112590001Y-66705227D01*
X112608884Y-66703876D01*
X112854026Y-66686343D01*
X113112678Y-66630077D01*
X113360689Y-66537574D01*
X113593011Y-66410716D01*
X113804915Y-66252087D01*
X113992087Y-66064915D01*
X114150716Y-65853011D01*
X114277574Y-65620689D01*
X114370077Y-65372678D01*
X114426343Y-65114026D01*
X114445227Y-64850000D01*
X114426343Y-64585974D01*
X114370077Y-64327322D01*
X114277574Y-64079311D01*
X114150716Y-63846989D01*
X114150714Y-63846986D01*
X114003254Y-63650001D01*
X119114773Y-63650001D01*
X119133657Y-63914027D01*
X119133658Y-63914034D01*
X119189921Y-64172673D01*
X119282426Y-64420690D01*
X119282428Y-64420694D01*
X119409280Y-64653005D01*
X119409285Y-64653013D01*
X119567906Y-64864907D01*
X119567922Y-64864925D01*
X119755074Y-65052077D01*
X119755092Y-65052093D01*
X119966986Y-65210714D01*
X119966994Y-65210719D01*
X120199305Y-65337571D01*
X120199309Y-65337573D01*
X120199311Y-65337574D01*
X120447322Y-65430077D01*
X120447325Y-65430077D01*
X120447326Y-65430078D01*
X120642552Y-65472546D01*
X120705974Y-65486343D01*
X120949660Y-65503772D01*
X120969999Y-65505227D01*
X120970000Y-65505227D01*
X120970001Y-65505227D01*
X120988885Y-65503876D01*
X121234026Y-65486343D01*
X121492678Y-65430077D01*
X121740689Y-65337574D01*
X121973011Y-65210716D01*
X122184915Y-65052087D01*
X122372087Y-64864915D01*
X122383251Y-64850001D01*
X127514773Y-64850001D01*
X127533657Y-65114027D01*
X127533658Y-65114034D01*
X127589921Y-65372673D01*
X127682426Y-65620690D01*
X127682428Y-65620694D01*
X127809280Y-65853005D01*
X127809285Y-65853013D01*
X127967906Y-66064907D01*
X127967922Y-66064925D01*
X128155074Y-66252077D01*
X128155092Y-66252093D01*
X128366986Y-66410714D01*
X128366994Y-66410719D01*
X128599305Y-66537571D01*
X128599309Y-66537573D01*
X128599311Y-66537574D01*
X128847322Y-66630077D01*
X128847325Y-66630077D01*
X128847326Y-66630078D01*
X129042552Y-66672546D01*
X129105974Y-66686343D01*
X129349660Y-66703772D01*
X129369999Y-66705227D01*
X129370000Y-66705227D01*
X129370001Y-66705227D01*
X129388885Y-66703876D01*
X129634026Y-66686343D01*
X129892678Y-66630077D01*
X130140689Y-66537574D01*
X130373011Y-66410716D01*
X130584915Y-66252087D01*
X130772087Y-66064915D01*
X130930716Y-65853011D01*
X131057574Y-65620689D01*
X131150077Y-65372678D01*
X131206343Y-65114026D01*
X131225227Y-64850000D01*
X131206343Y-64585974D01*
X131150077Y-64327322D01*
X131057574Y-64079311D01*
X130930716Y-63846989D01*
X130930714Y-63846986D01*
X130772093Y-63635092D01*
X130772077Y-63635074D01*
X130584925Y-63447922D01*
X130584907Y-63447906D01*
X130373013Y-63289285D01*
X130373005Y-63289280D01*
X130140694Y-63162428D01*
X130140690Y-63162426D01*
X129892673Y-63069921D01*
X129634034Y-63013658D01*
X129634027Y-63013657D01*
X129370001Y-62994773D01*
X129369999Y-62994773D01*
X129105972Y-63013657D01*
X129105965Y-63013658D01*
X128847326Y-63069921D01*
X128599309Y-63162426D01*
X128599305Y-63162428D01*
X128366994Y-63289280D01*
X128366986Y-63289285D01*
X128155092Y-63447906D01*
X128155074Y-63447922D01*
X127967922Y-63635074D01*
X127967906Y-63635092D01*
X127809285Y-63846986D01*
X127809280Y-63846994D01*
X127682428Y-64079305D01*
X127682426Y-64079309D01*
X127589921Y-64327326D01*
X127533658Y-64585965D01*
X127533657Y-64585972D01*
X127514773Y-64849998D01*
X127514773Y-64850001D01*
X122383251Y-64850001D01*
X122530716Y-64653011D01*
X122657574Y-64420689D01*
X122750077Y-64172678D01*
X122806343Y-63914026D01*
X122825227Y-63650000D01*
X122824159Y-63635074D01*
X122822525Y-63612229D01*
X122806343Y-63385974D01*
X122785310Y-63289285D01*
X122750078Y-63127326D01*
X122728667Y-63069921D01*
X122657574Y-62879311D01*
X122530716Y-62646989D01*
X122530714Y-62646986D01*
X122372093Y-62435092D01*
X122372077Y-62435074D01*
X122184925Y-62247922D01*
X122184907Y-62247906D01*
X121973013Y-62089285D01*
X121973005Y-62089280D01*
X121740694Y-61962428D01*
X121740690Y-61962426D01*
X121492673Y-61869921D01*
X121234034Y-61813658D01*
X121234027Y-61813657D01*
X120970001Y-61794773D01*
X120969999Y-61794773D01*
X120705972Y-61813657D01*
X120705965Y-61813658D01*
X120447326Y-61869921D01*
X120199309Y-61962426D01*
X120199305Y-61962428D01*
X119966994Y-62089280D01*
X119966986Y-62089285D01*
X119755092Y-62247906D01*
X119755074Y-62247922D01*
X119567922Y-62435074D01*
X119567906Y-62435092D01*
X119409285Y-62646986D01*
X119409280Y-62646994D01*
X119282428Y-62879305D01*
X119282426Y-62879309D01*
X119189921Y-63127326D01*
X119133658Y-63385965D01*
X119133657Y-63385972D01*
X119114773Y-63649998D01*
X119114773Y-63650001D01*
X114003254Y-63650001D01*
X113992093Y-63635092D01*
X113992077Y-63635074D01*
X113804925Y-63447922D01*
X113804907Y-63447906D01*
X113593013Y-63289285D01*
X113593005Y-63289280D01*
X113360694Y-63162428D01*
X113360690Y-63162426D01*
X113112673Y-63069921D01*
X112854034Y-63013658D01*
X112854027Y-63013657D01*
X112590001Y-62994773D01*
X112589999Y-62994773D01*
X112325972Y-63013657D01*
X112325965Y-63013658D01*
X112067326Y-63069921D01*
X111819309Y-63162426D01*
X111819305Y-63162428D01*
X111586994Y-63289280D01*
X111586986Y-63289285D01*
X111375092Y-63447906D01*
X111375074Y-63447922D01*
X111187922Y-63635074D01*
X111187906Y-63635092D01*
X111029285Y-63846986D01*
X111029280Y-63846994D01*
X110902428Y-64079305D01*
X110902426Y-64079309D01*
X110809921Y-64327326D01*
X110753658Y-64585965D01*
X110753657Y-64585972D01*
X110734773Y-64849998D01*
X110734773Y-64850001D01*
X105603251Y-64850001D01*
X105750716Y-64653011D01*
X105877574Y-64420689D01*
X105970077Y-64172678D01*
X106026343Y-63914026D01*
X106045227Y-63650000D01*
X106044159Y-63635074D01*
X106042525Y-63612229D01*
X106026343Y-63385974D01*
X106005310Y-63289285D01*
X105970078Y-63127326D01*
X105948667Y-63069921D01*
X105877574Y-62879311D01*
X105750716Y-62646989D01*
X105750714Y-62646986D01*
X105592093Y-62435092D01*
X105592077Y-62435074D01*
X105404925Y-62247922D01*
X105404907Y-62247906D01*
X105193013Y-62089285D01*
X105193005Y-62089280D01*
X104960694Y-61962428D01*
X104960690Y-61962426D01*
X104712673Y-61869921D01*
X104454034Y-61813658D01*
X104454027Y-61813657D01*
X104190001Y-61794773D01*
X104189999Y-61794773D01*
X103925972Y-61813657D01*
X103925965Y-61813658D01*
X103667326Y-61869921D01*
X103419309Y-61962426D01*
X103419305Y-61962428D01*
X103186994Y-62089280D01*
X103186986Y-62089285D01*
X102975092Y-62247906D01*
X102975074Y-62247922D01*
X102787922Y-62435074D01*
X102787906Y-62435092D01*
X102629285Y-62646986D01*
X102629280Y-62646994D01*
X102502428Y-62879305D01*
X102502426Y-62879309D01*
X102409921Y-63127326D01*
X102353658Y-63385965D01*
X102353657Y-63385972D01*
X102334773Y-63649998D01*
X102334773Y-63650001D01*
X97223254Y-63650001D01*
X97212093Y-63635092D01*
X97212077Y-63635074D01*
X97024925Y-63447922D01*
X97024907Y-63447906D01*
X96813013Y-63289285D01*
X96813005Y-63289280D01*
X96580694Y-63162428D01*
X96580690Y-63162426D01*
X96332673Y-63069921D01*
X96074034Y-63013658D01*
X96074027Y-63013657D01*
X95810001Y-62994773D01*
X95809999Y-62994773D01*
X95545972Y-63013657D01*
X95545965Y-63013658D01*
X95287326Y-63069921D01*
X95039309Y-63162426D01*
X95039305Y-63162428D01*
X94806994Y-63289280D01*
X94806986Y-63289285D01*
X94595092Y-63447906D01*
X94595074Y-63447922D01*
X94407922Y-63635074D01*
X94407906Y-63635092D01*
X94249285Y-63846986D01*
X94249280Y-63846994D01*
X94122428Y-64079305D01*
X94122426Y-64079309D01*
X94029921Y-64327326D01*
X93973658Y-64585965D01*
X93973657Y-64585972D01*
X93954773Y-64849998D01*
X93954773Y-64850001D01*
X88823251Y-64850001D01*
X88970716Y-64653011D01*
X89097574Y-64420689D01*
X89190077Y-64172678D01*
X89246343Y-63914026D01*
X89265227Y-63650000D01*
X89264159Y-63635074D01*
X89262525Y-63612229D01*
X89246343Y-63385974D01*
X89225310Y-63289285D01*
X89190078Y-63127326D01*
X89168667Y-63069921D01*
X89097574Y-62879311D01*
X88970716Y-62646989D01*
X88970714Y-62646986D01*
X88812093Y-62435092D01*
X88812077Y-62435074D01*
X88624925Y-62247922D01*
X88624907Y-62247906D01*
X88413013Y-62089285D01*
X88413005Y-62089280D01*
X88180694Y-61962428D01*
X88180690Y-61962426D01*
X87932673Y-61869921D01*
X87674034Y-61813658D01*
X87674027Y-61813657D01*
X87410001Y-61794773D01*
X87409999Y-61794773D01*
X87145972Y-61813657D01*
X87145965Y-61813658D01*
X86887326Y-61869921D01*
X86639309Y-61962426D01*
X86639305Y-61962428D01*
X86406994Y-62089280D01*
X86406986Y-62089285D01*
X86195092Y-62247906D01*
X86195074Y-62247922D01*
X86007922Y-62435074D01*
X86007906Y-62435092D01*
X85849285Y-62646986D01*
X85849280Y-62646994D01*
X85722428Y-62879305D01*
X85722426Y-62879309D01*
X85629921Y-63127326D01*
X85573658Y-63385965D01*
X85573657Y-63385972D01*
X85554773Y-63649998D01*
X85554773Y-63650001D01*
X80443254Y-63650001D01*
X80432093Y-63635092D01*
X80432077Y-63635074D01*
X80244925Y-63447922D01*
X80244907Y-63447906D01*
X80033013Y-63289285D01*
X80033005Y-63289280D01*
X79800694Y-63162428D01*
X79800690Y-63162426D01*
X79552673Y-63069921D01*
X79294034Y-63013658D01*
X79294027Y-63013657D01*
X79030001Y-62994773D01*
X79029999Y-62994773D01*
X78765972Y-63013657D01*
X78765965Y-63013658D01*
X78507326Y-63069921D01*
X78259309Y-63162426D01*
X78259305Y-63162428D01*
X78026994Y-63289280D01*
X78026986Y-63289285D01*
X77815092Y-63447906D01*
X77815074Y-63447922D01*
X77627922Y-63635074D01*
X77627906Y-63635092D01*
X77469285Y-63846986D01*
X77469280Y-63846994D01*
X77342428Y-64079305D01*
X77342426Y-64079309D01*
X77249921Y-64327326D01*
X77193658Y-64585965D01*
X77193657Y-64585972D01*
X77174773Y-64849998D01*
X77174773Y-64850001D01*
X72043251Y-64850001D01*
X72190716Y-64653011D01*
X72317574Y-64420689D01*
X72410077Y-64172678D01*
X72466343Y-63914026D01*
X72485227Y-63650000D01*
X72484159Y-63635074D01*
X72482525Y-63612229D01*
X72466343Y-63385974D01*
X72445310Y-63289285D01*
X72410078Y-63127326D01*
X72388667Y-63069921D01*
X72317574Y-62879311D01*
X72190716Y-62646989D01*
X72190714Y-62646986D01*
X72032093Y-62435092D01*
X72032077Y-62435074D01*
X71844925Y-62247922D01*
X71844907Y-62247906D01*
X71633013Y-62089285D01*
X71633005Y-62089280D01*
X71400694Y-61962428D01*
X71400690Y-61962426D01*
X71152673Y-61869921D01*
X70894034Y-61813658D01*
X70894027Y-61813657D01*
X70630001Y-61794773D01*
X70629999Y-61794773D01*
X70365972Y-61813657D01*
X70365965Y-61813658D01*
X70107326Y-61869921D01*
X69859309Y-61962426D01*
X69859305Y-61962428D01*
X69626994Y-62089280D01*
X69626986Y-62089285D01*
X69415092Y-62247906D01*
X69415074Y-62247922D01*
X69227922Y-62435074D01*
X69227906Y-62435092D01*
X69069285Y-62646986D01*
X69069280Y-62646994D01*
X68942428Y-62879305D01*
X68942426Y-62879309D01*
X68849921Y-63127326D01*
X68793658Y-63385965D01*
X68793657Y-63385972D01*
X68774773Y-63649998D01*
X68774773Y-63650001D01*
X67440000Y-63650001D01*
X67440000Y-59500006D01*
X71699786Y-59500006D01*
X71718608Y-59727168D01*
X71718610Y-59727179D01*
X71774569Y-59948155D01*
X71866137Y-60156908D01*
X71990814Y-60347742D01*
X72145208Y-60515458D01*
X72145212Y-60515461D01*
X72325090Y-60655466D01*
X72325094Y-60655469D01*
X72325096Y-60655470D01*
X72325099Y-60655472D01*
X72441646Y-60718543D01*
X72525574Y-60763963D01*
X72637529Y-60802397D01*
X72741173Y-60837979D01*
X72741175Y-60837979D01*
X72741177Y-60837980D01*
X72966023Y-60875500D01*
X72966024Y-60875500D01*
X73193976Y-60875500D01*
X73193977Y-60875500D01*
X73418823Y-60837980D01*
X73634426Y-60763963D01*
X73834906Y-60655469D01*
X74014794Y-60515456D01*
X74100025Y-60422870D01*
X75204500Y-60422870D01*
X75204501Y-60422876D01*
X75210908Y-60482483D01*
X75261202Y-60617328D01*
X75261206Y-60617335D01*
X75347452Y-60732544D01*
X75347455Y-60732547D01*
X75462664Y-60818793D01*
X75462671Y-60818797D01*
X75597517Y-60869091D01*
X75597516Y-60869091D01*
X75604444Y-60869835D01*
X75657127Y-60875500D01*
X77502872Y-60875499D01*
X77562483Y-60869091D01*
X77697331Y-60818796D01*
X77812546Y-60732546D01*
X77898796Y-60617331D01*
X77949091Y-60482483D01*
X77955500Y-60422873D01*
X77955500Y-59500006D01*
X88479786Y-59500006D01*
X88498608Y-59727168D01*
X88498610Y-59727179D01*
X88554569Y-59948155D01*
X88646137Y-60156908D01*
X88770814Y-60347742D01*
X88925208Y-60515458D01*
X88925212Y-60515461D01*
X89105090Y-60655466D01*
X89105094Y-60655469D01*
X89105096Y-60655470D01*
X89105099Y-60655472D01*
X89221646Y-60718543D01*
X89305574Y-60763963D01*
X89417529Y-60802397D01*
X89521173Y-60837979D01*
X89521175Y-60837979D01*
X89521177Y-60837980D01*
X89746023Y-60875500D01*
X89746024Y-60875500D01*
X89973976Y-60875500D01*
X89973977Y-60875500D01*
X90198823Y-60837980D01*
X90414426Y-60763963D01*
X90614906Y-60655469D01*
X90794794Y-60515456D01*
X90880025Y-60422870D01*
X91984500Y-60422870D01*
X91984501Y-60422876D01*
X91990908Y-60482483D01*
X92041202Y-60617328D01*
X92041206Y-60617335D01*
X92127452Y-60732544D01*
X92127455Y-60732547D01*
X92242664Y-60818793D01*
X92242671Y-60818797D01*
X92377517Y-60869091D01*
X92377516Y-60869091D01*
X92384444Y-60869835D01*
X92437127Y-60875500D01*
X94282872Y-60875499D01*
X94342483Y-60869091D01*
X94477331Y-60818796D01*
X94592546Y-60732546D01*
X94678796Y-60617331D01*
X94729091Y-60482483D01*
X94735500Y-60422873D01*
X94735500Y-59500006D01*
X105259786Y-59500006D01*
X105278608Y-59727168D01*
X105278610Y-59727179D01*
X105334569Y-59948155D01*
X105426137Y-60156908D01*
X105550814Y-60347742D01*
X105705208Y-60515458D01*
X105705212Y-60515461D01*
X105885090Y-60655466D01*
X105885094Y-60655469D01*
X105885096Y-60655470D01*
X105885099Y-60655472D01*
X106001646Y-60718543D01*
X106085574Y-60763963D01*
X106197529Y-60802397D01*
X106301173Y-60837979D01*
X106301175Y-60837979D01*
X106301177Y-60837980D01*
X106526023Y-60875500D01*
X106526024Y-60875500D01*
X106753976Y-60875500D01*
X106753977Y-60875500D01*
X106978823Y-60837980D01*
X107194426Y-60763963D01*
X107394906Y-60655469D01*
X107574794Y-60515456D01*
X107660025Y-60422870D01*
X108764500Y-60422870D01*
X108764501Y-60422876D01*
X108770908Y-60482483D01*
X108821202Y-60617328D01*
X108821206Y-60617335D01*
X108907452Y-60732544D01*
X108907455Y-60732547D01*
X109022664Y-60818793D01*
X109022671Y-60818797D01*
X109157517Y-60869091D01*
X109157516Y-60869091D01*
X109164444Y-60869835D01*
X109217127Y-60875500D01*
X111062872Y-60875499D01*
X111122483Y-60869091D01*
X111257331Y-60818796D01*
X111372546Y-60732546D01*
X111458796Y-60617331D01*
X111509091Y-60482483D01*
X111515500Y-60422873D01*
X111515500Y-59500006D01*
X122039786Y-59500006D01*
X122058608Y-59727168D01*
X122058610Y-59727179D01*
X122114569Y-59948155D01*
X122206137Y-60156908D01*
X122330814Y-60347742D01*
X122485208Y-60515458D01*
X122485212Y-60515461D01*
X122665090Y-60655466D01*
X122665094Y-60655469D01*
X122665096Y-60655470D01*
X122665099Y-60655472D01*
X122781646Y-60718543D01*
X122865574Y-60763963D01*
X122977529Y-60802397D01*
X123081173Y-60837979D01*
X123081175Y-60837979D01*
X123081177Y-60837980D01*
X123306023Y-60875500D01*
X123306024Y-60875500D01*
X123533976Y-60875500D01*
X123533977Y-60875500D01*
X123758823Y-60837980D01*
X123974426Y-60763963D01*
X124174906Y-60655469D01*
X124354794Y-60515456D01*
X124440025Y-60422870D01*
X125544500Y-60422870D01*
X125544501Y-60422876D01*
X125550908Y-60482483D01*
X125601202Y-60617328D01*
X125601206Y-60617335D01*
X125687452Y-60732544D01*
X125687455Y-60732547D01*
X125802664Y-60818793D01*
X125802671Y-60818797D01*
X125937517Y-60869091D01*
X125937516Y-60869091D01*
X125944444Y-60869835D01*
X125997127Y-60875500D01*
X127842872Y-60875499D01*
X127902483Y-60869091D01*
X128037331Y-60818796D01*
X128152546Y-60732546D01*
X128238796Y-60617331D01*
X128289091Y-60482483D01*
X128295500Y-60422873D01*
X128295499Y-58577128D01*
X128289091Y-58517517D01*
X128238796Y-58382669D01*
X128238795Y-58382668D01*
X128238793Y-58382664D01*
X128152547Y-58267455D01*
X128152544Y-58267452D01*
X128037335Y-58181206D01*
X128037328Y-58181202D01*
X127902482Y-58130908D01*
X127902483Y-58130908D01*
X127842883Y-58124501D01*
X127842881Y-58124500D01*
X127842873Y-58124500D01*
X127842864Y-58124500D01*
X125997129Y-58124500D01*
X125997123Y-58124501D01*
X125937516Y-58130908D01*
X125802671Y-58181202D01*
X125802664Y-58181206D01*
X125687455Y-58267452D01*
X125687452Y-58267455D01*
X125601206Y-58382664D01*
X125601202Y-58382671D01*
X125550908Y-58517517D01*
X125544501Y-58577116D01*
X125544501Y-58577123D01*
X125544500Y-58577135D01*
X125544500Y-60422870D01*
X124440025Y-60422870D01*
X124509183Y-60347745D01*
X124633862Y-60156909D01*
X124725430Y-59948155D01*
X124781390Y-59727176D01*
X124800214Y-59500000D01*
X124800214Y-59499993D01*
X124781391Y-59272831D01*
X124781389Y-59272820D01*
X124725430Y-59051844D01*
X124633862Y-58843091D01*
X124509185Y-58652257D01*
X124354791Y-58484541D01*
X124354787Y-58484538D01*
X124174909Y-58344533D01*
X124174900Y-58344527D01*
X123974432Y-58236040D01*
X123974429Y-58236039D01*
X123974426Y-58236037D01*
X123974420Y-58236035D01*
X123974418Y-58236034D01*
X123758826Y-58162020D01*
X123572378Y-58130908D01*
X123533977Y-58124500D01*
X123306023Y-58124500D01*
X123267622Y-58130908D01*
X123081173Y-58162020D01*
X122865581Y-58236034D01*
X122865567Y-58236040D01*
X122665099Y-58344527D01*
X122665090Y-58344533D01*
X122485212Y-58484538D01*
X122485208Y-58484541D01*
X122330814Y-58652257D01*
X122206137Y-58843091D01*
X122114569Y-59051844D01*
X122058610Y-59272820D01*
X122058608Y-59272831D01*
X122039786Y-59499993D01*
X122039786Y-59500006D01*
X111515500Y-59500006D01*
X111515499Y-58577128D01*
X111509091Y-58517517D01*
X111458796Y-58382669D01*
X111458795Y-58382668D01*
X111458793Y-58382664D01*
X111372547Y-58267455D01*
X111372544Y-58267452D01*
X111257335Y-58181206D01*
X111257328Y-58181202D01*
X111122482Y-58130908D01*
X111122483Y-58130908D01*
X111062883Y-58124501D01*
X111062881Y-58124500D01*
X111062873Y-58124500D01*
X111062864Y-58124500D01*
X109217129Y-58124500D01*
X109217123Y-58124501D01*
X109157516Y-58130908D01*
X109022671Y-58181202D01*
X109022664Y-58181206D01*
X108907455Y-58267452D01*
X108907452Y-58267455D01*
X108821206Y-58382664D01*
X108821202Y-58382671D01*
X108770908Y-58517517D01*
X108764501Y-58577116D01*
X108764501Y-58577123D01*
X108764500Y-58577135D01*
X108764500Y-60422870D01*
X107660025Y-60422870D01*
X107729183Y-60347745D01*
X107853862Y-60156909D01*
X107945430Y-59948155D01*
X108001390Y-59727176D01*
X108020214Y-59500000D01*
X108020214Y-59499993D01*
X108001391Y-59272831D01*
X108001389Y-59272820D01*
X107945430Y-59051844D01*
X107853862Y-58843091D01*
X107729185Y-58652257D01*
X107574791Y-58484541D01*
X107574787Y-58484538D01*
X107394909Y-58344533D01*
X107394900Y-58344527D01*
X107194432Y-58236040D01*
X107194429Y-58236039D01*
X107194426Y-58236037D01*
X107194420Y-58236035D01*
X107194418Y-58236034D01*
X106978826Y-58162020D01*
X106792378Y-58130908D01*
X106753977Y-58124500D01*
X106526023Y-58124500D01*
X106487622Y-58130908D01*
X106301173Y-58162020D01*
X106085581Y-58236034D01*
X106085567Y-58236040D01*
X105885099Y-58344527D01*
X105885090Y-58344533D01*
X105705212Y-58484538D01*
X105705208Y-58484541D01*
X105550814Y-58652257D01*
X105426137Y-58843091D01*
X105334569Y-59051844D01*
X105278610Y-59272820D01*
X105278608Y-59272831D01*
X105259786Y-59499993D01*
X105259786Y-59500006D01*
X94735500Y-59500006D01*
X94735499Y-58577128D01*
X94729091Y-58517517D01*
X94678796Y-58382669D01*
X94678795Y-58382668D01*
X94678793Y-58382664D01*
X94592547Y-58267455D01*
X94592544Y-58267452D01*
X94477335Y-58181206D01*
X94477328Y-58181202D01*
X94342482Y-58130908D01*
X94342483Y-58130908D01*
X94282883Y-58124501D01*
X94282881Y-58124500D01*
X94282873Y-58124500D01*
X94282864Y-58124500D01*
X92437129Y-58124500D01*
X92437123Y-58124501D01*
X92377516Y-58130908D01*
X92242671Y-58181202D01*
X92242664Y-58181206D01*
X92127455Y-58267452D01*
X92127452Y-58267455D01*
X92041206Y-58382664D01*
X92041202Y-58382671D01*
X91990908Y-58517517D01*
X91984501Y-58577116D01*
X91984501Y-58577123D01*
X91984500Y-58577135D01*
X91984500Y-60422870D01*
X90880025Y-60422870D01*
X90949183Y-60347745D01*
X91073862Y-60156909D01*
X91165430Y-59948155D01*
X91221390Y-59727176D01*
X91240214Y-59500000D01*
X91240214Y-59499993D01*
X91221391Y-59272831D01*
X91221389Y-59272820D01*
X91165430Y-59051844D01*
X91073862Y-58843091D01*
X90949185Y-58652257D01*
X90794791Y-58484541D01*
X90794787Y-58484538D01*
X90614909Y-58344533D01*
X90614900Y-58344527D01*
X90414432Y-58236040D01*
X90414429Y-58236039D01*
X90414426Y-58236037D01*
X90414420Y-58236035D01*
X90414418Y-58236034D01*
X90198826Y-58162020D01*
X90012378Y-58130908D01*
X89973977Y-58124500D01*
X89746023Y-58124500D01*
X89707622Y-58130908D01*
X89521173Y-58162020D01*
X89305581Y-58236034D01*
X89305567Y-58236040D01*
X89105099Y-58344527D01*
X89105090Y-58344533D01*
X88925212Y-58484538D01*
X88925208Y-58484541D01*
X88770814Y-58652257D01*
X88646137Y-58843091D01*
X88554569Y-59051844D01*
X88498610Y-59272820D01*
X88498608Y-59272831D01*
X88479786Y-59499993D01*
X88479786Y-59500006D01*
X77955500Y-59500006D01*
X77955499Y-58577128D01*
X77949091Y-58517517D01*
X77898796Y-58382669D01*
X77898795Y-58382668D01*
X77898793Y-58382664D01*
X77812547Y-58267455D01*
X77812544Y-58267452D01*
X77697335Y-58181206D01*
X77697328Y-58181202D01*
X77562482Y-58130908D01*
X77562483Y-58130908D01*
X77502883Y-58124501D01*
X77502881Y-58124500D01*
X77502873Y-58124500D01*
X77502864Y-58124500D01*
X75657129Y-58124500D01*
X75657123Y-58124501D01*
X75597516Y-58130908D01*
X75462671Y-58181202D01*
X75462664Y-58181206D01*
X75347455Y-58267452D01*
X75347452Y-58267455D01*
X75261206Y-58382664D01*
X75261202Y-58382671D01*
X75210908Y-58517517D01*
X75204501Y-58577116D01*
X75204501Y-58577123D01*
X75204500Y-58577135D01*
X75204500Y-60422870D01*
X74100025Y-60422870D01*
X74169183Y-60347745D01*
X74293862Y-60156909D01*
X74385430Y-59948155D01*
X74441390Y-59727176D01*
X74460214Y-59500000D01*
X74460214Y-59499993D01*
X74441391Y-59272831D01*
X74441389Y-59272820D01*
X74385430Y-59051844D01*
X74293862Y-58843091D01*
X74169185Y-58652257D01*
X74014791Y-58484541D01*
X74014787Y-58484538D01*
X73834909Y-58344533D01*
X73834900Y-58344527D01*
X73634432Y-58236040D01*
X73634429Y-58236039D01*
X73634426Y-58236037D01*
X73634420Y-58236035D01*
X73634418Y-58236034D01*
X73418826Y-58162020D01*
X73232378Y-58130908D01*
X73193977Y-58124500D01*
X72966023Y-58124500D01*
X72927622Y-58130908D01*
X72741173Y-58162020D01*
X72525581Y-58236034D01*
X72525567Y-58236040D01*
X72325099Y-58344527D01*
X72325090Y-58344533D01*
X72145212Y-58484538D01*
X72145208Y-58484541D01*
X71990814Y-58652257D01*
X71866137Y-58843091D01*
X71774569Y-59051844D01*
X71718610Y-59272820D01*
X71718608Y-59272831D01*
X71699786Y-59499993D01*
X71699786Y-59500006D01*
X67440000Y-59500006D01*
X67440000Y-55880000D01*
X80628540Y-55880000D01*
X80648326Y-56068256D01*
X80648327Y-56068259D01*
X80706818Y-56248277D01*
X80706821Y-56248284D01*
X80801467Y-56412216D01*
X80882559Y-56502277D01*
X80928129Y-56552888D01*
X81081265Y-56664148D01*
X81081270Y-56664151D01*
X81254192Y-56741142D01*
X81254197Y-56741144D01*
X81439354Y-56780500D01*
X81439355Y-56780500D01*
X81628644Y-56780500D01*
X81628646Y-56780500D01*
X81813803Y-56741144D01*
X81986730Y-56664151D01*
X82139871Y-56552888D01*
X82266533Y-56412216D01*
X82361179Y-56248284D01*
X82398312Y-56134000D01*
X95614540Y-56134000D01*
X95634326Y-56322256D01*
X95634327Y-56322259D01*
X95692818Y-56502277D01*
X95692821Y-56502284D01*
X95787467Y-56666216D01*
X95854931Y-56741142D01*
X95914129Y-56806888D01*
X96067265Y-56918148D01*
X96067270Y-56918151D01*
X96240192Y-56995142D01*
X96240197Y-56995144D01*
X96425354Y-57034500D01*
X96425355Y-57034500D01*
X96614644Y-57034500D01*
X96614646Y-57034500D01*
X96799803Y-56995144D01*
X96972730Y-56918151D01*
X97125871Y-56806888D01*
X97252533Y-56666216D01*
X97347179Y-56502284D01*
X97405674Y-56322256D01*
X97425460Y-56134000D01*
X98916540Y-56134000D01*
X98936326Y-56322256D01*
X98936327Y-56322259D01*
X98994818Y-56502277D01*
X98994821Y-56502284D01*
X99089467Y-56666216D01*
X99156931Y-56741142D01*
X99216129Y-56806888D01*
X99369265Y-56918148D01*
X99369270Y-56918151D01*
X99542192Y-56995142D01*
X99542197Y-56995144D01*
X99727354Y-57034500D01*
X99727355Y-57034500D01*
X99916644Y-57034500D01*
X99916646Y-57034500D01*
X100101803Y-56995144D01*
X100274730Y-56918151D01*
X100427871Y-56806888D01*
X100554533Y-56666216D01*
X100649179Y-56502284D01*
X100707674Y-56322256D01*
X100727460Y-56134000D01*
X100707674Y-55945744D01*
X100649179Y-55765716D01*
X100593111Y-55668604D01*
X100576500Y-55606606D01*
X100576500Y-51581392D01*
X100593113Y-51519392D01*
X100612609Y-51485624D01*
X100649179Y-51422284D01*
X100707674Y-51242256D01*
X100727460Y-51054000D01*
X100707674Y-50865744D01*
X100649179Y-50685716D01*
X100554533Y-50521784D01*
X100427871Y-50381112D01*
X100427870Y-50381111D01*
X100274734Y-50269851D01*
X100274729Y-50269848D01*
X100101807Y-50192857D01*
X100101802Y-50192855D01*
X99956001Y-50161865D01*
X99916646Y-50153500D01*
X99727354Y-50153500D01*
X99694897Y-50160398D01*
X99542197Y-50192855D01*
X99542192Y-50192857D01*
X99369270Y-50269848D01*
X99369265Y-50269851D01*
X99216129Y-50381111D01*
X99089466Y-50521785D01*
X98994821Y-50685715D01*
X98994818Y-50685722D01*
X98936327Y-50865740D01*
X98936326Y-50865744D01*
X98916540Y-51054000D01*
X98936326Y-51242256D01*
X98936327Y-51242259D01*
X98994818Y-51422277D01*
X98994821Y-51422284D01*
X99018245Y-51462856D01*
X99050887Y-51519392D01*
X99067500Y-51581392D01*
X99067500Y-55606606D01*
X99050888Y-55668605D01*
X98994820Y-55765718D01*
X98994818Y-55765722D01*
X98936327Y-55945740D01*
X98936326Y-55945744D01*
X98916540Y-56134000D01*
X97425460Y-56134000D01*
X97405674Y-55945744D01*
X97347179Y-55765716D01*
X97291111Y-55668604D01*
X97274500Y-55606606D01*
X97274500Y-50057392D01*
X97291113Y-49995392D01*
X97347179Y-49898284D01*
X97405674Y-49718256D01*
X97425460Y-49530000D01*
X97422307Y-49500004D01*
X110274451Y-49500004D01*
X110294616Y-49769101D01*
X110354664Y-50032188D01*
X110354666Y-50032195D01*
X110453257Y-50283398D01*
X110588185Y-50517102D01*
X110724080Y-50687509D01*
X110756442Y-50728089D01*
X110904796Y-50865740D01*
X110954259Y-50911635D01*
X111177226Y-51063651D01*
X111420359Y-51180738D01*
X111678228Y-51260280D01*
X111678229Y-51260280D01*
X111678232Y-51260281D01*
X111945063Y-51300499D01*
X111945068Y-51300499D01*
X111945071Y-51300500D01*
X111945072Y-51300500D01*
X112214928Y-51300500D01*
X112214929Y-51300500D01*
X112214936Y-51300499D01*
X112481767Y-51260281D01*
X112481768Y-51260280D01*
X112481772Y-51260280D01*
X112739641Y-51180738D01*
X112982775Y-51063651D01*
X113205741Y-50911635D01*
X113403561Y-50728085D01*
X113571815Y-50517102D01*
X113706743Y-50283398D01*
X113805334Y-50032195D01*
X113865383Y-49769103D01*
X113885549Y-49500004D01*
X114974451Y-49500004D01*
X114994616Y-49769101D01*
X115054664Y-50032188D01*
X115054666Y-50032195D01*
X115153257Y-50283398D01*
X115288185Y-50517102D01*
X115424080Y-50687509D01*
X115456442Y-50728089D01*
X115604796Y-50865740D01*
X115654259Y-50911635D01*
X115877226Y-51063651D01*
X116120359Y-51180738D01*
X116378228Y-51260280D01*
X116378229Y-51260280D01*
X116378232Y-51260281D01*
X116434393Y-51268746D01*
X116497750Y-51298202D01*
X116535124Y-51357236D01*
X116534649Y-51427104D01*
X116496476Y-51485624D01*
X116466349Y-51504640D01*
X116387267Y-51539850D01*
X116387265Y-51539851D01*
X116234129Y-51651111D01*
X116107466Y-51791785D01*
X116012821Y-51955715D01*
X116012818Y-51955722D01*
X115954327Y-52135740D01*
X115954326Y-52135744D01*
X115934540Y-52324000D01*
X115954326Y-52512256D01*
X115954327Y-52512259D01*
X116012818Y-52692277D01*
X116012821Y-52692284D01*
X116068887Y-52789392D01*
X116085500Y-52851392D01*
X116085500Y-55352606D01*
X116068888Y-55414605D01*
X116012820Y-55511718D01*
X116012818Y-55511722D01*
X115981989Y-55606606D01*
X115954326Y-55691744D01*
X115934540Y-55880000D01*
X115954326Y-56068256D01*
X115954327Y-56068259D01*
X116012818Y-56248277D01*
X116012821Y-56248284D01*
X116107467Y-56412216D01*
X116188559Y-56502277D01*
X116234129Y-56552888D01*
X116387265Y-56664148D01*
X116387270Y-56664151D01*
X116560192Y-56741142D01*
X116560197Y-56741144D01*
X116745354Y-56780500D01*
X116745355Y-56780500D01*
X116934644Y-56780500D01*
X116934646Y-56780500D01*
X117119803Y-56741144D01*
X117292730Y-56664151D01*
X117445871Y-56552888D01*
X117572533Y-56412216D01*
X117667179Y-56248284D01*
X117725674Y-56068256D01*
X117745460Y-55880000D01*
X117725674Y-55691744D01*
X117667179Y-55511716D01*
X117611111Y-55414604D01*
X117594500Y-55352606D01*
X117594500Y-52851392D01*
X117611113Y-52789392D01*
X117624469Y-52766259D01*
X117667179Y-52692284D01*
X117725674Y-52512256D01*
X117745460Y-52324000D01*
X117725674Y-52135744D01*
X117667179Y-51955716D01*
X117572533Y-51791784D01*
X117445871Y-51651112D01*
X117445870Y-51651111D01*
X117292734Y-51539851D01*
X117292732Y-51539850D01*
X117178216Y-51488863D01*
X117124980Y-51443612D01*
X117104659Y-51376763D01*
X117123705Y-51309539D01*
X117176071Y-51263285D01*
X117192099Y-51257094D01*
X117439641Y-51180738D01*
X117682775Y-51063651D01*
X117905741Y-50911635D01*
X118103561Y-50728085D01*
X118271815Y-50517102D01*
X118406743Y-50283398D01*
X118505334Y-50032195D01*
X118565383Y-49769103D01*
X118585549Y-49500004D01*
X119674451Y-49500004D01*
X119694616Y-49769101D01*
X119754664Y-50032188D01*
X119754666Y-50032195D01*
X119853257Y-50283398D01*
X119988185Y-50517102D01*
X120124080Y-50687509D01*
X120156442Y-50728089D01*
X120304796Y-50865740D01*
X120354259Y-50911635D01*
X120577226Y-51063651D01*
X120820359Y-51180738D01*
X121078228Y-51260280D01*
X121078229Y-51260280D01*
X121078232Y-51260281D01*
X121345063Y-51300499D01*
X121345068Y-51300499D01*
X121345071Y-51300500D01*
X121345072Y-51300500D01*
X121614928Y-51300500D01*
X121614929Y-51300500D01*
X121614936Y-51300499D01*
X121881767Y-51260281D01*
X121881768Y-51260280D01*
X121881772Y-51260280D01*
X122139641Y-51180738D01*
X122382775Y-51063651D01*
X122605741Y-50911635D01*
X122803561Y-50728085D01*
X122971815Y-50517102D01*
X123106743Y-50283398D01*
X123205334Y-50032195D01*
X123265383Y-49769103D01*
X123285549Y-49500000D01*
X123265383Y-49230897D01*
X123205334Y-48967805D01*
X123106743Y-48716602D01*
X122971815Y-48482898D01*
X122803561Y-48271915D01*
X122803560Y-48271914D01*
X122803557Y-48271910D01*
X122605741Y-48088365D01*
X122382775Y-47936349D01*
X122382769Y-47936346D01*
X122382768Y-47936345D01*
X122382767Y-47936344D01*
X122139643Y-47819263D01*
X122139645Y-47819263D01*
X121881773Y-47739720D01*
X121881767Y-47739718D01*
X121614936Y-47699500D01*
X121614929Y-47699500D01*
X121345071Y-47699500D01*
X121345063Y-47699500D01*
X121078232Y-47739718D01*
X121078226Y-47739720D01*
X120820358Y-47819262D01*
X120577230Y-47936346D01*
X120354258Y-48088365D01*
X120156442Y-48271910D01*
X119988185Y-48482898D01*
X119853258Y-48716599D01*
X119853256Y-48716603D01*
X119754666Y-48967804D01*
X119754664Y-48967811D01*
X119694616Y-49230898D01*
X119674451Y-49499995D01*
X119674451Y-49500004D01*
X118585549Y-49500004D01*
X118585549Y-49500000D01*
X118565383Y-49230897D01*
X118505334Y-48967805D01*
X118406743Y-48716602D01*
X118271815Y-48482898D01*
X118103561Y-48271915D01*
X118103560Y-48271914D01*
X118103557Y-48271910D01*
X117905741Y-48088365D01*
X117682775Y-47936349D01*
X117682769Y-47936346D01*
X117682768Y-47936345D01*
X117682767Y-47936344D01*
X117439643Y-47819263D01*
X117439645Y-47819263D01*
X117181773Y-47739720D01*
X117181767Y-47739718D01*
X116914936Y-47699500D01*
X116914929Y-47699500D01*
X116645071Y-47699500D01*
X116645063Y-47699500D01*
X116378232Y-47739718D01*
X116378226Y-47739720D01*
X116120358Y-47819262D01*
X115877230Y-47936346D01*
X115654258Y-48088365D01*
X115456442Y-48271910D01*
X115288185Y-48482898D01*
X115153258Y-48716599D01*
X115153256Y-48716603D01*
X115054666Y-48967804D01*
X115054664Y-48967811D01*
X114994616Y-49230898D01*
X114974451Y-49499995D01*
X114974451Y-49500004D01*
X113885549Y-49500004D01*
X113885549Y-49500000D01*
X113865383Y-49230897D01*
X113805334Y-48967805D01*
X113706743Y-48716602D01*
X113571815Y-48482898D01*
X113403561Y-48271915D01*
X113403560Y-48271914D01*
X113403557Y-48271910D01*
X113205741Y-48088365D01*
X112982775Y-47936349D01*
X112982769Y-47936346D01*
X112982768Y-47936345D01*
X112982767Y-47936344D01*
X112739643Y-47819263D01*
X112739645Y-47819263D01*
X112481773Y-47739720D01*
X112481767Y-47739718D01*
X112214936Y-47699500D01*
X112214929Y-47699500D01*
X111945071Y-47699500D01*
X111945063Y-47699500D01*
X111678232Y-47739718D01*
X111678226Y-47739720D01*
X111420358Y-47819262D01*
X111177230Y-47936346D01*
X110954258Y-48088365D01*
X110756442Y-48271910D01*
X110588185Y-48482898D01*
X110453258Y-48716599D01*
X110453256Y-48716603D01*
X110354666Y-48967804D01*
X110354664Y-48967811D01*
X110294616Y-49230898D01*
X110274451Y-49499995D01*
X110274451Y-49500004D01*
X97422307Y-49500004D01*
X97405674Y-49341744D01*
X97347179Y-49161716D01*
X97252533Y-48997784D01*
X97125871Y-48857112D01*
X97125870Y-48857111D01*
X96972734Y-48745851D01*
X96972729Y-48745848D01*
X96799807Y-48668857D01*
X96799802Y-48668855D01*
X96654000Y-48637865D01*
X96614646Y-48629500D01*
X96425354Y-48629500D01*
X96392897Y-48636398D01*
X96240197Y-48668855D01*
X96240192Y-48668857D01*
X96067270Y-48745848D01*
X96067265Y-48745851D01*
X95914129Y-48857111D01*
X95787466Y-48997785D01*
X95692821Y-49161715D01*
X95692818Y-49161722D01*
X95670342Y-49230898D01*
X95634326Y-49341744D01*
X95614540Y-49530000D01*
X95634326Y-49718256D01*
X95634327Y-49718259D01*
X95692818Y-49898277D01*
X95692821Y-49898284D01*
X95748887Y-49995392D01*
X95765500Y-50057392D01*
X95765500Y-55606606D01*
X95748888Y-55668605D01*
X95692820Y-55765718D01*
X95692818Y-55765722D01*
X95634327Y-55945740D01*
X95634326Y-55945744D01*
X95614540Y-56134000D01*
X82398312Y-56134000D01*
X82419674Y-56068256D01*
X82439460Y-55880000D01*
X82419674Y-55691744D01*
X82361179Y-55511716D01*
X82305111Y-55414604D01*
X82288500Y-55352606D01*
X82288500Y-53105392D01*
X82305113Y-53043392D01*
X82361179Y-52946284D01*
X82419674Y-52766256D01*
X82439460Y-52578000D01*
X82419674Y-52389744D01*
X82361179Y-52209716D01*
X82266533Y-52045784D01*
X82139871Y-51905112D01*
X82139870Y-51905111D01*
X81986734Y-51793851D01*
X81986729Y-51793848D01*
X81813807Y-51716857D01*
X81813802Y-51716855D01*
X81668001Y-51685865D01*
X81628646Y-51677500D01*
X81439354Y-51677500D01*
X81406897Y-51684398D01*
X81254197Y-51716855D01*
X81254192Y-51716857D01*
X81081270Y-51793848D01*
X81081265Y-51793851D01*
X80928129Y-51905111D01*
X80801466Y-52045785D01*
X80706821Y-52209715D01*
X80706818Y-52209722D01*
X80648327Y-52389740D01*
X80648326Y-52389744D01*
X80628540Y-52578000D01*
X80648326Y-52766256D01*
X80648327Y-52766259D01*
X80706818Y-52946277D01*
X80706821Y-52946284D01*
X80762887Y-53043392D01*
X80779500Y-53105392D01*
X80779500Y-55352606D01*
X80762888Y-55414605D01*
X80706820Y-55511718D01*
X80706818Y-55511722D01*
X80675989Y-55606606D01*
X80648326Y-55691744D01*
X80628540Y-55880000D01*
X67440000Y-55880000D01*
X67440000Y-49500004D01*
X76714451Y-49500004D01*
X76734616Y-49769101D01*
X76794664Y-50032188D01*
X76794666Y-50032195D01*
X76893257Y-50283398D01*
X77028185Y-50517102D01*
X77164080Y-50687509D01*
X77196442Y-50728089D01*
X77344796Y-50865740D01*
X77394259Y-50911635D01*
X77617226Y-51063651D01*
X77860359Y-51180738D01*
X78118228Y-51260280D01*
X78118229Y-51260280D01*
X78118232Y-51260281D01*
X78385063Y-51300499D01*
X78385068Y-51300499D01*
X78385071Y-51300500D01*
X78385072Y-51300500D01*
X78654928Y-51300500D01*
X78654929Y-51300500D01*
X78654936Y-51300499D01*
X78921767Y-51260281D01*
X78921768Y-51260280D01*
X78921772Y-51260280D01*
X79179641Y-51180738D01*
X79422775Y-51063651D01*
X79645741Y-50911635D01*
X79843561Y-50728085D01*
X80011815Y-50517102D01*
X80146743Y-50283398D01*
X80245334Y-50032195D01*
X80305383Y-49769103D01*
X80325549Y-49500004D01*
X81414451Y-49500004D01*
X81434616Y-49769101D01*
X81494664Y-50032188D01*
X81494666Y-50032195D01*
X81593257Y-50283398D01*
X81728185Y-50517102D01*
X81864080Y-50687509D01*
X81896442Y-50728089D01*
X82044796Y-50865740D01*
X82094259Y-50911635D01*
X82317226Y-51063651D01*
X82560359Y-51180738D01*
X82818228Y-51260280D01*
X82818229Y-51260280D01*
X82818232Y-51260281D01*
X83085063Y-51300499D01*
X83085068Y-51300499D01*
X83085071Y-51300500D01*
X83085072Y-51300500D01*
X83354928Y-51300500D01*
X83354929Y-51300500D01*
X83354936Y-51300499D01*
X83621767Y-51260281D01*
X83621768Y-51260280D01*
X83621772Y-51260280D01*
X83879641Y-51180738D01*
X84122775Y-51063651D01*
X84345741Y-50911635D01*
X84543561Y-50728085D01*
X84711815Y-50517102D01*
X84846743Y-50283398D01*
X84945334Y-50032195D01*
X85005383Y-49769103D01*
X85025549Y-49500004D01*
X86114451Y-49500004D01*
X86134616Y-49769101D01*
X86194664Y-50032188D01*
X86194666Y-50032195D01*
X86293257Y-50283398D01*
X86428185Y-50517102D01*
X86564080Y-50687509D01*
X86596442Y-50728089D01*
X86744796Y-50865740D01*
X86794259Y-50911635D01*
X87017226Y-51063651D01*
X87260359Y-51180738D01*
X87518228Y-51260280D01*
X87518229Y-51260280D01*
X87518232Y-51260281D01*
X87785063Y-51300499D01*
X87785068Y-51300499D01*
X87785071Y-51300500D01*
X87785072Y-51300500D01*
X88054928Y-51300500D01*
X88054929Y-51300500D01*
X88054936Y-51300499D01*
X88321767Y-51260281D01*
X88321768Y-51260280D01*
X88321772Y-51260280D01*
X88579641Y-51180738D01*
X88822775Y-51063651D01*
X89045741Y-50911635D01*
X89243561Y-50728085D01*
X89411815Y-50517102D01*
X89546743Y-50283398D01*
X89645334Y-50032195D01*
X89705383Y-49769103D01*
X89725549Y-49500000D01*
X89705383Y-49230897D01*
X89645334Y-48967805D01*
X89546743Y-48716602D01*
X89411815Y-48482898D01*
X89243561Y-48271915D01*
X89243560Y-48271914D01*
X89243557Y-48271910D01*
X89045741Y-48088365D01*
X88822775Y-47936349D01*
X88822769Y-47936346D01*
X88822768Y-47936345D01*
X88822767Y-47936344D01*
X88579643Y-47819263D01*
X88579645Y-47819263D01*
X88321773Y-47739720D01*
X88321767Y-47739718D01*
X88054936Y-47699500D01*
X88054929Y-47699500D01*
X87785071Y-47699500D01*
X87785063Y-47699500D01*
X87518232Y-47739718D01*
X87518226Y-47739720D01*
X87260358Y-47819262D01*
X87017230Y-47936346D01*
X86794258Y-48088365D01*
X86596442Y-48271910D01*
X86428185Y-48482898D01*
X86293258Y-48716599D01*
X86293256Y-48716603D01*
X86194666Y-48967804D01*
X86194664Y-48967811D01*
X86134616Y-49230898D01*
X86114451Y-49499995D01*
X86114451Y-49500004D01*
X85025549Y-49500004D01*
X85025549Y-49500000D01*
X85005383Y-49230897D01*
X84945334Y-48967805D01*
X84846743Y-48716602D01*
X84711815Y-48482898D01*
X84543561Y-48271915D01*
X84543560Y-48271914D01*
X84543557Y-48271910D01*
X84345741Y-48088365D01*
X84122775Y-47936349D01*
X84122769Y-47936346D01*
X84122768Y-47936345D01*
X84122767Y-47936344D01*
X83879643Y-47819263D01*
X83879645Y-47819263D01*
X83621773Y-47739720D01*
X83621767Y-47739718D01*
X83354936Y-47699500D01*
X83354929Y-47699500D01*
X83085071Y-47699500D01*
X83085063Y-47699500D01*
X82818232Y-47739718D01*
X82818226Y-47739720D01*
X82560358Y-47819262D01*
X82317230Y-47936346D01*
X82094258Y-48088365D01*
X81896442Y-48271910D01*
X81728185Y-48482898D01*
X81593258Y-48716599D01*
X81593256Y-48716603D01*
X81494666Y-48967804D01*
X81494664Y-48967811D01*
X81434616Y-49230898D01*
X81414451Y-49499995D01*
X81414451Y-49500004D01*
X80325549Y-49500004D01*
X80325549Y-49500000D01*
X80305383Y-49230897D01*
X80245334Y-48967805D01*
X80146743Y-48716602D01*
X80011815Y-48482898D01*
X79843561Y-48271915D01*
X79843560Y-48271914D01*
X79843557Y-48271910D01*
X79645741Y-48088365D01*
X79645741Y-48088364D01*
X79422775Y-47936349D01*
X79422769Y-47936346D01*
X79422768Y-47936345D01*
X79422767Y-47936344D01*
X79179643Y-47819263D01*
X79179645Y-47819263D01*
X78921773Y-47739720D01*
X78921767Y-47739718D01*
X78654936Y-47699500D01*
X78654929Y-47699500D01*
X78385071Y-47699500D01*
X78385063Y-47699500D01*
X78118232Y-47739718D01*
X78118226Y-47739720D01*
X77860358Y-47819262D01*
X77617230Y-47936346D01*
X77394258Y-48088365D01*
X77196442Y-48271910D01*
X77028185Y-48482898D01*
X76893258Y-48716599D01*
X76893256Y-48716603D01*
X76794666Y-48967804D01*
X76794664Y-48967811D01*
X76734616Y-49230898D01*
X76714451Y-49499995D01*
X76714451Y-49500004D01*
X67440000Y-49500004D01*
X67440000Y-47124000D01*
X67459685Y-47056961D01*
X67512489Y-47011206D01*
X67564000Y-47000000D01*
X132436000Y-47000000D01*
X132503039Y-47019685D01*
G37*
G04 #@! TD.AperFunction*
M02*
