M48
; DRILL file {KiCad 7.0.7} date Fri Oct 31 21:12:36 2025
; FORMAT={-:-/ absolute / metric / decimal}
; #@! TF.CreationDate,2025-10-31T21:12:36+08:00
; #@! TF.GenerationSoftware,Kicad,Pcbnew,7.0.7
; #@! TF.FileFunction,Plated,1,2,PTH
FMAT,2
METRIC
; #@! TA.AperFunction,Plated,PTH,ViaDrill
T1C0.400
; #@! TA.AperFunction,Plated,PTH,ComponentDrill
T2C0.600
; #@! TA.AperFunction,Plated,PTH,ComponentDrill
T3C0.800
; #@! TA.AperFunction,Plated,PTH,ComponentDrill
T4C1.000
; #@! TA.AperFunction,Plated,PTH,ComponentDrill
T5C1.200
; #@! TA.AperFunction,Plated,PTH,ComponentDrill
T6C1.300
; #@! TA.AperFunction,Plated,PTH,ComponentDrill
T7C1.700
%
G90
G05
T1
X68.94Y-48.5
X68.94Y-59.944
X68.94Y-71.389
X68.94Y-82.833
X68.94Y-94.278
X68.94Y-105.722
X68.94Y-117.167
X68.94Y-128.611
X68.94Y-140.056
X68.94Y-151.5
X74.168Y-53.848
X75.946Y-83.82
X76.2Y-94.742
X77.724Y-105.664
X77.978Y-75.946
X77.978Y-80.01
X80.264Y-97.028
X80.264Y-99.568
X81.026Y-134.366
X81.534Y-52.578
X81.534Y-55.88
X82.804Y-143.764
X84.47Y-151.5
X88.138Y-72.136
X89.662Y-99.568
X91.186Y-81.534
X91.694Y-113.538
X91.948Y-97.028
X92.964Y-49.276
X96.266Y-85.09
X96.266Y-91.186
X96.52Y-49.53
X96.52Y-56.134
X97.79Y-120.142
X98.298Y-143.764
X99.06Y-131.318
X99.568Y-74.93
X99.822Y-51.054
X99.822Y-56.134
X100.0Y-151.5
X102.616Y-131.318
X103.632Y-120.142
X108.458Y-104.902
X108.458Y-111.506
X112.522Y-91.44
X112.522Y-101.6
X113.284Y-60.96
X115.53Y-151.5
X116.84Y-52.324
X116.84Y-55.88
X117.348Y-143.764
X122.682Y-91.44
X123.698Y-67.056
X123.952Y-81.28
X126.238Y-53.848
X131.06Y-48.5
X131.06Y-59.944
X131.06Y-71.389
X131.06Y-82.833
X131.06Y-94.278
X131.06Y-105.722
X131.06Y-117.167
X131.06Y-128.611
X131.06Y-140.056
X131.06Y-151.5
T3
X81.793Y-127.244
X84.333Y-124.704
X84.333Y-129.784
X115.57Y-70.612
X115.57Y-75.692
X118.11Y-73.152
T4
X81.95Y-78.0
X81.95Y-80.54
X81.95Y-83.08
X81.95Y-85.62
X81.95Y-88.16
X84.49Y-78.0
X84.49Y-80.54
X84.49Y-83.08
X84.49Y-85.62
X84.49Y-88.16
X100.584Y-81.788
X100.584Y-84.328
X100.584Y-86.868
X100.584Y-89.408
X100.584Y-91.948
X100.584Y-94.488
X100.584Y-97.028
X100.584Y-99.568
X100.584Y-102.108
X100.584Y-104.648
X115.824Y-81.788
X115.824Y-84.328
X115.824Y-86.868
X115.824Y-89.408
X115.824Y-91.948
X115.824Y-94.488
X115.824Y-97.028
X115.824Y-99.568
X115.824Y-102.108
X115.824Y-104.648
T5
X73.08Y-59.5
X76.58Y-59.5
X76.58Y-118.0
X89.86Y-59.5
X93.36Y-59.5
X93.36Y-118.0
X106.64Y-59.5
X110.14Y-59.5
X110.14Y-118.0
X123.42Y-59.5
X126.92Y-59.5
X126.92Y-118.0
T6
X78.52Y-49.5
X83.22Y-49.5
X87.92Y-49.5
X112.08Y-49.5
X116.78Y-49.5
X121.48Y-49.5
T7
X70.63Y-63.65
X70.63Y-113.85
X79.03Y-64.85
X79.03Y-112.65
X87.41Y-63.65
X87.41Y-113.85
X95.81Y-64.85
X95.81Y-112.65
X104.19Y-63.65
X104.19Y-113.85
X112.59Y-64.85
X112.59Y-112.65
X120.97Y-63.65
X120.97Y-113.85
X129.37Y-64.85
X129.37Y-112.65
T2
X74.33Y-123.08G85X75.33Y-123.08
G05
X74.33Y-131.38G85X75.33Y-131.38
G05
X74.33Y-134.48G85X75.33Y-134.48
G05
X74.33Y-139.08G85X75.33Y-139.08
G05
X74.33Y-147.38G85X75.33Y-147.38
G05
X74.33Y-150.48G85X75.33Y-150.48
G05
X91.11Y-123.08G85X92.11Y-123.08
G05
X91.11Y-131.38G85X92.11Y-131.38
G05
X91.11Y-134.48G85X92.11Y-134.48
G05
X91.11Y-139.08G85X92.11Y-139.08
G05
X91.11Y-147.38G85X92.11Y-147.38
G05
X91.11Y-150.48G85X92.11Y-150.48
G05
X107.89Y-123.08G85X108.89Y-123.08
G05
X107.89Y-131.38G85X108.89Y-131.38
G05
X107.89Y-134.48G85X108.89Y-134.48
G05
X107.89Y-139.08G85X108.89Y-139.08
G05
X107.89Y-147.38G85X108.89Y-147.38
G05
X107.89Y-150.48G85X108.89Y-150.48
G05
X124.67Y-123.08G85X125.67Y-123.08
G05
X124.67Y-131.38G85X125.67Y-131.38
G05
X124.67Y-134.48G85X125.67Y-134.48
G05
X124.67Y-139.08G85X125.67Y-139.08
G05
X124.67Y-147.38G85X125.67Y-147.38
G05
X124.67Y-150.48G85X125.67Y-150.48
G05
T0
M30
