%TF.GenerationSoftware,KiCad,Pcbnew,7.0.7*%
%TF.CreationDate,2025-11-09T15:54:26+08:00*%
%TF.ProjectId,3340_VCO_PANEL,33333430-5f56-4434-9f5f-50414e454c2e,rev?*%
%TF.SameCoordinates,Original*%
%TF.FileFunction,Drillmap*%
%TF.FilePolarity,Positive*%
%FSLAX45Y45*%
G04 Gerber Fmt 4.5, Leading zero omitted, Abs format (unit mm)*
G04 Created by KiCad (PCBNEW 7.0.7) date 2025-11-09 15:54:26*
%MOMM*%
%LPD*%
G01*
G04 APERTURE LIST*
%ADD10C,0.100000*%
%ADD11C,0.200000*%
G04 APERTURE END LIST*
D10*
X6460000Y-3575000D02*
X13540000Y-3575000D01*
X13540000Y-16425000D01*
X6460000Y-16425000D01*
X6460000Y-3575000D01*
D11*
X6715777Y-16741484D02*
X6715777Y-16541484D01*
X6715777Y-16541484D02*
X6763396Y-16541484D01*
X6763396Y-16541484D02*
X6791967Y-16551008D01*
X6791967Y-16551008D02*
X6811015Y-16570055D01*
X6811015Y-16570055D02*
X6820539Y-16589103D01*
X6820539Y-16589103D02*
X6830062Y-16627198D01*
X6830062Y-16627198D02*
X6830062Y-16655769D01*
X6830062Y-16655769D02*
X6820539Y-16693865D01*
X6820539Y-16693865D02*
X6811015Y-16712912D01*
X6811015Y-16712912D02*
X6791967Y-16731960D01*
X6791967Y-16731960D02*
X6763396Y-16741484D01*
X6763396Y-16741484D02*
X6715777Y-16741484D01*
X6915777Y-16741484D02*
X6915777Y-16608150D01*
X6915777Y-16646246D02*
X6925301Y-16627198D01*
X6925301Y-16627198D02*
X6934824Y-16617674D01*
X6934824Y-16617674D02*
X6953872Y-16608150D01*
X6953872Y-16608150D02*
X6972920Y-16608150D01*
X7039586Y-16741484D02*
X7039586Y-16608150D01*
X7039586Y-16541484D02*
X7030062Y-16551008D01*
X7030062Y-16551008D02*
X7039586Y-16560531D01*
X7039586Y-16560531D02*
X7049110Y-16551008D01*
X7049110Y-16551008D02*
X7039586Y-16541484D01*
X7039586Y-16541484D02*
X7039586Y-16560531D01*
X7163396Y-16741484D02*
X7144348Y-16731960D01*
X7144348Y-16731960D02*
X7134824Y-16712912D01*
X7134824Y-16712912D02*
X7134824Y-16541484D01*
X7268158Y-16741484D02*
X7249110Y-16731960D01*
X7249110Y-16731960D02*
X7239586Y-16712912D01*
X7239586Y-16712912D02*
X7239586Y-16541484D01*
X7496729Y-16741484D02*
X7496729Y-16541484D01*
X7496729Y-16541484D02*
X7563396Y-16684341D01*
X7563396Y-16684341D02*
X7630062Y-16541484D01*
X7630062Y-16541484D02*
X7630062Y-16741484D01*
X7811015Y-16741484D02*
X7811015Y-16636722D01*
X7811015Y-16636722D02*
X7801491Y-16617674D01*
X7801491Y-16617674D02*
X7782443Y-16608150D01*
X7782443Y-16608150D02*
X7744348Y-16608150D01*
X7744348Y-16608150D02*
X7725301Y-16617674D01*
X7811015Y-16731960D02*
X7791967Y-16741484D01*
X7791967Y-16741484D02*
X7744348Y-16741484D01*
X7744348Y-16741484D02*
X7725301Y-16731960D01*
X7725301Y-16731960D02*
X7715777Y-16712912D01*
X7715777Y-16712912D02*
X7715777Y-16693865D01*
X7715777Y-16693865D02*
X7725301Y-16674817D01*
X7725301Y-16674817D02*
X7744348Y-16665293D01*
X7744348Y-16665293D02*
X7791967Y-16665293D01*
X7791967Y-16665293D02*
X7811015Y-16655769D01*
X7906253Y-16608150D02*
X7906253Y-16808150D01*
X7906253Y-16617674D02*
X7925301Y-16608150D01*
X7925301Y-16608150D02*
X7963396Y-16608150D01*
X7963396Y-16608150D02*
X7982443Y-16617674D01*
X7982443Y-16617674D02*
X7991967Y-16627198D01*
X7991967Y-16627198D02*
X8001491Y-16646246D01*
X8001491Y-16646246D02*
X8001491Y-16703388D01*
X8001491Y-16703388D02*
X7991967Y-16722436D01*
X7991967Y-16722436D02*
X7982443Y-16731960D01*
X7982443Y-16731960D02*
X7963396Y-16741484D01*
X7963396Y-16741484D02*
X7925301Y-16741484D01*
X7925301Y-16741484D02*
X7906253Y-16731960D01*
X8087205Y-16722436D02*
X8096729Y-16731960D01*
X8096729Y-16731960D02*
X8087205Y-16741484D01*
X8087205Y-16741484D02*
X8077682Y-16731960D01*
X8077682Y-16731960D02*
X8087205Y-16722436D01*
X8087205Y-16722436D02*
X8087205Y-16741484D01*
X8087205Y-16617674D02*
X8096729Y-16627198D01*
X8096729Y-16627198D02*
X8087205Y-16636722D01*
X8087205Y-16636722D02*
X8077682Y-16627198D01*
X8077682Y-16627198D02*
X8087205Y-16617674D01*
X8087205Y-16617674D02*
X8087205Y-16636722D01*
M02*
