%TF.GenerationSoftware,KiCad,Pcbnew,7.0.7*%
%TF.CreationDate,2025-11-09T15:54:26+08:00*%
%TF.ProjectId,3340_VCO_PANEL,33333430-5f56-4434-9f5f-50414e454c2e,rev?*%
%TF.SameCoordinates,Original*%
%TF.FileFunction,Drillmap*%
%TF.FilePolarity,Positive*%
%FSLAX45Y45*%
G04 Gerber Fmt 4.5, Leading zero omitted, Abs format (unit mm)*
G04 Created by KiCad (PCBNEW 7.0.7) date 2025-11-09 15:54:26*
%MOMM*%
%LPD*%
G01*
G04 APERTURE LIST*
%ADD10C,0.100000*%
%ADD11C,0.200000*%
%ADD12C,0.320000*%
%ADD13C,0.620000*%
%ADD14C,0.650000*%
G04 APERTURE END LIST*
D10*
X6460000Y-3575000D02*
X13540000Y-3575000D01*
X13540000Y-16425000D01*
X6460000Y-16425000D01*
X6460000Y-3575000D01*
D11*
D12*
X7050000Y-3715000D02*
X7370000Y-4035000D01*
X7370000Y-3715000D02*
X7050000Y-4035000D01*
D11*
X7110000Y-4035000D02*
X7310000Y-4035000D01*
X7310000Y-4035000D02*
G75*
G03*
X7310000Y-3715000I0J160000D01*
G01*
X7310000Y-3715000D02*
X7110000Y-3715000D01*
X7110000Y-3715000D02*
G75*
G03*
X7110000Y-4035000I0J-160000D01*
G01*
D12*
X7050000Y-15965000D02*
X7370000Y-16285000D01*
X7370000Y-15965000D02*
X7050000Y-16285000D01*
D11*
X7110000Y-16285000D02*
X7310000Y-16285000D01*
X7310000Y-16285000D02*
G75*
G03*
X7310000Y-15965000I0J160000D01*
G01*
X7310000Y-15965000D02*
X7110000Y-15965000D01*
X7110000Y-15965000D02*
G75*
G03*
X7110000Y-16285000I0J-160000D01*
G01*
D12*
X7323000Y-8715000D02*
X7643000Y-9035000D01*
X7643000Y-8715000D02*
X7323000Y-9035000D01*
D11*
X7323000Y-6495000D02*
X7323000Y-11255000D01*
X7323000Y-11255000D02*
G75*
G03*
X7643000Y-11255000I160000J0D01*
G01*
X7643000Y-11255000D02*
X7643000Y-6495000D01*
X7643000Y-6495000D02*
G75*
G03*
X7323000Y-6495000I-160000J0D01*
G01*
D12*
X9001000Y-8715000D02*
X9321000Y-9035000D01*
X9321000Y-8715000D02*
X9001000Y-9035000D01*
D11*
X9001000Y-6495000D02*
X9001000Y-11255000D01*
X9001000Y-11255000D02*
G75*
G03*
X9321000Y-11255000I160000J0D01*
G01*
X9321000Y-11255000D02*
X9321000Y-6495000D01*
X9321000Y-6495000D02*
G75*
G03*
X9001000Y-6495000I-160000J0D01*
G01*
D12*
X10679000Y-8715000D02*
X10999000Y-9035000D01*
X10999000Y-8715000D02*
X10679000Y-9035000D01*
D11*
X10679000Y-6495000D02*
X10679000Y-11255000D01*
X10679000Y-11255000D02*
G75*
G03*
X10999000Y-11255000I160000J0D01*
G01*
X10999000Y-11255000D02*
X10999000Y-6495000D01*
X10999000Y-6495000D02*
G75*
G03*
X10679000Y-6495000I-160000J0D01*
G01*
D12*
X12357000Y-8715000D02*
X12677000Y-9035000D01*
X12677000Y-8715000D02*
X12357000Y-9035000D01*
D11*
X12357000Y-6495000D02*
X12357000Y-11255000D01*
X12357000Y-11255000D02*
G75*
G03*
X12677000Y-11255000I160000J0D01*
G01*
X12677000Y-11255000D02*
X12677000Y-6495000D01*
X12677000Y-6495000D02*
G75*
G03*
X12357000Y-6495000I-160000J0D01*
G01*
D12*
X12638000Y-3715000D02*
X12958000Y-4035000D01*
X12958000Y-3715000D02*
X12638000Y-4035000D01*
D11*
X12698000Y-4035000D02*
X12898000Y-4035000D01*
X12898000Y-4035000D02*
G75*
G03*
X12898000Y-3715000I0J160000D01*
G01*
X12898000Y-3715000D02*
X12698000Y-3715000D01*
X12698000Y-3715000D02*
G75*
G03*
X12698000Y-4035000I0J-160000D01*
G01*
D12*
X12638000Y-15965000D02*
X12958000Y-16285000D01*
X12958000Y-15965000D02*
X12638000Y-16285000D01*
D11*
X12698000Y-16285000D02*
X12898000Y-16285000D01*
X12898000Y-16285000D02*
G75*
G03*
X12898000Y-15965000I0J160000D01*
G01*
X12898000Y-15965000D02*
X12698000Y-15965000D01*
X12698000Y-15965000D02*
G75*
G03*
X12698000Y-16285000I0J-160000D01*
G01*
D13*
X7793000Y-12800000D02*
G75*
G03*
X7793000Y-12800000I-310000J0D01*
G01*
X7793000Y-14400000D02*
G75*
G03*
X7793000Y-14400000I-310000J0D01*
G01*
X9471000Y-12800000D02*
G75*
G03*
X9471000Y-12800000I-310000J0D01*
G01*
X9471000Y-14400000D02*
G75*
G03*
X9471000Y-14400000I-310000J0D01*
G01*
X11149000Y-12800000D02*
G75*
G03*
X11149000Y-12800000I-310000J0D01*
G01*
X11149000Y-14400000D02*
G75*
G03*
X11149000Y-14400000I-310000J0D01*
G01*
X12827000Y-12800000D02*
G75*
G03*
X12827000Y-12800000I-310000J0D01*
G01*
X12827000Y-14400000D02*
G75*
G03*
X12827000Y-14400000I-310000J0D01*
G01*
D14*
X8322000Y-4625000D02*
X8322000Y-5275000D01*
X7997000Y-4950000D02*
X8647000Y-4950000D01*
X11678000Y-4625000D02*
X11678000Y-5275000D01*
X11353000Y-4950000D02*
X12003000Y-4950000D01*
D11*
X6715777Y-16741484D02*
X6715777Y-16541484D01*
X6715777Y-16541484D02*
X6763396Y-16541484D01*
X6763396Y-16541484D02*
X6791967Y-16551008D01*
X6791967Y-16551008D02*
X6811015Y-16570055D01*
X6811015Y-16570055D02*
X6820539Y-16589103D01*
X6820539Y-16589103D02*
X6830062Y-16627198D01*
X6830062Y-16627198D02*
X6830062Y-16655769D01*
X6830062Y-16655769D02*
X6820539Y-16693865D01*
X6820539Y-16693865D02*
X6811015Y-16712912D01*
X6811015Y-16712912D02*
X6791967Y-16731960D01*
X6791967Y-16731960D02*
X6763396Y-16741484D01*
X6763396Y-16741484D02*
X6715777Y-16741484D01*
X6915777Y-16741484D02*
X6915777Y-16608150D01*
X6915777Y-16646246D02*
X6925301Y-16627198D01*
X6925301Y-16627198D02*
X6934824Y-16617674D01*
X6934824Y-16617674D02*
X6953872Y-16608150D01*
X6953872Y-16608150D02*
X6972920Y-16608150D01*
X7039586Y-16741484D02*
X7039586Y-16608150D01*
X7039586Y-16541484D02*
X7030062Y-16551008D01*
X7030062Y-16551008D02*
X7039586Y-16560531D01*
X7039586Y-16560531D02*
X7049110Y-16551008D01*
X7049110Y-16551008D02*
X7039586Y-16541484D01*
X7039586Y-16541484D02*
X7039586Y-16560531D01*
X7163396Y-16741484D02*
X7144348Y-16731960D01*
X7144348Y-16731960D02*
X7134824Y-16712912D01*
X7134824Y-16712912D02*
X7134824Y-16541484D01*
X7268158Y-16741484D02*
X7249110Y-16731960D01*
X7249110Y-16731960D02*
X7239586Y-16712912D01*
X7239586Y-16712912D02*
X7239586Y-16541484D01*
X7496729Y-16741484D02*
X7496729Y-16541484D01*
X7496729Y-16541484D02*
X7563396Y-16684341D01*
X7563396Y-16684341D02*
X7630062Y-16541484D01*
X7630062Y-16541484D02*
X7630062Y-16741484D01*
X7811015Y-16741484D02*
X7811015Y-16636722D01*
X7811015Y-16636722D02*
X7801491Y-16617674D01*
X7801491Y-16617674D02*
X7782443Y-16608150D01*
X7782443Y-16608150D02*
X7744348Y-16608150D01*
X7744348Y-16608150D02*
X7725301Y-16617674D01*
X7811015Y-16731960D02*
X7791967Y-16741484D01*
X7791967Y-16741484D02*
X7744348Y-16741484D01*
X7744348Y-16741484D02*
X7725301Y-16731960D01*
X7725301Y-16731960D02*
X7715777Y-16712912D01*
X7715777Y-16712912D02*
X7715777Y-16693865D01*
X7715777Y-16693865D02*
X7725301Y-16674817D01*
X7725301Y-16674817D02*
X7744348Y-16665293D01*
X7744348Y-16665293D02*
X7791967Y-16665293D01*
X7791967Y-16665293D02*
X7811015Y-16655769D01*
X7906253Y-16608150D02*
X7906253Y-16808150D01*
X7906253Y-16617674D02*
X7925301Y-16608150D01*
X7925301Y-16608150D02*
X7963396Y-16608150D01*
X7963396Y-16608150D02*
X7982443Y-16617674D01*
X7982443Y-16617674D02*
X7991967Y-16627198D01*
X7991967Y-16627198D02*
X8001491Y-16646246D01*
X8001491Y-16646246D02*
X8001491Y-16703388D01*
X8001491Y-16703388D02*
X7991967Y-16722436D01*
X7991967Y-16722436D02*
X7982443Y-16731960D01*
X7982443Y-16731960D02*
X7963396Y-16741484D01*
X7963396Y-16741484D02*
X7925301Y-16741484D01*
X7925301Y-16741484D02*
X7906253Y-16731960D01*
X8087205Y-16722436D02*
X8096729Y-16731960D01*
X8096729Y-16731960D02*
X8087205Y-16741484D01*
X8087205Y-16741484D02*
X8077682Y-16731960D01*
X8077682Y-16731960D02*
X8087205Y-16722436D01*
X8087205Y-16722436D02*
X8087205Y-16741484D01*
X8087205Y-16617674D02*
X8096729Y-16627198D01*
X8096729Y-16627198D02*
X8087205Y-16636722D01*
X8087205Y-16636722D02*
X8077682Y-16627198D01*
X8077682Y-16627198D02*
X8087205Y-16617674D01*
X8087205Y-16617674D02*
X8087205Y-16636722D01*
X6255000Y-16970000D02*
X6455000Y-17170000D01*
X6455000Y-16970000D02*
X6255000Y-17170000D01*
X6696729Y-16961484D02*
X6820539Y-16961484D01*
X6820539Y-16961484D02*
X6753872Y-17037674D01*
X6753872Y-17037674D02*
X6782443Y-17037674D01*
X6782443Y-17037674D02*
X6801491Y-17047198D01*
X6801491Y-17047198D02*
X6811015Y-17056722D01*
X6811015Y-17056722D02*
X6820539Y-17075770D01*
X6820539Y-17075770D02*
X6820539Y-17123389D01*
X6820539Y-17123389D02*
X6811015Y-17142436D01*
X6811015Y-17142436D02*
X6801491Y-17151960D01*
X6801491Y-17151960D02*
X6782443Y-17161484D01*
X6782443Y-17161484D02*
X6725301Y-17161484D01*
X6725301Y-17161484D02*
X6706253Y-17151960D01*
X6706253Y-17151960D02*
X6696729Y-17142436D01*
X6906253Y-17142436D02*
X6915777Y-17151960D01*
X6915777Y-17151960D02*
X6906253Y-17161484D01*
X6906253Y-17161484D02*
X6896729Y-17151960D01*
X6896729Y-17151960D02*
X6906253Y-17142436D01*
X6906253Y-17142436D02*
X6906253Y-17161484D01*
X6991967Y-16980531D02*
X7001491Y-16971008D01*
X7001491Y-16971008D02*
X7020539Y-16961484D01*
X7020539Y-16961484D02*
X7068158Y-16961484D01*
X7068158Y-16961484D02*
X7087205Y-16971008D01*
X7087205Y-16971008D02*
X7096729Y-16980531D01*
X7096729Y-16980531D02*
X7106253Y-16999579D01*
X7106253Y-16999579D02*
X7106253Y-17018627D01*
X7106253Y-17018627D02*
X7096729Y-17047198D01*
X7096729Y-17047198D02*
X6982443Y-17161484D01*
X6982443Y-17161484D02*
X7106253Y-17161484D01*
X7230062Y-16961484D02*
X7249110Y-16961484D01*
X7249110Y-16961484D02*
X7268158Y-16971008D01*
X7268158Y-16971008D02*
X7277682Y-16980531D01*
X7277682Y-16980531D02*
X7287205Y-16999579D01*
X7287205Y-16999579D02*
X7296729Y-17037674D01*
X7296729Y-17037674D02*
X7296729Y-17085293D01*
X7296729Y-17085293D02*
X7287205Y-17123389D01*
X7287205Y-17123389D02*
X7277682Y-17142436D01*
X7277682Y-17142436D02*
X7268158Y-17151960D01*
X7268158Y-17151960D02*
X7249110Y-17161484D01*
X7249110Y-17161484D02*
X7230062Y-17161484D01*
X7230062Y-17161484D02*
X7211015Y-17151960D01*
X7211015Y-17151960D02*
X7201491Y-17142436D01*
X7201491Y-17142436D02*
X7191967Y-17123389D01*
X7191967Y-17123389D02*
X7182443Y-17085293D01*
X7182443Y-17085293D02*
X7182443Y-17037674D01*
X7182443Y-17037674D02*
X7191967Y-16999579D01*
X7191967Y-16999579D02*
X7201491Y-16980531D01*
X7201491Y-16980531D02*
X7211015Y-16971008D01*
X7211015Y-16971008D02*
X7230062Y-16961484D01*
X7420539Y-16961484D02*
X7439586Y-16961484D01*
X7439586Y-16961484D02*
X7458634Y-16971008D01*
X7458634Y-16971008D02*
X7468158Y-16980531D01*
X7468158Y-16980531D02*
X7477682Y-16999579D01*
X7477682Y-16999579D02*
X7487205Y-17037674D01*
X7487205Y-17037674D02*
X7487205Y-17085293D01*
X7487205Y-17085293D02*
X7477682Y-17123389D01*
X7477682Y-17123389D02*
X7468158Y-17142436D01*
X7468158Y-17142436D02*
X7458634Y-17151960D01*
X7458634Y-17151960D02*
X7439586Y-17161484D01*
X7439586Y-17161484D02*
X7420539Y-17161484D01*
X7420539Y-17161484D02*
X7401491Y-17151960D01*
X7401491Y-17151960D02*
X7391967Y-17142436D01*
X7391967Y-17142436D02*
X7382443Y-17123389D01*
X7382443Y-17123389D02*
X7372920Y-17085293D01*
X7372920Y-17085293D02*
X7372920Y-17037674D01*
X7372920Y-17037674D02*
X7382443Y-16999579D01*
X7382443Y-16999579D02*
X7391967Y-16980531D01*
X7391967Y-16980531D02*
X7401491Y-16971008D01*
X7401491Y-16971008D02*
X7420539Y-16961484D01*
X7572920Y-17161484D02*
X7572920Y-17028150D01*
X7572920Y-17047198D02*
X7582443Y-17037674D01*
X7582443Y-17037674D02*
X7601491Y-17028150D01*
X7601491Y-17028150D02*
X7630063Y-17028150D01*
X7630063Y-17028150D02*
X7649110Y-17037674D01*
X7649110Y-17037674D02*
X7658634Y-17056722D01*
X7658634Y-17056722D02*
X7658634Y-17161484D01*
X7658634Y-17056722D02*
X7668158Y-17037674D01*
X7668158Y-17037674D02*
X7687205Y-17028150D01*
X7687205Y-17028150D02*
X7715777Y-17028150D01*
X7715777Y-17028150D02*
X7734824Y-17037674D01*
X7734824Y-17037674D02*
X7744348Y-17056722D01*
X7744348Y-17056722D02*
X7744348Y-17161484D01*
X7839586Y-17161484D02*
X7839586Y-17028150D01*
X7839586Y-17047198D02*
X7849110Y-17037674D01*
X7849110Y-17037674D02*
X7868158Y-17028150D01*
X7868158Y-17028150D02*
X7896729Y-17028150D01*
X7896729Y-17028150D02*
X7915777Y-17037674D01*
X7915777Y-17037674D02*
X7925301Y-17056722D01*
X7925301Y-17056722D02*
X7925301Y-17161484D01*
X7925301Y-17056722D02*
X7934824Y-17037674D01*
X7934824Y-17037674D02*
X7953872Y-17028150D01*
X7953872Y-17028150D02*
X7982443Y-17028150D01*
X7982443Y-17028150D02*
X8001491Y-17037674D01*
X8001491Y-17037674D02*
X8011015Y-17056722D01*
X8011015Y-17056722D02*
X8011015Y-17161484D01*
X8401491Y-16951960D02*
X8230063Y-17209103D01*
X8658634Y-16961484D02*
X8677682Y-16961484D01*
X8677682Y-16961484D02*
X8696729Y-16971008D01*
X8696729Y-16971008D02*
X8706253Y-16980531D01*
X8706253Y-16980531D02*
X8715777Y-16999579D01*
X8715777Y-16999579D02*
X8725301Y-17037674D01*
X8725301Y-17037674D02*
X8725301Y-17085293D01*
X8725301Y-17085293D02*
X8715777Y-17123389D01*
X8715777Y-17123389D02*
X8706253Y-17142436D01*
X8706253Y-17142436D02*
X8696729Y-17151960D01*
X8696729Y-17151960D02*
X8677682Y-17161484D01*
X8677682Y-17161484D02*
X8658634Y-17161484D01*
X8658634Y-17161484D02*
X8639587Y-17151960D01*
X8639587Y-17151960D02*
X8630063Y-17142436D01*
X8630063Y-17142436D02*
X8620539Y-17123389D01*
X8620539Y-17123389D02*
X8611015Y-17085293D01*
X8611015Y-17085293D02*
X8611015Y-17037674D01*
X8611015Y-17037674D02*
X8620539Y-16999579D01*
X8620539Y-16999579D02*
X8630063Y-16980531D01*
X8630063Y-16980531D02*
X8639587Y-16971008D01*
X8639587Y-16971008D02*
X8658634Y-16961484D01*
X8811015Y-17142436D02*
X8820539Y-17151960D01*
X8820539Y-17151960D02*
X8811015Y-17161484D01*
X8811015Y-17161484D02*
X8801491Y-17151960D01*
X8801491Y-17151960D02*
X8811015Y-17142436D01*
X8811015Y-17142436D02*
X8811015Y-17161484D01*
X9011015Y-17161484D02*
X8896729Y-17161484D01*
X8953872Y-17161484D02*
X8953872Y-16961484D01*
X8953872Y-16961484D02*
X8934825Y-16990055D01*
X8934825Y-16990055D02*
X8915777Y-17009103D01*
X8915777Y-17009103D02*
X8896729Y-17018627D01*
X9087206Y-16980531D02*
X9096729Y-16971008D01*
X9096729Y-16971008D02*
X9115777Y-16961484D01*
X9115777Y-16961484D02*
X9163396Y-16961484D01*
X9163396Y-16961484D02*
X9182444Y-16971008D01*
X9182444Y-16971008D02*
X9191968Y-16980531D01*
X9191968Y-16980531D02*
X9201491Y-16999579D01*
X9201491Y-16999579D02*
X9201491Y-17018627D01*
X9201491Y-17018627D02*
X9191968Y-17047198D01*
X9191968Y-17047198D02*
X9077682Y-17161484D01*
X9077682Y-17161484D02*
X9201491Y-17161484D01*
X9372920Y-16961484D02*
X9334825Y-16961484D01*
X9334825Y-16961484D02*
X9315777Y-16971008D01*
X9315777Y-16971008D02*
X9306253Y-16980531D01*
X9306253Y-16980531D02*
X9287206Y-17009103D01*
X9287206Y-17009103D02*
X9277682Y-17047198D01*
X9277682Y-17047198D02*
X9277682Y-17123389D01*
X9277682Y-17123389D02*
X9287206Y-17142436D01*
X9287206Y-17142436D02*
X9296729Y-17151960D01*
X9296729Y-17151960D02*
X9315777Y-17161484D01*
X9315777Y-17161484D02*
X9353872Y-17161484D01*
X9353872Y-17161484D02*
X9372920Y-17151960D01*
X9372920Y-17151960D02*
X9382444Y-17142436D01*
X9382444Y-17142436D02*
X9391968Y-17123389D01*
X9391968Y-17123389D02*
X9391968Y-17075770D01*
X9391968Y-17075770D02*
X9382444Y-17056722D01*
X9382444Y-17056722D02*
X9372920Y-17047198D01*
X9372920Y-17047198D02*
X9353872Y-17037674D01*
X9353872Y-17037674D02*
X9315777Y-17037674D01*
X9315777Y-17037674D02*
X9296729Y-17047198D01*
X9296729Y-17047198D02*
X9287206Y-17056722D01*
X9287206Y-17056722D02*
X9277682Y-17075770D01*
X9515777Y-16961484D02*
X9534825Y-16961484D01*
X9534825Y-16961484D02*
X9553872Y-16971008D01*
X9553872Y-16971008D02*
X9563396Y-16980531D01*
X9563396Y-16980531D02*
X9572920Y-16999579D01*
X9572920Y-16999579D02*
X9582444Y-17037674D01*
X9582444Y-17037674D02*
X9582444Y-17085293D01*
X9582444Y-17085293D02*
X9572920Y-17123389D01*
X9572920Y-17123389D02*
X9563396Y-17142436D01*
X9563396Y-17142436D02*
X9553872Y-17151960D01*
X9553872Y-17151960D02*
X9534825Y-17161484D01*
X9534825Y-17161484D02*
X9515777Y-17161484D01*
X9515777Y-17161484D02*
X9496729Y-17151960D01*
X9496729Y-17151960D02*
X9487206Y-17142436D01*
X9487206Y-17142436D02*
X9477682Y-17123389D01*
X9477682Y-17123389D02*
X9468158Y-17085293D01*
X9468158Y-17085293D02*
X9468158Y-17037674D01*
X9468158Y-17037674D02*
X9477682Y-16999579D01*
X9477682Y-16999579D02*
X9487206Y-16980531D01*
X9487206Y-16980531D02*
X9496729Y-16971008D01*
X9496729Y-16971008D02*
X9515777Y-16961484D01*
X9658634Y-16961484D02*
X9658634Y-16999579D01*
X9734825Y-16961484D02*
X9734825Y-16999579D01*
X10030063Y-17237674D02*
X10020539Y-17228150D01*
X10020539Y-17228150D02*
X10001491Y-17199579D01*
X10001491Y-17199579D02*
X9991968Y-17180531D01*
X9991968Y-17180531D02*
X9982444Y-17151960D01*
X9982444Y-17151960D02*
X9972920Y-17104341D01*
X9972920Y-17104341D02*
X9972920Y-17066246D01*
X9972920Y-17066246D02*
X9982444Y-17018627D01*
X9982444Y-17018627D02*
X9991968Y-16990055D01*
X9991968Y-16990055D02*
X10001491Y-16971008D01*
X10001491Y-16971008D02*
X10020539Y-16942436D01*
X10020539Y-16942436D02*
X10030063Y-16932912D01*
X10144349Y-16961484D02*
X10163396Y-16961484D01*
X10163396Y-16961484D02*
X10182444Y-16971008D01*
X10182444Y-16971008D02*
X10191968Y-16980531D01*
X10191968Y-16980531D02*
X10201491Y-16999579D01*
X10201491Y-16999579D02*
X10211015Y-17037674D01*
X10211015Y-17037674D02*
X10211015Y-17085293D01*
X10211015Y-17085293D02*
X10201491Y-17123389D01*
X10201491Y-17123389D02*
X10191968Y-17142436D01*
X10191968Y-17142436D02*
X10182444Y-17151960D01*
X10182444Y-17151960D02*
X10163396Y-17161484D01*
X10163396Y-17161484D02*
X10144349Y-17161484D01*
X10144349Y-17161484D02*
X10125301Y-17151960D01*
X10125301Y-17151960D02*
X10115777Y-17142436D01*
X10115777Y-17142436D02*
X10106253Y-17123389D01*
X10106253Y-17123389D02*
X10096730Y-17085293D01*
X10096730Y-17085293D02*
X10096730Y-17037674D01*
X10096730Y-17037674D02*
X10106253Y-16999579D01*
X10106253Y-16999579D02*
X10115777Y-16980531D01*
X10115777Y-16980531D02*
X10125301Y-16971008D01*
X10125301Y-16971008D02*
X10144349Y-16961484D01*
X10449111Y-17161484D02*
X10449111Y-16961484D01*
X10534825Y-17161484D02*
X10534825Y-17056722D01*
X10534825Y-17056722D02*
X10525301Y-17037674D01*
X10525301Y-17037674D02*
X10506253Y-17028150D01*
X10506253Y-17028150D02*
X10477682Y-17028150D01*
X10477682Y-17028150D02*
X10458634Y-17037674D01*
X10458634Y-17037674D02*
X10449111Y-17047198D01*
X10658634Y-17161484D02*
X10639587Y-17151960D01*
X10639587Y-17151960D02*
X10630063Y-17142436D01*
X10630063Y-17142436D02*
X10620539Y-17123389D01*
X10620539Y-17123389D02*
X10620539Y-17066246D01*
X10620539Y-17066246D02*
X10630063Y-17047198D01*
X10630063Y-17047198D02*
X10639587Y-17037674D01*
X10639587Y-17037674D02*
X10658634Y-17028150D01*
X10658634Y-17028150D02*
X10687206Y-17028150D01*
X10687206Y-17028150D02*
X10706253Y-17037674D01*
X10706253Y-17037674D02*
X10715777Y-17047198D01*
X10715777Y-17047198D02*
X10725301Y-17066246D01*
X10725301Y-17066246D02*
X10725301Y-17123389D01*
X10725301Y-17123389D02*
X10715777Y-17142436D01*
X10715777Y-17142436D02*
X10706253Y-17151960D01*
X10706253Y-17151960D02*
X10687206Y-17161484D01*
X10687206Y-17161484D02*
X10658634Y-17161484D01*
X10839587Y-17161484D02*
X10820539Y-17151960D01*
X10820539Y-17151960D02*
X10811015Y-17132912D01*
X10811015Y-17132912D02*
X10811015Y-16961484D01*
X10991968Y-17151960D02*
X10972920Y-17161484D01*
X10972920Y-17161484D02*
X10934825Y-17161484D01*
X10934825Y-17161484D02*
X10915777Y-17151960D01*
X10915777Y-17151960D02*
X10906253Y-17132912D01*
X10906253Y-17132912D02*
X10906253Y-17056722D01*
X10906253Y-17056722D02*
X10915777Y-17037674D01*
X10915777Y-17037674D02*
X10934825Y-17028150D01*
X10934825Y-17028150D02*
X10972920Y-17028150D01*
X10972920Y-17028150D02*
X10991968Y-17037674D01*
X10991968Y-17037674D02*
X11001492Y-17056722D01*
X11001492Y-17056722D02*
X11001492Y-17075770D01*
X11001492Y-17075770D02*
X10906253Y-17094817D01*
X11077682Y-17151960D02*
X11096730Y-17161484D01*
X11096730Y-17161484D02*
X11134825Y-17161484D01*
X11134825Y-17161484D02*
X11153873Y-17151960D01*
X11153873Y-17151960D02*
X11163396Y-17132912D01*
X11163396Y-17132912D02*
X11163396Y-17123389D01*
X11163396Y-17123389D02*
X11153873Y-17104341D01*
X11153873Y-17104341D02*
X11134825Y-17094817D01*
X11134825Y-17094817D02*
X11106253Y-17094817D01*
X11106253Y-17094817D02*
X11087206Y-17085293D01*
X11087206Y-17085293D02*
X11077682Y-17066246D01*
X11077682Y-17066246D02*
X11077682Y-17056722D01*
X11077682Y-17056722D02*
X11087206Y-17037674D01*
X11087206Y-17037674D02*
X11106253Y-17028150D01*
X11106253Y-17028150D02*
X11134825Y-17028150D01*
X11134825Y-17028150D02*
X11153873Y-17037674D01*
X11401492Y-17085293D02*
X11553873Y-17085293D01*
X11477682Y-17161484D02*
X11477682Y-17009103D01*
X11830063Y-17047198D02*
X11811015Y-17037674D01*
X11811015Y-17037674D02*
X11801492Y-17028150D01*
X11801492Y-17028150D02*
X11791968Y-17009103D01*
X11791968Y-17009103D02*
X11791968Y-16999579D01*
X11791968Y-16999579D02*
X11801492Y-16980531D01*
X11801492Y-16980531D02*
X11811015Y-16971008D01*
X11811015Y-16971008D02*
X11830063Y-16961484D01*
X11830063Y-16961484D02*
X11868158Y-16961484D01*
X11868158Y-16961484D02*
X11887206Y-16971008D01*
X11887206Y-16971008D02*
X11896730Y-16980531D01*
X11896730Y-16980531D02*
X11906253Y-16999579D01*
X11906253Y-16999579D02*
X11906253Y-17009103D01*
X11906253Y-17009103D02*
X11896730Y-17028150D01*
X11896730Y-17028150D02*
X11887206Y-17037674D01*
X11887206Y-17037674D02*
X11868158Y-17047198D01*
X11868158Y-17047198D02*
X11830063Y-17047198D01*
X11830063Y-17047198D02*
X11811015Y-17056722D01*
X11811015Y-17056722D02*
X11801492Y-17066246D01*
X11801492Y-17066246D02*
X11791968Y-17085293D01*
X11791968Y-17085293D02*
X11791968Y-17123389D01*
X11791968Y-17123389D02*
X11801492Y-17142436D01*
X11801492Y-17142436D02*
X11811015Y-17151960D01*
X11811015Y-17151960D02*
X11830063Y-17161484D01*
X11830063Y-17161484D02*
X11868158Y-17161484D01*
X11868158Y-17161484D02*
X11887206Y-17151960D01*
X11887206Y-17151960D02*
X11896730Y-17142436D01*
X11896730Y-17142436D02*
X11906253Y-17123389D01*
X11906253Y-17123389D02*
X11906253Y-17085293D01*
X11906253Y-17085293D02*
X11896730Y-17066246D01*
X11896730Y-17066246D02*
X11887206Y-17056722D01*
X11887206Y-17056722D02*
X11868158Y-17047198D01*
X12134825Y-17151960D02*
X12153873Y-17161484D01*
X12153873Y-17161484D02*
X12191968Y-17161484D01*
X12191968Y-17161484D02*
X12211015Y-17151960D01*
X12211015Y-17151960D02*
X12220539Y-17132912D01*
X12220539Y-17132912D02*
X12220539Y-17123389D01*
X12220539Y-17123389D02*
X12211015Y-17104341D01*
X12211015Y-17104341D02*
X12191968Y-17094817D01*
X12191968Y-17094817D02*
X12163396Y-17094817D01*
X12163396Y-17094817D02*
X12144349Y-17085293D01*
X12144349Y-17085293D02*
X12134825Y-17066246D01*
X12134825Y-17066246D02*
X12134825Y-17056722D01*
X12134825Y-17056722D02*
X12144349Y-17037674D01*
X12144349Y-17037674D02*
X12163396Y-17028150D01*
X12163396Y-17028150D02*
X12191968Y-17028150D01*
X12191968Y-17028150D02*
X12211015Y-17037674D01*
X12334825Y-17161484D02*
X12315777Y-17151960D01*
X12315777Y-17151960D02*
X12306254Y-17132912D01*
X12306254Y-17132912D02*
X12306254Y-16961484D01*
X12439587Y-17161484D02*
X12420539Y-17151960D01*
X12420539Y-17151960D02*
X12411015Y-17142436D01*
X12411015Y-17142436D02*
X12401492Y-17123389D01*
X12401492Y-17123389D02*
X12401492Y-17066246D01*
X12401492Y-17066246D02*
X12411015Y-17047198D01*
X12411015Y-17047198D02*
X12420539Y-17037674D01*
X12420539Y-17037674D02*
X12439587Y-17028150D01*
X12439587Y-17028150D02*
X12468158Y-17028150D01*
X12468158Y-17028150D02*
X12487206Y-17037674D01*
X12487206Y-17037674D02*
X12496730Y-17047198D01*
X12496730Y-17047198D02*
X12506254Y-17066246D01*
X12506254Y-17066246D02*
X12506254Y-17123389D01*
X12506254Y-17123389D02*
X12496730Y-17142436D01*
X12496730Y-17142436D02*
X12487206Y-17151960D01*
X12487206Y-17151960D02*
X12468158Y-17161484D01*
X12468158Y-17161484D02*
X12439587Y-17161484D01*
X12563396Y-17028150D02*
X12639587Y-17028150D01*
X12591968Y-16961484D02*
X12591968Y-17132912D01*
X12591968Y-17132912D02*
X12601492Y-17151960D01*
X12601492Y-17151960D02*
X12620539Y-17161484D01*
X12620539Y-17161484D02*
X12639587Y-17161484D01*
X12696730Y-17151960D02*
X12715777Y-17161484D01*
X12715777Y-17161484D02*
X12753873Y-17161484D01*
X12753873Y-17161484D02*
X12772920Y-17151960D01*
X12772920Y-17151960D02*
X12782444Y-17132912D01*
X12782444Y-17132912D02*
X12782444Y-17123389D01*
X12782444Y-17123389D02*
X12772920Y-17104341D01*
X12772920Y-17104341D02*
X12753873Y-17094817D01*
X12753873Y-17094817D02*
X12725301Y-17094817D01*
X12725301Y-17094817D02*
X12706254Y-17085293D01*
X12706254Y-17085293D02*
X12696730Y-17066246D01*
X12696730Y-17066246D02*
X12696730Y-17056722D01*
X12696730Y-17056722D02*
X12706254Y-17037674D01*
X12706254Y-17037674D02*
X12725301Y-17028150D01*
X12725301Y-17028150D02*
X12753873Y-17028150D01*
X12753873Y-17028150D02*
X12772920Y-17037674D01*
X12849111Y-17237674D02*
X12858635Y-17228150D01*
X12858635Y-17228150D02*
X12877682Y-17199579D01*
X12877682Y-17199579D02*
X12887206Y-17180531D01*
X12887206Y-17180531D02*
X12896730Y-17151960D01*
X12896730Y-17151960D02*
X12906254Y-17104341D01*
X12906254Y-17104341D02*
X12906254Y-17066246D01*
X12906254Y-17066246D02*
X12896730Y-17018627D01*
X12896730Y-17018627D02*
X12887206Y-16990055D01*
X12887206Y-16990055D02*
X12877682Y-16971008D01*
X12877682Y-16971008D02*
X12858635Y-16942436D01*
X12858635Y-16942436D02*
X12849111Y-16932912D01*
X13211016Y-17237674D02*
X13201492Y-17228150D01*
X13201492Y-17228150D02*
X13182444Y-17199579D01*
X13182444Y-17199579D02*
X13172920Y-17180531D01*
X13172920Y-17180531D02*
X13163396Y-17151960D01*
X13163396Y-17151960D02*
X13153873Y-17104341D01*
X13153873Y-17104341D02*
X13153873Y-17066246D01*
X13153873Y-17066246D02*
X13163396Y-17018627D01*
X13163396Y-17018627D02*
X13172920Y-16990055D01*
X13172920Y-16990055D02*
X13182444Y-16971008D01*
X13182444Y-16971008D02*
X13201492Y-16942436D01*
X13201492Y-16942436D02*
X13211016Y-16932912D01*
X13287206Y-17028150D02*
X13287206Y-17161484D01*
X13287206Y-17047198D02*
X13296730Y-17037674D01*
X13296730Y-17037674D02*
X13315777Y-17028150D01*
X13315777Y-17028150D02*
X13344349Y-17028150D01*
X13344349Y-17028150D02*
X13363396Y-17037674D01*
X13363396Y-17037674D02*
X13372920Y-17056722D01*
X13372920Y-17056722D02*
X13372920Y-17161484D01*
X13496730Y-17161484D02*
X13477682Y-17151960D01*
X13477682Y-17151960D02*
X13468158Y-17142436D01*
X13468158Y-17142436D02*
X13458635Y-17123389D01*
X13458635Y-17123389D02*
X13458635Y-17066246D01*
X13458635Y-17066246D02*
X13468158Y-17047198D01*
X13468158Y-17047198D02*
X13477682Y-17037674D01*
X13477682Y-17037674D02*
X13496730Y-17028150D01*
X13496730Y-17028150D02*
X13525301Y-17028150D01*
X13525301Y-17028150D02*
X13544349Y-17037674D01*
X13544349Y-17037674D02*
X13553873Y-17047198D01*
X13553873Y-17047198D02*
X13563396Y-17066246D01*
X13563396Y-17066246D02*
X13563396Y-17123389D01*
X13563396Y-17123389D02*
X13553873Y-17142436D01*
X13553873Y-17142436D02*
X13544349Y-17151960D01*
X13544349Y-17151960D02*
X13525301Y-17161484D01*
X13525301Y-17161484D02*
X13496730Y-17161484D01*
X13620539Y-17028150D02*
X13696730Y-17028150D01*
X13649111Y-16961484D02*
X13649111Y-17132912D01*
X13649111Y-17132912D02*
X13658635Y-17151960D01*
X13658635Y-17151960D02*
X13677682Y-17161484D01*
X13677682Y-17161484D02*
X13696730Y-17161484D01*
X13915777Y-17028150D02*
X13915777Y-17228150D01*
X13915777Y-17037674D02*
X13934825Y-17028150D01*
X13934825Y-17028150D02*
X13972920Y-17028150D01*
X13972920Y-17028150D02*
X13991968Y-17037674D01*
X13991968Y-17037674D02*
X14001492Y-17047198D01*
X14001492Y-17047198D02*
X14011016Y-17066246D01*
X14011016Y-17066246D02*
X14011016Y-17123389D01*
X14011016Y-17123389D02*
X14001492Y-17142436D01*
X14001492Y-17142436D02*
X13991968Y-17151960D01*
X13991968Y-17151960D02*
X13972920Y-17161484D01*
X13972920Y-17161484D02*
X13934825Y-17161484D01*
X13934825Y-17161484D02*
X13915777Y-17151960D01*
X14125301Y-17161484D02*
X14106254Y-17151960D01*
X14106254Y-17151960D02*
X14096730Y-17132912D01*
X14096730Y-17132912D02*
X14096730Y-16961484D01*
X14287206Y-17161484D02*
X14287206Y-17056722D01*
X14287206Y-17056722D02*
X14277682Y-17037674D01*
X14277682Y-17037674D02*
X14258635Y-17028150D01*
X14258635Y-17028150D02*
X14220539Y-17028150D01*
X14220539Y-17028150D02*
X14201492Y-17037674D01*
X14287206Y-17151960D02*
X14268158Y-17161484D01*
X14268158Y-17161484D02*
X14220539Y-17161484D01*
X14220539Y-17161484D02*
X14201492Y-17151960D01*
X14201492Y-17151960D02*
X14191968Y-17132912D01*
X14191968Y-17132912D02*
X14191968Y-17113865D01*
X14191968Y-17113865D02*
X14201492Y-17094817D01*
X14201492Y-17094817D02*
X14220539Y-17085293D01*
X14220539Y-17085293D02*
X14268158Y-17085293D01*
X14268158Y-17085293D02*
X14287206Y-17075770D01*
X14353873Y-17028150D02*
X14430063Y-17028150D01*
X14382444Y-16961484D02*
X14382444Y-17132912D01*
X14382444Y-17132912D02*
X14391968Y-17151960D01*
X14391968Y-17151960D02*
X14411016Y-17161484D01*
X14411016Y-17161484D02*
X14430063Y-17161484D01*
X14572920Y-17151960D02*
X14553873Y-17161484D01*
X14553873Y-17161484D02*
X14515777Y-17161484D01*
X14515777Y-17161484D02*
X14496730Y-17151960D01*
X14496730Y-17151960D02*
X14487206Y-17132912D01*
X14487206Y-17132912D02*
X14487206Y-17056722D01*
X14487206Y-17056722D02*
X14496730Y-17037674D01*
X14496730Y-17037674D02*
X14515777Y-17028150D01*
X14515777Y-17028150D02*
X14553873Y-17028150D01*
X14553873Y-17028150D02*
X14572920Y-17037674D01*
X14572920Y-17037674D02*
X14582444Y-17056722D01*
X14582444Y-17056722D02*
X14582444Y-17075770D01*
X14582444Y-17075770D02*
X14487206Y-17094817D01*
X14753873Y-17161484D02*
X14753873Y-16961484D01*
X14753873Y-17151960D02*
X14734825Y-17161484D01*
X14734825Y-17161484D02*
X14696730Y-17161484D01*
X14696730Y-17161484D02*
X14677682Y-17151960D01*
X14677682Y-17151960D02*
X14668158Y-17142436D01*
X14668158Y-17142436D02*
X14658635Y-17123389D01*
X14658635Y-17123389D02*
X14658635Y-17066246D01*
X14658635Y-17066246D02*
X14668158Y-17047198D01*
X14668158Y-17047198D02*
X14677682Y-17037674D01*
X14677682Y-17037674D02*
X14696730Y-17028150D01*
X14696730Y-17028150D02*
X14734825Y-17028150D01*
X14734825Y-17028150D02*
X14753873Y-17037674D01*
X14830063Y-17237674D02*
X14839587Y-17228150D01*
X14839587Y-17228150D02*
X14858635Y-17199579D01*
X14858635Y-17199579D02*
X14868158Y-17180531D01*
X14868158Y-17180531D02*
X14877682Y-17151960D01*
X14877682Y-17151960D02*
X14887206Y-17104341D01*
X14887206Y-17104341D02*
X14887206Y-17066246D01*
X14887206Y-17066246D02*
X14877682Y-17018627D01*
X14877682Y-17018627D02*
X14868158Y-16990055D01*
X14868158Y-16990055D02*
X14858635Y-16971008D01*
X14858635Y-16971008D02*
X14839587Y-16942436D01*
X14839587Y-16942436D02*
X14830063Y-16932912D01*
X6455000Y-17390000D02*
G75*
G03*
X6455000Y-17390000I-100000J0D01*
G01*
X6801491Y-17281484D02*
X6763396Y-17281484D01*
X6763396Y-17281484D02*
X6744348Y-17291008D01*
X6744348Y-17291008D02*
X6734824Y-17300531D01*
X6734824Y-17300531D02*
X6715777Y-17329103D01*
X6715777Y-17329103D02*
X6706253Y-17367198D01*
X6706253Y-17367198D02*
X6706253Y-17443389D01*
X6706253Y-17443389D02*
X6715777Y-17462436D01*
X6715777Y-17462436D02*
X6725301Y-17471960D01*
X6725301Y-17471960D02*
X6744348Y-17481484D01*
X6744348Y-17481484D02*
X6782443Y-17481484D01*
X6782443Y-17481484D02*
X6801491Y-17471960D01*
X6801491Y-17471960D02*
X6811015Y-17462436D01*
X6811015Y-17462436D02*
X6820539Y-17443389D01*
X6820539Y-17443389D02*
X6820539Y-17395770D01*
X6820539Y-17395770D02*
X6811015Y-17376722D01*
X6811015Y-17376722D02*
X6801491Y-17367198D01*
X6801491Y-17367198D02*
X6782443Y-17357674D01*
X6782443Y-17357674D02*
X6744348Y-17357674D01*
X6744348Y-17357674D02*
X6725301Y-17367198D01*
X6725301Y-17367198D02*
X6715777Y-17376722D01*
X6715777Y-17376722D02*
X6706253Y-17395770D01*
X6906253Y-17462436D02*
X6915777Y-17471960D01*
X6915777Y-17471960D02*
X6906253Y-17481484D01*
X6906253Y-17481484D02*
X6896729Y-17471960D01*
X6896729Y-17471960D02*
X6906253Y-17462436D01*
X6906253Y-17462436D02*
X6906253Y-17481484D01*
X6991967Y-17300531D02*
X7001491Y-17291008D01*
X7001491Y-17291008D02*
X7020539Y-17281484D01*
X7020539Y-17281484D02*
X7068158Y-17281484D01*
X7068158Y-17281484D02*
X7087205Y-17291008D01*
X7087205Y-17291008D02*
X7096729Y-17300531D01*
X7096729Y-17300531D02*
X7106253Y-17319579D01*
X7106253Y-17319579D02*
X7106253Y-17338627D01*
X7106253Y-17338627D02*
X7096729Y-17367198D01*
X7096729Y-17367198D02*
X6982443Y-17481484D01*
X6982443Y-17481484D02*
X7106253Y-17481484D01*
X7230062Y-17281484D02*
X7249110Y-17281484D01*
X7249110Y-17281484D02*
X7268158Y-17291008D01*
X7268158Y-17291008D02*
X7277682Y-17300531D01*
X7277682Y-17300531D02*
X7287205Y-17319579D01*
X7287205Y-17319579D02*
X7296729Y-17357674D01*
X7296729Y-17357674D02*
X7296729Y-17405293D01*
X7296729Y-17405293D02*
X7287205Y-17443389D01*
X7287205Y-17443389D02*
X7277682Y-17462436D01*
X7277682Y-17462436D02*
X7268158Y-17471960D01*
X7268158Y-17471960D02*
X7249110Y-17481484D01*
X7249110Y-17481484D02*
X7230062Y-17481484D01*
X7230062Y-17481484D02*
X7211015Y-17471960D01*
X7211015Y-17471960D02*
X7201491Y-17462436D01*
X7201491Y-17462436D02*
X7191967Y-17443389D01*
X7191967Y-17443389D02*
X7182443Y-17405293D01*
X7182443Y-17405293D02*
X7182443Y-17357674D01*
X7182443Y-17357674D02*
X7191967Y-17319579D01*
X7191967Y-17319579D02*
X7201491Y-17300531D01*
X7201491Y-17300531D02*
X7211015Y-17291008D01*
X7211015Y-17291008D02*
X7230062Y-17281484D01*
X7420539Y-17281484D02*
X7439586Y-17281484D01*
X7439586Y-17281484D02*
X7458634Y-17291008D01*
X7458634Y-17291008D02*
X7468158Y-17300531D01*
X7468158Y-17300531D02*
X7477682Y-17319579D01*
X7477682Y-17319579D02*
X7487205Y-17357674D01*
X7487205Y-17357674D02*
X7487205Y-17405293D01*
X7487205Y-17405293D02*
X7477682Y-17443389D01*
X7477682Y-17443389D02*
X7468158Y-17462436D01*
X7468158Y-17462436D02*
X7458634Y-17471960D01*
X7458634Y-17471960D02*
X7439586Y-17481484D01*
X7439586Y-17481484D02*
X7420539Y-17481484D01*
X7420539Y-17481484D02*
X7401491Y-17471960D01*
X7401491Y-17471960D02*
X7391967Y-17462436D01*
X7391967Y-17462436D02*
X7382443Y-17443389D01*
X7382443Y-17443389D02*
X7372920Y-17405293D01*
X7372920Y-17405293D02*
X7372920Y-17357674D01*
X7372920Y-17357674D02*
X7382443Y-17319579D01*
X7382443Y-17319579D02*
X7391967Y-17300531D01*
X7391967Y-17300531D02*
X7401491Y-17291008D01*
X7401491Y-17291008D02*
X7420539Y-17281484D01*
X7572920Y-17481484D02*
X7572920Y-17348150D01*
X7572920Y-17367198D02*
X7582443Y-17357674D01*
X7582443Y-17357674D02*
X7601491Y-17348150D01*
X7601491Y-17348150D02*
X7630063Y-17348150D01*
X7630063Y-17348150D02*
X7649110Y-17357674D01*
X7649110Y-17357674D02*
X7658634Y-17376722D01*
X7658634Y-17376722D02*
X7658634Y-17481484D01*
X7658634Y-17376722D02*
X7668158Y-17357674D01*
X7668158Y-17357674D02*
X7687205Y-17348150D01*
X7687205Y-17348150D02*
X7715777Y-17348150D01*
X7715777Y-17348150D02*
X7734824Y-17357674D01*
X7734824Y-17357674D02*
X7744348Y-17376722D01*
X7744348Y-17376722D02*
X7744348Y-17481484D01*
X7839586Y-17481484D02*
X7839586Y-17348150D01*
X7839586Y-17367198D02*
X7849110Y-17357674D01*
X7849110Y-17357674D02*
X7868158Y-17348150D01*
X7868158Y-17348150D02*
X7896729Y-17348150D01*
X7896729Y-17348150D02*
X7915777Y-17357674D01*
X7915777Y-17357674D02*
X7925301Y-17376722D01*
X7925301Y-17376722D02*
X7925301Y-17481484D01*
X7925301Y-17376722D02*
X7934824Y-17357674D01*
X7934824Y-17357674D02*
X7953872Y-17348150D01*
X7953872Y-17348150D02*
X7982443Y-17348150D01*
X7982443Y-17348150D02*
X8001491Y-17357674D01*
X8001491Y-17357674D02*
X8011015Y-17376722D01*
X8011015Y-17376722D02*
X8011015Y-17481484D01*
X8401491Y-17271960D02*
X8230063Y-17529103D01*
X8658634Y-17281484D02*
X8677682Y-17281484D01*
X8677682Y-17281484D02*
X8696729Y-17291008D01*
X8696729Y-17291008D02*
X8706253Y-17300531D01*
X8706253Y-17300531D02*
X8715777Y-17319579D01*
X8715777Y-17319579D02*
X8725301Y-17357674D01*
X8725301Y-17357674D02*
X8725301Y-17405293D01*
X8725301Y-17405293D02*
X8715777Y-17443389D01*
X8715777Y-17443389D02*
X8706253Y-17462436D01*
X8706253Y-17462436D02*
X8696729Y-17471960D01*
X8696729Y-17471960D02*
X8677682Y-17481484D01*
X8677682Y-17481484D02*
X8658634Y-17481484D01*
X8658634Y-17481484D02*
X8639587Y-17471960D01*
X8639587Y-17471960D02*
X8630063Y-17462436D01*
X8630063Y-17462436D02*
X8620539Y-17443389D01*
X8620539Y-17443389D02*
X8611015Y-17405293D01*
X8611015Y-17405293D02*
X8611015Y-17357674D01*
X8611015Y-17357674D02*
X8620539Y-17319579D01*
X8620539Y-17319579D02*
X8630063Y-17300531D01*
X8630063Y-17300531D02*
X8639587Y-17291008D01*
X8639587Y-17291008D02*
X8658634Y-17281484D01*
X8811015Y-17462436D02*
X8820539Y-17471960D01*
X8820539Y-17471960D02*
X8811015Y-17481484D01*
X8811015Y-17481484D02*
X8801491Y-17471960D01*
X8801491Y-17471960D02*
X8811015Y-17462436D01*
X8811015Y-17462436D02*
X8811015Y-17481484D01*
X8896729Y-17300531D02*
X8906253Y-17291008D01*
X8906253Y-17291008D02*
X8925301Y-17281484D01*
X8925301Y-17281484D02*
X8972920Y-17281484D01*
X8972920Y-17281484D02*
X8991968Y-17291008D01*
X8991968Y-17291008D02*
X9001491Y-17300531D01*
X9001491Y-17300531D02*
X9011015Y-17319579D01*
X9011015Y-17319579D02*
X9011015Y-17338627D01*
X9011015Y-17338627D02*
X9001491Y-17367198D01*
X9001491Y-17367198D02*
X8887206Y-17481484D01*
X8887206Y-17481484D02*
X9011015Y-17481484D01*
X9182444Y-17348150D02*
X9182444Y-17481484D01*
X9134825Y-17271960D02*
X9087206Y-17414817D01*
X9087206Y-17414817D02*
X9211015Y-17414817D01*
X9372920Y-17348150D02*
X9372920Y-17481484D01*
X9325301Y-17271960D02*
X9277682Y-17414817D01*
X9277682Y-17414817D02*
X9401491Y-17414817D01*
X9582444Y-17481484D02*
X9468158Y-17481484D01*
X9525301Y-17481484D02*
X9525301Y-17281484D01*
X9525301Y-17281484D02*
X9506253Y-17310055D01*
X9506253Y-17310055D02*
X9487206Y-17329103D01*
X9487206Y-17329103D02*
X9468158Y-17338627D01*
X9658634Y-17281484D02*
X9658634Y-17319579D01*
X9734825Y-17281484D02*
X9734825Y-17319579D01*
X10030063Y-17557674D02*
X10020539Y-17548150D01*
X10020539Y-17548150D02*
X10001491Y-17519579D01*
X10001491Y-17519579D02*
X9991968Y-17500531D01*
X9991968Y-17500531D02*
X9982444Y-17471960D01*
X9982444Y-17471960D02*
X9972920Y-17424341D01*
X9972920Y-17424341D02*
X9972920Y-17386246D01*
X9972920Y-17386246D02*
X9982444Y-17338627D01*
X9982444Y-17338627D02*
X9991968Y-17310055D01*
X9991968Y-17310055D02*
X10001491Y-17291008D01*
X10001491Y-17291008D02*
X10020539Y-17262436D01*
X10020539Y-17262436D02*
X10030063Y-17252912D01*
X10134825Y-17367198D02*
X10115777Y-17357674D01*
X10115777Y-17357674D02*
X10106253Y-17348150D01*
X10106253Y-17348150D02*
X10096730Y-17329103D01*
X10096730Y-17329103D02*
X10096730Y-17319579D01*
X10096730Y-17319579D02*
X10106253Y-17300531D01*
X10106253Y-17300531D02*
X10115777Y-17291008D01*
X10115777Y-17291008D02*
X10134825Y-17281484D01*
X10134825Y-17281484D02*
X10172920Y-17281484D01*
X10172920Y-17281484D02*
X10191968Y-17291008D01*
X10191968Y-17291008D02*
X10201491Y-17300531D01*
X10201491Y-17300531D02*
X10211015Y-17319579D01*
X10211015Y-17319579D02*
X10211015Y-17329103D01*
X10211015Y-17329103D02*
X10201491Y-17348150D01*
X10201491Y-17348150D02*
X10191968Y-17357674D01*
X10191968Y-17357674D02*
X10172920Y-17367198D01*
X10172920Y-17367198D02*
X10134825Y-17367198D01*
X10134825Y-17367198D02*
X10115777Y-17376722D01*
X10115777Y-17376722D02*
X10106253Y-17386246D01*
X10106253Y-17386246D02*
X10096730Y-17405293D01*
X10096730Y-17405293D02*
X10096730Y-17443389D01*
X10096730Y-17443389D02*
X10106253Y-17462436D01*
X10106253Y-17462436D02*
X10115777Y-17471960D01*
X10115777Y-17471960D02*
X10134825Y-17481484D01*
X10134825Y-17481484D02*
X10172920Y-17481484D01*
X10172920Y-17481484D02*
X10191968Y-17471960D01*
X10191968Y-17471960D02*
X10201491Y-17462436D01*
X10201491Y-17462436D02*
X10211015Y-17443389D01*
X10211015Y-17443389D02*
X10211015Y-17405293D01*
X10211015Y-17405293D02*
X10201491Y-17386246D01*
X10201491Y-17386246D02*
X10191968Y-17376722D01*
X10191968Y-17376722D02*
X10172920Y-17367198D01*
X10449111Y-17481484D02*
X10449111Y-17281484D01*
X10534825Y-17481484D02*
X10534825Y-17376722D01*
X10534825Y-17376722D02*
X10525301Y-17357674D01*
X10525301Y-17357674D02*
X10506253Y-17348150D01*
X10506253Y-17348150D02*
X10477682Y-17348150D01*
X10477682Y-17348150D02*
X10458634Y-17357674D01*
X10458634Y-17357674D02*
X10449111Y-17367198D01*
X10658634Y-17481484D02*
X10639587Y-17471960D01*
X10639587Y-17471960D02*
X10630063Y-17462436D01*
X10630063Y-17462436D02*
X10620539Y-17443389D01*
X10620539Y-17443389D02*
X10620539Y-17386246D01*
X10620539Y-17386246D02*
X10630063Y-17367198D01*
X10630063Y-17367198D02*
X10639587Y-17357674D01*
X10639587Y-17357674D02*
X10658634Y-17348150D01*
X10658634Y-17348150D02*
X10687206Y-17348150D01*
X10687206Y-17348150D02*
X10706253Y-17357674D01*
X10706253Y-17357674D02*
X10715777Y-17367198D01*
X10715777Y-17367198D02*
X10725301Y-17386246D01*
X10725301Y-17386246D02*
X10725301Y-17443389D01*
X10725301Y-17443389D02*
X10715777Y-17462436D01*
X10715777Y-17462436D02*
X10706253Y-17471960D01*
X10706253Y-17471960D02*
X10687206Y-17481484D01*
X10687206Y-17481484D02*
X10658634Y-17481484D01*
X10839587Y-17481484D02*
X10820539Y-17471960D01*
X10820539Y-17471960D02*
X10811015Y-17452912D01*
X10811015Y-17452912D02*
X10811015Y-17281484D01*
X10991968Y-17471960D02*
X10972920Y-17481484D01*
X10972920Y-17481484D02*
X10934825Y-17481484D01*
X10934825Y-17481484D02*
X10915777Y-17471960D01*
X10915777Y-17471960D02*
X10906253Y-17452912D01*
X10906253Y-17452912D02*
X10906253Y-17376722D01*
X10906253Y-17376722D02*
X10915777Y-17357674D01*
X10915777Y-17357674D02*
X10934825Y-17348150D01*
X10934825Y-17348150D02*
X10972920Y-17348150D01*
X10972920Y-17348150D02*
X10991968Y-17357674D01*
X10991968Y-17357674D02*
X11001492Y-17376722D01*
X11001492Y-17376722D02*
X11001492Y-17395770D01*
X11001492Y-17395770D02*
X10906253Y-17414817D01*
X11077682Y-17471960D02*
X11096730Y-17481484D01*
X11096730Y-17481484D02*
X11134825Y-17481484D01*
X11134825Y-17481484D02*
X11153873Y-17471960D01*
X11153873Y-17471960D02*
X11163396Y-17452912D01*
X11163396Y-17452912D02*
X11163396Y-17443389D01*
X11163396Y-17443389D02*
X11153873Y-17424341D01*
X11153873Y-17424341D02*
X11134825Y-17414817D01*
X11134825Y-17414817D02*
X11106253Y-17414817D01*
X11106253Y-17414817D02*
X11087206Y-17405293D01*
X11087206Y-17405293D02*
X11077682Y-17386246D01*
X11077682Y-17386246D02*
X11077682Y-17376722D01*
X11077682Y-17376722D02*
X11087206Y-17357674D01*
X11087206Y-17357674D02*
X11106253Y-17348150D01*
X11106253Y-17348150D02*
X11134825Y-17348150D01*
X11134825Y-17348150D02*
X11153873Y-17357674D01*
X11230063Y-17557674D02*
X11239587Y-17548150D01*
X11239587Y-17548150D02*
X11258634Y-17519579D01*
X11258634Y-17519579D02*
X11268158Y-17500531D01*
X11268158Y-17500531D02*
X11277682Y-17471960D01*
X11277682Y-17471960D02*
X11287206Y-17424341D01*
X11287206Y-17424341D02*
X11287206Y-17386246D01*
X11287206Y-17386246D02*
X11277682Y-17338627D01*
X11277682Y-17338627D02*
X11268158Y-17310055D01*
X11268158Y-17310055D02*
X11258634Y-17291008D01*
X11258634Y-17291008D02*
X11239587Y-17262436D01*
X11239587Y-17262436D02*
X11230063Y-17252912D01*
X11591968Y-17557674D02*
X11582444Y-17548150D01*
X11582444Y-17548150D02*
X11563396Y-17519579D01*
X11563396Y-17519579D02*
X11553872Y-17500531D01*
X11553872Y-17500531D02*
X11544349Y-17471960D01*
X11544349Y-17471960D02*
X11534825Y-17424341D01*
X11534825Y-17424341D02*
X11534825Y-17386246D01*
X11534825Y-17386246D02*
X11544349Y-17338627D01*
X11544349Y-17338627D02*
X11553872Y-17310055D01*
X11553872Y-17310055D02*
X11563396Y-17291008D01*
X11563396Y-17291008D02*
X11582444Y-17262436D01*
X11582444Y-17262436D02*
X11591968Y-17252912D01*
X11668158Y-17348150D02*
X11668158Y-17481484D01*
X11668158Y-17367198D02*
X11677682Y-17357674D01*
X11677682Y-17357674D02*
X11696730Y-17348150D01*
X11696730Y-17348150D02*
X11725301Y-17348150D01*
X11725301Y-17348150D02*
X11744349Y-17357674D01*
X11744349Y-17357674D02*
X11753872Y-17376722D01*
X11753872Y-17376722D02*
X11753872Y-17481484D01*
X11877682Y-17481484D02*
X11858634Y-17471960D01*
X11858634Y-17471960D02*
X11849111Y-17462436D01*
X11849111Y-17462436D02*
X11839587Y-17443389D01*
X11839587Y-17443389D02*
X11839587Y-17386246D01*
X11839587Y-17386246D02*
X11849111Y-17367198D01*
X11849111Y-17367198D02*
X11858634Y-17357674D01*
X11858634Y-17357674D02*
X11877682Y-17348150D01*
X11877682Y-17348150D02*
X11906253Y-17348150D01*
X11906253Y-17348150D02*
X11925301Y-17357674D01*
X11925301Y-17357674D02*
X11934825Y-17367198D01*
X11934825Y-17367198D02*
X11944349Y-17386246D01*
X11944349Y-17386246D02*
X11944349Y-17443389D01*
X11944349Y-17443389D02*
X11934825Y-17462436D01*
X11934825Y-17462436D02*
X11925301Y-17471960D01*
X11925301Y-17471960D02*
X11906253Y-17481484D01*
X11906253Y-17481484D02*
X11877682Y-17481484D01*
X12001492Y-17348150D02*
X12077682Y-17348150D01*
X12030063Y-17281484D02*
X12030063Y-17452912D01*
X12030063Y-17452912D02*
X12039587Y-17471960D01*
X12039587Y-17471960D02*
X12058634Y-17481484D01*
X12058634Y-17481484D02*
X12077682Y-17481484D01*
X12296730Y-17348150D02*
X12296730Y-17548150D01*
X12296730Y-17357674D02*
X12315777Y-17348150D01*
X12315777Y-17348150D02*
X12353873Y-17348150D01*
X12353873Y-17348150D02*
X12372920Y-17357674D01*
X12372920Y-17357674D02*
X12382444Y-17367198D01*
X12382444Y-17367198D02*
X12391968Y-17386246D01*
X12391968Y-17386246D02*
X12391968Y-17443389D01*
X12391968Y-17443389D02*
X12382444Y-17462436D01*
X12382444Y-17462436D02*
X12372920Y-17471960D01*
X12372920Y-17471960D02*
X12353873Y-17481484D01*
X12353873Y-17481484D02*
X12315777Y-17481484D01*
X12315777Y-17481484D02*
X12296730Y-17471960D01*
X12506253Y-17481484D02*
X12487206Y-17471960D01*
X12487206Y-17471960D02*
X12477682Y-17452912D01*
X12477682Y-17452912D02*
X12477682Y-17281484D01*
X12668158Y-17481484D02*
X12668158Y-17376722D01*
X12668158Y-17376722D02*
X12658634Y-17357674D01*
X12658634Y-17357674D02*
X12639587Y-17348150D01*
X12639587Y-17348150D02*
X12601492Y-17348150D01*
X12601492Y-17348150D02*
X12582444Y-17357674D01*
X12668158Y-17471960D02*
X12649111Y-17481484D01*
X12649111Y-17481484D02*
X12601492Y-17481484D01*
X12601492Y-17481484D02*
X12582444Y-17471960D01*
X12582444Y-17471960D02*
X12572920Y-17452912D01*
X12572920Y-17452912D02*
X12572920Y-17433865D01*
X12572920Y-17433865D02*
X12582444Y-17414817D01*
X12582444Y-17414817D02*
X12601492Y-17405293D01*
X12601492Y-17405293D02*
X12649111Y-17405293D01*
X12649111Y-17405293D02*
X12668158Y-17395770D01*
X12734825Y-17348150D02*
X12811015Y-17348150D01*
X12763396Y-17281484D02*
X12763396Y-17452912D01*
X12763396Y-17452912D02*
X12772920Y-17471960D01*
X12772920Y-17471960D02*
X12791968Y-17481484D01*
X12791968Y-17481484D02*
X12811015Y-17481484D01*
X12953873Y-17471960D02*
X12934825Y-17481484D01*
X12934825Y-17481484D02*
X12896730Y-17481484D01*
X12896730Y-17481484D02*
X12877682Y-17471960D01*
X12877682Y-17471960D02*
X12868158Y-17452912D01*
X12868158Y-17452912D02*
X12868158Y-17376722D01*
X12868158Y-17376722D02*
X12877682Y-17357674D01*
X12877682Y-17357674D02*
X12896730Y-17348150D01*
X12896730Y-17348150D02*
X12934825Y-17348150D01*
X12934825Y-17348150D02*
X12953873Y-17357674D01*
X12953873Y-17357674D02*
X12963396Y-17376722D01*
X12963396Y-17376722D02*
X12963396Y-17395770D01*
X12963396Y-17395770D02*
X12868158Y-17414817D01*
X13134825Y-17481484D02*
X13134825Y-17281484D01*
X13134825Y-17471960D02*
X13115777Y-17481484D01*
X13115777Y-17481484D02*
X13077682Y-17481484D01*
X13077682Y-17481484D02*
X13058634Y-17471960D01*
X13058634Y-17471960D02*
X13049111Y-17462436D01*
X13049111Y-17462436D02*
X13039587Y-17443389D01*
X13039587Y-17443389D02*
X13039587Y-17386246D01*
X13039587Y-17386246D02*
X13049111Y-17367198D01*
X13049111Y-17367198D02*
X13058634Y-17357674D01*
X13058634Y-17357674D02*
X13077682Y-17348150D01*
X13077682Y-17348150D02*
X13115777Y-17348150D01*
X13115777Y-17348150D02*
X13134825Y-17357674D01*
X13211015Y-17557674D02*
X13220539Y-17548150D01*
X13220539Y-17548150D02*
X13239587Y-17519579D01*
X13239587Y-17519579D02*
X13249111Y-17500531D01*
X13249111Y-17500531D02*
X13258634Y-17471960D01*
X13258634Y-17471960D02*
X13268158Y-17424341D01*
X13268158Y-17424341D02*
X13268158Y-17386246D01*
X13268158Y-17386246D02*
X13258634Y-17338627D01*
X13258634Y-17338627D02*
X13249111Y-17310055D01*
X13249111Y-17310055D02*
X13239587Y-17291008D01*
X13239587Y-17291008D02*
X13220539Y-17262436D01*
X13220539Y-17262436D02*
X13211015Y-17252912D01*
X6355000Y-17610000D02*
X6355000Y-17810000D01*
X6255000Y-17710000D02*
X6455000Y-17710000D01*
X6801491Y-17601484D02*
X6763396Y-17601484D01*
X6763396Y-17601484D02*
X6744348Y-17611008D01*
X6744348Y-17611008D02*
X6734824Y-17620531D01*
X6734824Y-17620531D02*
X6715777Y-17649103D01*
X6715777Y-17649103D02*
X6706253Y-17687198D01*
X6706253Y-17687198D02*
X6706253Y-17763389D01*
X6706253Y-17763389D02*
X6715777Y-17782436D01*
X6715777Y-17782436D02*
X6725301Y-17791960D01*
X6725301Y-17791960D02*
X6744348Y-17801484D01*
X6744348Y-17801484D02*
X6782443Y-17801484D01*
X6782443Y-17801484D02*
X6801491Y-17791960D01*
X6801491Y-17791960D02*
X6811015Y-17782436D01*
X6811015Y-17782436D02*
X6820539Y-17763389D01*
X6820539Y-17763389D02*
X6820539Y-17715770D01*
X6820539Y-17715770D02*
X6811015Y-17696722D01*
X6811015Y-17696722D02*
X6801491Y-17687198D01*
X6801491Y-17687198D02*
X6782443Y-17677674D01*
X6782443Y-17677674D02*
X6744348Y-17677674D01*
X6744348Y-17677674D02*
X6725301Y-17687198D01*
X6725301Y-17687198D02*
X6715777Y-17696722D01*
X6715777Y-17696722D02*
X6706253Y-17715770D01*
X6906253Y-17782436D02*
X6915777Y-17791960D01*
X6915777Y-17791960D02*
X6906253Y-17801484D01*
X6906253Y-17801484D02*
X6896729Y-17791960D01*
X6896729Y-17791960D02*
X6906253Y-17782436D01*
X6906253Y-17782436D02*
X6906253Y-17801484D01*
X7096729Y-17601484D02*
X7001491Y-17601484D01*
X7001491Y-17601484D02*
X6991967Y-17696722D01*
X6991967Y-17696722D02*
X7001491Y-17687198D01*
X7001491Y-17687198D02*
X7020539Y-17677674D01*
X7020539Y-17677674D02*
X7068158Y-17677674D01*
X7068158Y-17677674D02*
X7087205Y-17687198D01*
X7087205Y-17687198D02*
X7096729Y-17696722D01*
X7096729Y-17696722D02*
X7106253Y-17715770D01*
X7106253Y-17715770D02*
X7106253Y-17763389D01*
X7106253Y-17763389D02*
X7096729Y-17782436D01*
X7096729Y-17782436D02*
X7087205Y-17791960D01*
X7087205Y-17791960D02*
X7068158Y-17801484D01*
X7068158Y-17801484D02*
X7020539Y-17801484D01*
X7020539Y-17801484D02*
X7001491Y-17791960D01*
X7001491Y-17791960D02*
X6991967Y-17782436D01*
X7230062Y-17601484D02*
X7249110Y-17601484D01*
X7249110Y-17601484D02*
X7268158Y-17611008D01*
X7268158Y-17611008D02*
X7277682Y-17620531D01*
X7277682Y-17620531D02*
X7287205Y-17639579D01*
X7287205Y-17639579D02*
X7296729Y-17677674D01*
X7296729Y-17677674D02*
X7296729Y-17725293D01*
X7296729Y-17725293D02*
X7287205Y-17763389D01*
X7287205Y-17763389D02*
X7277682Y-17782436D01*
X7277682Y-17782436D02*
X7268158Y-17791960D01*
X7268158Y-17791960D02*
X7249110Y-17801484D01*
X7249110Y-17801484D02*
X7230062Y-17801484D01*
X7230062Y-17801484D02*
X7211015Y-17791960D01*
X7211015Y-17791960D02*
X7201491Y-17782436D01*
X7201491Y-17782436D02*
X7191967Y-17763389D01*
X7191967Y-17763389D02*
X7182443Y-17725293D01*
X7182443Y-17725293D02*
X7182443Y-17677674D01*
X7182443Y-17677674D02*
X7191967Y-17639579D01*
X7191967Y-17639579D02*
X7201491Y-17620531D01*
X7201491Y-17620531D02*
X7211015Y-17611008D01*
X7211015Y-17611008D02*
X7230062Y-17601484D01*
X7420539Y-17601484D02*
X7439586Y-17601484D01*
X7439586Y-17601484D02*
X7458634Y-17611008D01*
X7458634Y-17611008D02*
X7468158Y-17620531D01*
X7468158Y-17620531D02*
X7477682Y-17639579D01*
X7477682Y-17639579D02*
X7487205Y-17677674D01*
X7487205Y-17677674D02*
X7487205Y-17725293D01*
X7487205Y-17725293D02*
X7477682Y-17763389D01*
X7477682Y-17763389D02*
X7468158Y-17782436D01*
X7468158Y-17782436D02*
X7458634Y-17791960D01*
X7458634Y-17791960D02*
X7439586Y-17801484D01*
X7439586Y-17801484D02*
X7420539Y-17801484D01*
X7420539Y-17801484D02*
X7401491Y-17791960D01*
X7401491Y-17791960D02*
X7391967Y-17782436D01*
X7391967Y-17782436D02*
X7382443Y-17763389D01*
X7382443Y-17763389D02*
X7372920Y-17725293D01*
X7372920Y-17725293D02*
X7372920Y-17677674D01*
X7372920Y-17677674D02*
X7382443Y-17639579D01*
X7382443Y-17639579D02*
X7391967Y-17620531D01*
X7391967Y-17620531D02*
X7401491Y-17611008D01*
X7401491Y-17611008D02*
X7420539Y-17601484D01*
X7572920Y-17801484D02*
X7572920Y-17668150D01*
X7572920Y-17687198D02*
X7582443Y-17677674D01*
X7582443Y-17677674D02*
X7601491Y-17668150D01*
X7601491Y-17668150D02*
X7630063Y-17668150D01*
X7630063Y-17668150D02*
X7649110Y-17677674D01*
X7649110Y-17677674D02*
X7658634Y-17696722D01*
X7658634Y-17696722D02*
X7658634Y-17801484D01*
X7658634Y-17696722D02*
X7668158Y-17677674D01*
X7668158Y-17677674D02*
X7687205Y-17668150D01*
X7687205Y-17668150D02*
X7715777Y-17668150D01*
X7715777Y-17668150D02*
X7734824Y-17677674D01*
X7734824Y-17677674D02*
X7744348Y-17696722D01*
X7744348Y-17696722D02*
X7744348Y-17801484D01*
X7839586Y-17801484D02*
X7839586Y-17668150D01*
X7839586Y-17687198D02*
X7849110Y-17677674D01*
X7849110Y-17677674D02*
X7868158Y-17668150D01*
X7868158Y-17668150D02*
X7896729Y-17668150D01*
X7896729Y-17668150D02*
X7915777Y-17677674D01*
X7915777Y-17677674D02*
X7925301Y-17696722D01*
X7925301Y-17696722D02*
X7925301Y-17801484D01*
X7925301Y-17696722D02*
X7934824Y-17677674D01*
X7934824Y-17677674D02*
X7953872Y-17668150D01*
X7953872Y-17668150D02*
X7982443Y-17668150D01*
X7982443Y-17668150D02*
X8001491Y-17677674D01*
X8001491Y-17677674D02*
X8011015Y-17696722D01*
X8011015Y-17696722D02*
X8011015Y-17801484D01*
X8401491Y-17591960D02*
X8230063Y-17849103D01*
X8658634Y-17601484D02*
X8677682Y-17601484D01*
X8677682Y-17601484D02*
X8696729Y-17611008D01*
X8696729Y-17611008D02*
X8706253Y-17620531D01*
X8706253Y-17620531D02*
X8715777Y-17639579D01*
X8715777Y-17639579D02*
X8725301Y-17677674D01*
X8725301Y-17677674D02*
X8725301Y-17725293D01*
X8725301Y-17725293D02*
X8715777Y-17763389D01*
X8715777Y-17763389D02*
X8706253Y-17782436D01*
X8706253Y-17782436D02*
X8696729Y-17791960D01*
X8696729Y-17791960D02*
X8677682Y-17801484D01*
X8677682Y-17801484D02*
X8658634Y-17801484D01*
X8658634Y-17801484D02*
X8639587Y-17791960D01*
X8639587Y-17791960D02*
X8630063Y-17782436D01*
X8630063Y-17782436D02*
X8620539Y-17763389D01*
X8620539Y-17763389D02*
X8611015Y-17725293D01*
X8611015Y-17725293D02*
X8611015Y-17677674D01*
X8611015Y-17677674D02*
X8620539Y-17639579D01*
X8620539Y-17639579D02*
X8630063Y-17620531D01*
X8630063Y-17620531D02*
X8639587Y-17611008D01*
X8639587Y-17611008D02*
X8658634Y-17601484D01*
X8811015Y-17782436D02*
X8820539Y-17791960D01*
X8820539Y-17791960D02*
X8811015Y-17801484D01*
X8811015Y-17801484D02*
X8801491Y-17791960D01*
X8801491Y-17791960D02*
X8811015Y-17782436D01*
X8811015Y-17782436D02*
X8811015Y-17801484D01*
X8896729Y-17620531D02*
X8906253Y-17611008D01*
X8906253Y-17611008D02*
X8925301Y-17601484D01*
X8925301Y-17601484D02*
X8972920Y-17601484D01*
X8972920Y-17601484D02*
X8991968Y-17611008D01*
X8991968Y-17611008D02*
X9001491Y-17620531D01*
X9001491Y-17620531D02*
X9011015Y-17639579D01*
X9011015Y-17639579D02*
X9011015Y-17658627D01*
X9011015Y-17658627D02*
X9001491Y-17687198D01*
X9001491Y-17687198D02*
X8887206Y-17801484D01*
X8887206Y-17801484D02*
X9011015Y-17801484D01*
X9191968Y-17601484D02*
X9096729Y-17601484D01*
X9096729Y-17601484D02*
X9087206Y-17696722D01*
X9087206Y-17696722D02*
X9096729Y-17687198D01*
X9096729Y-17687198D02*
X9115777Y-17677674D01*
X9115777Y-17677674D02*
X9163396Y-17677674D01*
X9163396Y-17677674D02*
X9182444Y-17687198D01*
X9182444Y-17687198D02*
X9191968Y-17696722D01*
X9191968Y-17696722D02*
X9201491Y-17715770D01*
X9201491Y-17715770D02*
X9201491Y-17763389D01*
X9201491Y-17763389D02*
X9191968Y-17782436D01*
X9191968Y-17782436D02*
X9182444Y-17791960D01*
X9182444Y-17791960D02*
X9163396Y-17801484D01*
X9163396Y-17801484D02*
X9115777Y-17801484D01*
X9115777Y-17801484D02*
X9096729Y-17791960D01*
X9096729Y-17791960D02*
X9087206Y-17782436D01*
X9382444Y-17601484D02*
X9287206Y-17601484D01*
X9287206Y-17601484D02*
X9277682Y-17696722D01*
X9277682Y-17696722D02*
X9287206Y-17687198D01*
X9287206Y-17687198D02*
X9306253Y-17677674D01*
X9306253Y-17677674D02*
X9353872Y-17677674D01*
X9353872Y-17677674D02*
X9372920Y-17687198D01*
X9372920Y-17687198D02*
X9382444Y-17696722D01*
X9382444Y-17696722D02*
X9391968Y-17715770D01*
X9391968Y-17715770D02*
X9391968Y-17763389D01*
X9391968Y-17763389D02*
X9382444Y-17782436D01*
X9382444Y-17782436D02*
X9372920Y-17791960D01*
X9372920Y-17791960D02*
X9353872Y-17801484D01*
X9353872Y-17801484D02*
X9306253Y-17801484D01*
X9306253Y-17801484D02*
X9287206Y-17791960D01*
X9287206Y-17791960D02*
X9277682Y-17782436D01*
X9487206Y-17801484D02*
X9525301Y-17801484D01*
X9525301Y-17801484D02*
X9544349Y-17791960D01*
X9544349Y-17791960D02*
X9553872Y-17782436D01*
X9553872Y-17782436D02*
X9572920Y-17753865D01*
X9572920Y-17753865D02*
X9582444Y-17715770D01*
X9582444Y-17715770D02*
X9582444Y-17639579D01*
X9582444Y-17639579D02*
X9572920Y-17620531D01*
X9572920Y-17620531D02*
X9563396Y-17611008D01*
X9563396Y-17611008D02*
X9544349Y-17601484D01*
X9544349Y-17601484D02*
X9506253Y-17601484D01*
X9506253Y-17601484D02*
X9487206Y-17611008D01*
X9487206Y-17611008D02*
X9477682Y-17620531D01*
X9477682Y-17620531D02*
X9468158Y-17639579D01*
X9468158Y-17639579D02*
X9468158Y-17687198D01*
X9468158Y-17687198D02*
X9477682Y-17706246D01*
X9477682Y-17706246D02*
X9487206Y-17715770D01*
X9487206Y-17715770D02*
X9506253Y-17725293D01*
X9506253Y-17725293D02*
X9544349Y-17725293D01*
X9544349Y-17725293D02*
X9563396Y-17715770D01*
X9563396Y-17715770D02*
X9572920Y-17706246D01*
X9572920Y-17706246D02*
X9582444Y-17687198D01*
X9658634Y-17601484D02*
X9658634Y-17639579D01*
X9734825Y-17601484D02*
X9734825Y-17639579D01*
X10030063Y-17877674D02*
X10020539Y-17868150D01*
X10020539Y-17868150D02*
X10001491Y-17839579D01*
X10001491Y-17839579D02*
X9991968Y-17820531D01*
X9991968Y-17820531D02*
X9982444Y-17791960D01*
X9982444Y-17791960D02*
X9972920Y-17744341D01*
X9972920Y-17744341D02*
X9972920Y-17706246D01*
X9972920Y-17706246D02*
X9982444Y-17658627D01*
X9982444Y-17658627D02*
X9991968Y-17630055D01*
X9991968Y-17630055D02*
X10001491Y-17611008D01*
X10001491Y-17611008D02*
X10020539Y-17582436D01*
X10020539Y-17582436D02*
X10030063Y-17572912D01*
X10096730Y-17620531D02*
X10106253Y-17611008D01*
X10106253Y-17611008D02*
X10125301Y-17601484D01*
X10125301Y-17601484D02*
X10172920Y-17601484D01*
X10172920Y-17601484D02*
X10191968Y-17611008D01*
X10191968Y-17611008D02*
X10201491Y-17620531D01*
X10201491Y-17620531D02*
X10211015Y-17639579D01*
X10211015Y-17639579D02*
X10211015Y-17658627D01*
X10211015Y-17658627D02*
X10201491Y-17687198D01*
X10201491Y-17687198D02*
X10087206Y-17801484D01*
X10087206Y-17801484D02*
X10211015Y-17801484D01*
X10449111Y-17801484D02*
X10449111Y-17601484D01*
X10534825Y-17801484D02*
X10534825Y-17696722D01*
X10534825Y-17696722D02*
X10525301Y-17677674D01*
X10525301Y-17677674D02*
X10506253Y-17668150D01*
X10506253Y-17668150D02*
X10477682Y-17668150D01*
X10477682Y-17668150D02*
X10458634Y-17677674D01*
X10458634Y-17677674D02*
X10449111Y-17687198D01*
X10658634Y-17801484D02*
X10639587Y-17791960D01*
X10639587Y-17791960D02*
X10630063Y-17782436D01*
X10630063Y-17782436D02*
X10620539Y-17763389D01*
X10620539Y-17763389D02*
X10620539Y-17706246D01*
X10620539Y-17706246D02*
X10630063Y-17687198D01*
X10630063Y-17687198D02*
X10639587Y-17677674D01*
X10639587Y-17677674D02*
X10658634Y-17668150D01*
X10658634Y-17668150D02*
X10687206Y-17668150D01*
X10687206Y-17668150D02*
X10706253Y-17677674D01*
X10706253Y-17677674D02*
X10715777Y-17687198D01*
X10715777Y-17687198D02*
X10725301Y-17706246D01*
X10725301Y-17706246D02*
X10725301Y-17763389D01*
X10725301Y-17763389D02*
X10715777Y-17782436D01*
X10715777Y-17782436D02*
X10706253Y-17791960D01*
X10706253Y-17791960D02*
X10687206Y-17801484D01*
X10687206Y-17801484D02*
X10658634Y-17801484D01*
X10839587Y-17801484D02*
X10820539Y-17791960D01*
X10820539Y-17791960D02*
X10811015Y-17772912D01*
X10811015Y-17772912D02*
X10811015Y-17601484D01*
X10991968Y-17791960D02*
X10972920Y-17801484D01*
X10972920Y-17801484D02*
X10934825Y-17801484D01*
X10934825Y-17801484D02*
X10915777Y-17791960D01*
X10915777Y-17791960D02*
X10906253Y-17772912D01*
X10906253Y-17772912D02*
X10906253Y-17696722D01*
X10906253Y-17696722D02*
X10915777Y-17677674D01*
X10915777Y-17677674D02*
X10934825Y-17668150D01*
X10934825Y-17668150D02*
X10972920Y-17668150D01*
X10972920Y-17668150D02*
X10991968Y-17677674D01*
X10991968Y-17677674D02*
X11001492Y-17696722D01*
X11001492Y-17696722D02*
X11001492Y-17715770D01*
X11001492Y-17715770D02*
X10906253Y-17734817D01*
X11077682Y-17791960D02*
X11096730Y-17801484D01*
X11096730Y-17801484D02*
X11134825Y-17801484D01*
X11134825Y-17801484D02*
X11153873Y-17791960D01*
X11153873Y-17791960D02*
X11163396Y-17772912D01*
X11163396Y-17772912D02*
X11163396Y-17763389D01*
X11163396Y-17763389D02*
X11153873Y-17744341D01*
X11153873Y-17744341D02*
X11134825Y-17734817D01*
X11134825Y-17734817D02*
X11106253Y-17734817D01*
X11106253Y-17734817D02*
X11087206Y-17725293D01*
X11087206Y-17725293D02*
X11077682Y-17706246D01*
X11077682Y-17706246D02*
X11077682Y-17696722D01*
X11077682Y-17696722D02*
X11087206Y-17677674D01*
X11087206Y-17677674D02*
X11106253Y-17668150D01*
X11106253Y-17668150D02*
X11134825Y-17668150D01*
X11134825Y-17668150D02*
X11153873Y-17677674D01*
X11230063Y-17877674D02*
X11239587Y-17868150D01*
X11239587Y-17868150D02*
X11258634Y-17839579D01*
X11258634Y-17839579D02*
X11268158Y-17820531D01*
X11268158Y-17820531D02*
X11277682Y-17791960D01*
X11277682Y-17791960D02*
X11287206Y-17744341D01*
X11287206Y-17744341D02*
X11287206Y-17706246D01*
X11287206Y-17706246D02*
X11277682Y-17658627D01*
X11277682Y-17658627D02*
X11268158Y-17630055D01*
X11268158Y-17630055D02*
X11258634Y-17611008D01*
X11258634Y-17611008D02*
X11239587Y-17582436D01*
X11239587Y-17582436D02*
X11230063Y-17572912D01*
X11591968Y-17877674D02*
X11582444Y-17868150D01*
X11582444Y-17868150D02*
X11563396Y-17839579D01*
X11563396Y-17839579D02*
X11553872Y-17820531D01*
X11553872Y-17820531D02*
X11544349Y-17791960D01*
X11544349Y-17791960D02*
X11534825Y-17744341D01*
X11534825Y-17744341D02*
X11534825Y-17706246D01*
X11534825Y-17706246D02*
X11544349Y-17658627D01*
X11544349Y-17658627D02*
X11553872Y-17630055D01*
X11553872Y-17630055D02*
X11563396Y-17611008D01*
X11563396Y-17611008D02*
X11582444Y-17582436D01*
X11582444Y-17582436D02*
X11591968Y-17572912D01*
X11668158Y-17668150D02*
X11668158Y-17801484D01*
X11668158Y-17687198D02*
X11677682Y-17677674D01*
X11677682Y-17677674D02*
X11696730Y-17668150D01*
X11696730Y-17668150D02*
X11725301Y-17668150D01*
X11725301Y-17668150D02*
X11744349Y-17677674D01*
X11744349Y-17677674D02*
X11753872Y-17696722D01*
X11753872Y-17696722D02*
X11753872Y-17801484D01*
X11877682Y-17801484D02*
X11858634Y-17791960D01*
X11858634Y-17791960D02*
X11849111Y-17782436D01*
X11849111Y-17782436D02*
X11839587Y-17763389D01*
X11839587Y-17763389D02*
X11839587Y-17706246D01*
X11839587Y-17706246D02*
X11849111Y-17687198D01*
X11849111Y-17687198D02*
X11858634Y-17677674D01*
X11858634Y-17677674D02*
X11877682Y-17668150D01*
X11877682Y-17668150D02*
X11906253Y-17668150D01*
X11906253Y-17668150D02*
X11925301Y-17677674D01*
X11925301Y-17677674D02*
X11934825Y-17687198D01*
X11934825Y-17687198D02*
X11944349Y-17706246D01*
X11944349Y-17706246D02*
X11944349Y-17763389D01*
X11944349Y-17763389D02*
X11934825Y-17782436D01*
X11934825Y-17782436D02*
X11925301Y-17791960D01*
X11925301Y-17791960D02*
X11906253Y-17801484D01*
X11906253Y-17801484D02*
X11877682Y-17801484D01*
X12001492Y-17668150D02*
X12077682Y-17668150D01*
X12030063Y-17601484D02*
X12030063Y-17772912D01*
X12030063Y-17772912D02*
X12039587Y-17791960D01*
X12039587Y-17791960D02*
X12058634Y-17801484D01*
X12058634Y-17801484D02*
X12077682Y-17801484D01*
X12296730Y-17668150D02*
X12296730Y-17868150D01*
X12296730Y-17677674D02*
X12315777Y-17668150D01*
X12315777Y-17668150D02*
X12353873Y-17668150D01*
X12353873Y-17668150D02*
X12372920Y-17677674D01*
X12372920Y-17677674D02*
X12382444Y-17687198D01*
X12382444Y-17687198D02*
X12391968Y-17706246D01*
X12391968Y-17706246D02*
X12391968Y-17763389D01*
X12391968Y-17763389D02*
X12382444Y-17782436D01*
X12382444Y-17782436D02*
X12372920Y-17791960D01*
X12372920Y-17791960D02*
X12353873Y-17801484D01*
X12353873Y-17801484D02*
X12315777Y-17801484D01*
X12315777Y-17801484D02*
X12296730Y-17791960D01*
X12506253Y-17801484D02*
X12487206Y-17791960D01*
X12487206Y-17791960D02*
X12477682Y-17772912D01*
X12477682Y-17772912D02*
X12477682Y-17601484D01*
X12668158Y-17801484D02*
X12668158Y-17696722D01*
X12668158Y-17696722D02*
X12658634Y-17677674D01*
X12658634Y-17677674D02*
X12639587Y-17668150D01*
X12639587Y-17668150D02*
X12601492Y-17668150D01*
X12601492Y-17668150D02*
X12582444Y-17677674D01*
X12668158Y-17791960D02*
X12649111Y-17801484D01*
X12649111Y-17801484D02*
X12601492Y-17801484D01*
X12601492Y-17801484D02*
X12582444Y-17791960D01*
X12582444Y-17791960D02*
X12572920Y-17772912D01*
X12572920Y-17772912D02*
X12572920Y-17753865D01*
X12572920Y-17753865D02*
X12582444Y-17734817D01*
X12582444Y-17734817D02*
X12601492Y-17725293D01*
X12601492Y-17725293D02*
X12649111Y-17725293D01*
X12649111Y-17725293D02*
X12668158Y-17715770D01*
X12734825Y-17668150D02*
X12811015Y-17668150D01*
X12763396Y-17601484D02*
X12763396Y-17772912D01*
X12763396Y-17772912D02*
X12772920Y-17791960D01*
X12772920Y-17791960D02*
X12791968Y-17801484D01*
X12791968Y-17801484D02*
X12811015Y-17801484D01*
X12953873Y-17791960D02*
X12934825Y-17801484D01*
X12934825Y-17801484D02*
X12896730Y-17801484D01*
X12896730Y-17801484D02*
X12877682Y-17791960D01*
X12877682Y-17791960D02*
X12868158Y-17772912D01*
X12868158Y-17772912D02*
X12868158Y-17696722D01*
X12868158Y-17696722D02*
X12877682Y-17677674D01*
X12877682Y-17677674D02*
X12896730Y-17668150D01*
X12896730Y-17668150D02*
X12934825Y-17668150D01*
X12934825Y-17668150D02*
X12953873Y-17677674D01*
X12953873Y-17677674D02*
X12963396Y-17696722D01*
X12963396Y-17696722D02*
X12963396Y-17715770D01*
X12963396Y-17715770D02*
X12868158Y-17734817D01*
X13134825Y-17801484D02*
X13134825Y-17601484D01*
X13134825Y-17791960D02*
X13115777Y-17801484D01*
X13115777Y-17801484D02*
X13077682Y-17801484D01*
X13077682Y-17801484D02*
X13058634Y-17791960D01*
X13058634Y-17791960D02*
X13049111Y-17782436D01*
X13049111Y-17782436D02*
X13039587Y-17763389D01*
X13039587Y-17763389D02*
X13039587Y-17706246D01*
X13039587Y-17706246D02*
X13049111Y-17687198D01*
X13049111Y-17687198D02*
X13058634Y-17677674D01*
X13058634Y-17677674D02*
X13077682Y-17668150D01*
X13077682Y-17668150D02*
X13115777Y-17668150D01*
X13115777Y-17668150D02*
X13134825Y-17677674D01*
X13211015Y-17877674D02*
X13220539Y-17868150D01*
X13220539Y-17868150D02*
X13239587Y-17839579D01*
X13239587Y-17839579D02*
X13249111Y-17820531D01*
X13249111Y-17820531D02*
X13258634Y-17791960D01*
X13258634Y-17791960D02*
X13268158Y-17744341D01*
X13268158Y-17744341D02*
X13268158Y-17706246D01*
X13268158Y-17706246D02*
X13258634Y-17658627D01*
X13258634Y-17658627D02*
X13249111Y-17630055D01*
X13249111Y-17630055D02*
X13239587Y-17611008D01*
X13239587Y-17611008D02*
X13220539Y-17582436D01*
X13220539Y-17582436D02*
X13211015Y-17572912D01*
M02*
